<svg width="275" height="225" viewBox="0 0 275 225" fill="none" xmlns="http://www.w3.org/2000/svg">
<g filter="url(#filter0_d_318_36795)">
<path d="M229.281 197.705C217.161 204.865 201.492 201.81 187.269 203.373C175.25 204.694 164.014 209.427 152.51 212.95C141.005 216.472 128.398 218.785 116.913 215.208C109.023 212.751 102.369 207.727 94.9439 204.218C85.984 199.984 76.0271 198.009 66.6769 194.599C57.3267 191.188 48.0955 185.844 43.7545 177.354C38.5345 167.144 41.5346 155.015 39.5615 143.842C37.3347 131.232 28.8667 120.344 25.3224 108.003C22.8184 99.2844 25.4165 88.9957 28.4425 80.5354C31.64 71.5956 40.5285 61.5518 49.0935 56.3498C51.8878 54.6527 54.6476 52.9525 57.2868 51.0326C58.4431 50.1913 64.5281 46.5115 64.5281 45.1793C71.3602 38.9963 75.4611 31.1116 81.3979 24.2644C87.5579 17.1599 96.5743 12.5568 106.031 10.2993C114.593 8.22717 123.353 7.08147 132.16 6.88183C141.619 6.73438 150.792 7.5614 159.918 4.50722C161.834 3.866 163.692 3.08125 165.603 2.42396C178.506 -2.01317 195.785 -0.0698025 207.847 5.90422C212.449 8.18378 216.3 11.578 220.012 15.0027C224.616 19.0604 228.641 23.7344 231.971 28.8928C235.019 33.8688 235.984 39.808 239.867 44.4786C242.475 47.6151 245.041 51.0606 247.626 54.0858C251.62 58.7605 257.771 61.007 261.569 66.101C265.392 71.2285 267.211 77.4893 268.469 83.5572C270.081 91.326 270.984 99.2904 270.12 107.164C268.738 119.761 261.686 129.126 254.478 139.377C252.076 142.792 249.662 146.327 248.741 150.326C248.371 152.244 248.145 154.187 248.063 156.138C247.619 161.824 246.094 167.062 244.947 172.572C242.93 182.249 238.519 192.248 229.281 197.705Z" fill="#EFF2FD"/>
<path d="M164.253 168.907C117.093 170.391 69.9342 171.875 22.775 173.36C15.1343 173.6 8.72688 167.142 8.51785 158.933C7.56986 117.511 7.5369 76.0986 8.41899 34.6954C8.61505 26.4865 15.0121 20.0178 22.6531 20.2461C69.8146 21.6552 116.976 23.0642 164.138 24.4732C167.809 24.5894 171.286 26.1557 173.808 28.83C176.33 31.5044 177.694 35.0697 177.601 38.7474C176.788 77.3794 176.818 116.001 177.693 154.611C177.792 158.288 176.434 161.856 173.916 164.534C171.398 167.213 167.924 168.785 164.253 168.907Z" fill="#243976"/>
<path d="M160.409 165.261C113.247 166.67 66.0858 168.079 18.9242 169.488C11.2831 169.716 4.8857 163.238 4.68947 155.017C3.80608 113.532 3.83907 72.0577 4.78846 30.5944C4.9978 22.3736 11.4054 15.9051 19.0462 16.1457C66.2054 17.63 113.365 19.1143 160.524 20.5986C164.198 20.7237 167.673 22.2995 170.191 24.9821C172.71 27.6646 174.066 31.236 173.964 34.9165C173.088 73.6087 173.057 112.291 173.872 150.964C173.968 154.645 172.606 158.214 170.083 160.893C167.561 163.571 164.083 165.142 160.409 165.261Z" fill="#864FF1"/>
<path d="M80.5501 18.0814L19.0469 16.1457C11.4061 15.9051 4.99848 22.3736 4.78915 30.5944C4.38529 48.0023 4.12224 65.4104 4 82.8187C8.72804 43.8411 42.6594 18.4663 80.5501 18.0814Z" fill="#9768F3"/>
<path d="M160.524 20.5987C147.864 20.2003 135.204 19.8018 122.544 19.4033C134.559 24.4132 145.046 32.504 152.948 42.8619C178.098 76.1995 138.578 113.871 109.663 126.265C77.0041 140.264 35.5494 142.55 4.13477 123.542C4.24747 134.034 4.43247 144.525 4.68975 155.017C4.88598 163.238 11.2834 169.716 18.9245 169.488C66.086 168.079 113.248 166.67 160.409 165.261C164.083 165.142 167.561 163.571 170.084 160.893C172.606 158.214 173.968 154.645 173.872 150.965C173.057 112.271 173.088 73.5885 173.964 34.9166C174.066 31.2361 172.71 27.6648 170.192 24.9822C167.674 22.2997 164.198 20.7238 160.524 20.5987Z" fill="#602A9F"/>
<path d="M157.868 160.925C112.314 162.201 66.7602 163.477 21.2065 164.753C14.9509 164.928 9.7248 159.626 9.56976 152.909C8.88077 119.388 8.77656 85.8724 9.25715 52.3604C62.3751 53.2591 115.493 54.1578 168.611 55.0564C168.161 86.4508 168.259 117.838 168.904 149.219C168.983 152.235 167.866 155.159 165.798 157.353C163.73 159.546 160.879 160.831 157.868 160.925Z" fill="white"/>
<path d="M122.298 47.3331C101.825 46.9275 81.3524 46.5218 60.8794 46.1161C60.0804 46.0799 59.2965 45.8862 58.5723 45.5462C57.8481 45.2062 57.198 44.7265 56.6591 44.1347C56.1202 43.5428 55.7031 42.8504 55.4316 42.0969C55.1601 41.3434 55.0396 40.5438 55.077 39.7436C55.0753 38.9426 55.2313 38.1491 55.5361 37.4085C55.8409 36.668 56.2884 35.9948 56.8532 35.4276C57.4179 34.8604 58.0888 34.4103 58.8274 34.103C59.566 33.7957 60.3578 33.6373 61.1576 33.6367C81.6282 34.1463 102.099 34.6559 122.57 35.1655C124.16 35.2231 125.662 35.9098 126.748 37.0751C127.833 38.2403 128.413 39.7891 128.36 41.3818C128.342 42.9753 127.694 44.4966 126.557 45.6122C125.421 46.7278 123.889 47.3467 122.298 47.3331Z" fill="white"/>
<path d="M168.21 36.3018C168.187 37.0371 167.948 37.7493 167.521 38.3484C167.095 38.9476 166.501 39.4068 165.814 39.6682C165.128 39.9296 164.379 39.9815 163.663 39.8173C162.947 39.653 162.296 39.2801 161.791 38.7454C161.287 38.2108 160.952 37.5384 160.828 36.8132C160.705 36.088 160.799 35.3424 161.098 34.6705C161.397 33.9987 161.888 33.4307 162.51 33.0381C163.131 32.6456 163.854 32.4462 164.589 32.4651C165.577 32.4938 166.513 32.9139 167.192 33.6333C167.87 34.3526 168.237 35.3123 168.21 36.3018Z" fill="white"/>
<path d="M155.739 35.9915C155.712 36.7259 155.47 37.4361 155.041 38.0327C154.612 38.6292 154.017 39.0854 153.33 39.3438C152.643 39.6023 151.896 39.6514 151.181 39.4849C150.466 39.3185 149.817 38.944 149.314 38.4086C148.811 37.8732 148.478 37.2008 148.356 36.4761C148.234 35.7514 148.329 35.0068 148.629 34.3361C148.929 33.6653 149.42 33.0984 150.041 32.7068C150.662 32.3151 151.385 32.1162 152.118 32.135C153.109 32.1664 154.046 32.5902 154.725 33.3132C155.404 34.0363 155.768 34.9995 155.739 35.9915Z" fill="white"/>
<path d="M142.881 35.6711C142.851 36.4045 142.605 37.1127 142.174 37.7065C141.743 38.3003 141.146 38.7534 140.459 39.0087C139.772 39.264 139.025 39.3103 138.311 39.1416C137.598 38.973 136.95 38.5969 136.45 38.0608C135.949 37.5246 135.618 36.8522 135.498 36.1281C135.377 35.404 135.474 34.6604 135.774 33.9908C136.074 33.3212 136.566 32.7555 137.186 32.3647C137.806 31.9738 138.528 31.7754 139.261 31.7942C140.254 31.8284 141.193 32.2559 141.872 32.9827C142.55 33.7096 142.913 34.6765 142.881 35.6711Z" fill="white"/>
<path d="M147.785 137.859L33.9135 139.926C33.5016 113.435 33.4443 86.9486 33.7417 60.4678C71.7016 60.9925 109.662 61.5171 147.621 62.0418C147.338 87.3207 147.392 112.593 147.785 137.859Z" fill="#FF6551"/>
<path d="M145.95 152.085C109.42 152.967 72.8904 153.849 36.3604 154.731C35.7769 154.728 35.2187 154.492 34.8085 154.076C34.3983 153.661 34.1697 153.099 34.1729 152.514C34.1426 151.931 34.3449 151.359 34.7354 150.924C35.126 150.49 35.6727 150.229 36.2554 150.198C72.7869 149.383 109.318 148.567 145.85 147.752C146.42 147.743 146.97 147.961 147.379 148.358C147.788 148.755 148.024 149.299 148.033 149.869C148.05 150.44 147.84 150.994 147.45 151.409C147.059 151.825 146.52 152.068 145.95 152.085Z" fill="#BFBFBF"/>
<path d="M36.255 150.198C35.6784 150.245 35.1415 150.511 34.7544 150.942C34.3672 151.373 34.1591 151.935 34.1725 152.514C34.1859 153.094 34.4199 153.646 34.8265 154.058C35.2332 154.47 35.7818 154.711 36.36 154.731C50.3532 154.394 64.3464 154.056 78.3395 153.718C78.2966 151.935 78.276 151.044 78.2363 149.261L36.255 150.198Z" fill="#2435A1"/>
<path d="M90.3745 122.87C84.7446 122.845 79.3545 120.584 75.3858 116.585C73.1982 114.439 71.459 111.878 70.2694 109.051C69.0799 106.225 68.4638 103.19 68.4571 100.123C68.4504 97.0558 69.0532 94.018 70.2303 91.1865C71.4075 88.355 73.1355 85.7865 75.3137 83.6305C77.2811 81.6302 79.624 80.0392 82.2076 78.9491C84.7913 77.859 87.5646 77.2914 90.3681 77.2788C90.4169 77.2788 90.4651 77.2788 90.5139 77.2798C102.381 77.3628 112.429 87.7807 112.456 100.027C112.482 112.274 102.479 122.734 90.6123 122.868C90.5334 122.869 90.4534 122.87 90.3745 122.87ZM90.3686 80.2399C87.9523 80.2536 85.5625 80.7457 83.3367 81.6878C81.1109 82.6299 79.093 84.0035 77.3992 85.7295C75.4979 87.6096 73.9893 89.85 72.9617 92.3201C71.934 94.7903 71.4077 97.4406 71.4136 100.117C71.4194 102.793 71.9573 105.441 72.9958 107.906C74.0342 110.372 75.5525 112.606 77.4621 114.477C80.8791 117.928 85.5228 119.882 90.3755 119.909C90.4432 119.909 90.511 119.908 90.5787 119.908C100.858 119.791 109.522 110.689 109.499 100.033C109.476 89.3769 100.772 80.3131 90.4934 80.2399H90.3686Z" fill="white"/>
<path d="M85.9355 92.4834C85.9292 99.0883 85.9373 102.391 85.9757 108.996C91.8014 105.976 94.7167 104.475 100.552 101.491C94.6987 97.91 91.7753 96.1083 85.9355 92.4834Z" fill="white"/>
<path d="M84.0432 151.356C84.0247 152.371 83.7085 153.359 83.1341 154.196C82.5597 155.032 81.7523 155.682 80.8124 156.062C79.8725 156.443 78.8415 156.539 77.8477 156.338C76.8539 156.137 75.941 155.647 75.2227 154.93C74.5044 154.214 74.0123 153.301 73.8076 152.307C73.603 151.312 73.6947 150.279 74.0715 149.336C74.4483 148.394 75.0935 147.583 75.9268 147.004C76.7602 146.426 77.745 146.105 78.7586 146.083C80.1569 146.083 81.4983 146.637 82.4889 147.626C83.4794 148.614 84.0384 149.956 84.0432 151.356Z" fill="#FF6551"/>
<path d="M81.4094 151.417C81.4003 151.915 81.2454 152.398 80.964 152.808C80.6826 153.218 80.2871 153.537 79.8266 153.723C79.3662 153.91 78.8611 153.957 78.3741 153.858C77.8872 153.76 77.4399 153.52 77.0879 153.169C76.7359 152.818 76.4946 152.371 76.3942 151.884C76.2937 151.397 76.3384 150.891 76.5228 150.429C76.7072 149.967 77.0231 149.569 77.4313 149.286C77.8394 149.002 78.3218 148.845 78.8184 148.833C79.5039 148.833 80.1616 149.104 80.6474 149.589C81.1331 150.073 81.4072 150.731 81.4094 151.417Z" fill="white"/>
<g style="mix-blend-mode:multiply" opacity="0.35">
<path d="M122.42 61.8726C120.974 61.8712 119.541 62.1561 118.204 62.7109C116.868 63.2657 115.654 64.0794 114.633 65.1054C113.611 66.1313 112.802 67.3493 112.251 68.6893C111.701 70.0293 111.421 71.465 111.426 72.914C111.214 105.466 111.577 138.007 112.514 170.535C129.761 169.992 147.007 169.45 164.253 168.907C167.924 168.785 171.398 167.213 173.917 164.534C176.435 161.856 177.793 158.288 177.694 154.611C176.998 123.945 176.817 93.283 177.153 62.6249C158.909 62.3742 140.665 62.1234 122.42 61.8726Z" fill="#3F4D88"/>
</g>
<path d="M259.625 190.517C216.889 189.845 174.153 189.172 131.418 188.5C128.534 188.452 125.787 187.26 123.78 185.186C121.772 183.112 120.667 180.325 120.708 177.437C121.142 140.414 121.154 103.393 120.746 66.3753C120.707 63.487 121.814 60.7011 123.823 58.6286C125.832 56.5561 128.579 55.3662 131.463 55.3196C174.199 54.6763 216.935 54.033 259.671 53.3896C261.124 53.3926 262.561 53.6824 263.901 54.2424C265.242 54.8025 266.459 55.6218 267.482 56.6534C268.506 57.6851 269.317 58.9088 269.868 60.2547C270.419 61.6005 270.699 63.0419 270.693 64.4964C271.115 102.806 271.102 141.114 270.654 179.418C270.659 180.872 270.378 182.314 269.826 183.659C269.274 185.004 268.462 186.228 267.438 187.259C266.414 188.29 265.196 189.108 263.855 189.667C262.515 190.226 261.077 190.515 259.625 190.517Z" fill="#243976"/>
<path d="M256.742 187.444C214.005 186.8 171.269 186.157 128.533 185.514C125.651 185.468 122.903 184.28 120.894 182.208C118.885 180.137 117.778 177.353 117.816 174.465C118.224 137.467 118.212 100.472 117.778 63.4789C117.739 60.5916 118.844 57.8063 120.851 55.7338C122.859 53.6614 125.605 52.4709 128.488 52.4234C171.224 51.751 213.959 51.0786 256.695 50.4062C258.147 50.4077 259.584 50.6959 260.925 51.2544C262.265 51.8129 263.482 52.6307 264.507 53.661C265.531 54.6913 266.343 55.9138 266.895 57.2586C267.447 58.6034 267.729 60.0441 267.724 61.4981C268.172 99.7826 268.185 138.065 267.763 176.344C267.769 177.798 267.488 179.239 266.937 180.584C266.385 181.929 265.575 183.152 264.551 184.183C263.527 185.214 262.311 186.033 260.97 186.592C259.63 187.152 258.193 187.441 256.742 187.444Z" fill="#49B3F7"/>
<path d="M256.694 50.4062L229.046 50.8413C242.869 54.9651 252.785 67.3031 255.055 80.5157C260.592 112.749 198.007 150.317 171.883 156.718C154.567 160.961 135.116 163.569 118.001 156.655C117.942 163.779 117.905 167.341 117.815 174.465C117.778 177.353 118.885 180.137 120.894 182.208C122.903 184.28 125.65 185.468 128.533 185.514C171.269 186.157 214.005 186.8 256.741 187.444C258.193 187.441 259.63 187.152 260.97 186.592C262.31 186.033 263.527 185.214 264.55 184.183C265.574 183.152 266.385 181.929 266.936 180.584C267.487 179.239 267.768 177.798 267.763 176.344C268.185 138.059 268.172 99.7773 267.724 61.4981C267.728 60.0441 267.446 58.6034 266.894 57.2586C266.342 55.9138 265.531 54.6913 264.506 53.661C263.482 52.6308 262.264 51.813 260.924 51.2545C259.584 50.696 258.146 50.4077 256.694 50.4062Z" fill="#378FDD"/>
<path d="M213.99 51.0781C185.489 51.5265 156.989 51.9749 128.488 52.4233C125.605 52.4708 122.859 53.6613 120.851 55.7337C118.844 57.8062 117.739 60.5914 117.778 63.4788C117.986 80.9914 118.11 98.504 118.151 116.016C136.484 80.3338 176.828 60.4982 213.99 51.0781Z" fill="#6CC1F9"/>
<path d="M254.896 183.874C213.424 183.283 171.952 182.691 130.48 182.1C128.119 182.064 125.869 181.091 124.224 179.396C122.578 177.7 121.671 175.419 121.702 173.055C122.039 141.801 122.081 110.548 121.826 79.2962C169.231 78.8444 216.637 78.3924 264.042 77.9404C264.304 110.225 264.261 142.508 263.913 174.788C263.918 175.978 263.688 177.157 263.237 178.258C262.786 179.359 262.123 180.36 261.286 181.204C260.448 182.048 259.453 182.718 258.356 183.176C257.26 183.634 256.084 183.871 254.896 183.874Z" fill="white"/>
<path d="M261.225 62.4895C261.213 63.0855 261.027 63.665 260.689 64.1556C260.351 64.6462 259.876 65.0263 259.324 65.2483C258.771 65.4704 258.166 65.5246 257.583 65.4043C257 65.2839 256.465 64.9943 256.046 64.5716C255.626 64.1489 255.34 63.6117 255.223 63.0272C255.106 62.4427 255.164 61.8366 255.389 61.2847C255.614 60.7327 255.996 60.2593 256.488 59.9236C256.979 59.5878 257.559 59.4045 258.154 59.3965C258.559 59.3976 258.959 59.4785 259.332 59.6345C259.705 59.7906 260.044 60.0187 260.329 60.306C260.614 60.5932 260.84 60.9338 260.994 61.3085C261.147 61.6831 261.226 62.0844 261.225 62.4895Z" fill="white"/>
<path d="M251.062 62.622C251.052 63.2183 250.867 63.7984 250.53 64.2899C250.193 64.7814 249.718 65.1625 249.166 65.3856C248.614 65.6087 248.008 65.664 247.425 65.5444C246.841 65.4248 246.306 65.1358 245.886 64.7133C245.466 64.2909 245.179 63.7538 245.061 63.1691C244.944 62.5844 245.001 61.9781 245.226 61.4258C245.451 60.8735 245.833 60.3997 246.325 60.0636C246.817 59.7276 247.396 59.5441 247.992 59.5361C248.396 59.5368 248.796 59.6171 249.169 59.7725C249.542 59.928 249.88 60.1555 250.165 60.442C250.45 60.7286 250.676 61.0686 250.83 61.4426C250.984 61.8167 251.063 62.2174 251.062 62.622Z" fill="white"/>
<path d="M240.585 62.7582C240.577 63.3548 240.393 63.9356 240.056 64.428C239.72 64.9204 239.246 65.3026 238.694 65.5268C238.142 65.751 237.536 65.8072 236.952 65.6884C236.369 65.5697 235.833 65.2812 235.412 64.8591C234.991 64.4369 234.703 63.8999 234.585 63.3151C234.467 62.7302 234.524 62.1236 234.749 61.5709C234.973 61.0182 235.355 60.544 235.847 60.2077C236.339 59.8713 236.919 59.6877 237.515 59.6797C237.919 59.6798 238.318 59.7596 238.691 59.9144C239.063 60.0692 239.402 60.296 239.687 60.5819C239.972 60.8678 240.198 61.2071 240.352 61.5805C240.507 61.954 240.586 62.3541 240.585 62.7582Z" fill="white"/>
<path d="M221.203 72.929L163.038 73.5548C161.749 73.5622 160.51 73.057 159.593 72.1503C158.676 71.2435 158.156 70.0093 158.147 68.7187C158.126 67.4283 158.616 66.1821 159.511 65.2538C160.407 64.3255 161.633 63.791 162.922 63.7678L221.085 63.0112C221.728 63.0108 222.365 63.1372 222.959 63.3833C223.553 63.6294 224.093 63.9904 224.547 64.4455C225.002 64.9007 225.363 65.4412 225.609 66.0361C225.855 66.631 225.982 67.2686 225.982 67.9125C225.997 68.5563 225.886 69.1968 225.654 69.7974C225.422 70.3979 225.074 70.9469 224.63 71.4127C224.186 71.8786 223.655 72.2523 223.067 72.5125C222.479 72.7727 221.845 72.9142 221.203 72.929Z" fill="white"/>
<path d="M143.528 109.299C142.365 109.294 141.25 108.829 140.428 108.005C139.607 107.181 139.144 106.065 139.141 104.9C139.127 100.93 139.117 98.9463 139.094 94.9768C139.086 93.8098 139.54 92.6873 140.357 91.8552C141.174 91.023 142.287 90.5492 143.452 90.5376L153.31 90.4702H153.34C153.913 90.4691 154.48 90.5814 155.009 90.8007C155.538 91.0201 156.018 91.3421 156.423 91.7482C156.834 92.157 157.16 92.643 157.384 93.1784C157.607 93.7138 157.723 94.2881 157.724 94.8684C157.747 98.8536 157.757 100.847 157.771 104.832C157.775 105.416 157.664 105.994 157.443 106.534C157.222 107.074 156.897 107.565 156.485 107.978C156.081 108.387 155.601 108.712 155.071 108.934C154.541 109.157 153.973 109.271 153.399 109.272L143.54 109.299H143.528ZM153.34 91.8927H153.32L143.461 91.9591C142.672 91.9681 141.919 92.29 141.367 92.8542C140.814 93.4183 140.508 94.1788 140.514 94.9689C140.537 98.9385 140.547 100.924 140.561 104.894C140.562 105.683 140.874 106.439 141.43 106.998C141.986 107.557 142.74 107.872 143.528 107.876L143.536 107.875L153.395 107.848C153.783 107.848 154.167 107.771 154.524 107.621C154.882 107.471 155.206 107.252 155.478 106.975C155.757 106.695 155.978 106.361 156.128 105.994C156.278 105.628 156.354 105.235 156.351 104.838C156.337 100.853 156.327 98.8614 156.304 94.8762C156.303 94.4821 156.225 94.0919 156.073 93.7282C155.921 93.3645 155.699 93.0344 155.42 92.7567C155.147 92.4823 154.823 92.2647 154.466 92.1164C154.109 91.9681 153.726 91.8921 153.34 91.8927Z" fill="#FF6551"/>
<path d="M173.433 109.217C172.266 109.209 171.15 108.739 170.328 107.91C169.506 107.081 169.045 105.961 169.045 104.792C169.031 100.795 169.022 98.7979 168.998 94.801C168.987 93.6307 169.439 92.5036 170.256 91.6668C171.073 90.8299 172.188 90.3515 173.356 90.3364L183.214 90.269C184.379 90.2807 185.495 90.7419 186.328 91.5568C187.159 92.3887 187.626 93.5162 187.629 94.6926C187.652 98.7051 187.661 100.712 187.676 104.725C187.685 105.901 187.228 107.033 186.405 107.873C186.002 108.289 185.52 108.62 184.988 108.846C184.455 109.072 183.882 109.189 183.304 109.19L173.445 109.217H173.433ZM183.244 91.6915H183.224L173.366 91.7589C172.574 91.771 171.819 92.0972 171.266 92.666C170.714 93.2348 170.409 93.9997 170.419 94.7931C170.442 98.7901 170.451 100.789 170.465 104.786C170.463 105.579 170.774 106.339 171.33 106.903C171.886 107.466 172.642 107.787 173.433 107.794L173.441 107.793L183.3 107.767C183.69 107.766 184.076 107.688 184.435 107.535C184.794 107.382 185.119 107.159 185.39 106.879C185.951 106.305 186.262 105.533 186.256 104.731C186.241 100.718 186.232 98.7129 186.208 94.7004C186.207 93.8982 185.889 93.1291 185.323 92.5613C185.051 92.2855 184.727 92.0666 184.371 91.9172C184.014 91.7679 183.631 91.6912 183.244 91.6915Z" fill="#FF6551"/>
<path d="M203.337 109.136C202.167 109.125 201.049 108.651 200.226 107.817C199.404 106.983 198.945 105.857 198.948 104.685C198.934 100.661 198.924 98.6494 198.901 94.6252C198.886 93.4516 199.337 92.32 200.153 91.4784C200.97 90.6368 202.087 90.1538 203.258 90.1352L213.116 90.0679H213.146C213.721 90.0672 214.29 90.1816 214.82 90.4042C215.35 90.6268 215.83 90.9533 216.232 91.3644C217.063 92.2031 217.529 93.3358 217.531 94.5168C217.555 98.5567 217.564 100.578 217.578 104.617C217.588 105.799 217.132 106.936 216.31 107.783C215.908 108.201 215.426 108.534 214.893 108.762C214.36 108.989 213.786 109.107 213.207 109.108L203.348 109.136L203.337 109.136ZM213.146 91.4903H213.126L203.268 91.5577C202.473 91.5734 201.716 91.9042 201.163 92.4777C200.611 93.0512 200.308 93.8206 200.321 94.6174C200.344 98.6416 200.354 100.655 200.368 104.679C200.363 105.475 200.672 106.24 201.228 106.809C201.785 107.377 202.543 107.702 203.337 107.712H203.345L213.203 107.685C213.593 107.684 213.979 107.605 214.338 107.451C214.697 107.297 215.021 107.073 215.292 106.791C215.854 106.21 216.165 105.432 216.158 104.623C216.144 100.583 216.134 98.5645 216.111 94.5246C216.11 93.7158 215.791 92.9399 215.223 92.365C214.953 92.0881 214.63 91.868 214.273 91.7178C213.916 91.5676 213.533 91.4903 213.146 91.4903Z" fill="#FF6551"/>
<path d="M233.24 109.054C232.067 109.039 230.947 108.56 230.125 107.721C229.303 106.883 228.846 105.753 228.853 104.577C228.838 100.526 228.829 98.501 228.805 94.4494C228.787 93.2723 229.236 92.136 230.053 91.2894C230.869 90.4427 231.988 89.9547 233.163 89.9321L243.021 89.8667L243.051 89.8657C243.626 89.8656 244.196 89.9811 244.727 90.2055C245.257 90.4298 245.737 90.7585 246.139 91.172C246.969 92.0175 247.434 93.1553 247.436 94.341C247.46 98.4082 247.469 100.443 247.483 104.51C247.489 105.108 247.375 105.702 247.15 106.256C246.925 106.81 246.592 107.314 246.17 107.739C245.771 108.145 245.295 108.468 244.769 108.689C244.244 108.91 243.68 109.025 243.111 109.026L233.253 109.054L233.24 109.054ZM243.05 91.2882H243.031L233.173 91.3546C232.374 91.3743 231.615 91.7101 231.063 92.2886C230.51 92.8672 230.209 93.6413 230.225 94.4416C230.249 98.4932 230.259 100.52 230.273 104.572C230.264 105.371 230.571 106.141 231.127 106.714C231.683 107.287 232.443 107.617 233.24 107.631L233.249 107.63L243.108 107.603C243.491 107.602 243.869 107.525 244.222 107.376C244.575 107.227 244.895 107.009 245.163 106.735C245.452 106.443 245.681 106.097 245.835 105.716C245.99 105.335 246.067 104.927 246.063 104.516C246.049 100.449 246.039 98.416 246.015 94.3488C246.015 93.5339 245.696 92.7515 245.126 92.1698C244.856 91.8911 244.534 91.6694 244.177 91.518C243.821 91.3665 243.437 91.2884 243.05 91.2882Z" fill="#FF6551"/>
<path d="M148.098 106.699L146.943 105.544C142.917 101.513 140.901 99.5027 136.865 95.4892L138.866 93.4702C142.5 97.0835 144.498 99.0751 147.796 102.376C151.75 97.1274 154.024 94.0931 158.249 88.4307L160.525 90.1333C155.958 96.2536 153.668 99.3065 149.081 105.395L148.098 106.699Z" fill="#2435A1"/>
<path d="M139.851 136.47L139.84 139.315L246.762 139.746L246.774 136.9L139.851 136.47Z" fill="#BFBFBF"/>
<path d="M139.796 147.484L139.777 150.33L246.699 151.033L246.718 148.187L139.796 147.484Z" fill="#BFBFBF"/>
<path d="M139.713 158.5L139.688 161.345L246.607 162.319L246.633 159.473L139.713 158.5Z" fill="#BFBFBF"/>
<path d="M139.603 169.514L139.57 172.36L246.487 173.603L246.52 170.758L139.603 169.514Z" fill="#BFBFBF"/>
<path d="M145.627 123.776C145.181 125.251 144.958 125.988 144.511 127.463C143.538 127.461 143.051 127.46 142.078 127.459C143.742 122.259 144.57 119.657 146.218 114.447C147.421 114.445 148.023 114.445 149.226 114.443C150.912 119.652 151.751 122.258 153.421 127.477C152.402 127.476 151.892 127.475 150.873 127.473C150.407 125.995 150.175 125.256 149.708 123.779C148.076 123.778 147.259 123.777 145.627 123.776ZM149.326 121.981C148.92 120.698 148.717 120.056 148.31 118.773C148.061 117.981 147.85 117.092 147.657 116.338L147.619 116.338C147.428 117.092 147.218 118 147.008 118.773C146.61 120.056 146.41 120.698 146.011 121.98L149.326 121.981Z" fill="#49B3F7"/>
<path d="M181.877 114.397C181.878 115.184 181.878 115.577 181.879 116.364C179.625 116.366 178.499 116.367 176.246 116.369C176.247 117.497 176.247 118.061 176.247 119.189C176.775 119.126 177.306 119.093 177.838 119.092C179.073 119.066 180.288 119.411 181.325 120.083C181.83 120.44 182.239 120.917 182.513 121.471C182.787 122.026 182.919 122.64 182.895 123.258C182.917 123.801 182.824 124.341 182.622 124.844C182.42 125.348 182.114 125.803 181.724 126.179C180.312 127.248 178.563 127.771 176.797 127.651C175.83 127.653 174.864 127.593 173.904 127.471C173.913 122.246 173.913 119.634 173.906 114.408L181.877 114.397ZM176.244 125.763C176.657 125.823 177.073 125.85 177.49 125.843C178.321 125.876 179.132 125.583 179.751 125.028C179.971 124.801 180.143 124.533 180.258 124.239C180.374 123.945 180.43 123.631 180.423 123.315C180.436 122.969 180.365 122.625 180.214 122.313C180.064 122.001 179.84 121.73 179.562 121.524C178.931 121.093 178.179 120.875 177.416 120.901C177.052 120.901 176.631 120.94 176.247 120.978C176.247 122.892 176.247 123.849 176.244 125.763Z" fill="#49B3F7"/>
<path d="M203.818 114.563C204.956 114.359 206.11 114.259 207.267 114.264C208.549 114.169 209.831 114.461 210.946 115.103C211.363 115.369 211.705 115.737 211.94 116.173C212.175 116.608 212.296 117.096 212.29 117.591C212.277 118.231 212.062 118.85 211.677 119.36C211.292 119.871 210.756 120.247 210.145 120.434V120.493C210.887 120.654 211.55 121.065 212.025 121.658C212.499 122.251 212.755 122.989 212.75 123.749C212.757 124.268 212.65 124.783 212.438 125.257C212.226 125.731 211.913 126.153 211.521 126.493C210.607 127.296 209.085 127.705 206.709 127.701C205.742 127.702 204.776 127.642 203.816 127.52C203.825 122.337 203.825 119.746 203.818 114.563ZM206.16 119.769L207.367 119.769C209.015 119.769 209.915 118.985 209.915 117.867C209.914 116.613 208.994 116.045 207.499 116.047C207.049 116.032 206.6 116.065 206.158 116.146C206.159 117.595 206.159 118.32 206.16 119.769V119.769ZM206.156 125.82C206.569 125.876 206.986 125.896 207.402 125.881C208.915 125.882 210.277 125.316 210.278 123.688C210.279 122.14 208.957 121.512 207.328 121.512L206.159 121.511C206.159 123.235 206.158 124.097 206.156 125.82V125.82Z" fill="#49B3F7"/>
<path d="M243.062 114.313C243.063 115.111 243.064 115.51 243.065 116.308C241.057 116.309 240.053 116.31 238.045 116.312C238.049 120.833 238.048 123.094 238.041 127.614L235.684 127.61C235.692 122.296 235.692 119.638 235.685 114.324C238.636 114.32 240.111 114.318 243.062 114.313Z" fill="#49B3F7"/>
</g>
<defs>
<filter id="filter0_d_318_36795" x="0" y="0" width="275" height="225" filterUnits="userSpaceOnUse" color-interpolation-filters="sRGB">
<feFlood flood-opacity="0" result="BackgroundImageFix"/>
<feColorMatrix in="SourceAlpha" type="matrix" values="0 0 0 0 0 0 0 0 0 0 0 0 0 0 0 0 0 0 127 0" result="hardAlpha"/>
<feOffset dy="4"/>
<feGaussianBlur stdDeviation="2"/>
<feComposite in2="hardAlpha" operator="out"/>
<feColorMatrix type="matrix" values="0 0 0 0 0 0 0 0 0 0 0 0 0 0 0 0 0 0 0.25 0"/>
<feBlend mode="normal" in2="BackgroundImageFix" result="effect1_dropShadow_318_36795"/>
<feBlend mode="normal" in="SourceGraphic" in2="effect1_dropShadow_318_36795" result="shape"/>
</filter>
</defs>
</svg>
