<svg width="57" height="54" viewBox="0 0 57 54" fill="none" xmlns="http://www.w3.org/2000/svg">
<path d="M0.652344 27C0.652344 12.0883 12.7407 0 27.6523 0H56.6523V54H27.6523C12.7407 54 0.652344 41.9117 0.652344 27Z" fill="#F8F8F8"/>
<g clip-path="url(#clip0_77_309)">
<path d="M22.2723 25.79C23.7123 28.62 26.0323 30.93 28.8623 32.38L31.0623 30.18C31.3323 29.91 31.7323 29.82 32.0823 29.94C33.2023 30.31 34.4123 30.51 35.6523 30.51C36.2023 30.51 36.6523 30.96 36.6523 31.51V35C36.6523 35.55 36.2023 36 35.6523 36C26.2623 36 18.6523 28.39 18.6523 19C18.6523 18.45 19.1023 18 19.6523 18H23.1523C23.7023 18 24.1523 18.45 24.1523 19C24.1523 20.25 24.3523 21.45 24.7223 22.57C24.8323 22.92 24.7523 23.31 24.4723 23.59L22.2723 25.79Z" fill="#323232"/>
</g>
<defs>
<clipPath id="clip0_77_309">
<rect width="24" height="24" fill="white" transform="translate(15.6523 15)"/>
</clipPath>
</defs>
</svg>
