<svg width="57" height="54" viewBox="0 0 57 54" fill="none" xmlns="http://www.w3.org/2000/svg">
<path d="M0.191406 27C0.191406 12.0883 12.2797 0 27.1914 0H56.1914V54H27.1914C12.2797 54 0.191406 41.9117 0.191406 27Z" fill="#F8F8F8"/>
<g clip-path="url(#clip0_77_310)">
<path d="M27.1914 27C29.4014 27 31.1914 25.21 31.1914 23C31.1914 20.79 29.4014 19 27.1914 19C24.9814 19 23.1914 20.79 23.1914 23C23.1914 25.21 24.9814 27 27.1914 27ZM27.1914 29C24.5214 29 19.1914 30.34 19.1914 33V35H35.1914V33C35.1914 30.34 29.8614 29 27.1914 29Z" fill="#323232"/>
</g>
<defs>
<clipPath id="clip0_77_310">
<rect width="24" height="24" fill="white" transform="translate(15.1914 15)"/>
</clipPath>
</defs>
</svg>
