<svg width="57" height="54" viewBox="0 0 57 54" fill="none" xmlns="http://www.w3.org/2000/svg">
<path d="M0.1875 27C0.1875 12.0883 12.2758 0 27.1875 0H56.1875V54H27.1875C12.2758 54 0.1875 41.9117 0.1875 27Z" fill="#F8F8F8"/>
<g clip-path="url(#clip0_77_308)">
<path d="M19.1875 23H23.1875V19H19.1875V23ZM25.1875 35H29.1875V31H25.1875V35ZM19.1875 35H23.1875V31H19.1875V35ZM19.1875 29H23.1875V25H19.1875V29ZM25.1875 29H29.1875V25H25.1875V29ZM31.1875 19V23H35.1875V19H31.1875ZM25.1875 23H29.1875V19H25.1875V23ZM31.1875 29H35.1875V25H31.1875V29ZM31.1875 35H35.1875V31H31.1875V35Z" fill="#323232"/>
</g>
<defs>
<clipPath id="clip0_77_308">
<rect width="24" height="24" fill="white" transform="translate(15.1875 15)"/>
</clipPath>
</defs>
</svg>
