<svg width="152" height="173" viewBox="0 0 152 173" fill="none" xmlns="http://www.w3.org/2000/svg">
<rect x="3" width="149" height="149" rx="74.5" fill="#EFF2FD"/>
<g clip-path="url(#clip0_13_688)">
<path d="M138.011 57.1205C137.523 52.7871 136.861 48.4051 136.048 44.2759C135.637 42.1925 135.308 40.1733 134.709 38.2575C134.131 36.4075 133.624 34.4902 132.931 32.9106C132.896 32.8819 132.863 32.8192 132.835 32.7788C131.542 30.9285 130.097 27.653 126.767 27.8389C124.359 27.9728 122.598 30.7599 121.502 32.8685C120.798 34.2216 120.273 35.6293 119.814 37.0622C119.909 37.0951 120.022 37.1094 120.162 37.0906C122.145 39.8945 123.235 44.2732 124.089 48.5877C125.697 56.7203 126.208 65.2581 126.767 74.2756C127.576 87.3837 128.868 102.118 127.214 115.141C125.77 126.496 125.274 132.002 113.744 138.723C123.174 139.946 133.455 135.427 135.957 125.562C136.967 121.583 137.72 117.241 138.189 112.985C139.176 104.004 139.706 94.8388 139.706 84.9611C139.705 75.3 139.008 65.9777 138.011 57.1205Z" fill="#4D3D87"/>
<path d="M126.767 27.8386C130.096 27.6527 131.541 30.9282 132.834 32.7785C132.863 32.8192 132.896 32.8816 132.931 32.9103C132.959 32.9345 132.987 32.9339 133.013 32.8679C131.506 29.3313 130.451 26.8477 128.373 24.5145C126.832 22.7869 124.74 21.3564 122.369 20.5944C121.875 20.4357 120.478 21.3286 119.962 21.2312C119.304 21.1072 119.522 20.0129 118.838 20.0013C117.436 19.977 115.988 20.2042 114.541 20.742C110.664 22.1833 107.104 25.921 105.349 30.1737C104.464 32.3228 103.741 34.6922 103.119 37.2696C102.476 39.9304 101.778 42.7708 102.048 45.5328C102.335 48.4891 103.995 50.4175 105.795 52.0903C106.964 53.1751 108.346 54.5063 110.347 54.5159C114.001 54.5326 115.462 51.0181 116.415 48.2283C117.28 45.6993 118.065 43.0798 118.824 40.4136C119.145 39.2894 119.46 38.1688 119.815 37.062C120.273 35.6291 120.798 34.221 121.502 32.8682C122.597 30.7597 124.359 27.9725 126.767 27.8386Z" fill="#8F7ECE"/>
<path d="M112.666 34.1258C113.804 31.1169 115.271 28.2811 117.216 25.6819C118.608 23.8249 120.431 22.4225 122.124 20.8316C122.19 20.7703 122.271 20.6887 122.36 20.5922C121.229 20.23 120.035 20.0209 118.809 20.0029C117.418 20.8749 116.232 21.98 115.165 23.0773C110.112 28.2718 107.617 34.4247 105.885 42.6589C105.323 45.3247 104.867 47.505 105.081 50.6531C105.098 50.9092 105.128 51.1952 105.171 51.4913C105.377 51.6946 105.585 51.8945 105.794 52.0902C106.279 52.5402 106.802 53.0321 107.389 53.4549C107.534 53.0644 107.639 52.5755 107.758 52.0902C109.288 45.8841 110.659 39.4309 112.666 34.1258Z" fill="#EFAD1B"/>
<path fill-rule="evenodd" clip-rule="evenodd" d="M127.117 32.4046C127.716 31.8646 128.629 32.6598 129.08 33.2126C129.618 33.8745 130.175 35.0716 130.508 36.087C130.902 37.2952 131.265 38.6286 131.131 39.6801C131.049 40.3423 130.604 40.822 130.24 40.8474C129.151 40.9241 128.303 37.8579 128.008 37.0749C127.43 35.5312 126.762 34.0072 127.117 32.4046Z" fill="white"/>
<path fill-rule="evenodd" clip-rule="evenodd" d="M131.398 44.8898C132.899 44.1968 133.671 49.1834 132.29 49.1111C131.524 49.0713 130.39 45.3551 131.398 44.8898Z" fill="white"/>
<path d="M20.7769 57.1207C21.2658 52.7874 21.9264 48.4054 22.741 44.2762C23.1501 42.1927 23.4811 40.1736 24.0787 38.2578C24.6565 36.4077 25.1644 34.4904 25.8576 32.9108C25.8909 32.8822 25.9253 32.8194 25.9541 32.7791C27.2446 30.9287 28.6919 27.6533 32.0216 27.8391C34.4296 27.973 36.1894 30.7602 37.2858 32.8687C37.9894 34.2218 38.5158 35.6296 38.9741 37.0625C38.8776 37.0953 38.7654 37.1097 38.625 37.0908C36.6419 39.8947 35.5518 44.2735 34.6977 48.588C33.0889 56.7206 32.578 65.2584 32.0216 74.2758C31.2109 87.3839 29.92 102.118 31.5751 115.141C33.0167 126.497 33.5134 132.003 45.0426 138.723C35.6135 139.946 25.3339 135.427 22.8295 125.562C21.8204 121.584 21.0666 117.241 20.5997 112.985C19.6128 104.004 19.082 94.8391 19.082 84.9613C19.0817 75.3002 19.7779 65.978 20.7769 57.1207Z" fill="#4D3D87"/>
<path d="M32.0213 27.8387C28.6916 27.6528 27.2443 30.9283 25.9538 32.7786C25.925 32.8193 25.8909 32.8817 25.8573 32.9104C25.8276 32.9346 25.7994 32.934 25.7754 32.868C27.2817 29.3314 28.3353 26.8478 30.4141 24.5145C31.9492 22.793 34.0318 21.3664 36.3919 20.6026C36.9403 20.4251 38.5161 20.9519 39.0908 20.8506C39.6953 20.7439 39.3001 20.0136 39.9265 20.0016C41.3361 19.9747 42.7908 20.2013 44.2458 20.7421C48.1238 22.1834 51.6837 25.9211 53.4373 30.1738C54.3241 32.3229 55.0461 34.6923 55.6692 37.2697C56.3099 39.9305 57.0084 42.7709 56.7383 45.5329C56.4512 48.4892 54.7917 50.4176 52.9908 52.0904C51.8247 53.1752 50.4421 54.5064 48.4409 54.516C44.7861 54.5327 43.326 51.0182 42.3719 48.2283C41.508 45.6994 40.723 43.0798 39.9636 40.4137C39.6424 39.2895 39.3265 38.1689 38.9736 37.062C38.5152 35.6292 37.9888 34.2211 37.2852 32.8683C36.1895 30.7598 34.4296 27.9726 32.0213 27.8387Z" fill="#8F7ECE"/>
<path d="M46.121 34.1261C44.9831 31.1172 43.5147 28.2813 41.5696 25.6821C40.1782 23.8252 38.3553 22.4231 36.6608 20.8318C36.597 20.7706 36.5159 20.689 36.4277 20.5925C37.5568 20.2303 38.7508 20.0211 39.9769 20.0032C41.3668 20.8752 42.5552 21.9802 43.621 23.0775C48.6735 28.272 51.1706 34.4249 52.9013 42.6591C53.463 45.325 53.9187 47.5052 53.7062 50.6534C53.6881 50.9095 53.6575 51.1955 53.6144 51.4916C53.4093 51.6948 53.203 51.8947 52.991 52.0904C52.5059 52.5405 51.9852 53.0324 51.3968 53.4552C51.254 53.0646 51.1477 52.5757 51.0278 52.0904C49.4974 45.8844 48.127 39.4312 46.121 34.1261Z" fill="#EFAD1B"/>
<path fill-rule="evenodd" clip-rule="evenodd" d="M31.6687 32.4048C31.0682 31.8648 30.1556 32.66 29.7046 33.2128C29.167 33.8747 28.6098 35.0718 28.2773 36.0873C27.8824 37.2954 27.5196 38.6288 27.6532 39.6804C27.7366 40.3426 28.1817 40.8222 28.5459 40.8476C29.6346 40.9244 30.4818 37.8581 30.7758 37.0752C31.3558 35.5314 32.0232 34.0074 31.6687 32.4048Z" fill="white"/>
<path fill-rule="evenodd" clip-rule="evenodd" d="M27.3862 44.8901C25.8852 44.1971 25.114 49.1836 26.4935 49.1113C27.2601 49.0716 28.3935 45.3553 27.3862 44.8901Z" fill="white"/>
<path fill-rule="evenodd" clip-rule="evenodd" d="M98.8119 45.7312C98.6875 46.0124 94.7874 44.4378 93.6462 44.4331C93.659 42.7241 93.7403 37.7438 93.6326 36.1669C93.537 34.7558 93.4108 33.1858 92.6829 32.554C91.8288 31.813 88.9589 31.7096 86.982 31.5972C82.4831 31.3411 78.7728 31.2789 73.9981 31.2789C71.7351 31.2789 69.3366 31.3175 68.191 32.0224C66.3545 33.1538 65.7616 40.842 64.9135 43.0486C63.0853 43.0486 61.3073 42.996 59.6356 42.8361C59.5679 38.9642 60.7305 32.1402 62.0682 29.8972C63.7491 27.0828 66.6977 26.0175 71.1188 25.6947C71.3696 25.6765 71.6255 27.1545 71.8859 27.1408C73.812 27.0392 76.5323 27.1716 79.1697 27.3532C83.1374 27.6258 87.6532 25.8824 91.3799 26.5043C93.8318 26.9134 95.9417 27.6996 97.329 29.2595C99.4754 31.6749 99.394 41.4032 98.8119 45.7312Z" fill="#4D3D87"/>
<path fill-rule="evenodd" clip-rule="evenodd" d="M72.0967 28.8355C72.8338 29.4018 74.7692 29.4425 76.4254 29.3666C79.8282 29.2106 82.7328 29.2599 86.0323 29.2599C87.7274 29.2599 89.7227 29.3743 90.4652 28.8352C91.0406 28.4169 91.2754 27.4311 91.3101 26.4945C87.5971 25.8864 83.1125 26.1303 79.1691 25.8595C76.5317 25.6781 73.8114 25.5454 71.8853 25.6471C71.6172 25.6611 71.3539 25.6787 71.0956 25.6979C71.0125 26.7482 71.3777 28.2815 72.0967 28.8355Z" fill="#8F7ECE"/>
<path fill-rule="evenodd" clip-rule="evenodd" d="M79.2792 35.322C87.228 34.941 94.6552 36.0619 100.708 37.8749C102.22 38.3274 103.662 38.9172 105.061 39.534C106.446 40.1439 107.81 40.7831 109.077 41.4913C111.652 42.9293 113.749 44.9028 115.461 47.1075C116.35 48.255 117.174 49.4124 117.869 50.7236C119.922 54.6039 121.318 59.2839 122.138 64.4655C123.218 71.2884 123.471 79.5997 123.154 87.1789C122.995 90.9402 122.594 94.6373 122.265 98.3261C121.941 101.969 121.557 105.64 121.25 109.346C120.628 116.87 120.492 124.683 119.094 131.257C118.737 132.941 118.269 134.449 117.616 135.809C116.957 137.18 116.244 138.421 115.248 139.426C114.219 140.464 113.003 141.164 111.529 141.724C110.798 142.001 110.089 142.298 109.288 142.489C108.496 142.678 107.664 142.799 106.753 142.914C101.569 143.571 95.6786 143.851 89.7188 143.851C87.7775 143.851 85.847 144.021 83.9285 144.021C81.9858 144.021 79.9953 144.063 77.9688 143.977C76.0382 143.896 74.0536 143.851 72.0927 143.851C68.1761 143.851 64.276 143.647 60.6396 143.34C58.731 143.178 56.9174 143.023 55.2282 142.744C53.5398 142.465 51.9827 141.957 50.6646 141.341C47.8891 140.042 46.3311 137.689 45.1688 134.83C44.0012 131.959 43.5503 128.472 43.1409 124.832C42.9375 123.036 42.7066 121.197 42.5911 119.344C42.4711 117.444 42.4035 115.54 42.2942 113.643C42.0846 109.994 41.6399 106.212 41.3225 102.581C40.662 95.0139 39.886 88.0153 39.8848 80.0318C39.8848 76.1315 40.1309 72.2638 40.5195 68.6354C40.9096 65.0019 41.5012 61.5487 42.3803 58.4663C43.2715 55.3358 44.2957 52.3941 45.8027 49.8723C48.0491 46.1136 51.0084 43.0297 54.9743 41.0225C56.272 40.3657 57.6127 39.679 59.0323 39.1082C61.8799 37.9634 64.998 37.1308 68.3741 36.4701C71.7305 35.8133 75.304 35.3214 79.1955 35.3214C79.2222 35.322 79.2504 35.3229 79.2792 35.322Z" fill="#FF5000"/>
<path fill-rule="evenodd" clip-rule="evenodd" d="M79.2792 35.322C87.228 34.941 94.6552 36.0619 100.708 37.8749C102.22 38.3274 103.662 38.9172 105.061 39.534C106.446 40.1439 107.81 40.7831 109.077 41.4913C111.652 42.9293 113.749 44.9028 115.461 47.1075C116.35 48.255 117.174 49.4124 117.869 50.7236C119.922 54.6039 121.318 59.2839 122.138 64.4655C123.218 71.2884 123.471 79.5997 123.154 87.1789C122.995 90.9402 122.594 94.6373 122.265 98.3261C121.941 101.969 121.557 105.64 121.25 109.346C120.628 116.87 120.492 124.683 119.094 131.257C118.737 132.941 118.269 134.449 117.616 135.809C116.957 137.18 116.244 138.421 115.248 139.426C114.219 140.464 113.003 141.164 111.529 141.724C110.798 142.001 110.089 142.298 109.288 142.489C108.496 142.678 107.664 142.799 106.753 142.914C101.569 143.571 95.6786 143.851 89.7188 143.851C87.7775 143.851 85.847 144.021 83.9285 144.021C81.9858 144.021 79.9953 144.063 77.9688 143.977C76.0382 143.896 74.0536 143.851 72.0927 143.851C68.1761 143.851 64.276 143.647 60.6396 143.34C58.731 143.178 56.9174 143.023 55.2282 142.744C53.5398 142.465 51.9827 141.957 50.6646 141.341C47.8891 140.042 46.3311 137.689 45.1688 134.83C44.0012 131.959 43.5503 128.472 43.1409 124.832C42.9375 123.036 42.7066 121.197 42.5911 119.344C42.4711 117.444 42.4035 115.54 42.2942 113.643C42.0846 109.994 41.6399 106.212 41.3225 102.581C40.662 95.0139 39.886 88.0153 39.8848 80.0318C39.8848 76.1315 40.1309 72.2638 40.5195 68.6354C40.9096 65.0019 41.5012 61.5487 42.3803 58.4663C43.2715 55.3358 44.2957 52.3941 45.8027 49.8723C48.0491 46.1136 51.0084 43.0297 54.9743 41.0225C56.272 40.3657 57.6127 39.679 59.0323 39.1082C61.8799 37.9634 64.998 37.1308 68.3741 36.4701C71.7305 35.8133 75.304 35.3214 79.1955 35.3214C79.2222 35.322 79.2504 35.3229 79.2792 35.322Z" fill="#FF5000"/>
<path d="M113.763 126.348C113.487 129.638 113.115 132.818 112.491 135.752C112.133 137.437 111.667 138.944 111.013 140.303C110.671 141.014 110.314 141.689 109.912 142.315C110.467 142.14 110.993 141.926 111.529 141.724C113.003 141.164 114.219 140.464 115.248 139.426C116.244 138.422 116.957 137.18 117.616 135.809C118.269 134.449 118.737 132.942 119.094 131.257C119.513 129.293 119.815 127.219 120.055 125.075C118.029 125.075 115.159 125.67 113.763 126.348Z" fill="#EFAD1B"/>
<path opacity="0.21" d="M115.249 139.426C116.245 138.422 116.958 137.18 117.617 135.809C118.269 134.449 118.737 132.942 119.095 131.257C120.492 124.683 120.628 116.87 121.25 109.346C121.558 105.64 121.942 101.969 122.266 98.3262C122.594 94.6375 122.995 90.9404 123.154 87.179C123.472 79.5999 123.219 71.2885 122.138 64.4657C121.319 59.284 119.923 54.6038 117.869 50.7238C117.175 49.4125 116.351 48.2552 115.461 47.1077C113.749 44.9029 111.652 42.9295 109.078 41.4915C107.811 40.7833 106.446 40.1438 105.062 39.5342C103.662 38.9174 102.221 38.3275 100.709 37.8751C94.6557 36.0621 87.2285 34.9415 79.2797 35.3222C79.2509 35.3231 79.2227 35.3222 79.1963 35.3222C75.3045 35.3222 71.731 35.8141 68.3749 36.4709C64.9988 37.1316 61.8807 37.9641 59.0331 39.1089C57.6135 39.6797 56.2728 40.3664 54.9751 41.0232C52.9611 42.0431 51.2072 43.3421 49.6738 44.865C50.5645 44.4221 51.4785 43.9864 52.4297 43.6039C55.2767 42.4591 58.3948 41.6266 61.7709 40.9659C65.1259 40.309 68.6999 39.8169 72.5908 39.8169C72.6196 39.8169 72.6478 39.8184 72.6766 39.8169C80.6254 39.4359 88.0526 40.5574 94.1062 42.3698C95.6194 42.8225 97.0586 43.4124 98.4587 44.0291C99.8427 44.6394 101.207 45.278 102.475 45.9862C105.048 47.4241 107.146 49.3976 108.857 51.602C109.748 52.7495 110.572 53.9072 111.266 55.2182C113.32 59.0987 114.716 63.779 115.536 68.9607C116.615 75.7811 116.866 84.093 116.549 91.6746C116.392 95.436 115.99 99.1316 115.662 102.82C115.338 106.463 114.954 110.136 114.647 113.84C114.026 121.366 113.889 129.177 112.492 135.751C112.134 137.437 111.668 138.944 111.014 140.303C110.672 141.014 110.315 141.689 109.913 142.314C110.468 142.139 110.994 141.925 111.53 141.724C113.004 141.164 114.219 140.464 115.249 139.426Z" fill="black"/>
<path fill-rule="evenodd" clip-rule="evenodd" d="M72.6763 39.8166C80.6251 39.4356 88.0523 40.5571 94.1059 42.3695C95.6191 42.8223 97.0583 43.4121 98.4584 44.0289C99.8424 44.6391 101.207 45.2777 102.475 45.9859C105.048 47.4239 107.146 49.3974 108.856 51.6018C109.748 52.7493 110.571 53.907 111.266 55.2179C113.32 59.0985 114.716 63.7788 115.535 68.9604C116.615 75.7809 116.866 84.0928 116.549 91.6744C116.391 95.4357 115.99 99.1313 115.662 102.82C115.337 106.463 114.954 110.136 114.647 113.84C114.303 118.007 114.107 122.263 113.764 126.347C112.936 129.321 112.398 132.282 111.774 135.215C111.416 136.901 110.567 138.13 109.912 139.49C109.252 140.861 108.859 141.877 107.863 142.879C106.834 143.917 106.044 144.577 104.572 145.136C103.841 145.415 103.541 145.707 102.742 145.896C101.949 146.086 101.043 146.649 100.133 146.763C98.5994 146.957 97.0215 147.764 95.3807 147.894C91.475 148.205 87.3119 148.344 83.115 148.345C81.1746 148.345 79.2423 148.514 77.3238 148.515C75.3817 148.515 73.392 148.559 71.3656 148.473C69.4341 148.39 67.4498 148.345 65.4895 148.345C61.7756 148.345 58.0765 148.163 54.6016 147.882C54.4119 147.867 53.4215 146.973 53.233 146.956C51.3259 146.795 50.4608 146.568 48.7731 146.289C47.0815 146.012 46.29 145.763 44.9722 145.146C42.1973 143.848 41.0472 141.776 39.8849 138.919C38.7164 136.045 37.6453 133.093 37.2353 129.455C37.1246 128.473 36.3064 127.35 36.2022 126.347C36.1161 125.515 36.0401 124.678 35.9879 123.838C35.8679 121.94 35.8002 120.034 35.691 118.138C35.4814 114.487 35.0367 110.708 34.7193 107.074C34.0573 99.5076 33.2827 92.5105 33.2812 84.5264C33.2812 80.6231 33.5265 76.7569 33.916 73.1276C34.304 69.4962 34.8968 66.0436 35.7744 62.9606C36.6671 59.8298 37.6922 56.889 39.1983 54.3669C41.4456 50.6085 44.4049 47.5243 48.3708 45.5171C49.6682 44.8612 51.0083 44.1736 52.4288 43.6028C55.2758 42.458 58.3939 41.6254 61.77 40.9647C65.125 40.3079 68.699 39.8157 72.5899 39.8157C72.6193 39.8166 72.6472 39.8181 72.6763 39.8166Z" fill="#FF5000"/>
<path d="M44.3972 128.933C42.3648 127.654 39.5718 126.374 36.2031 126.347C36.3064 127.351 36.4249 128.347 36.5356 129.328C36.9456 132.966 37.3966 136.453 38.5651 139.326C39.7273 142.184 41.2853 144.537 44.0602 145.835C45.378 146.452 46.9346 146.961 48.6259 147.239C50.3136 147.518 52.1272 147.674 54.0343 147.836C54.2211 147.851 54.4131 147.864 54.6014 147.879C54.0435 142.587 52.6936 138.59 50.2308 134.93C48.6214 132.537 46.8942 130.501 44.3972 128.933Z" fill="#EFAD1B"/>
<path d="M102.684 146.984C103.483 146.794 104.193 146.497 104.924 146.218C106.397 145.659 107.614 144.958 108.644 143.92C109.64 142.917 110.351 141.674 111.011 140.303C111.666 138.944 112.131 137.437 112.49 135.752C113.113 132.818 113.486 129.638 113.761 126.349C110.4 126.379 107.613 127.657 105.583 128.933C103.086 130.5 101.362 132.537 99.7513 134.93C97.2863 138.594 95.9361 142.593 95.3789 147.893C97.0188 147.763 98.6145 147.603 100.148 147.408C101.058 147.294 101.891 147.174 102.684 146.984Z" fill="#EFAD1B"/>
<path fill-rule="evenodd" clip-rule="evenodd" d="M52.7569 48.6914C51.1663 47.6942 55.2881 45.1123 55.4695 46.9606C55.5651 47.9246 53.6642 48.6227 52.7569 48.6914Z" fill="white"/>
<path fill-rule="evenodd" clip-rule="evenodd" d="M49.4896 48.6129C49.8806 48.5456 50.7181 48.6206 50.7908 49.4203C50.8909 50.465 49.1918 51.6962 48.612 52.3124C47.9052 53.0627 46.9107 54.7953 45.787 54.5162C44.1845 54.1185 46.0702 51.7858 46.7518 51.011C47.1155 50.5995 47.5095 50.231 47.8327 49.8975C48.3888 49.3277 48.7364 48.7426 49.4896 48.6129Z" fill="white"/>
<path fill-rule="evenodd" clip-rule="evenodd" d="M107.763 65.6035C106.903 64.8896 106.289 63.1026 105.791 61.3105C105.576 60.5416 105.253 59.2943 105.913 59.0257C106.706 58.7008 107.297 60.0599 107.507 60.544C108.173 62.0863 108.666 64.0815 108.621 65.2204C108.5 65.4561 108.067 65.6321 107.763 65.6035Z" fill="white"/>
<path fill-rule="evenodd" clip-rule="evenodd" d="M103.805 59.7713C102.298 60.7574 100.74 57.1264 102.166 56.688C102.786 56.4985 104.191 57.9715 104.264 58.9462C104.289 59.2968 104.066 59.5992 103.805 59.7713Z" fill="white"/>
<path fill-rule="evenodd" clip-rule="evenodd" d="M101.75 52.3446C101.254 52.7486 100.439 52.3075 99.8432 51.5972C99.3625 51.0258 98.7035 49.7143 99.4961 49.3942C99.8461 49.2517 100.545 49.5182 101.056 50.095C101.655 50.7715 102.386 51.8228 101.75 52.3446Z" fill="white"/>
<path d="M118.032 71.8393C117.386 72.2177 116.164 72.9017 115.789 72.5562C115.577 72.359 115.829 71.8638 116.07 71.4527C116.357 70.9644 116.799 70.4713 117.267 69.9496C118.093 69.025 118.95 68.0693 119.17 66.8976C119.282 66.2991 119.084 65.9423 118.901 65.7486C118.331 65.1525 117.195 65.3222 115.99 65.5015C115.294 65.6055 113.995 65.7991 113.805 65.5152C113.784 65.4827 113.6 65.142 114.402 63.7534C114.471 63.6341 114.601 63.4441 114.75 63.2256C115.635 61.9263 116.477 60.5738 116.188 59.5742C116.074 59.1861 115.806 58.8932 115.409 58.7229C114.89 58.5005 114.166 58.6649 113.324 58.8544C112.647 59.0071 111.72 59.2162 111.429 59.0104C111.407 58.9942 111.354 58.9575 111.337 58.8045C111.297 58.4781 111.654 57.8443 111.893 57.4245C111.984 57.2625 112.068 57.1122 112.131 56.9843C112.201 56.8441 112.274 56.7022 112.344 56.5606C112.71 55.8419 113.087 55.0975 113.304 54.2889C113.632 53.0661 113.449 52.2323 112.767 51.8137C111.991 51.3388 110.968 51.7808 110.221 52.1038C110.063 52.172 109.918 52.2353 109.792 52.2801C109.714 52.3088 109.62 52.3471 109.515 52.3895C108.883 52.6474 108.507 52.743 108.393 52.6725C108.305 52.4281 108.687 51.4859 108.813 51.1763C108.88 51.0101 108.938 50.8664 108.975 50.7618C109.021 50.6208 109.094 50.4471 109.173 50.2556C109.472 49.5408 109.842 48.6497 109.659 47.9752C109.546 47.5652 109.313 47.3617 109.136 47.2622C108.654 46.9903 108.065 47.1618 107.594 47.2996L107.43 47.3462C107.201 47.4107 106.942 47.5135 106.668 47.622C106.134 47.8345 105.405 48.1243 105.032 48.0129C104.722 47.9205 104.621 47.4612 104.715 46.5674C104.73 46.418 104.799 46.1219 104.87 45.8081C105.161 44.5524 105.561 42.8327 104.857 41.9978C104.821 41.955 104.773 41.9117 104.724 41.8687C104.722 41.8603 104.724 41.8546 104.724 41.8454C104.709 41.8358 104.694 41.8328 104.678 41.8247C104.616 41.7919 104.555 41.7611 104.498 41.7423C103.466 41.3947 102.028 42.4057 100.976 43.1432C100.715 43.3278 100.467 43.5015 100.333 43.572C99.5446 43.9912 99.0844 44.0669 98.8826 43.8102C98.6427 43.5033 98.6397 42.7144 98.6367 42.1382C98.6353 41.8409 98.6353 41.5609 98.6085 41.3212L98.5904 41.1518C98.5426 40.6593 98.4841 40.0464 98.0528 39.6965C97.8948 39.5677 97.6217 39.4252 97.2016 39.4727C96.5114 39.5516 95.8268 40.2281 95.277 40.7723C95.1303 40.9178 94.9968 41.0496 94.8845 41.1464C94.8011 41.2193 94.6901 41.3263 94.5627 41.4506C94.3229 41.6834 93.5949 42.391 93.3375 42.3991C93.2312 42.319 93.1787 41.9308 93.182 41.2447C93.182 41.1312 93.1834 41.0296 93.1805 40.9453C93.176 40.8108 93.179 40.6518 93.1852 40.4788C93.2048 39.6606 93.233 38.5406 92.5081 37.9923C91.8674 37.5085 91.0314 37.6474 90.0247 38.4079C89.3582 38.9109 88.8131 39.5396 88.2847 40.1477C88.1814 40.2681 88.076 40.3874 87.9727 40.5048C87.8786 40.6121 87.7708 40.746 87.6553 40.8924C87.3561 41.2701 86.9054 41.84 86.5895 41.9231C86.4408 41.9637 86.3868 41.9281 86.3648 41.9132C86.0665 41.7175 85.9154 40.7735 85.8046 40.0841C85.6681 39.2273 85.5496 38.488 85.1533 38.0861C84.8487 37.7786 84.4791 37.6373 84.0792 37.6749C83.0505 37.7759 82.1145 39.0627 81.2434 40.3733C81.0971 40.5942 80.9709 40.7848 80.886 40.893C79.9036 42.1591 79.5219 42.1143 79.4821 42.1062C79.1496 42.0333 78.8473 40.749 78.6841 40.0587C78.4023 38.8669 78.1375 37.7416 77.376 37.4302C77.1293 37.3298 76.7262 37.2778 76.2161 37.6047C75.2169 38.2448 74.6537 39.3995 74.1071 40.5168C73.7996 41.1476 73.5081 41.7435 73.1634 42.1932C72.8727 42.5712 72.5106 42.9908 72.2484 42.8644C71.7565 42.6259 71.9993 41.0299 72.1026 40.3479C72.1362 40.1298 72.1641 39.9391 72.1778 39.7936C72.2045 39.5139 72.0008 39.2659 71.7223 39.2384C71.4421 39.21 71.1978 39.4168 71.1725 39.6965C71.1589 39.8271 71.1339 39.9983 71.1034 40.1946C70.9211 41.3974 70.6447 43.2155 71.8093 43.7806C72.838 44.2796 73.6541 43.2155 73.9623 42.8145C74.3684 42.2837 74.6964 41.6135 75.0138 40.9656C75.4974 39.9744 75.9985 38.9488 76.7576 38.4626C76.8996 38.3724 76.9764 38.3643 76.996 38.3724C77.2739 38.4865 77.5411 39.6176 77.7005 40.2935C78.0155 41.6287 78.3139 42.8898 79.2659 43.0995C79.9689 43.2546 80.7129 42.7672 81.6816 41.5199C81.7879 41.3819 81.9185 41.1864 82.0833 40.9384C82.5176 40.2831 83.5365 38.7498 84.1757 38.687C84.2463 38.6802 84.3238 38.69 84.436 38.8036C84.6046 38.9733 84.7207 39.7084 84.808 40.2457C84.9698 41.2671 85.139 42.3232 85.8132 42.7652C86.0181 42.8996 86.3642 43.0338 86.8449 42.9074C87.484 42.7395 88.0178 42.0668 88.4459 41.5265C88.5492 41.3962 88.6418 41.2767 88.7276 41.1814C88.8324 41.0609 88.9402 40.9396 89.045 40.8171C89.5393 40.2487 90.0487 39.66 90.6309 39.2214C91.2345 38.765 91.662 38.6249 91.9009 38.8057C92.21 39.0391 92.1886 39.8904 92.1735 40.4537C92.169 40.6486 92.1643 40.829 92.169 40.9803C92.172 41.0538 92.172 41.1419 92.1705 41.2402C92.1675 41.9517 92.1613 43.2759 93.2158 43.4082C93.8666 43.4886 94.5253 42.9008 95.2633 42.1824C95.3741 42.0752 95.47 41.9813 95.5421 41.9195C95.668 41.8098 95.8191 41.6619 95.9854 41.4981C96.3535 41.1336 96.9707 40.5233 97.3153 40.4836C97.386 40.4755 97.4139 40.4854 97.4169 40.4878C97.5187 40.5703 97.5635 41.0311 97.5846 41.2525L97.6042 41.4339C97.6238 41.6191 97.6256 41.8732 97.6256 42.1424C97.628 42.9471 97.6309 43.8592 98.0893 44.4419C98.9054 45.4803 100.334 44.7222 100.805 44.4727C100.993 44.3729 101.241 44.1986 101.554 43.9781C102.067 43.6177 103.45 42.4054 104.139 42.7284C104.614 43.4438 104.028 44.9651 103.886 45.5783C103.799 45.9531 103.732 46.2501 103.709 46.462C103.653 46.9936 103.484 48.6117 104.743 48.9888C105.452 49.2004 106.294 48.8651 107.039 48.569C107.287 48.4704 107.521 48.3768 107.701 48.3272L107.875 48.277C108.087 48.2149 108.527 48.0855 108.641 48.1503C108.644 48.1524 108.665 48.176 108.683 48.2442C108.774 48.5812 108.44 49.3845 108.242 49.8644C108.151 50.0799 108.071 50.2759 108.017 50.434C107.986 50.5254 107.935 50.6491 107.878 50.7923C107.489 51.7491 107.191 52.5832 107.506 53.1614C108.02 54.0979 109.239 53.601 109.895 53.3329C109.985 53.2962 110.066 53.2627 110.135 53.2379C110.275 53.1871 110.442 53.116 110.619 53.0389C111.133 52.8168 111.909 52.481 112.24 52.6836C112.497 52.8398 112.525 53.2911 112.329 54.0247C112.138 54.7308 111.787 55.4262 111.445 56.0986C111.371 56.2435 111.299 56.3869 111.227 56.5304C111.17 56.6451 111.095 56.7775 111.013 56.9224C110.674 57.5231 110.25 58.2705 110.332 58.9324C110.395 59.4281 110.647 59.7012 110.848 59.8429C111.504 60.3079 112.542 60.0745 113.546 59.8483C114.072 59.729 114.794 59.5662 115.013 59.6597C115.16 59.7219 115.196 59.7915 115.216 59.859C115.396 60.4803 114.358 62.0013 113.917 62.6513C113.749 62.8969 113.618 63.0905 113.529 63.2421C112.738 64.6104 112.564 65.4866 112.968 66.0863C113.516 66.8991 114.788 66.7091 116.138 66.5085C116.821 66.4069 117.962 66.2357 118.172 66.4542C118.187 66.47 118.208 66.5447 118.176 66.7097C118.009 67.6008 117.25 68.4494 116.515 69.2682C116.035 69.8055 115.538 70.3595 115.199 70.9372C114.943 71.3735 114.265 72.5299 115.106 73.3069C115.841 73.984 116.947 73.5836 117.892 73.0831C117.85 72.6638 117.895 72.2335 118.032 71.8393Z" fill="white"/>
<path fill-rule="evenodd" clip-rule="evenodd" d="M117.918 71.5871C118.737 71.4914 119.36 71.8187 119.456 73.2982C119.508 74.1226 119.093 74.7182 119.12 75.1392C119.168 75.8821 119.678 76.6659 119.82 77.3843C119.939 77.9859 119.93 78.802 119.516 79.1352C118.905 79.6282 117.913 79.431 117.619 78.906C117.225 78.1992 117.342 77.3601 117.408 76.738C117.442 76.417 117.658 75.5979 117.308 74.9148C117.108 74.5272 116.837 74.1606 116.713 73.3328C116.508 71.9875 117.285 71.6603 117.918 71.5871Z" fill="#EFAD1B"/>
<path fill-rule="evenodd" clip-rule="evenodd" d="M71.6533 81.1137C76.506 80.8806 81.3382 81.0778 85.7278 81.5813C87.8816 81.8291 90.0073 82.127 91.9417 82.6458C93.9147 83.1714 95.7179 83.6949 97.3101 84.5164C99.7934 85.7981 101.69 87.3944 103.1 89.6646C104.509 91.9342 105.308 94.563 105.678 98.0034C105.916 100.212 105.913 102.575 106.016 104.938C106.447 114.779 106.088 124.224 101.24 129.104C98.8927 131.467 95.1604 132.762 91.3067 133.699C88.2928 134.434 85.2104 134.817 81.7553 135.061C78.3573 135.301 74.7039 135.189 71.1889 135.189C68.8659 135.189 66.5889 134.936 64.4246 134.678C60.044 134.154 56.1555 133.197 52.8857 131.7C51.1428 130.901 49.694 130 48.5332 128.763C47.3998 127.557 46.5115 125.975 45.8281 124.212C44.4898 120.753 44.1237 116.384 44.0097 111.448C43.956 109.099 44.0516 106.898 44.1374 104.597C44.2262 102.215 44.2003 99.8828 44.4743 97.62C44.7439 95.4099 45.2768 93.4729 45.954 91.7914C47.3214 88.3976 49.8214 85.9508 53.0965 84.3873C56.3398 82.8421 60.4272 82.0388 64.7631 81.5386C66.9341 81.287 69.1806 81.2314 71.6533 81.1137Z" fill="#4D3D87"/>
<path opacity="0.21" fill-rule="evenodd" clip-rule="evenodd" d="M75.0357 95.2389C77.3124 95.1289 80.0143 95.2374 82.3899 95.2389C86.0681 95.2389 89.5505 95.3229 93.3368 95.3229C96.0898 95.3229 97.8927 95.4308 100.523 95.4932C101.315 95.5129 101.696 95.5359 102.214 95.6217C102.756 95.712 103.338 95.8808 103.398 96.2597C103.561 97.2951 101.724 97.6224 100.691 97.7057C99.3103 97.8187 97.8425 97.7912 96.6339 97.7912C93.8142 97.7912 91.0613 97.7491 88.5183 97.7491C85.7449 97.7491 83.0771 97.6466 80.5709 97.8758C78.0641 98.1059 75.6588 98.4695 73.5558 99.1099C71.5711 99.7144 69.5577 100.673 67.2575 101.109C62.2908 102.053 57.1671 101.115 52.5913 100.215C51.5445 100.01 50.2962 99.8489 49.1247 99.5357C48.2486 99.3003 46.5253 98.8526 46.5042 98.0455C46.4701 96.7402 49.3845 96.5714 50.7733 96.43C53.7622 96.1237 56.7883 95.9349 59.8615 95.7484C63.4676 95.5282 67.3223 95.3229 71.1463 95.3229C72.408 95.3229 73.7306 95.3008 75.0357 95.2389Z" fill="black"/>
<path fill-rule="evenodd" clip-rule="evenodd" d="M102.736 95.5963C103.557 95.6621 104.105 96.1053 103.914 97.5755C103.807 98.3955 103.284 98.899 103.23 99.3171C103.133 100.055 103.481 100.924 103.483 101.658C103.485 102.27 103.318 103.071 102.85 103.317C102.153 103.681 101.217 103.294 101.032 102.721C100.781 101.952 101.058 101.15 101.243 100.551C101.338 100.244 101.709 99.4814 101.496 98.7424C101.375 98.3229 101.18 97.9102 101.215 97.0735C101.274 95.715 102.101 95.5443 102.736 95.5963Z" fill="white"/>
<path d="M85.287 84.3735C84.6972 83.7444 83.7831 83.4857 83.4838 82.677C83.181 81.8663 83.3336 80.4113 83.3746 79.2312C83.4253 77.8214 83.3882 76.4847 83.7252 75.3743C84.2079 73.7848 85.7582 73.1405 86.5357 71.9324C89.1604 67.8474 87.0929 62.2593 83.0881 61.6557C79.7013 61.1453 76.9517 64.3158 76.7388 68.2266C76.6023 70.7777 77.8441 72.524 79.213 73.8314C79.8272 74.4183 80.5278 74.7452 80.8535 75.674C81.2187 76.7154 81.1124 78.1056 81.1032 79.4368C81.091 80.8001 80.7677 82.2581 80.8951 83.6115C80.9818 84.5522 81.5654 85.1193 81.6663 85.9949C81.7946 87.1349 81.62 88.4091 81.403 89.7279C82.2117 88.1513 83.0679 86.5848 83.985 85.5033C84.3077 85.1256 84.8572 84.77 85.287 84.3735ZM81.7863 72.4039C79.6149 72.1762 78.8437 69.915 79.0441 67.8306C79.2673 65.512 81.0135 63.16 83.3698 64.0532C86.9199 65.4015 85.627 72.8067 81.7863 72.4039Z" fill="#8F7ECE"/>
<path d="M85.8337 87.9973C84.9591 89.3698 84.1756 91.3896 83.5872 92.587C82.8804 94.0253 81.9695 95.8768 80.9961 97.844C81.86 97.7777 82.7423 97.7448 83.6413 97.7325C83.9738 96.2142 84.3063 94.7117 84.6432 93.2552C85.022 91.6203 85.5977 89.7012 85.8337 87.9973Z" fill="#8F7ECE"/>
<path d="M98.0079 67.892C97.6208 66.8452 96.5868 65.5869 95.1532 65.1583C92.5234 64.3718 90.5008 66.279 89.3614 67.8069C87.0428 70.9135 85.5359 76.3925 85.7235 80.8997C85.7606 81.7878 86.0741 82.8612 85.8625 83.5683C85.7758 83.8623 85.5543 84.1262 85.2862 84.3736C84.8563 84.7701 84.3068 85.1257 83.985 85.5038C83.068 86.5849 82.2115 88.1517 81.4031 89.7283C81.2725 89.982 81.1433 90.2366 81.016 90.4888C80.1253 92.2525 79.2683 94.0996 78.3604 95.9191C77.9792 96.6862 77.5868 97.4811 77.1973 98.2933C78.1719 98.1367 79.1804 98.0115 80.2073 97.912C80.3287 97.8998 80.4486 97.8875 80.5695 97.8762C80.7105 97.8639 80.8533 97.8546 80.9952 97.8442C81.9686 95.8773 82.8795 94.0255 83.5863 92.5872C84.1747 91.3898 84.9582 89.37 85.8328 87.9975C86.173 87.4641 86.526 87.0269 86.8873 86.7765C87.3231 86.4753 88.1454 86.4938 88.4664 86.0635C88.9583 84.7429 87.7337 82.8056 88.9422 82.0293C89.2718 81.8183 89.6277 82.0308 90.0143 82.0141C92.3913 81.9133 93.925 80.135 95.4919 77.7477C97.301 74.9925 99.193 71.0943 98.0079 67.892ZM84.6331 88.7768C84.5473 89.2974 84.0577 89.6488 83.5415 89.5625C83.0246 89.4755 82.6737 88.9824 82.761 88.4604C82.8459 87.9401 83.3372 87.5893 83.8526 87.6748C84.3713 87.7644 84.7213 88.2572 84.6331 88.7768ZM96.4122 71.0491C96.1281 73.244 94.9243 75.5447 93.5984 77.4294C92.3527 79.2018 90.2423 81.2526 88.328 79.8712C86.2039 78.3343 89.2537 70.3541 91.5547 68.0776C92.185 67.4545 93.2196 66.7577 94.0957 66.8398C96.0779 67.0305 96.6749 69.0096 96.4122 71.0491Z" fill="#8F7ECE"/>
<path opacity="0.62" d="M98.0079 67.892C97.6208 66.8452 96.5868 65.5869 95.1532 65.1583C92.5234 64.3718 90.5008 66.279 89.3614 67.8069C87.0428 70.9135 85.5359 76.3925 85.7235 80.8997C85.7606 81.7878 86.0741 82.8612 85.8625 83.5683C85.7758 83.8623 85.5543 84.1262 85.2862 84.3736C84.8563 84.7701 84.3068 85.1257 83.985 85.5038C83.068 86.5849 82.2115 88.1517 81.4031 89.7283C81.2725 89.982 81.1433 90.2366 81.016 90.4888C80.1253 92.2525 79.2683 94.0996 78.3604 95.9191C77.9792 96.6862 77.5868 97.4811 77.1973 98.2933C78.1719 98.1367 79.1804 98.0115 80.2073 97.912C80.3287 97.8998 80.4486 97.8875 80.5695 97.8762C80.7105 97.8639 80.8533 97.8546 80.9952 97.8442C81.9686 95.8773 82.8795 94.0255 83.5863 92.5872C84.1747 91.3898 84.9582 89.37 85.8328 87.9975C86.173 87.4641 86.526 87.0269 86.8873 86.7765C87.3231 86.4753 88.1454 86.4938 88.4664 86.0635C88.9583 84.7429 87.7337 82.8056 88.9422 82.0293C89.2718 81.8183 89.6277 82.0308 90.0143 82.0141C92.3913 81.9133 93.925 80.135 95.4919 77.7477C97.301 74.9925 99.193 71.0943 98.0079 67.892ZM84.6331 88.7768C84.5473 89.2974 84.0577 89.6488 83.5415 89.5625C83.0246 89.4755 82.6737 88.9824 82.761 88.4604C82.8459 87.9401 83.3372 87.5893 83.8526 87.6748C84.3713 87.7644 84.7213 88.2572 84.6331 88.7768ZM96.4122 71.0491C96.1281 73.244 94.9243 75.5447 93.5984 77.4294C92.3527 79.2018 90.2423 81.2526 88.328 79.8712C86.2039 78.3343 89.2537 70.3541 91.5547 68.0776C92.185 67.4545 93.2196 66.7577 94.0957 66.8398C96.0779 67.0305 96.6749 69.0096 96.4122 71.0491Z" fill="white"/>
<path d="M83.5418 89.5624C84.0581 89.6488 84.548 89.2973 84.6335 88.7768C84.7216 88.2571 84.3716 87.7643 83.853 87.6747C83.3376 87.5892 82.8463 87.9398 82.7614 88.4603C82.6741 88.9824 83.025 89.4754 83.5418 89.5624Z" fill="#4D3D87"/>
<path d="M93.7419 97.7789L94.9504 93.1235L92.7441 92.6367L91.4141 97.7628C92.1779 97.7667 92.954 97.773 93.7419 97.7789Z" fill="#B1BC00"/>
<path d="M91.9485 92.4615L90.7624 92.2009C90.253 94.045 89.7756 95.8971 89.3125 97.7505C89.7314 97.7519 90.1467 97.7534 90.5751 97.7564L91.9485 92.4615Z" fill="#B1BC00"/>
<path d="M97.0259 93.6058C97.0274 93.5974 97.0229 93.5897 97.0259 93.5807L95.7443 93.2971L94.5781 97.7837C95.035 97.7867 95.4996 97.7882 95.9628 97.7882C96.2249 96.7797 96.4761 95.7786 96.6931 94.8095C96.786 94.3881 97.0054 93.9602 97.0259 93.6058Z" fill="#B1BC00"/>
<path d="M96.9599 93.0907C96.9492 92.9126 96.9551 92.7375 96.9584 92.572C97.0002 90.8157 96.9925 89.2675 96.8005 87.5062L94.163 86.6662C94.2631 86.5431 94.3649 86.4149 94.4741 86.2849C93.3733 87.5926 92.7113 88.637 91.9887 89.8177C91.6123 90.4207 91.1542 91.0052 90.8977 91.5906C90.825 91.7565 90.825 91.9719 90.7665 92.1892C90.7635 92.1922 90.7635 92.1966 90.7635 92.2014L91.9495 92.462L90.5762 97.7569C90.8517 97.7584 91.1349 97.7599 91.4151 97.7632L92.7451 92.6371L94.9515 93.1239L93.7429 97.7794C94.0232 97.7808 94.2987 97.7823 94.5795 97.7838L95.7457 93.2972L97.0273 93.5808C97.0267 93.4302 96.9682 93.2536 96.9599 93.0907Z" fill="#EFAD1B"/>
<path d="M96.7996 87.5058C96.7933 87.4514 96.7889 87.4003 96.7835 87.3444C96.7206 86.7928 96.6173 85.5578 96.0615 85.2775C95.6524 85.0728 95.0192 85.6381 94.4732 86.2845C94.364 86.4145 94.2622 86.5427 94.1621 86.6658L96.7996 87.5058Z" fill="white"/>
<path d="M69.8971 67.6029C69.9107 66.8543 69.3155 66.2318 68.5671 66.2205C67.8199 66.2055 67.2044 66.8032 67.1908 67.5554L67.1641 69.0062L69.8683 69.045L69.8971 67.6029Z" fill="#EFAD1B"/>
<path d="M65.2471 86.0149L64.9375 101.416C65.7132 101.352 66.4878 101.256 67.2576 101.109C68.4228 100.887 69.5147 100.533 70.5662 100.158L70.851 86.098L65.2471 86.0149Z" fill="#B1BC00"/>
<path d="M65.2461 86.0135L70.8511 86.0968L70.8701 84.456L65.2719 84.375L65.2461 86.0135Z" fill="white"/>
<path d="M69.8539 69.8683L67.1473 69.8279L65.4815 69.8034L65.4937 68.9858H65.4922L65.2734 84.3743L70.8704 84.4568L71.083 69.8859L69.8539 69.8683ZM69.1091 78.32C68.2208 78.2788 68.1341 76.3355 68.838 75.994C69.8554 75.4925 70.2791 78.3714 69.1091 78.32ZM69.4986 74.6436C68.2915 74.8246 68.5343 72.5649 68.952 71.9191C68.9793 71.8788 69.0164 71.8633 69.0568 71.8352C70.2176 71.0513 70.5287 74.49 69.4986 74.6436Z" fill="#B1BC00"/>
<path d="M69.8691 69.0452V69.0476L67.1648 69.0085L65.4943 68.9849L65.4824 69.8025L67.1479 69.827L69.8545 69.8676L71.0836 69.8852L71.8534 69.8972L71.6349 85.3218L72.7995 85.3409L73.0213 69.9142L73.0311 69.0927L69.8691 69.0452Z" fill="white"/>
<path d="M69.0557 71.8345C69.0156 71.8626 68.9782 71.8782 68.9509 71.9185C68.5332 72.5643 68.2903 74.824 69.4974 74.6429C70.5276 74.4893 70.2164 71.0507 69.0557 71.8345Z" fill="white"/>
<path d="M68.8382 75.9932C68.1343 76.3348 68.221 78.2781 69.1093 78.3193C70.2792 78.3707 69.8556 75.4918 68.8382 75.9932Z" fill="white"/>
<path d="M65.1553 99.1451L63.0151 99.5205C62.861 99.5474 62.7182 99.4464 62.6918 99.2943C62.6645 99.1422 62.7678 98.9954 62.916 98.9673L65.0585 98.5935C65.1725 98.572 65.2818 98.6249 65.3402 98.7133L64.8605 95.9294C64.8459 96.0463 64.7601 96.1479 64.6363 96.1685L62.4938 96.5483C62.3442 96.5743 62.2008 96.4718 62.172 96.3197C62.1462 96.167 62.2471 96.0209 62.4012 95.9934L64.5399 95.6151C64.6643 95.596 64.7797 95.6602 64.8338 95.7687L64.3457 92.9259C64.3412 93.055 64.2522 93.1713 64.118 93.1958L61.9793 93.5726C61.8276 93.6016 61.6824 93.4985 61.656 93.3464C61.6302 93.1928 61.7305 93.0476 61.8813 93.021L64.023 92.6426C64.1566 92.6196 64.2798 92.7 64.3261 92.8222L63.8274 89.9215C63.8395 90.0629 63.7469 90.1958 63.6026 90.2179L61.461 90.5984C61.3084 90.625 61.1656 90.5242 61.1392 90.3706C61.1133 90.2179 61.2128 90.0748 61.3654 90.0467L63.5041 89.6678C63.6492 89.6424 63.7825 89.7359 63.8199 89.8764L63.3144 86.9243C63.3363 87.0749 63.2378 87.2192 63.0881 87.2467L60.9456 87.625C60.7945 87.6525 60.6511 87.5479 60.6223 87.3928C60.5956 87.2437 60.6989 87.0979 60.847 87.0704L62.9902 86.6951C63.1413 86.6661 63.2841 86.7677 63.3129 86.9198L58.6166 59.6111L47.498 61.5472L54.2003 100.526C57.8899 101.221 61.8668 101.795 65.7888 101.329L65.3773 98.9321C65.3512 99.0382 65.2678 99.1224 65.1553 99.1451ZM49.9903 62.5262C50.4784 62.5306 50.4876 63.1008 50.6227 63.7029C50.7631 64.3362 50.9201 64.6816 50.5104 64.952C49.3437 65.7185 48.5214 62.5058 49.9903 62.5262ZM51.972 70.2772C51.1977 70.735 50.802 69.9278 50.5654 68.8948C50.365 68.0237 50.112 65.8617 51.2396 66.266C51.4809 66.3547 51.9197 67.3415 52.1127 67.8716C52.4888 68.907 52.5351 69.9464 51.972 70.2772ZM53.7583 65.3767C53.7211 65.6101 53.5926 65.7619 53.416 65.8703C52.3045 66.529 52.0533 64.0227 52.8988 63.8267C53.3975 63.7098 53.844 64.8134 53.7583 65.3767ZM56.48 63.61C56.4518 63.4594 56.5536 63.3133 56.7047 63.2867L58.8434 62.9081C58.9984 62.8806 59.1418 62.9846 59.1685 63.1367C59.1928 63.2891 59.0925 63.4346 58.9423 63.4594L56.7997 63.8377C56.6522 63.8634 56.5058 63.7627 56.48 63.61ZM56.9969 66.5833C56.9725 66.4312 57.0699 66.2881 57.2246 66.2594L59.3632 65.8817C59.5158 65.8539 59.6616 65.9588 59.6883 66.1103C59.7127 66.2627 59.6117 66.4079 59.4606 66.4324L57.3205 66.8113C57.1664 66.8373 57.0245 66.7378 56.9969 66.5833ZM57.5149 69.5582C57.4882 69.4061 57.59 69.2608 57.7396 69.2342L59.8822 68.8544C60.0333 68.8299 60.1767 68.933 60.204 69.0845C60.2289 69.2357 60.1319 69.381 59.9778 69.4076L57.8391 69.7844C57.6862 69.8143 57.5404 69.7109 57.5149 69.5582ZM58.0318 72.5315C58.0068 72.3788 58.1054 72.2312 58.261 72.2052L60.3982 71.8269C60.5516 71.8018 60.6965 71.901 60.7215 72.0579C60.7503 72.2085 60.6487 72.3537 60.4952 72.3812L58.3536 72.7601C58.204 72.7855 58.06 72.6821 58.0318 72.5315ZM58.5504 75.5037C58.5246 75.3516 58.6279 75.2057 58.7766 75.1764L60.9183 74.8035C61.0679 74.776 61.2122 74.8767 61.2401 75.0258C61.268 75.1809 61.165 75.3262 61.0139 75.3545L58.8737 75.7296C58.722 75.7574 58.5768 75.6564 58.5504 75.5037ZM59.0682 78.4749C59.0429 78.3243 59.1433 78.1761 59.2973 78.151L61.4351 77.775C61.5848 77.7491 61.7326 77.8486 61.7602 78.0028C61.7822 78.1572 61.6851 78.3001 61.534 78.3246L59.3885 78.7044C59.2389 78.7307 59.0955 78.6267 59.0682 78.4749ZM59.5898 81.4467C59.5601 81.2961 59.6634 81.1533 59.813 81.1228L61.9547 80.7475C62.1058 80.72 62.2486 80.8216 62.2765 80.9737C62.3023 81.1243 62.202 81.271 62.0517 81.2991L59.9086 81.676C59.756 81.7034 59.6117 81.5995 59.5898 81.4467ZM60.1051 84.4216C60.0793 84.271 60.1797 84.1257 60.3328 84.0976L62.4715 83.7202C62.6226 83.6933 62.7675 83.7973 62.7948 83.9464C62.8183 84.1024 62.7212 84.2453 62.5701 84.2728L60.427 84.6526C60.2753 84.6777 60.1316 84.5737 60.1051 84.4216Z" fill="#EFAD1B"/>
<path d="M59.1678 63.1368C59.1411 62.9847 58.9977 62.8807 58.8427 62.9082L56.704 63.2868C56.5529 63.3131 56.4511 63.4596 56.4793 63.6102C56.5051 63.7626 56.6515 63.8636 56.799 63.8379L58.9416 63.4596C59.0921 63.4348 59.1921 63.2892 59.1678 63.1368Z" fill="white"/>
<path d="M59.6874 66.11C59.6607 65.9588 59.5149 65.8536 59.3623 65.8814L57.2236 66.2591C57.0686 66.2878 56.9716 66.431 56.9959 66.5831C57.0232 66.7379 57.1651 66.8371 57.3192 66.8108L59.4594 66.4319C59.6108 66.4076 59.7117 66.2624 59.6874 66.11Z" fill="white"/>
<path d="M60.2031 69.0848C60.1758 68.9333 60.0324 68.8302 59.8813 68.8547L57.7388 69.2345C57.5891 69.2611 57.4873 69.4063 57.514 69.5584C57.5399 69.7111 57.6856 69.8145 57.8382 69.7846L59.9769 69.4078C60.131 69.3812 60.2284 69.236 60.2031 69.0848Z" fill="white"/>
<path d="M60.721 72.0581C60.696 71.9015 60.5508 71.802 60.3977 71.8271L58.2605 72.2054C58.1049 72.2314 58.006 72.379 58.0313 72.5317C58.0595 72.6824 58.2035 72.7855 58.3531 72.7603L60.4947 72.3814C60.6482 72.3539 60.75 72.2087 60.721 72.0581Z" fill="white"/>
<path d="M61.2405 75.0259C61.2126 74.8768 61.068 74.7761 60.9187 74.8036L58.7771 75.1765C58.6283 75.2055 58.525 75.3516 58.5508 75.5037C58.5776 75.6564 58.7224 75.7574 58.8744 75.73L61.0146 75.3549C61.1654 75.3262 61.2687 75.1813 61.2405 75.0259Z" fill="white"/>
<path d="M61.7604 78.0026C61.7331 77.8484 61.5849 77.7489 61.4353 77.7749L59.2975 78.1508C59.1434 78.1759 59.0431 78.3244 59.0683 78.4747C59.0956 78.6268 59.239 78.7305 59.3887 78.7039L61.5342 78.3241C61.6853 78.2999 61.7824 78.1571 61.7604 78.0026Z" fill="white"/>
<path d="M62.2758 80.9739C62.2476 80.8218 62.1051 80.7202 61.954 80.7477L59.8123 81.123C59.6627 81.1535 59.5594 81.2963 59.5891 81.4469C59.6111 81.5996 59.7553 81.7036 59.9079 81.6761L62.0511 81.2993C62.2013 81.2712 62.3016 81.1245 62.2758 80.9739Z" fill="white"/>
<path d="M62.7933 83.9462C62.766 83.7971 62.6209 83.6934 62.47 83.72L60.3314 84.0974C60.1782 84.1255 60.0778 84.271 60.1037 84.4213C60.1304 84.5734 60.2738 84.6771 60.4255 84.652L62.5686 84.2722C62.7197 84.2453 62.8171 84.1022 62.7933 83.9462Z" fill="white"/>
<path d="M62.9893 86.6951L60.8461 87.0705C60.698 87.098 60.5947 87.2441 60.6214 87.3929C60.6502 87.548 60.7939 87.6529 60.9447 87.6251L63.0872 87.2468C63.2369 87.2193 63.3354 87.0749 63.3135 86.9243L63.312 86.9198C63.2832 86.7677 63.1404 86.6661 62.9893 86.6951Z" fill="white"/>
<path d="M63.5018 89.668L61.3631 90.0469C61.2105 90.0753 61.1111 90.2181 61.1369 90.3708C61.1633 90.5244 61.3061 90.6254 61.4587 90.5985L63.6004 90.2181C63.7446 90.196 63.8373 90.063 63.8251 89.9217L63.8174 89.8766C63.7806 89.7361 63.647 89.6426 63.5018 89.668Z" fill="white"/>
<path d="M64.0234 92.6428L61.8817 93.0211C61.7306 93.048 61.6306 93.1932 61.6564 93.3465C61.6828 93.4986 61.828 93.6017 61.9797 93.5727L64.1184 93.1959C64.2526 93.1714 64.3416 93.0554 64.3461 92.9261L64.3265 92.8221C64.2799 92.7001 64.157 92.6201 64.0234 92.6428Z" fill="white"/>
<path d="M64.5399 95.6157L62.4012 95.994C62.2471 96.0215 62.1462 96.1673 62.172 96.3203C62.2008 96.4724 62.3442 96.5749 62.4938 96.5489L64.6364 96.1691C64.7602 96.1485 64.846 96.0469 64.8605 95.93L64.8338 95.7696C64.7798 95.6608 64.6646 95.5965 64.5399 95.6157Z" fill="white"/>
<path d="M65.0586 98.5936L62.916 98.9674C62.7679 98.9958 62.6646 99.1425 62.6919 99.2943C62.7186 99.4464 62.8611 99.5474 63.0152 99.5205L65.1554 99.1452C65.2679 99.1222 65.3513 99.0382 65.3771 98.9318L65.34 98.7134C65.2818 98.6249 65.1723 98.5723 65.0586 98.5936Z" fill="white"/>
<path d="M51.2391 66.2662C50.1115 65.8618 50.3645 68.0239 50.5648 68.895C50.8018 69.928 51.1972 70.7351 51.9714 70.2773C52.5349 69.9465 52.4886 68.9072 52.1119 67.8718C51.9192 67.3419 51.4804 66.3549 51.2391 66.2662Z" fill="white"/>
<path d="M52.898 63.8264C52.0522 64.0225 52.3037 66.529 53.4152 65.8701C53.5921 65.7616 53.7204 65.6098 53.7575 65.3764C53.8433 64.8135 53.3968 63.7099 52.898 63.8264Z" fill="white"/>
<path d="M50.6225 63.703C50.4874 63.1009 50.4782 62.5307 49.9901 62.5262C48.5212 62.5059 49.3432 65.7186 50.5102 64.9521C50.9199 64.6817 50.7626 64.3362 50.6225 63.703Z" fill="white"/>
<path d="M68.6992 153.845L75.3376 155.86L79.6379 156.904L75.4828 155.378L68.8444 153.361L68.6992 153.845Z" fill="#8F7ECE"/>
<path d="M71.4645 152.706L65.6778 150.95L64.7441 154.067L70.5071 155.817C70.6899 156.627 71.1569 157.41 71.8418 158.062L73.8036 151.61C72.8812 151.764 72.0651 152.144 71.4645 152.706Z" fill="#FF5000"/>
<path d="M65.7026 149.515C65.9606 149.593 66.1058 149.866 66.0277 150.124L64.5911 154.915C64.5151 155.173 64.242 155.319 63.9861 155.241C63.7302 155.163 63.5844 154.89 63.661 154.632L65.0973 149.842C65.176 149.583 65.4467 149.436 65.7026 149.515Z" fill="#FF5000"/>
<path fill-rule="evenodd" clip-rule="evenodd" d="M12.3417 148.716C12.2651 148.675 12.293 148.627 12.3295 148.575C13.6922 148.09 15.0385 147.436 16.4017 146.957C17.1822 148.09 18.4546 148.045 19.2882 147.064C20.2463 147.323 24.0181 148.273 24.9823 148.603C24.1858 149.855 22.7557 150.4 21.7102 151.425C19.5228 150.727 14.5388 149.543 12.3417 148.716Z" fill="#8F7ECE"/>
<path opacity="0.62" fill-rule="evenodd" clip-rule="evenodd" d="M12.3417 148.716C12.2651 148.675 12.293 148.627 12.3295 148.575C13.6922 148.09 15.0385 147.436 16.4017 146.957C17.1822 148.09 18.4546 148.045 19.2882 147.064C20.2463 147.323 24.0181 148.273 24.9823 148.603C24.1858 149.855 22.7557 150.4 21.7102 151.425C19.5228 150.727 14.5388 149.543 12.3417 148.716Z" fill="white"/>
<path fill-rule="evenodd" clip-rule="evenodd" d="M18.4824 149.319C19.3047 147.575 21.7878 146.373 23.1947 146.296C24.8192 146.207 26.8685 147.097 28.7587 147.727C30.7493 148.392 32.5569 148.912 34.2856 149.458C37.9669 150.617 41.3296 151.605 45.3419 152.917C49.2844 154.21 53.0826 155.567 56.4177 156.616C58.16 157.165 59.9873 157.868 61.9671 158.583C63.6771 159.2 65.4608 159.797 66.9609 160.882C67.1752 161.037 67.2224 161.927 67.4243 162.104C69.9647 164.326 70.768 166.904 71.0248 169.613C71.1145 170.546 71.1367 171.465 70.6166 172.079C69.8976 172.924 68.9298 172.331 67.8699 172.079C66.713 171.803 65.5507 172.125 64.501 171.758C63.2594 171.324 62.039 170.844 60.712 170.359C59.1626 169.792 57.748 169.465 56.4453 168.164C55.5873 167.306 55.3474 166.24 54.4348 165.36C53.1722 164.135 51.442 163.664 49.9235 163.064C48.3566 162.447 46.9658 161.983 45.4725 161.481C39.3298 159.41 33.8561 157.712 27.7612 155.551C26.3727 155.06 25.019 154.646 23.3093 153.966C22.1007 153.484 19.7774 152.741 18.8612 151.727C18.396 151.211 18.1036 150.118 18.4824 149.319Z" fill="#FF5000"/>
<path d="M71.1813 172.443C71.7014 171.83 71.6815 170.542 71.5919 169.609C71.3354 166.901 70.1268 163.601 67.5864 161.379C67.4246 161.237 67.2554 161.107 67.0847 160.979C65.9361 161.784 65.9839 163.213 65.7007 164.278C65.0357 166.779 64.3552 169.54 64.5028 171.756C65.5528 172.123 66.6162 172.458 67.7735 172.734C68.833 172.986 70.4623 173.288 71.1813 172.443Z" fill="#EFAD1B"/>
<path fill-rule="evenodd" clip-rule="evenodd" d="M20.324 150.114C20.2338 149.482 21.8143 148.524 22.5432 148.377C23.7238 148.137 26.1395 149.069 27.6049 149.492C32.6595 150.949 37.8661 152.592 42.9034 154.139C48.3538 155.812 52.7713 157.113 58.2299 159.141C59.8562 159.744 62.2656 160.594 63.3234 162.039C63.9543 162.903 64.3224 165.346 63.3941 166.379C62.2582 167.641 59.5433 166.733 58.1996 165.811C57.4586 165.301 56.8649 164.551 56.1506 163.962C54.7057 162.77 53.1299 162.167 51.5763 161.614C47.2702 160.079 42.4267 158.51 38.1143 156.988C35.0766 155.918 32.0636 154.839 29.086 153.712C27.6176 153.156 26.0947 152.665 24.5794 152.193C23.1233 151.737 21.3696 151.443 20.324 150.114Z" fill="#8F7ECE"/>
<path opacity="0.62" fill-rule="evenodd" clip-rule="evenodd" d="M20.324 150.114C20.2338 149.482 21.8143 148.524 22.5432 148.377C23.7238 148.137 26.1395 149.069 27.6049 149.492C32.6595 150.949 37.8661 152.592 42.9034 154.139C48.3538 155.812 52.7713 157.113 58.2299 159.141C59.8562 159.744 62.2656 160.594 63.3234 162.039C63.9543 162.903 64.3224 165.346 63.3941 166.379C62.2582 167.641 59.5433 166.733 58.1996 165.811C57.4586 165.301 56.8649 164.551 56.1506 163.962C54.7057 162.77 53.1299 162.167 51.5763 161.614C47.2702 160.079 42.4267 158.51 38.1143 156.988C35.0766 155.918 32.0636 154.839 29.086 153.712C27.6176 153.156 26.0947 152.665 24.5794 152.193C23.1233 151.737 21.3696 151.443 20.324 150.114Z" fill="white"/>
<path d="M26.2296 149.064C26.0527 149.008 25.8743 148.953 25.6938 148.897C24.5579 149.695 23.4298 150.596 22.3008 151.482C22.4851 151.555 22.6704 151.62 22.8595 151.681C23.4417 151.254 24.0232 150.796 24.601 150.344C25.1445 149.919 25.6988 149.5 26.2296 149.064Z" fill="#8F7ECE"/>
<path d="M30.7836 150.426C30.6004 150.568 30.4335 150.751 30.2664 150.873C29.344 151.547 28.294 152.327 27.3867 153.105C27.5933 153.174 27.7997 153.243 28.0054 153.317C29.0546 152.5 30.0826 151.449 31.1235 150.526C31.0098 150.492 30.8973 150.459 30.7836 150.426Z" fill="#8F7ECE"/>
<path d="M36.8214 152.26C35.5392 153.139 34.1489 154.101 32.916 155.129C33.0677 155.185 33.2188 155.24 33.3717 155.295C34.6676 154.394 35.956 153.416 37.2391 152.39C37.0999 152.348 36.9603 152.304 36.8214 152.26Z" fill="#8F7ECE"/>
<path d="M41.674 153.762C40.4167 154.696 39.1366 155.817 38.0117 156.952C38.0467 156.964 38.0806 156.977 38.1132 156.988C38.2074 157.023 38.3068 157.056 38.4042 157.089C39.622 156.097 40.9057 154.994 42.062 153.879C41.9328 153.84 41.8037 153.801 41.674 153.762Z" fill="#8F7ECE"/>
<path d="M46.7753 155.325C45.4975 156.242 44.2367 157.354 42.9922 158.668C43.1356 158.716 43.2778 158.764 43.4221 158.812C44.6609 157.74 45.9503 156.528 47.1398 155.439C47.0184 155.401 46.897 155.364 46.7753 155.325Z" fill="#8F7ECE"/>
<path d="M51.8038 156.908C50.5816 157.862 49.0372 159.085 47.8242 160.308C47.9827 160.362 48.1401 160.416 48.298 160.469C49.5749 159.361 50.8414 158.113 52.12 157.011C52.0149 156.978 51.9086 156.942 51.8038 156.908Z" fill="#8F7ECE"/>
<path d="M56.5693 158.533C56.4191 158.48 56.2695 158.426 56.1213 158.375C54.8329 159.45 53.5302 160.658 52.2812 161.871C52.4816 161.945 52.682 162.023 52.8809 162.103C52.9483 162.035 53.0145 161.968 53.0807 161.902C54.197 160.784 55.4145 159.595 56.5693 158.533Z" fill="#8F7ECE"/>
<path d="M60.7093 160.139C60.5923 160.085 60.4738 160.03 60.3554 159.978C60.0244 160.34 59.6904 160.709 59.3374 161.07C58.3711 162.059 57.2824 163.137 56.4883 164.259C56.6112 164.374 56.7344 164.492 56.8549 164.609C58.1493 163.242 59.4238 161.627 60.7093 160.139Z" fill="#8F7ECE"/>
<path d="M61.0312 166.937C61.1687 166.959 61.3053 166.975 61.4403 166.985C62.271 166.046 63.1052 164.988 63.929 164.006C63.9198 163.893 63.9071 163.783 63.8905 163.673C62.936 164.743 61.9872 165.887 61.0312 166.937Z" fill="#8F7ECE"/>
<path fill-rule="evenodd" clip-rule="evenodd" d="M61.9835 168.96C62.7489 168.69 64.0848 168.98 65.3816 169.343C65.9358 169.5 66.83 169.765 66.7472 170.283C66.6486 170.9 65.5864 170.759 65.2061 170.708C64.0035 170.543 62.5823 170.1 61.896 169.642C61.7974 169.476 61.8529 169.14 61.9835 168.96Z" fill="white"/>
<path fill-rule="evenodd" clip-rule="evenodd" d="M65.6548 168.061C65.6129 166.745 68.4448 167.138 68.1782 168.198C68.0627 168.656 66.6241 168.98 65.9917 168.659C65.7658 168.543 65.6625 168.287 65.6548 168.061Z" fill="white"/>
<path d="M21.8079 168.479C22.3149 169.999 23.9558 170.818 25.4627 170.307L32.379 167.968C32.5916 167.899 32.707 167.664 32.634 167.452C32.5633 167.235 32.3327 167.12 32.1186 167.193L25.2017 169.532C24.1205 169.897 22.9446 169.309 22.5824 168.221C22.2178 167.132 22.8027 165.946 23.8836 165.582L31.874 162.879C32.631 162.624 33.4516 163.034 33.706 163.797C33.9581 164.557 33.5519 165.385 32.7949 165.637L26.1915 167.872C25.7468 168.024 25.2617 167.78 25.1121 167.332C24.9619 166.883 25.2047 166.396 25.6479 166.243L30.5357 164.593C30.7483 164.522 30.8637 164.289 30.7901 164.074C30.7195 163.859 30.4903 163.744 30.2762 163.816L25.3894 165.467C24.5192 165.764 24.0472 166.716 24.3408 167.595C24.6323 168.47 25.5814 168.944 26.4513 168.652L33.0547 166.419C34.2359 166.019 34.8745 164.725 34.4773 163.536C34.0801 162.346 32.7964 161.702 31.6166 162.101L23.6244 164.804C22.1163 165.313 21.3032 166.961 21.8079 168.479Z" fill="#B1BC00"/>
<path d="M116.733 160.159C116.599 160.2 116.459 160.196 116.332 160.156C116.134 160.09 115.966 159.931 115.899 159.716L112.967 150.147C112.9 149.93 112.951 149.704 113.078 149.538C113.161 149.432 113.275 149.348 113.408 149.307L133.825 143.675C134.181 143.564 134.552 143.765 134.661 144.121L137.197 152.4C137.306 152.753 137.11 153.132 136.757 153.24L117.499 159.894L116.733 160.159Z" fill="#4D3D87"/>
<path d="M103.993 159.865L95.7419 162.426L94.0898 160.732L93.168 159.785L103.032 156.725L103.993 159.865Z" fill="#B1BC00"/>
<path d="M109.538 163.939L105.21 165.282C104.769 165.419 104.295 165.171 104.159 164.721L103.154 161.448C103.019 161.002 102.544 160.746 102.101 160.887L99.2839 161.76C98.8407 161.899 98.3683 161.65 98.2303 161.2L97.5371 158.935C97.4011 158.49 97.6508 158.014 98.0928 157.875L100.912 157C101.353 156.863 101.606 156.391 101.469 155.94L100.464 152.667C100.329 152.221 100.579 151.743 101.021 151.606L105.348 150.262C105.796 150.124 106.265 150.379 106.402 150.823L110.095 162.877C110.234 163.328 109.984 163.8 109.538 163.939Z" fill="#4D3D87"/>
<path d="M109.39 164.148C109.218 164.202 109.034 164.195 108.874 164.145C108.619 164.06 108.403 163.855 108.316 163.575L104.542 151.254C104.457 150.976 104.52 150.684 104.684 150.467C104.791 150.335 104.935 150.227 105.109 150.172L131.403 142.919C131.856 142.776 132.337 143.035 132.477 143.493L135.743 154.152C135.884 154.612 135.63 155.099 135.177 155.239L110.378 163.806L109.39 164.148Z" fill="#B1BC00"/>
<path fill-rule="evenodd" clip-rule="evenodd" d="M126.559 145.708C127.246 146.031 128.519 145.886 129.762 145.668C130.291 145.574 131.149 145.41 131.118 144.919C131.084 144.338 130.08 144.368 129.723 144.382C128.587 144.422 127.223 144.704 126.541 145.066C126.432 145.211 126.453 145.53 126.559 145.708Z" fill="white"/>
<path fill-rule="evenodd" clip-rule="evenodd" d="M129.898 146.891C129.738 148.11 132.411 148.009 132.26 146.998C132.194 146.559 130.881 146.122 130.265 146.363C130.043 146.45 129.925 146.676 129.898 146.891Z" fill="white"/>
<path fill-rule="evenodd" clip-rule="evenodd" d="M108.475 156.527C109.2 156.978 109.848 158.267 110.412 159.574C110.651 160.133 111.025 161.042 110.552 161.317C109.986 161.644 109.397 160.678 109.188 160.332C108.526 159.235 107.947 157.774 107.865 156.905C107.932 156.715 108.242 156.539 108.475 156.527Z" fill="white"/>
<path fill-rule="evenodd" clip-rule="evenodd" d="M111.632 158.95C112.671 158.045 114.224 160.632 113.189 161.114C112.741 161.321 111.526 160.353 111.368 159.623C111.312 159.36 111.452 159.108 111.632 158.95Z" fill="white"/>
<path d="M93.9512 168.94L92.943 169.217L86.9803 170.198C86.5255 170.341 86.0458 170.079 85.9038 169.622L82.6385 158.963C82.4981 158.505 82.7493 158.018 83.2064 157.876L89.6694 154.965C89.844 154.912 90.0254 154.918 90.1872 154.97C90.4437 155.054 90.6595 155.258 90.7429 155.538L94.5192 167.858C94.6041 168.137 94.5411 168.43 94.3764 168.645C94.2716 168.78 94.1249 168.885 93.9512 168.94Z" fill="#4D3D87"/>
<path fill-rule="evenodd" clip-rule="evenodd" d="M86.645 166.222C85.9054 165.808 84.8821 162.504 86.0209 162.223C86.9496 161.996 87.7852 164.932 87.3586 165.84C87.2479 166.076 87.1081 166.185 86.645 166.222Z" fill="white"/>
<path fill-rule="evenodd" clip-rule="evenodd" d="M88.2938 161.772C87.3266 162.372 86.8801 160.698 87.4649 160.351C88.2519 159.883 89.1479 161.243 88.2938 161.772Z" fill="white"/>
<path fill-rule="evenodd" clip-rule="evenodd" d="M85.4337 160.833C84.4231 161.211 83.7643 158.659 84.7283 158.437C85.1344 158.344 85.3084 158.594 85.561 159.066C85.9348 159.762 86.1396 160.569 85.4337 160.833Z" fill="white"/>
<path fill-rule="evenodd" clip-rule="evenodd" d="M98.791 126.619C98.8593 125.401 100.021 123.712 101.261 122.121C101.791 121.44 102.67 120.353 103.327 120.762C104.12 121.253 103.317 122.649 103.03 123.144C102.115 124.722 100.696 126.438 99.6736 127.13C99.3928 127.174 98.9611 126.904 98.791 126.619Z" fill="white"/>
<path fill-rule="evenodd" clip-rule="evenodd" d="M101.325 119.382C99.4976 118.687 101.657 114.981 102.955 115.957C103.518 116.382 103.138 118.565 102.338 119.257C102.049 119.504 101.643 119.501 101.325 119.382Z" fill="white"/>
<path fill-rule="evenodd" clip-rule="evenodd" d="M101.476 109.447C100.806 109.269 100.666 108.267 100.901 107.285C101.089 106.496 101.809 105.071 102.595 105.565C102.945 105.783 103.162 106.57 102.988 107.391C102.786 108.355 102.339 109.674 101.476 109.447Z" fill="white"/>
<path fill-rule="evenodd" clip-rule="evenodd" d="M49.1898 112.242C47.1324 113.193 47.2927 107.293 49.2637 108.339C50.2924 108.882 49.7256 111.276 49.1898 112.242Z" fill="white"/>
<path fill-rule="evenodd" clip-rule="evenodd" d="M46.9362 115.504C47.1274 115.062 47.761 114.263 48.6115 114.719C49.7221 115.314 49.8239 117.857 50.054 118.857C50.3358 120.074 51.4075 122.235 50.38 123.19C48.9146 124.549 47.8358 121.083 47.5125 119.876C47.343 119.234 47.2367 118.589 47.1188 118.039C46.9175 117.097 46.5648 116.353 46.9362 115.504Z" fill="white"/>
</g>
<defs>
<clipPath id="clip0_13_688">
<rect width="152" height="153" fill="white" transform="translate(0 20)"/>
</clipPath>
</defs>
</svg>
