<svg width="171" height="180" viewBox="0 0 171 180" fill="none" xmlns="http://www.w3.org/2000/svg">
<rect x="13" width="153" height="153" rx="76.5" fill="#EFF2FD"/>
<g clip-path="url(#clip0_13_686)">
<path fill-rule="evenodd" clip-rule="evenodd" d="M49.0732 22.863C54.6972 22.3169 61.3298 24.26 66.0446 25.439C76.7178 28.1049 86.8124 30.5557 97.1112 33.4703C102.067 34.8724 107.214 36.4415 112.265 37.8642C122.615 40.7839 131.894 43.021 142.724 46.5024C147.372 47.996 152.59 49.3834 157.573 51.2012C161.748 52.7205 167.106 54.8016 169.394 58.778C169.914 59.6821 170.735 61.489 170.91 62.87C171.368 66.4897 169.987 70.5109 169.09 73.7806C166.378 83.6972 162.659 92.9777 159.696 102.573C156.484 112.977 154.279 122.015 151.815 132.88C150.211 139.959 149.468 148.346 140.147 147.275C138.756 147.117 137.564 146.69 136.207 146.367C133.357 145.688 130.251 145.67 127.722 145.155C122.262 144.043 116.774 142.561 111.961 141.366C101.07 138.662 91.2718 136.073 81.0485 133.335C65.6492 129.211 51.9795 123.892 36.1918 119.545C30.9532 118.101 23.4903 117.34 21.0382 113.939C20.5035 113.195 19.6251 111.422 19.2187 110.15C18.5136 107.941 19.2284 105.448 19.6749 102.726C21.6534 90.5997 24.9969 78.112 28.0081 67.2639C30.8958 56.8623 34.3595 49.0076 37.4045 39.0766C38.3503 35.9899 39.0907 32.6514 40.4347 29.6803C42.0649 26.0796 45.5163 23.2083 49.0732 22.863Z" fill="#FF5000"/>
<path fill-rule="evenodd" clip-rule="evenodd" d="M107.453 44.9333C109.417 43.6999 111.31 42.3734 114.419 42.0554C119.781 41.5047 125.768 42.6963 130.181 43.7223C134.615 44.7533 138.847 46.451 143.291 47.8126C147.408 49.0768 151.743 50.3663 156.563 51.7553C160.378 52.8521 167.227 54.4886 168.176 57.2089C168.748 58.8455 168.025 61.2542 167.347 62.9678C165.407 67.8657 163.565 73.3133 162.038 78.425C160.008 85.2246 157.332 91.9213 155.068 99.0338C152.924 105.772 150.805 112.792 148.266 119.795C147.116 122.975 145.776 126.19 144.452 129.797C143.16 133.305 142.373 137.618 138.812 138.437C136.733 138.909 135.132 138.003 133.001 136.919C131.174 135.987 129.158 135.179 127.861 134.494C124.456 132.705 121.143 130.698 118.069 129.343C110.735 126.108 100.096 124.968 92.5176 127.523C87.9247 129.076 85.2845 131.106 81.069 134.04C74.255 124.987 66.9802 119.224 55.5172 115.096C51.8059 113.76 47.7958 112.628 43.2399 112.369C37.7332 112.056 28.5746 114.139 25.9859 110.55C25.4188 109.768 24.9823 107.719 25.1556 105.701C25.4689 102.062 26.699 98.3815 27.4778 94.7925C28.2503 91.2353 29.0773 87.6493 29.9687 84.1822C31.6406 77.6621 34.1602 71.6077 36.2736 64.1802C39.1032 54.2265 41.8959 44.1077 44.8991 33.4169C45.6185 30.8636 47.1876 24.4768 50.2098 24.4768C52.5497 24.4768 55.267 25.3024 57.679 25.9928C64.6119 27.9746 70.7592 30.0283 78.2495 31.7517C85.2979 33.3705 92.4492 35.0391 98.3253 37.9651C102.1 39.8394 105.452 41.4566 107.453 44.9333Z" fill="#C0B7E4"/>
<path fill-rule="evenodd" clip-rule="evenodd" d="M108.778 38.1692C110.574 36.9328 112.303 35.6062 115.144 35.2899C120.041 34.7392 125.509 35.9305 129.54 36.9535C133.587 37.9862 137.454 39.6851 141.512 41.0471C145.271 42.3092 149.233 43.5988 153.633 44.9881C157.118 46.0866 163.372 47.7231 164.242 50.4418C164.764 52.08 164.104 54.4887 163.484 56.2007C161.711 61.0989 160.03 66.5462 158.634 71.6595C156.781 78.4574 154.337 85.1541 152.27 92.2683C150.311 99.0068 148.376 106.026 146.057 113.03C145.005 116.208 143.782 119.425 142.572 123.03C141.394 126.537 140.677 130.851 137.42 131.668C135.525 132.145 134.061 131.235 132.114 130.152C130.444 129.219 128.607 128.411 127.417 127.727C124.311 125.938 121.286 123.931 118.478 122.577C111.778 119.343 102.059 118.203 95.1406 120.757C90.9445 122.307 88.5338 124.339 84.6846 127.273C78.4585 118.22 71.8148 112.458 61.3471 108.333C57.9585 106.995 54.294 105.863 50.1329 105.604C45.1048 105.291 36.7378 107.372 34.3738 103.784C33.8552 103.001 33.4554 100.952 33.616 98.936C33.9019 95.2952 35.0245 91.6144 35.7375 88.0254C36.4425 84.4681 37.1974 80.8821 38.0116 77.4167C39.5389 70.895 41.8371 64.8408 43.7688 57.4134C46.3559 47.46 48.9062 37.3392 51.6492 26.6517C52.3045 24.0967 53.7386 17.7116 56.496 17.71C58.6335 17.71 61.118 18.5369 63.3163 19.2259C69.6499 21.2074 75.2659 23.2601 82.1089 24.9848C88.5438 26.6066 95.0752 28.2739 100.444 31.1983C103.891 33.0736 106.954 34.6907 108.778 38.1692Z" fill="#E2DFF2"/>
<path fill-rule="evenodd" clip-rule="evenodd" d="M144.69 107.87C144.3 108.395 143.701 107.944 143.341 107.816C142.111 107.379 140.891 106.603 139.641 106.065C137.914 105.322 136.09 104.713 134.25 104.042C130.725 102.757 127.044 101.374 123.265 100.249C116.49 98.2266 109.095 96.8924 102.126 95.0067C101.27 94.7739 100.244 94.6183 99.6211 93.9242C99.7513 93.274 100.416 93.3511 100.948 93.3445C101.94 93.3301 103.084 93.6577 104.237 93.8762C107.274 94.4479 110.395 95.3039 113.142 96.001C117.182 97.0273 121.114 98.0613 124.937 98.9801C131.03 100.441 136.887 101.802 141.243 104.607C141.922 105.046 142.603 105.585 143.255 106.088C143.818 106.526 144.775 107.012 144.69 107.87Z" fill="white"/>
<path fill-rule="evenodd" clip-rule="evenodd" d="M137.945 123.226C137.552 123.751 136.956 123.3 136.595 123.171C135.365 122.733 134.144 121.959 132.895 121.419C131.17 120.677 129.345 120.069 127.505 119.397C123.979 118.112 120.299 116.73 116.519 115.603C109.744 113.582 102.348 112.248 95.3802 110.362C94.5259 110.13 93.4982 109.974 92.875 109.282C93.0066 108.63 93.6716 108.706 94.2029 108.698C95.1939 108.685 96.3371 109.013 97.492 109.23C100.529 109.802 103.649 110.659 106.394 111.358C110.436 112.383 114.367 113.417 118.192 114.335C124.284 115.797 130.14 117.159 134.497 119.964C135.177 120.401 135.856 120.94 136.508 121.443C137.073 121.88 138.029 122.368 137.945 123.226Z" fill="white"/>
<path fill-rule="evenodd" clip-rule="evenodd" d="M139.729 119.452C139.339 119.979 138.739 119.528 138.38 119.397C137.15 118.962 135.929 118.186 134.678 117.647C132.953 116.904 131.131 116.296 129.289 115.625C125.764 114.339 122.085 112.957 118.304 111.83C111.529 109.81 104.134 108.475 97.1654 106.59C96.3094 106.357 95.2817 106.201 94.6602 105.508C94.7901 104.857 95.455 104.934 95.9884 104.926C96.9793 104.913 98.1209 105.241 99.2775 105.459C102.313 106.029 105.435 106.888 108.181 107.585C112.221 108.61 116.153 109.644 119.978 110.562C126.069 112.024 131.926 113.384 136.282 116.19C136.961 116.628 137.642 117.168 138.294 117.672C138.857 118.108 139.814 118.594 139.729 119.452Z" fill="white"/>
<path fill-rule="evenodd" clip-rule="evenodd" d="M141.629 111.158C140.662 111.416 139.644 110.923 138.795 110.584C132.816 108.201 126.329 105.752 119.638 103.748C113.982 102.053 107.831 100.642 101.985 98.8786C101.105 98.6121 100.069 98.2861 99.1924 97.9471C98.425 97.6516 97.3472 97.3627 97.3776 96.3076C98.431 95.7873 100.172 96.2996 101.776 96.5965C108.977 97.9311 116.022 99.932 122.18 101.94C127.725 103.746 132.714 105.834 137.605 108.198C138.343 108.554 139.153 108.989 139.914 109.439C140.548 109.813 141.65 110.173 141.629 111.158Z" fill="white"/>
<path fill-rule="evenodd" clip-rule="evenodd" d="M141.629 115.619C140.662 115.877 139.644 115.384 138.795 115.045C132.816 112.662 126.329 110.213 119.638 108.209C113.982 106.513 107.831 105.103 101.985 103.34C101.105 103.075 100.069 102.749 99.1924 102.408C98.425 102.113 97.3472 101.824 97.3776 100.769C98.431 100.248 100.172 100.759 101.776 101.058C108.977 102.392 116.022 104.393 122.18 106.401C127.725 108.207 132.714 110.295 137.605 112.659C138.343 113.015 139.153 113.449 139.914 113.9C140.548 114.275 141.65 114.634 141.629 115.619Z" fill="white"/>
<path fill-rule="evenodd" clip-rule="evenodd" d="M121.791 40.3133C121.387 42.6662 120.846 44.9063 120.274 47.1176C117.868 46.5268 115.527 45.8745 112.832 45.5679C113.192 44.6107 113.519 43.5396 113.99 42.4972C114.367 41.667 115 40.3935 115.776 40.0208C116.485 39.6788 117.56 39.6434 118.334 39.6818C119.508 39.7415 120.656 40.2539 121.791 40.3133Z" fill="#8F7ECE"/>
<path fill-rule="evenodd" clip-rule="evenodd" d="M123.433 40.6331C125.736 41.1597 127.716 42.0077 129.865 42.6904C129.115 44.7781 128.328 46.8402 127.728 49.0548C125.696 48.6901 123.984 48.0094 122.006 47.5886C122.534 45.3145 123.005 42.9907 123.433 40.6331Z" fill="#8F7ECE"/>
<path fill-rule="evenodd" clip-rule="evenodd" d="M131.346 43.2473C133.087 43.8158 134.751 44.466 136.482 45.0492C136.112 47.2074 135.347 49.0353 134.844 51.0843C133.008 50.5769 131.232 50.0148 129.377 49.5282C130.007 47.4131 130.694 45.3464 131.346 43.2473Z" fill="#8F7ECE"/>
<path fill-rule="evenodd" clip-rule="evenodd" d="M144.321 47.8982C143.823 49.851 143.311 51.7908 142.85 53.7726C140.752 53.0402 138.6 52.3625 136.5 51.6351C137.041 49.6696 137.608 47.7262 138.053 45.6802C140.206 46.3565 142.22 47.1691 144.321 47.8982Z" fill="#8F7ECE"/>
<path fill-rule="evenodd" clip-rule="evenodd" d="M119.908 48.6836C119.499 50.1852 119.062 51.6657 118.726 53.2267C116.002 52.9763 113.74 52.2712 110.711 52.321C111.257 50.5335 111.792 48.738 112.376 46.9829C115.021 47.4148 117.449 48.065 119.908 48.6836Z" fill="#8F7ECE"/>
<path fill-rule="evenodd" clip-rule="evenodd" d="M127.195 50.6267C126.742 52.1186 126.26 53.5865 125.748 55.027C124.009 54.5083 122.224 54.0297 120.371 53.6232C120.794 52.157 121.189 50.6668 121.556 49.1555C123.54 49.5459 125.268 50.1835 127.195 50.6267Z" fill="#8F7ECE"/>
<path fill-rule="evenodd" clip-rule="evenodd" d="M150.412 50.0486C149.839 52.0111 149.132 53.8627 148.596 55.8573C147.13 55.4719 145.949 54.8052 144.504 54.4008C145.003 52.4513 145.325 50.3522 145.885 48.4539C147.404 48.9759 148.874 49.546 150.412 50.0486Z" fill="#8F7ECE"/>
<path fill-rule="evenodd" clip-rule="evenodd" d="M128.843 51.1003C130.815 51.4985 132.541 52.1377 134.395 52.6517C133.977 54.1967 133.465 55.6629 133.131 57.2754C131.173 56.7837 129.471 56.0386 127.484 55.5731C127.8 53.9703 128.499 52.6821 128.843 51.1003Z" fill="#8F7ECE"/>
<path fill-rule="evenodd" clip-rule="evenodd" d="M151.893 50.6057C153.359 51.097 156.218 51.9964 156.979 53.2619C158.02 54.9899 156.568 57.1531 156.446 59.0174C154.289 58.2626 152.325 57.3198 150.17 56.5667C150.751 54.5855 151.434 52.6904 151.893 50.6057Z" fill="#8F7ECE"/>
<path fill-rule="evenodd" clip-rule="evenodd" d="M118.189 54.7989C117.904 56.726 117.266 58.3642 116.871 60.1998C114.215 59.8287 111.478 59.5381 108.686 59.302C109.158 57.3783 109.651 55.4736 110.34 53.7295C113.176 53.8708 115.564 54.4506 118.189 54.7989Z" fill="#8F7ECE"/>
<path fill-rule="evenodd" clip-rule="evenodd" d="M136.049 53.2024C138.215 53.8931 140.334 54.6302 142.486 55.3365C142.051 56.9427 141.614 58.5468 141.228 60.193C138.996 59.5154 136.987 58.6159 134.787 57.9045C135.089 56.2393 135.632 54.7731 136.049 53.2024Z" fill="#8F7ECE"/>
<path fill-rule="evenodd" clip-rule="evenodd" d="M125.298 56.5945C124.741 58.247 124.28 59.9814 123.707 61.6209C122.069 61.1888 120.342 60.8438 118.6 60.5161C119.049 58.724 119.501 56.9331 120.008 55.1877C121.831 55.5989 123.629 56.0341 125.298 56.5945Z" fill="#8F7ECE"/>
<path fill-rule="evenodd" clip-rule="evenodd" d="M144.054 55.9695C145.48 56.3676 146.682 56.9845 148.059 57.4293C147.6 59.0642 147.072 60.6413 146.545 62.2197C145.289 61.8135 144.115 61.3316 142.887 60.8998C143.149 59.1494 143.78 57.7072 144.054 55.9695Z" fill="#8F7ECE"/>
<path fill-rule="evenodd" clip-rule="evenodd" d="M132.595 58.8493C132.214 60.5225 131.685 62.0739 131.256 63.7087C129.287 63.1723 127.402 62.5541 125.438 62.0144C125.93 60.3572 126.467 58.735 126.947 57.0681C128.887 57.6045 130.721 58.2471 132.595 58.8493Z" fill="#8F7ECE"/>
<path fill-rule="evenodd" clip-rule="evenodd" d="M149.635 58.1392C151.874 58.8379 153.803 59.8431 155.996 60.5866C155.511 62.1987 154.981 63.7745 154.569 65.4494C152.504 64.5259 150.388 63.6522 148.201 62.8477C148.644 61.2516 149.26 59.7951 149.635 58.1392Z" fill="#8F7ECE"/>
<path fill-rule="evenodd" clip-rule="evenodd" d="M140.697 61.844C140.353 63.4485 139.847 64.921 139.432 66.4674C137.363 65.6257 135.187 64.8919 132.908 64.2594C133.355 62.6646 133.832 61.0955 134.252 59.4771C136.494 60.1741 138.637 60.9673 140.697 61.844Z" fill="#8F7ECE"/>
<path fill-rule="evenodd" clip-rule="evenodd" d="M116.335 61.7716C115.845 63.9285 115.22 65.9742 114.624 68.0412C112.063 67.6044 109.511 67.1578 106.689 66.9781C107.125 64.9498 107.669 63.0131 108.156 61.0282C108.148 60.8949 108.212 60.8258 108.318 60.7891C111.154 60.9557 113.71 61.3976 116.335 61.7716Z" fill="#8F7ECE"/>
<path fill-rule="evenodd" clip-rule="evenodd" d="M123.252 63.111C122.645 65.1971 121.99 67.2414 121.455 69.3856C119.761 69.0356 118.06 68.6949 116.352 68.3579C116.933 66.2765 117.564 64.2372 118.064 62.0884C119.925 62.3018 121.499 62.7948 123.252 63.111Z" fill="#8F7ECE"/>
<path fill-rule="evenodd" clip-rule="evenodd" d="M142.354 62.4722C143.652 62.8062 144.702 63.3843 146.006 63.7136C145.668 65.4513 145 66.9128 144.58 68.5781C143.422 68.1028 142.323 67.5711 141.09 67.1747C141.434 65.5425 141.98 64.078 142.354 62.4722Z" fill="#8F7ECE"/>
<path fill-rule="evenodd" clip-rule="evenodd" d="M130.805 65.2777C130.229 67.2899 129.663 69.3085 129.084 71.3158C127.043 70.8485 125.192 70.1966 123.102 69.7821C123.718 67.7298 124.32 65.6678 124.902 63.5847C126.975 64.0459 128.828 64.7236 130.805 65.2777Z" fill="#8F7ECE"/>
<path fill-rule="evenodd" clip-rule="evenodd" d="M154.12 67.0183C153.719 68.9504 153.12 70.7182 152.726 72.6566C150.525 71.5695 148.35 70.4567 146.238 69.2827C146.593 67.5627 147.249 66.0902 147.664 64.4199C149.955 65.1507 152.009 66.1142 154.12 67.0183Z" fill="#8F7ECE"/>
<path fill-rule="evenodd" clip-rule="evenodd" d="M138.982 68.0363C138.391 70.1097 137.712 72.1073 137.093 74.1583C134.954 73.4405 133.003 72.5378 130.74 71.9436C131.285 69.8816 131.888 67.8693 132.457 65.8284C134.787 66.4115 136.909 67.2014 138.982 68.0363Z" fill="#8F7ECE"/>
<path fill-rule="evenodd" clip-rule="evenodd" d="M114.176 69.6121C113.67 71.5553 113.034 73.3925 112.527 75.3373C109.901 74.9101 107.571 74.1924 104.916 73.794C105.425 72.0258 105.831 70.1742 106.32 68.3884C109.021 68.7144 111.638 69.1239 114.176 69.6121Z" fill="#8F7ECE"/>
<path fill-rule="evenodd" clip-rule="evenodd" d="M140.555 68.7466C141.878 69.0839 142.925 69.6924 144.13 70.147C143.502 72.1896 142.829 74.1939 142.329 76.3427C141.051 75.9075 139.859 75.3855 138.748 74.7884C139.276 72.7133 140.049 70.839 140.555 68.7466Z" fill="#8F7ECE"/>
<path fill-rule="evenodd" clip-rule="evenodd" d="M120.919 70.8806C120.501 72.949 119.867 74.8377 119.454 76.9077C117.572 76.6602 115.978 76.1352 114.176 75.8109C114.764 73.8581 115.348 71.9036 115.904 69.9268C117.638 70.1836 119.199 70.6108 120.919 70.8806Z" fill="#8F7ECE"/>
<path fill-rule="evenodd" clip-rule="evenodd" d="M128.55 72.8866C128.052 74.8892 127.358 76.7281 126.818 78.6936C124.869 78.2728 122.966 77.8072 121.1 77.3046C121.644 75.3438 122.108 73.3138 122.653 71.3513C124.752 71.7334 126.61 72.3486 128.55 72.8866Z" fill="#8F7ECE"/>
<path fill-rule="evenodd" clip-rule="evenodd" d="M145.708 70.9336C147.924 72.0304 150.172 73.0985 152.198 74.383C151.793 76.4113 151.286 78.3561 150.905 80.402C148.533 79.35 146.193 78.2662 143.906 77.129C144.423 74.9948 145.082 72.9779 145.708 70.9336Z" fill="#8F7ECE"/>
<path fill-rule="evenodd" clip-rule="evenodd" d="M136.558 75.7306C136.099 77.6143 135.416 79.3149 134.986 81.2196C132.738 80.6382 130.749 79.7985 128.471 79.2445C129.059 77.2933 129.625 75.3245 130.287 73.4358C132.421 74.1552 134.529 74.9067 136.558 75.7306Z" fill="#8F7ECE"/>
<path fill-rule="evenodd" clip-rule="evenodd" d="M111.992 76.9093C111.409 78.9633 110.81 81.0043 110.188 83.0279C107.844 82.5123 105.526 81.9695 102.928 81.703C103.541 79.5976 103.936 77.3125 104.635 75.2778C107.19 75.7194 109.483 76.4197 111.992 76.9093Z" fill="#8F7ECE"/>
<path fill-rule="evenodd" clip-rule="evenodd" d="M119.004 78.4766C118.596 80.6268 118.047 82.6601 117.637 84.8103C115.777 84.3027 113.887 83.8211 111.92 83.4196C112.511 81.372 113.088 79.3116 113.723 77.301C115.43 77.7442 117.191 78.1346 119.004 78.4766Z" fill="#8F7ECE"/>
<path fill-rule="evenodd" clip-rule="evenodd" d="M138.217 76.437C139.458 76.9333 140.746 77.3892 141.801 78.0702C141.4 79.8767 140.907 81.6098 140.478 83.3939C139.142 82.909 137.926 82.3051 136.555 81.8522C137.123 80.0584 137.632 78.2182 138.217 76.437Z" fill="#8F7ECE"/>
<path fill-rule="evenodd" clip-rule="evenodd" d="M126.283 80.2658C125.755 82.4401 125.074 84.4877 124.489 86.6172C122.793 86.1627 121.159 85.6457 119.373 85.2793C119.718 83.0777 120.271 81.046 120.74 78.9473C122.66 79.315 124.46 79.8016 126.283 80.2658Z" fill="#8F7ECE"/>
<path fill-rule="evenodd" clip-rule="evenodd" d="M143.46 78.7754C145.848 79.8385 148.151 80.985 150.542 82.0451C150.173 83.9031 149.723 85.6952 149.314 87.5211C146.889 86.4113 144.456 85.3115 142.137 84.0988C142.524 82.2812 142.997 80.5325 143.46 78.7754Z" fill="#8F7ECE"/>
<path fill-rule="evenodd" clip-rule="evenodd" d="M128.017 80.7361C130.171 81.4107 132.323 82.0897 134.451 82.7931C133.926 84.9707 133.312 87.0744 132.833 89.2907C130.654 88.56 128.473 87.8292 126.227 87.1646C126.704 84.9212 127.406 82.8672 128.017 80.7361Z" fill="#8F7ECE"/>
<path fill-rule="evenodd" clip-rule="evenodd" d="M109.738 84.5969C109.192 86.532 108.56 88.3966 108.005 90.3254C106.155 89.7713 103.314 89.2893 102.489 87.6114C101.906 86.4278 102.386 84.7739 102.57 83.4233C102.567 83.3461 102.564 83.2676 102.561 83.1921C105.235 83.3845 107.398 84.0765 109.738 84.5969Z" fill="#8F7ECE"/>
<path fill-rule="evenodd" clip-rule="evenodd" d="M136.106 83.4214C137.477 83.9 138.786 84.4397 140.032 85.0402C139.644 87.2068 139.038 89.1916 138.756 91.4464C137.246 91.0242 136 90.3432 134.49 89.9207C134.979 87.7124 135.537 85.5639 136.106 83.4214Z" fill="#8F7ECE"/>
<path fill-rule="evenodd" clip-rule="evenodd" d="M117.275 86.3748C116.949 88.4689 116.409 90.3863 116.07 92.4694C113.862 92.0068 111.779 91.4207 109.656 90.8763C110.247 88.9024 110.85 86.9386 111.471 84.9905C113.515 85.3422 115.381 85.8722 117.275 86.3748Z" fill="#8F7ECE"/>
<path fill-rule="evenodd" clip-rule="evenodd" d="M141.695 85.8237C144.146 86.8788 146.589 87.9402 148.784 89.2474C148.394 91.2643 147.722 93.0455 147.488 95.191C145.055 94.2548 142.84 93.0986 140.332 92.2329C140.741 90.0603 141.188 87.9165 141.695 85.8237Z" fill="#8F7ECE"/>
<path fill-rule="evenodd" clip-rule="evenodd" d="M124.125 88.1812C123.576 90.1661 123.155 92.2555 122.663 94.2872C121.009 93.8456 119.341 93.4168 117.719 92.9429C118.165 90.9243 118.56 88.8622 119.01 86.845C120.794 87.213 122.427 87.7284 124.125 88.1812Z" fill="#8F7ECE"/>
<path fill-rule="evenodd" clip-rule="evenodd" d="M132.474 90.934C132.159 92.9623 131.615 94.8012 131.35 96.8713C128.96 96.2641 126.739 95.4919 124.402 94.835C124.717 92.6798 125.306 90.756 125.779 88.7324C128.083 89.397 130.348 90.0971 132.474 90.934Z" fill="#8F7ECE"/>
<path fill-rule="evenodd" clip-rule="evenodd" d="M134.129 91.562C135.716 91.9087 136.919 92.6331 138.395 93.0893C138.128 95.0598 137.675 96.873 137.435 98.8643C136.087 98.6024 134.536 97.8463 133.004 97.4993C133.275 95.4356 133.813 93.5903 134.129 91.562Z" fill="#8F7ECE"/>
<path fill-rule="evenodd" clip-rule="evenodd" d="M140.058 93.8728C142.493 94.7819 144.854 95.7662 147.046 96.9127C146.696 98.5973 146.461 100.602 144.727 100.961C143.667 101.183 142.569 100.765 141.619 100.471C140.686 100.182 139.784 99.9092 139.092 99.4918C139.363 97.5777 139.76 95.7645 140.058 93.8728Z" fill="#8F7ECE"/>
<g opacity="0.94">
<g opacity="0.94">
<path opacity="0.94" fill-rule="evenodd" clip-rule="evenodd" d="M104.367 42.9007C103.949 43.4611 103.314 42.9812 102.93 42.8446C101.623 42.379 100.325 41.5551 98.9938 40.9816C97.1599 40.1901 95.2181 39.5445 93.2606 38.8297C89.5107 37.4631 85.5957 35.9919 81.5758 34.7939C74.3685 32.645 66.5011 31.2256 59.0897 29.2197C58.1793 28.9722 57.0855 28.8069 56.4238 28.0681C56.5638 27.3744 57.2718 27.4579 57.8369 27.4499C58.8903 27.4355 60.1077 27.7839 61.3347 28.0153C64.5657 28.6242 67.8838 29.536 70.8065 30.2781C75.1039 31.3685 79.2857 32.4683 83.3536 33.4449C89.8353 34.9996 96.0644 36.4481 100.698 39.4319C101.422 39.8975 102.145 40.4726 102.839 41.0073C103.439 41.4712 104.455 41.9899 104.367 42.9007Z" fill="#8F7ECE"/>
<path opacity="0.94" fill-rule="evenodd" clip-rule="evenodd" d="M101.109 46.3998C100.081 46.6743 98.9987 46.1493 98.0963 45.7896C91.7336 43.2553 84.8344 40.6489 77.7156 38.5164C71.6998 36.7146 65.1558 35.213 58.939 33.3373C58.0028 33.0548 56.9027 32.7078 55.9682 32.3464C55.1523 32.0318 54.0057 31.7265 54.0378 30.6023C55.1586 30.0483 57.0089 30.5926 58.7176 30.9106C66.3761 32.3304 73.8728 34.4582 80.4218 36.594C86.3187 38.5164 91.628 40.7358 96.8278 43.2507C97.6147 43.6314 98.477 44.0923 99.2849 44.5692C99.9589 44.969 101.131 45.3511 101.109 46.3998Z" fill="#8F7ECE"/>
</g>
<g opacity="0.94">
<g opacity="0.94">
<path opacity="0.94" fill-rule="evenodd" clip-rule="evenodd" d="M86.5107 90.1215C85.1795 89.7875 83.8242 89.4616 82.4575 89.1339C78.3896 88.159 74.2078 87.0575 69.9104 85.9671C66.989 85.225 63.6682 84.3129 60.4369 83.706C59.2115 83.4732 57.9941 83.1262 56.9391 83.1406C56.3753 83.1469 55.6673 83.0651 55.5273 83.7588C56.189 84.4975 57.2828 84.6612 58.1932 84.9087C65.6046 86.9146 73.4703 88.334 80.6777 90.4845C82.3657 90.9855 84.0326 91.5379 85.6771 92.108C85.9246 91.4494 86.2008 90.7878 86.5107 90.1215Z" fill="#8F7ECE"/>
<path opacity="0.94" fill-rule="evenodd" clip-rule="evenodd" d="M84.9917 94.2131C83.2186 93.5384 81.4024 92.8945 79.525 92.2827C72.9746 90.1468 65.4797 88.019 57.8211 86.5992C56.1124 86.2829 54.2621 85.7385 53.1413 86.291C53.1092 87.4152 54.2558 87.7218 55.07 88.0367C56.0062 88.3981 57.1063 88.7447 58.0408 89.026C64.259 90.9016 70.8047 92.4032 76.8191 94.2051C79.3901 94.9759 81.9277 95.8125 84.4249 96.6812C84.5772 95.8416 84.7653 95.0227 84.9917 94.2131Z" fill="#8F7ECE"/>
</g>
<g opacity="0.94">
<path opacity="0.94" fill-rule="evenodd" clip-rule="evenodd" d="M84.9912 99.0519C83.6583 98.7179 82.3046 98.3953 80.938 98.066C76.87 97.0898 72.6866 95.9896 68.3892 94.8975C65.4695 94.157 62.1483 93.2449 58.9174 92.6364C57.6907 92.4053 56.4733 92.0566 55.4196 92.071C54.8541 92.0773 54.1461 91.9955 54.0078 92.6892C54.6694 93.428 55.7632 93.5933 56.6737 93.8391C64.0835 95.845 71.9508 97.2661 79.1582 99.415C80.8461 99.9176 82.513 100.47 84.1576 101.042C84.4051 100.38 84.6813 99.7185 84.9912 99.0519Z" fill="#8F7ECE"/>
<path opacity="0.94" fill-rule="evenodd" clip-rule="evenodd" d="M83.4725 103.144C81.6981 102.471 79.8832 101.827 78.0042 101.215C71.4551 99.0793 63.9605 96.9498 56.2999 95.5301C54.5929 95.2138 52.7413 94.6711 51.6218 95.2235C51.5897 96.346 52.7363 96.6543 53.5505 96.9675C54.4867 97.3306 55.5851 97.6756 56.5216 97.9585C62.7398 99.8341 69.2839 101.336 75.2996 103.138C77.8706 103.908 80.4065 104.745 82.9054 105.612C83.0584 104.772 83.2444 103.953 83.4725 103.144Z" fill="#8F7ECE"/>
</g>
</g>
<g opacity="0.94">
<path opacity="0.94" fill-rule="evenodd" clip-rule="evenodd" d="M71.7871 43.1462C72.1515 41.6285 74.2539 41.9418 75.8053 42.0671C79.1424 42.3369 81.7889 42.8489 84.5286 43.93C85.3749 44.264 87.795 45.1153 87.5669 46.0866C87.3197 47.1306 84.0724 46.1924 83.5474 46.0866C80.623 45.4874 78.4518 44.8742 75.5114 44.3218C74.1591 44.0666 72.6945 43.9815 71.7871 43.1462Z" fill="white"/>
<path opacity="0.94" fill-rule="evenodd" clip-rule="evenodd" d="M72.2767 46.0865C75.0534 45.6319 77.748 46.4689 80.5087 47.2621C81.6346 47.5851 85.8341 48.4521 85.606 49.7129C85.3972 50.8675 83.1716 50.2316 81.9799 50.0051C79.1504 49.4688 77.0433 48.9451 74.2362 48.3399C73.1424 48.1038 71.0533 47.9191 71.0018 46.9685C70.9614 46.1783 71.591 46.1974 72.2767 46.0865Z" fill="white"/>
<path opacity="0.94" fill-rule="evenodd" clip-rule="evenodd" d="M69.0078 51.9017C69.3739 50.3841 71.4746 50.6987 73.026 50.8243C76.3632 51.0925 79.0096 51.6048 81.7493 52.6856C82.5956 53.0212 85.0157 53.8709 84.7879 54.8425C84.5408 55.8878 81.2951 54.95 80.7697 54.8425C77.8454 54.245 75.6725 53.6314 72.7321 53.0773C71.3798 52.8235 69.9169 52.7367 69.0078 51.9017Z" fill="white"/>
<path opacity="0.94" fill-rule="evenodd" clip-rule="evenodd" d="M69.4975 54.8424C72.2743 54.3878 74.9672 55.2245 77.7296 56.0193C78.8551 56.342 83.0516 57.2093 82.8252 58.4685C82.6181 59.6247 80.3921 58.9888 79.1991 58.7624C76.3696 58.226 74.2641 57.7026 71.457 57.0971C70.3619 56.861 68.2725 56.6763 68.2227 55.7241C68.1806 54.9339 68.8118 54.9546 69.4975 54.8424Z" fill="white"/>
<path opacity="0.94" fill-rule="evenodd" clip-rule="evenodd" d="M68.0338 59.448C71.8079 59.0929 76.7348 60.3023 80.0913 61.5053C81.3825 61.9712 82.8841 62.6358 82.8344 63.3683C82.7412 64.7463 79.8459 63.8051 78.8162 63.5643C75.4934 62.7935 73.6161 62.2457 70.0945 61.6052C69.2963 61.4605 66.1071 61.2872 66.1729 60.2321C66.2193 59.4994 67.1778 59.5284 68.0338 59.448Z" fill="white"/>
</g>
<g opacity="0.94">
<path opacity="0.94" fill-rule="evenodd" clip-rule="evenodd" d="M55.8496 37.8065C55.9702 37.7791 56.7554 37.6779 57.3205 37.7086C60.1086 37.8579 63.5049 38.6738 66.3364 39.4717C67.5184 39.8057 68.554 40.1397 68.4929 40.8447C68.4064 41.8404 66.2285 41.5034 64.9647 41.3347C62.3727 40.9894 60.2208 40.6039 57.7122 39.9634C56.8676 39.7466 54.7925 39.2937 54.7718 38.5903C54.7541 38.0283 55.4031 37.9127 55.8496 37.8065Z" fill="white"/>
<path opacity="0.94" fill-rule="evenodd" clip-rule="evenodd" d="M51.9062 43.3905C52.271 41.8712 54.3731 42.1861 55.9244 42.3114C59.2616 42.5812 61.9064 43.0919 64.6461 44.1743C65.4924 44.5083 67.9125 45.3596 67.6847 46.3295C67.4389 47.3749 64.1919 46.4387 63.6665 46.3295C60.7421 45.732 58.5709 45.1202 55.6305 44.5661C54.2785 44.3123 52.8137 44.2258 51.9062 43.3905Z" fill="white"/>
<path opacity="0.94" fill-rule="evenodd" clip-rule="evenodd" d="M52.3943 46.3293C55.1711 45.8747 57.8656 46.713 60.6264 47.5062C61.7522 47.8289 65.9501 48.6962 65.722 49.957C65.5149 51.1116 63.2889 50.4757 62.0972 50.2509C59.2677 49.7129 57.1606 49.1895 54.3535 48.584C53.2597 48.3479 51.1689 48.1632 51.1192 47.2127C51.0774 46.4208 51.707 46.4415 52.3943 46.3293Z" fill="white"/>
<path opacity="0.94" fill-rule="evenodd" clip-rule="evenodd" d="M49.125 52.146C49.491 50.6283 51.5918 50.9429 53.1432 51.0682C56.4803 51.338 59.1268 51.8487 61.8665 52.9295C62.7128 53.2635 65.1346 54.1148 64.9051 55.0863C64.658 56.1317 61.4123 55.1939 60.8869 55.0863C57.9609 54.4892 55.7913 53.8757 52.8493 53.3216C51.497 53.0677 50.0324 52.9826 49.125 52.146Z" fill="white"/>
<path opacity="0.94" fill-rule="evenodd" clip-rule="evenodd" d="M49.615 55.0864C52.3917 54.6318 55.088 55.4701 57.8487 56.262C58.9746 56.5863 63.1724 57.452 62.9443 58.7144C62.7372 59.8674 60.5112 59.2331 59.3182 59.0067C56.4887 58.4703 54.3833 57.9469 51.5761 57.3414C50.4823 57.1036 48.3916 56.9206 48.3418 55.9684C48.2998 55.1779 48.9307 55.1986 49.615 55.0864Z" fill="white"/>
</g>
<path opacity="0.94" fill-rule="evenodd" clip-rule="evenodd" d="M47.4536 60.6173C48.3096 60.3604 50.3573 60.7105 51.3736 60.9112C53.7055 61.3737 55.9842 61.5778 58.2343 62.3807C58.9166 62.6265 60.3073 63.3556 60.5869 64.1455C60.9352 65.1347 60.5611 66.956 60.2913 68.1636C59.7259 70.7043 59.1527 72.3889 58.43 75.1222C58.1488 76.1823 57.773 77.7159 56.9591 78.0643C55.8687 78.5282 54.0909 77.9774 53.137 77.7687C51.9166 77.5022 50.7874 77.2066 49.6088 76.9852C47.6977 76.6255 43.9094 76.3573 43.2381 74.5344C42.8383 73.4503 43.4131 71.949 43.7293 70.7123C44.3686 68.2021 45.1074 66.1611 45.6885 63.6559C45.9924 62.3466 46.2606 60.9753 47.4536 60.6173Z" fill="#8F7ECE"/>
<path opacity="0.94" fill-rule="evenodd" clip-rule="evenodd" d="M67.3039 65.4012C68.1615 65.1443 70.2075 65.4927 71.2238 65.6967C73.5557 66.1576 75.8362 66.3617 78.0859 67.1646C78.7685 67.4104 80.1576 68.1378 80.4371 68.9297C80.7855 69.9173 80.4131 71.7402 80.1432 72.9475C79.5778 75.4865 79.0047 77.1728 78.2819 79.9061C78.001 80.9662 77.625 82.4998 76.8107 82.8465C75.7186 83.3104 73.9425 82.7613 72.9869 82.5526C71.7666 82.2861 70.6374 81.9888 69.4604 81.7691C67.5477 81.4094 63.7593 81.1412 63.0896 79.3183C62.6899 78.2342 63.2646 76.7329 63.5796 75.4962C64.2188 72.9846 64.9593 70.945 65.5387 68.4398C65.844 67.1292 66.1105 65.7592 67.3039 65.4012Z" fill="#8F7ECE"/>
</g>
<path d="M76.4236 111.666C78.1997 111.538 80.8078 105.059 81.3235 103.982C81.1308 107.334 80.4531 113.393 81.9387 113.857C84.5662 114.678 88.062 98.9829 89.4594 93.5099C94.571 73.5323 99.3664 53.0694 104.669 33.686C103.38 32.7882 101.949 32.0191 100.442 31.1985C99.0611 30.447 97.6012 29.7773 96.087 29.1702C90.1641 52.3741 83.2332 75.1528 77.8598 98.3023C76.9647 102.159 74.7437 111.789 76.4236 111.666Z" fill="#889922"/>
<path opacity="0.37" fill-rule="evenodd" clip-rule="evenodd" d="M99.0056 72.713C96.9853 71.1038 105.236 45.8202 107.111 45.7447C108.684 45.6803 100.817 74.1581 99.0056 72.713Z" fill="#8F7ECE"/>
<path opacity="0.37" fill-rule="evenodd" clip-rule="evenodd" d="M97.1106 76.6604C99.4071 76.0261 96.7606 87.6996 95.5947 91.0544C95.087 92.5109 89.3862 115.934 88.0082 115.813C85.3166 115.574 95.5222 77.0972 97.1106 76.6604Z" fill="#8F7ECE"/>
<path fill-rule="evenodd" clip-rule="evenodd" d="M58.7261 22.2834C61.4544 22.0666 59.6382 26.5938 58.9589 28.0213C58.318 29.3685 57.4607 31.3905 56.0312 30.949C54.7544 30.5522 55.6007 27.88 56.0312 26.499C56.6207 24.6136 56.9066 22.4263 58.7261 22.2834Z" fill="white"/>
<path fill-rule="evenodd" clip-rule="evenodd" d="M64.6955 23.1026C65.786 22.947 67.2104 23.1942 67.0384 24.625C66.8343 26.3176 63.0299 25.9789 63.2901 24.0405C63.3676 23.4687 63.5873 23.2616 64.6955 23.1026Z" fill="white"/>
<path fill-rule="evenodd" clip-rule="evenodd" d="M159.212 51.0649C159.195 53.5638 158.585 55.9952 157.849 58.0362C157.178 59.8911 156.444 62.3643 154.363 62.886C153.216 61.7521 154.245 58.977 154.817 56.5199C155.467 53.7214 156.217 48.8954 159.212 51.0649Z" fill="white"/>
<path fill-rule="evenodd" clip-rule="evenodd" d="M149.058 65.6117C148.701 63.3924 151.396 60.2609 152.239 62.5828C152.766 64.0266 150.555 67.8213 149.058 65.6117Z" fill="white"/>
<path fill-rule="evenodd" clip-rule="evenodd" d="M46.042 83.4774C45.9008 86.4388 45.4382 88.5763 44.677 91.3578C44.1841 93.1596 43.4243 97.1951 41.3415 97.1183C38.2776 97.0028 40.8743 89.8355 41.4958 88.0256C41.9103 86.8099 42.4627 85.9332 42.7085 85.297C43.2399 83.9176 43.2112 82.559 44.6774 82.7209C45.4863 82.8094 45.6022 83.0536 46.042 83.4774Z" fill="white"/>
<path fill-rule="evenodd" clip-rule="evenodd" d="M49.8308 91.8141C51.2666 93.2098 49.5129 96.4695 48.1639 96.5116C45.5542 96.5917 47.3867 93.4249 48.4675 92.116C48.6328 91.9136 49.2641 91.6968 49.8308 91.8141Z" fill="white"/>
<path fill-rule="evenodd" clip-rule="evenodd" d="M41.1921 98.6326C42.9362 98.3083 49.6957 99.1834 48.7689 102.119C48.2822 103.662 45.1782 102.659 43.6171 102.419C41.9439 102.167 39.111 102.154 39.2219 100.149C39.2907 98.9088 40.5174 98.7579 41.1921 98.6326Z" fill="white"/>
<path fill-rule="evenodd" clip-rule="evenodd" d="M57.99 64.1851C57.6607 64.5431 56.8304 64.108 56.2283 63.9891C54.3396 63.6133 52.1603 63.1491 50.3071 62.775C49.3405 66.0641 48.2273 69.9791 47.3363 73.6152C47.2047 74.1482 47.203 74.8436 46.7131 75.1939C46.2972 74.8937 46.3677 74.24 46.355 73.7678C46.3149 72.2148 46.4225 70.4163 46.2956 68.8746C45.8507 68.9758 45.8748 69.8512 45.2422 69.6391C45.2903 69.0095 45.9038 68.4474 46.3293 68.0957C47.0023 68.6097 46.8256 69.6518 46.84 70.5031C46.853 71.4072 46.9138 72.3564 46.8897 73.19C47.9802 69.7082 48.7671 65.7241 49.9347 62.3676C51.2562 62.2887 53.0471 62.9247 54.5567 63.1063C55.3996 63.2092 56.4821 63.5141 57.3768 63.7984C57.5709 63.8608 58.0655 63.8221 57.99 64.1851Z" fill="white"/>
<path fill-rule="evenodd" clip-rule="evenodd" d="M53.1767 65.5225C52.9566 66.0669 52.4973 66.2099 52.1423 66.5295C52.1971 67.0465 52.8507 67.4577 52.5758 67.9733C51.9496 67.8464 52.0187 67.2987 51.8113 66.9199C51.2589 67.0886 51.1257 67.9463 50.4062 67.8354C50.427 67.1978 51.1804 66.9009 51.5304 66.4574C51.5064 65.9243 51.0004 65.6832 51.1707 65.0312C51.7632 65.1565 51.7265 65.6655 51.8614 66.0673C52.3494 66.0205 52.6049 65.086 53.1767 65.5225Z" fill="white"/>
<path fill-rule="evenodd" clip-rule="evenodd" d="M57.7059 70.4885C57.4377 70.6184 57.2403 70.3021 57.1648 70.1208C56.5223 70.3793 56.3489 72.0462 56.5657 72.5715C56.9157 72.634 57.0329 72.4446 57.232 72.7352C57.1371 73.2008 56.6893 73.0902 56.2314 72.9616C55.9037 72.4556 55.8409 70.9207 56.3857 70.087C56.7681 69.5039 57.7767 69.4398 57.7059 70.4885Z" fill="white"/>
<path fill-rule="evenodd" clip-rule="evenodd" d="M55.3477 70.148C54.9319 70.3103 54.0502 70.2091 53.5859 69.9519C53.7576 69.4379 55.3283 69.6002 55.3477 70.148Z" fill="white"/>
<path fill-rule="evenodd" clip-rule="evenodd" d="M52.8076 69.9182C52.5137 70.3501 51.645 69.9486 50.9526 69.7786C50.2974 69.6196 49.3659 69.5682 49.2246 69.1187C49.4561 68.767 50.087 69.0946 50.5415 69.2052C51.3992 69.4156 52.4462 69.4733 52.8076 69.9182Z" fill="white"/>
<path fill-rule="evenodd" clip-rule="evenodd" d="M55.2782 71.0746C54.9489 71.3846 53.9904 71.1548 53.5712 70.9718C53.5261 70.4514 55.2091 70.6201 55.2782 71.0746Z" fill="white"/>
<path fill-rule="evenodd" clip-rule="evenodd" d="M49.9727 70.5623C50.5331 70.7503 50.2602 71.4406 50.5348 71.8003C50.9362 71.6267 50.9506 70.8191 51.5882 71.0358C51.5624 71.5996 50.9619 71.985 50.6857 72.4683C50.7144 73.019 51.0825 73.366 50.9345 74.0243C50.4175 74.1175 50.4269 73.485 50.3741 73.0992C49.9663 73.1553 50.0368 74.0016 49.4313 73.7334C49.3782 73.2067 49.9356 72.8454 50.1477 72.4149C50.127 71.8117 49.613 71.1901 49.9727 70.5623Z" fill="white"/>
<path fill-rule="evenodd" clip-rule="evenodd" d="M69.0832 69.0001C68.9162 69.5686 68.4456 69.437 68.0732 69.7516C66.5797 71.0154 65.8906 74.0216 66.5429 75.8525C66.6842 76.2493 66.9991 76.6153 66.8866 77.0345C66.1478 77.0201 65.8893 76.0325 65.7497 75.3786C65.2357 72.9729 66.5927 69.6407 68.6757 68.8054C68.8825 68.8281 69.003 68.9036 69.0832 69.0001Z" fill="white"/>
<path fill-rule="evenodd" clip-rule="evenodd" d="M76.324 70.7246L76.4943 70.768C77.2795 71.3926 77.9926 73.1513 77.8466 74.4839C77.6603 76.1829 76.8477 77.3859 76.0174 78.1357C75.7829 78.3495 75.4763 78.9019 75.1774 78.5662C74.8434 78.1184 75.4987 77.8772 75.6737 77.6845C76.2953 77.0085 77.0357 76.1989 77.2445 74.699C77.4418 73.2906 76.7819 72.0619 76.2599 70.9811L76.324 70.7246Z" fill="white"/>
<path fill-rule="evenodd" clip-rule="evenodd" d="M75.59 72.9137C75.4871 73.4725 75.3218 73.9304 74.9461 74.0316C75.6398 74.5279 75.773 75.3388 75.2012 75.9233C74.9668 76.1657 74.5733 76.1223 74.212 76.2218C73.9421 76.299 73.6789 76.5688 73.4395 76.3935C73.5727 75.1424 74.1555 73.2444 74.4094 72.1619C75.0069 72.0223 75.418 72.5634 75.59 72.9137ZM74.6872 73.6027C74.8335 73.4391 74.9988 73.3055 75.0326 72.9588C74.9234 72.9268 74.9411 72.8175 74.7964 72.8079C74.7901 73.0533 74.5156 73.4611 74.6872 73.6027ZM74.085 75.6437C74.5282 75.6534 74.9153 75.5682 74.9875 74.9564C74.923 74.7025 74.5683 74.6224 74.387 74.4407L74.085 75.6437Z" fill="white"/>
<path fill-rule="evenodd" clip-rule="evenodd" d="M69.4919 71.0204C69.9769 71.5551 69.4131 72.7211 69.7247 73.3617C69.3009 73.8516 69.6493 74.8873 69.0357 75.0159C68.477 74.8425 69.026 74.0009 68.9522 73.5337L68.2649 73.3617C67.7863 73.4148 67.8938 74.4488 67.3608 74.412C66.94 73.9785 67.5856 73.1579 67.9005 72.6296C68.3083 71.9422 68.6921 71.3093 69.2334 70.9563L69.4919 71.0204ZM68.482 72.867L68.996 72.9969C69.0908 72.5988 69.1469 72.2244 69.0828 71.9225C68.8577 72.1957 68.6279 72.4656 68.482 72.867Z" fill="white"/>
<path fill-rule="evenodd" clip-rule="evenodd" d="M72.0254 72.2024L72.2822 72.2682C72.353 72.5427 72.356 72.8577 72.2181 73.2558C72.4205 73.5256 73.1993 73.4468 72.9472 73.9882C72.7448 74.1358 72.2501 73.7955 72.0461 73.9431C71.8407 74.3399 72.1456 75.1588 71.5725 75.1044C71.1724 74.9294 71.4793 74.3302 71.508 73.9017C71.4793 73.6736 70.8688 73.7972 71.0792 73.4278C71.1049 73.1065 71.3988 73.2304 71.659 73.2992C71.7859 72.9425 71.7972 72.3934 72.0254 72.2024Z" fill="white"/>
<path d="M114.507 24.0025C112.978 23.8539 107.864 24.5977 107.714 26.1257C107.563 27.6506 112.434 29.3807 113.961 29.535C115.488 29.6853 116.848 28.5708 117 27.0428C117.151 25.5135 116.032 24.1551 114.507 24.0025Z" fill="#EFAD1B"/>
<path d="M105.314 25.8792L105.313 25.8969C105.266 26.3858 105.619 26.8153 106.108 26.8695L108.215 27.0749L108.39 25.2897L106.284 25.0826C105.797 25.0335 105.362 25.3909 105.314 25.8792Z" fill="#FF5000"/>
<path d="M157.738 30.6792C157.67 31.4203 158.21 32.0732 158.953 32.1437L161.583 32.3902C162.322 32.46 162.976 31.9202 163.044 31.1808C163.116 30.4414 162.573 29.7867 161.837 29.7169L159.201 29.4681C158.463 29.399 157.807 29.9387 157.738 30.6792Z" fill="#FF5000"/>
<path d="M160.539 28.3732L159.992 33.9063L144.889 32.4144L145.433 26.8843L160.539 28.3732Z" fill="#4D3D87"/>
<path d="M143.824 26.7228L143.279 32.2553L113.965 29.5356L114.509 24.0032L143.824 26.7228Z" fill="#4D3D87"/>
<path d="M145.434 26.8842L144.888 32.4143L143.279 32.257L143.825 26.7222L145.434 26.8842Z" fill="#EFAD1B"/>
<path d="M160.73 26.4613L159.996 33.9055L159.191 33.825L159.923 26.3801L160.73 26.4613Z" fill="#EFAD1B"/>
<path d="M160.73 26.4615L160.616 27.6127L144.672 26.0356L144.783 24.8867L160.73 26.4615Z" fill="#EFAD1B"/>
<path fill-rule="evenodd" clip-rule="evenodd" d="M157.597 30.0755C158.496 29.0187 155.161 28.328 154.895 29.328C154.583 30.4973 156.824 30.51 157.504 30.1686C157.546 30.1476 157.565 30.1122 157.597 30.0755Z" fill="white"/>
<path fill-rule="evenodd" clip-rule="evenodd" d="M153.499 29.8289C154.103 28.8814 151.328 28.1443 151.247 29.3029C151.188 30.183 153.083 30.4849 153.499 29.8289Z" fill="white"/>
<path fill-rule="evenodd" clip-rule="evenodd" d="M114.004 29.0999C114.775 29.2772 116.017 29.3848 116.171 28.8283C116.369 28.1079 115.533 28.0648 114.899 27.9747C114.267 27.8832 113.478 27.794 113.36 28.3768C113.23 29.017 113.703 29.0284 114.004 29.0999Z" fill="white"/>
<path fill-rule="evenodd" clip-rule="evenodd" d="M117.967 28.1932C118.529 28.3699 119.139 28.2784 119.212 27.7741C119.337 26.9101 117.401 26.6178 117.321 27.4728C117.292 27.7981 117.501 28.0473 117.967 28.1932Z" fill="white"/>
<path fill-rule="evenodd" clip-rule="evenodd" d="M103.471 112.732C103.357 114.252 104.759 115.111 105.692 115.796C108.665 117.98 111.716 120.036 114.739 122.212C118.652 125.029 122.799 127.789 126.798 130.766C130.576 133.574 134.991 136.82 137.944 141.252C139.414 143.459 140.763 146.833 141.627 149.985C141.986 151.297 142.231 152.934 142.586 154.467C142.92 155.911 143.461 157.886 144.558 158.184C145.247 158.371 146.417 157.874 146.818 157.536C148.868 155.805 146.904 151.331 145.472 148.372C143.575 144.452 141.303 140.207 138.844 137.475C137.163 135.606 135.171 134.056 133.302 132.54C129.474 129.434 125.764 126.525 121.788 123.713C117.906 120.968 113.822 118.525 109.767 115.949C108.807 115.341 107.758 114.671 106.758 114.051C105.81 113.463 104.819 112.225 103.471 112.732Z" fill="#4D3D87"/>
<path fill-rule="evenodd" clip-rule="evenodd" d="M148.236 141.866C146.893 142.587 145.539 141.654 144.534 141.075C141.337 139.243 138.218 137.284 135.006 135.403C130.845 132.966 126.643 130.292 122.303 127.838C118.205 125.522 113.45 122.8 108.2 121.894C105.589 121.445 101.956 121.576 98.7251 122.063C97.3808 122.265 95.7847 122.705 94.2397 123.001C92.7815 123.28 90.7579 123.584 90.0419 122.704C89.5907 122.148 89.5713 120.876 89.7192 120.374C90.4707 117.796 95.3576 117.783 98.645 117.894C102.997 118.04 107.797 118.4 111.292 119.542C113.681 120.324 115.904 121.516 118.046 122.611C122.437 124.854 126.601 127.07 130.781 129.566C134.862 132.002 138.748 134.748 142.747 137.413C143.691 138.044 144.73 138.734 145.702 139.396C146.62 140.024 148.154 140.43 148.236 141.866Z" fill="#4D3D87"/>
<path d="M152.591 138.503C152.172 137.669 151.022 136.796 150.109 136.124C147.514 134.218 144.539 132.471 141.957 130.872C138.829 128.935 136.587 127.629 133.092 126.992C131.997 126.793 130.871 126.831 129.707 126.656C128.767 126.513 127.728 125.985 126.797 125.606C126.074 124.907 125.17 124.171 124.659 123.372C124.028 122.378 123.608 121.332 122.979 120.41C120.983 117.475 118.883 115.952 115.844 113.877C113.334 112.164 110.533 110.148 107.741 108.549C106.756 107.987 105.494 107.29 104.56 107.243C103.262 107.176 102.538 108.191 102.321 108.788C102.035 109.577 102.311 110.449 102.025 111.406C101.815 112.115 101.129 112.909 100.654 113.698C99.3113 115.932 97.4613 118.405 97.0662 121.187C96.6117 124.405 99.2071 126.163 100.944 127.556C103.104 129.284 105.314 130.472 108.059 131.577C109.812 132.282 111.465 133.006 113.413 132.642C115.264 132.295 116.928 130.836 118.308 129.684C119.372 128.794 121.083 126.974 122.314 126.791C123.72 126.582 124.414 127.258 125.369 127.801C126.252 128.455 127.152 128.814 127.529 130.184C127.861 131.386 126.888 133.685 126.506 135.02C126.011 136.746 125.351 138.858 125.783 140.692C126.239 142.621 127.572 143.84 128.926 145.156C131.047 147.218 133.028 148.758 135.483 150.034C137.458 151.06 140.119 152.72 142.877 151C145.259 149.515 146.773 146.822 148.271 144.691C148.801 143.934 149.249 142.987 149.811 142.505C150.571 141.856 151.48 141.76 152.085 141.177C152.545 140.737 153.179 139.664 152.591 138.503ZM119.018 125.005C117.92 126.28 116.636 127.554 115.066 128.623C113.964 129.375 112.974 130.121 111.274 130.04C110.189 129.986 108.941 129.286 107.932 128.744C105.906 127.657 104.015 126.384 102.37 124.854C101.229 123.791 100.173 123.022 100.216 120.955C100.238 119.887 100.717 118.817 101.062 118.133C101.838 116.59 102.9 115.098 103.982 113.696C104.414 113.139 105.194 111.892 105.943 111.685C105.978 111.676 106.005 111.58 106.1 111.592C107.817 111.819 109.28 112.711 110.619 113.45C113.9 115.26 116.948 117.561 119.424 120.592C119.866 121.135 120.471 121.981 120.473 122.707C120.475 123.579 119.55 124.388 119.018 125.005ZM144.051 146.112C143.565 146.703 142.781 147.574 141.814 148.029C139.941 148.906 138.81 148.25 137.377 147.637C135.31 146.752 133.381 145.538 131.566 144.127C130.662 143.423 129.516 142.566 129.029 141.596C128.266 140.075 128.548 138.866 128.788 137.554C129.132 135.686 129.776 133.998 130.495 132.476C130.844 131.74 131.21 130.568 132.01 130.216C132.675 129.922 133.691 130.133 134.367 130.319C138.143 131.355 141.478 133.21 144.462 135.479C145.68 136.402 147.089 137.379 147.992 138.858C148.04 138.94 147.965 139.002 147.97 139.037C148.084 139.807 147.262 141.024 146.926 141.646C146.084 143.205 145.148 144.777 144.051 146.112Z" fill="#4D3D87"/>
<path opacity="0.62" d="M119.424 120.592C116.948 117.562 113.9 115.26 110.619 113.45C109.28 112.712 107.817 111.819 106.1 111.592C106.005 111.58 105.978 111.676 105.943 111.686C105.194 111.893 104.414 113.139 103.982 113.696C102.899 115.098 101.838 116.59 101.062 118.134C100.717 118.818 100.239 119.887 100.216 120.955C100.173 123.022 101.229 123.791 102.37 124.854C104.016 126.385 105.906 127.657 107.933 128.744C108.941 129.287 110.189 129.987 111.274 130.04C112.973 130.122 113.964 129.375 115.066 128.623C116.637 127.554 117.92 126.28 119.018 125.005C119.55 124.389 120.475 123.579 120.473 122.707C120.471 121.981 119.866 121.135 119.424 120.592Z" fill="white"/>
<path opacity="0.62" d="M147.969 139.037C147.964 139.002 148.039 138.94 147.991 138.858C147.089 137.379 145.679 136.402 144.461 135.479C141.478 133.21 138.142 131.355 134.366 130.319C133.69 130.133 132.674 129.922 132.009 130.216C131.209 130.568 130.843 131.74 130.494 132.476C129.775 133.998 129.131 135.686 128.787 137.554C128.547 138.865 128.265 140.075 129.028 141.596C129.515 142.566 130.661 143.423 131.566 144.127C133.38 145.538 135.309 146.753 137.376 147.637C138.808 148.251 139.941 148.906 141.813 148.029C142.78 147.574 143.564 146.702 144.05 146.112C145.147 144.777 146.083 143.205 146.925 141.646C147.261 141.024 148.083 139.807 147.969 139.037Z" fill="white"/>
<path fill-rule="evenodd" clip-rule="evenodd" d="M115.042 141.564C114.901 141.673 114.772 141.421 114.658 141.373C114.051 141.119 113.389 141.784 112.712 142.351C108.79 145.627 105.392 149.062 101.912 152.552C100.341 154.125 98.9956 155.479 97.3384 157.18C97.0221 157.506 96.6801 157.936 96.3137 158.386C95.949 158.837 95.5269 159.287 95.588 159.685C95.6474 160.058 96.0535 160.454 96.3782 160.753C97.0461 161.371 97.5231 161.789 98.2779 162.406C98.5524 162.629 99.0167 162.986 99.3203 162.932C99.7715 162.854 100.269 162.253 100.624 161.872C101.694 160.727 102.776 159.518 103.815 158.423C106.699 155.38 109.619 152.386 112.864 149.467C113.639 148.771 114.489 148.129 115.381 147.341C115.728 147.032 116.142 146.62 116.579 146.238C117.216 145.679 117.899 145.303 117.454 144.352C118.615 142.785 120.483 140.899 121.745 139.146C121.956 138.85 122.277 138.522 122.213 138.169C121.981 136.914 120.597 137.816 119.898 138.253C118.182 139.33 116.465 140.525 115.042 141.564Z" fill="#889922"/>
<path fill-rule="evenodd" clip-rule="evenodd" d="M111.956 147.578C111.716 146.449 109.857 147.536 109.018 148.052C107.523 148.972 106.285 150.093 105.22 151.185C104.054 152.381 103.259 153.412 102.578 154.8C102.352 155.259 102.044 155.876 102.31 156.26C102.427 156.425 102.626 156.528 103.118 156.317C103.958 155.959 104.583 155.144 105.093 154.676C106.909 153.016 108.573 151.905 110.266 150.234C110.923 149.587 111.909 148.598 112 147.69C112.004 147.66 111.962 147.612 111.956 147.578Z" fill="#4D3D87"/>
<path d="M112.712 142.351C112.5 142.529 112.291 142.709 112.082 142.889C112.658 143.562 113.253 144.218 113.845 144.885C114.475 145.59 115.055 146.345 115.684 147.061C115.961 146.804 116.264 146.513 116.579 146.237C116.602 146.217 116.622 146.198 116.645 146.181C115.39 144.841 114.123 143.537 112.858 142.225C112.81 142.267 112.762 142.309 112.712 142.351Z" fill="#4D3D87"/>
<path d="M97.9784 156.524C97.7697 156.736 97.5576 156.955 97.3378 157.18C97.3057 157.213 97.272 157.252 97.2383 157.286C98.5502 158.597 99.7869 160.086 101.126 161.328C101.361 161.076 101.595 160.822 101.83 160.567C100.574 159.152 99.2889 157.806 97.9784 156.524Z" fill="#4D3D87"/>
<path fill-rule="evenodd" clip-rule="evenodd" d="M92.2378 145.991C92.0661 146.033 92.1847 146.29 92.1513 146.409C91.9746 147.043 91.0448 147.151 90.1791 147.332C85.1767 148.386 80.3767 148.93 75.4818 149.504C73.2738 149.764 71.3771 149.982 69.0162 150.231C68.565 150.279 68.0142 150.282 67.4345 150.289C66.8547 150.297 66.2398 150.352 65.9649 150.054C65.7111 149.78 65.6486 149.214 65.6149 148.776C65.5428 147.867 65.509 147.234 65.493 146.26C65.4883 145.905 65.4963 145.32 65.7258 145.115C66.0648 144.809 66.845 144.79 67.3623 144.747C68.925 144.617 70.5438 144.516 72.0468 144.376C76.2239 143.992 80.3817 143.552 84.6837 142.81C85.7084 142.634 86.7394 142.361 87.9117 142.15C88.3696 142.067 88.949 141.998 89.5191 141.892C90.3528 141.736 91.0722 141.433 91.5411 142.37C93.4922 142.428 96.1294 142.128 98.2876 142.223C98.6506 142.239 99.1065 142.191 99.3443 142.461C100.187 143.419 98.6202 143.948 97.8444 144.225C95.9363 144.906 93.9368 145.516 92.2378 145.991Z" fill="#EFAD1B"/>
<path fill-rule="evenodd" clip-rule="evenodd" d="M85.604 144.692C86.3445 145.579 84.3385 146.369 83.4134 146.706C81.7675 147.31 80.1197 147.593 78.6037 147.75C76.9415 147.927 75.6393 147.912 74.128 147.589C73.6287 147.482 72.9523 147.342 72.8177 146.896C72.7583 146.701 72.8017 146.483 73.2706 146.226C74.0719 145.789 75.0999 145.802 75.7839 145.69C78.2106 145.291 80.115 144.673 82.4742 144.376C83.3864 144.26 84.7757 144.098 85.5449 144.586C85.5703 144.604 85.5846 144.668 85.604 144.692Z" fill="#4D3D87"/>
<path d="M90.1797 147.332C89.9081 147.39 89.6386 147.442 89.3654 147.496C89.1951 146.626 89.0458 145.754 88.8901 144.875C88.7262 143.944 88.49 143.021 88.3184 142.084C88.6908 142.026 89.1069 141.969 89.5197 141.891C89.5501 141.885 89.5775 141.88 89.6049 141.874C89.8794 143.687 90.1205 145.49 90.3677 147.295C90.3049 147.307 90.2421 147.321 90.1797 147.332Z" fill="#4D3D87"/>
<path d="M69.9274 150.135C69.6305 150.167 69.3269 150.199 69.0153 150.231C68.9689 150.236 68.9175 150.239 68.8691 150.244C68.6523 148.402 68.2475 146.508 68.1016 144.687C68.4452 144.661 68.7889 144.636 69.1342 144.608C69.4682 146.47 69.7301 148.312 69.9274 150.135Z" fill="#4D3D87"/>
<path fill-rule="evenodd" clip-rule="evenodd" d="M1.45015 79.0674C3.085 77.4776 6.19072 76.1607 8.17593 75.1551C12.8477 72.7865 16.5396 70.4255 21.4425 68.6093C23.4547 67.8659 26.164 67.3038 27.6429 68.3973C28.5744 69.0863 29.4511 70.6022 30.1274 71.871C31.6644 74.7473 33.7277 79.5393 34.9194 82.1314C37.1404 86.9571 39.2602 91.0875 41.4668 95.9069C43.439 100.22 45.3838 104.802 47.5837 109.623C48.5553 111.753 49.6508 114.195 50.46 116.492C51.2212 118.65 52.315 121.532 51.4252 123.016C50.807 124.046 49.3038 124.842 48.1749 125.46C46.8196 126.202 45.7629 126.53 44.7622 127.01C42.1592 128.258 40.3957 129.231 37.9146 130.252C35.9634 131.052 33.6219 131.939 31.1681 132.782C28.9614 133.541 26.3373 134.423 24.481 133.362C22.8011 132.403 21.1826 129.286 20.1209 127.227C16.8031 120.798 14.4054 114.342 11.2706 107.679C8.95812 102.769 7.05508 98.6703 5.13266 94.6137C4.19984 92.6512 3.13811 90.4656 2.13281 88.0936C0.714717 84.7438 -1.38738 81.6023 1.2865 79.1903C1.33793 79.1442 1.40206 79.1138 1.45015 79.0674Z" fill="#8F7ECE"/>
<path fill-rule="evenodd" clip-rule="evenodd" d="M2.87301 79.7771C2.89539 79.7531 2.89372 79.6342 2.97421 79.5731C6.59727 76.8494 9.708 75.8552 13.824 73.7033C17.4197 71.8226 22.4609 68.1501 25.6117 69.9263C27.309 70.8835 28.7962 73.7404 29.9107 75.9774C33.2993 82.801 36.0357 88.3221 39.2282 95.3001C42.0066 101.371 45.281 108.201 48.1813 114.643C49.3329 117.2 50.0957 118.975 48.6165 120.804C47.9806 121.588 46.8307 121.973 45.8334 122.514C41.1152 125.079 36.6682 126.898 31.6307 129.508C29.6075 130.557 27.5037 131.644 25.9604 131.104C24.2276 130.494 22.5076 127.706 21.3801 125.517C19.0035 120.915 17.8228 117.687 15.4028 112.84C11.0717 104.157 6.58792 95.8368 3.02564 87.42C1.80026 84.5164 0.653688 81.9838 2.71103 79.8994C2.75879 79.8509 2.82626 79.8252 2.87301 79.7771Z" fill="white"/>
<path opacity="0.26" d="M25.9605 131.104C27.5038 131.644 29.6076 130.556 31.6309 129.508C36.6687 126.898 41.1153 125.079 45.8335 122.514C46.8308 121.973 47.9807 121.588 48.6166 120.804C50.017 119.074 49.4068 117.391 48.3615 115.045C41.4847 118.239 30.6239 123.065 22.1641 126.945C23.2305 128.779 24.5905 130.622 25.9605 131.104Z" fill="#8F7ECE"/>
<path opacity="0.26" d="M25.6115 69.9262C22.4607 68.1501 17.4195 71.8229 13.8238 73.7033C9.70781 75.8551 6.59708 76.8494 2.97402 79.5731C2.89386 79.6342 2.8952 79.7527 2.87282 79.7771C2.82606 79.8252 2.75893 79.8509 2.7105 79.8994C1.42099 81.2049 1.3906 82.6888 1.84983 84.3283C10.4319 80.039 18.9482 76.2392 27.5479 71.8423C26.9444 71.007 26.2971 70.31 25.6115 69.9262Z" fill="#8F7ECE"/>
<path fill-rule="evenodd" clip-rule="evenodd" d="M17.1597 74.7552C17.1774 75.828 11.9275 78.4859 10.8611 78.2193C10.3344 78.0894 10.3294 77.4371 10.5752 77.1643C11.5902 76.0384 17.142 73.5733 17.1597 74.7552Z" fill="white"/>
<path fill-rule="evenodd" clip-rule="evenodd" d="M20.7966 119.626C28.6112 114.979 36.0657 112.051 43.5817 108.836C43.8275 109.218 43.9397 109.575 44.1067 109.941C36.5219 113.498 28.9789 116.851 21.3089 120.808C21.1002 120.46 20.9603 120.124 20.7645 119.779C20.684 119.726 20.7261 119.519 20.7966 119.626Z" fill="#889922"/>
<path fill-rule="evenodd" clip-rule="evenodd" d="M21.8066 121.668C29.4622 117.59 36.9812 114.157 44.4825 110.816C44.5901 111.102 44.7039 111.392 44.8599 111.69C37.373 115.212 29.8253 119.031 22.3016 122.728C22.0702 122.36 21.8985 122.005 21.8066 121.668Z" fill="#889922"/>
<path fill-rule="evenodd" clip-rule="evenodd" d="M22.8606 123.678C30.3522 119.862 37.9176 115.83 45.3421 112.626C45.4529 112.956 45.6567 113.302 45.7321 113.624C38.1811 117.775 30.9383 120.449 23.3261 124.889C23.1094 124.539 23.0032 124.213 22.8602 123.876C22.8074 123.798 22.8171 123.736 22.8606 123.678Z" fill="#889922"/>
<path fill-rule="evenodd" clip-rule="evenodd" d="M4.36156 86.321C5.78133 85.2419 8.2271 84.2911 10.3148 83.2427C14.328 81.2271 17.8031 79.2582 22.0574 77.2093C23.379 76.5717 26.7178 74.8149 27.7087 75.2501C28.4522 75.5744 29.0721 77.3235 29.4802 78.1134C30.6638 80.4115 31.5228 82.1636 32.6597 84.3715C33.1881 85.3962 33.8273 86.4192 33.681 87.4181C32.1107 88.7704 29.912 89.3596 27.829 90.2944C23.419 92.2746 19.9262 94.192 15.9435 96.3085C14.5157 97.0666 11.2957 99.3374 10.0914 98.6741C9.34461 98.2646 8.73442 96.7052 8.25749 95.7287C7.22014 93.6025 6.27596 91.7493 5.4036 89.737C4.96374 88.7204 4.54759 87.5177 4.30212 86.7468C4.25703 86.5972 4.27974 86.4543 4.36156 86.321Z" fill="#FF5000"/>
<path d="M11.3341 93.676C11.8367 93.1025 12.7441 92.7158 12.6864 92.0909C12.6075 91.2058 11.6343 90.7803 11.116 90.2072C9.99177 88.9658 9.95804 86.9101 11.2943 86.1329C12.6897 85.317 14.4515 86.52 14.7935 88.211C14.9718 89.0797 14.6826 90.106 15.2657 90.7707C15.6111 91.1594 16.2099 91.0292 16.8154 90.933C17.3324 90.8478 17.7516 90.8351 18.1179 90.9443C18.4102 89.8218 18.3284 88.5981 17.795 87.4675C16.5873 84.9092 13.536 83.8141 10.9764 85.0201C8.42138 86.2261 7.32457 89.2808 8.53193 91.8374C9.05561 92.9486 9.92898 93.7839 10.9587 94.2735C11.0371 94.0711 11.1621 93.8737 11.3341 93.676Z" fill="white"/>
<path d="M15.3488 94.2848C16.7766 93.6118 17.7465 92.3607 18.1175 90.9446C17.7515 90.8354 17.3323 90.8484 16.815 90.9333C16.2095 91.0295 15.6106 91.1597 15.2653 90.7709C14.6825 90.106 14.9714 89.08 14.793 88.2113C14.451 86.5203 12.6893 85.3173 11.2939 86.1332C9.95762 86.9104 9.99136 88.9661 11.1155 90.2075C11.6342 90.781 12.6075 91.2065 12.6859 92.0912C12.7437 92.7157 11.8363 93.1028 11.3336 93.6763C11.162 93.874 11.0367 94.0714 10.9579 94.2738C12.2992 94.911 13.9033 94.9671 15.3488 94.2848Z" fill="#8F7ECE"/>
<path fill-rule="evenodd" clip-rule="evenodd" d="M30.3703 83.3534C29.9688 82.6467 29.2123 81.1611 29.1432 81.0359C27.0989 81.9964 19.6921 85.8569 19.6921 85.8569C19.5588 85.6609 20.2736 87.3843 20.6653 88.0232C20.6657 88.0235 22.7998 87.0182 30.3703 83.3534Z" fill="white"/>
<path fill-rule="evenodd" clip-rule="evenodd" d="M27.6277 77.384C20.1585 81.2335 25.2621 78.407 17.8105 82.3333C17.8105 82.3333 18.5122 83.8029 18.9234 84.4435C18.9234 84.4435 21.2329 83.17 28.7018 79.5342C28.3344 78.8232 27.9794 78.1034 27.6277 77.384Z" fill="white"/>
<g opacity="0.58">
<g opacity="0.58">
<path opacity="0.58" d="M37.9495 104.516L37.739 104.614C37.5687 104.694 37.397 104.776 37.225 104.858C35.5999 102.136 34.1063 99.3322 32.7877 96.517C32.738 96.4111 32.6899 96.3036 32.6414 96.1974L32.5563 96.011L32.6398 95.8103C32.6799 95.7141 32.6688 95.6146 32.6077 95.5391C32.5369 95.4493 32.4167 95.3945 32.2851 95.4202C31.9848 94.7552 31.6939 94.0986 31.4244 93.4691C31.373 93.3518 31.2621 93.2844 31.1288 93.2924C31.023 93.3004 30.9218 93.3582 30.864 93.4434C30.8109 93.5252 30.8029 93.62 30.8416 93.7115C31.1532 94.4406 31.4889 95.1988 31.8693 96.0274L25.937 110.185L24.9334 110.659C24.7951 110.725 24.7294 110.866 24.7694 111.008C24.8225 111.189 25.0182 111.287 25.2029 111.199L25.2864 111.16C25.386 111.112 25.4872 111.063 25.5884 111.015L25.2864 111.736C25.2464 111.833 25.2557 111.932 25.3185 112.009C25.3843 112.093 25.4999 112.142 25.6157 112.134C25.7346 112.125 25.8342 112.054 25.8809 111.945L26.4367 110.617L35.642 106.273C36.0835 106.062 36.5237 105.854 36.9652 105.645C37.2541 106.12 37.545 106.594 37.8402 107.066C37.906 107.167 38.0216 107.223 38.1485 107.214C38.2641 107.206 38.3733 107.141 38.423 107.053C38.4681 106.973 38.4631 106.88 38.4087 106.794C38.1114 106.324 37.8242 105.85 37.535 105.376C37.7631 105.269 37.9912 105.161 38.216 105.055C38.3556 104.989 38.4217 104.85 38.3813 104.708C38.3285 104.524 38.1311 104.428 37.9495 104.516ZM34.5468 104.958C34.5164 105.035 34.5164 105.122 34.5515 105.196C34.5612 105.217 34.5742 105.234 34.5869 105.247C34.5902 105.265 34.5949 105.284 34.6046 105.303L34.9145 105.949L26.7854 109.785L31.1439 99.3853C31.4234 98.7123 31.706 98.038 31.9868 97.3667L32.226 96.7982C33.4143 99.3308 34.7168 101.815 36.0995 104.187L36.1202 104.225L34.7135 104.797C34.6367 104.826 34.5789 104.884 34.5468 104.958ZM36.6569 105.126L35.486 105.677L35.2646 105.221C35.6547 105.064 36.0451 104.905 36.4305 104.748C36.506 104.874 36.5815 105 36.6569 105.126Z" fill="#8F7ECE"/>
<path opacity="0.58" d="M39.3572 98.4698C39.1067 98.2483 38.8529 98.0072 38.5577 97.7103C38.5834 97.6154 38.5593 97.5129 38.4919 97.4454C38.4197 97.3666 38.3055 97.3299 38.2013 97.3489C37.8994 97.0276 37.6135 96.7017 37.35 96.3757C37.2231 96.2201 36.9726 96.2391 36.849 96.3997C36.8022 96.4655 36.7815 96.541 36.7942 96.6152C36.7815 96.6506 36.7749 96.6856 36.7782 96.7227C36.8006 97.2207 36.8634 97.7297 36.9629 98.2356C36.8954 98.2854 36.8553 98.3609 36.8473 98.4461C36.841 98.5265 36.868 98.605 36.9245 98.6611C36.9629 98.7029 37.0177 98.7319 37.0738 98.748C37.199 99.2556 37.3613 99.7566 37.5554 100.238C37.6051 100.357 37.7177 100.426 37.8476 100.418C37.9535 100.41 38.0547 100.351 38.1125 100.267C38.1672 100.187 38.1766 100.091 38.1398 99.9991C37.9408 99.5061 37.7785 98.9938 37.6579 98.4718L38.1028 98.1328C38.3823 98.4123 38.6392 98.6548 38.8866 98.8732C39.0119 98.9858 39.1982 99.0018 39.3252 98.9006C39.3926 98.8475 39.4377 98.7593 39.439 98.6708C39.4424 98.5903 39.4137 98.5182 39.3572 98.4698ZM37.4816 97.4838C37.5457 97.553 37.6098 97.6234 37.6743 97.6926C37.6262 97.7313 37.5781 97.7681 37.528 97.8051C37.5106 97.6989 37.4946 97.5914 37.4816 97.4838Z" fill="#8F7ECE"/>
<path opacity="0.58" d="M34.1711 109.584C34.1504 109.363 34.0585 109.151 33.9092 108.99C33.6267 108.687 33.1447 108.582 32.7159 108.741C32.4895 108.825 32.2951 108.979 32.1842 109.167C32.1167 109.279 32.1217 109.411 32.1956 109.506C32.1972 109.565 32.2179 109.626 32.255 109.681L33.5816 111.585C33.6394 111.662 33.7406 111.706 33.8548 111.696C33.8885 111.694 33.9222 111.686 33.9543 111.674C34.0121 111.715 34.0826 111.735 34.158 111.73C34.2208 111.725 34.2833 111.704 34.3394 111.669C34.8213 111.365 35.0909 110.941 35.0782 110.503C35.0675 110.045 34.7221 109.584 34.1711 109.584ZM33.105 109.159L33.1371 109.262C33.1548 109.262 33.1708 109.263 33.2142 109.268C33.2142 109.268 33.2239 109.268 33.2319 109.27C33.2606 109.279 33.288 109.287 33.3057 109.292C33.3091 109.295 33.3281 109.306 33.3331 109.31L33.3571 109.322C33.3652 109.329 33.3748 109.336 33.3829 109.344C33.3829 109.344 33.3892 109.347 33.3942 109.35C33.4136 109.371 33.4343 109.392 33.4634 109.429C33.465 109.43 33.465 109.432 33.4667 109.433C33.4684 109.435 33.4684 109.437 33.47 109.438L33.4861 109.467C33.4958 109.486 33.5054 109.506 33.5198 109.541C33.5198 109.544 33.5215 109.549 33.5245 109.552C33.5261 109.558 33.5278 109.566 33.5308 109.576C33.5355 109.603 33.5388 109.63 33.5405 109.658C33.5405 109.666 33.5405 109.674 33.5422 109.684C33.5422 109.685 33.5422 109.687 33.5422 109.687L33.5342 109.751C33.5308 109.764 33.5308 109.777 33.5295 109.785C33.5198 109.814 33.5071 109.839 33.4894 109.88C33.4734 109.899 33.459 109.918 33.446 109.939C33.3545 110.08 33.3882 110.257 33.5248 110.347C33.6614 110.44 33.8878 110.4 33.973 110.268C33.9794 110.258 33.9857 110.249 33.9937 110.239C34.0017 110.233 34.0131 110.222 34.0275 110.212L34.0722 110.191C34.0786 110.189 34.0852 110.189 34.0916 110.188C34.1059 110.184 34.122 110.181 34.143 110.178C34.159 110.179 34.1717 110.181 34.1881 110.179C34.1991 110.183 34.2121 110.184 34.2218 110.184C34.2395 110.191 34.2572 110.197 34.2796 110.205L34.307 110.221C34.3133 110.228 34.3197 110.229 34.3264 110.234C34.3314 110.239 34.3361 110.245 34.3407 110.252L34.3601 110.271C34.3681 110.277 34.3745 110.287 34.3808 110.297C34.3888 110.309 34.3938 110.322 34.4032 110.338C34.4129 110.36 34.4209 110.377 34.4242 110.39L34.4339 110.424C34.4386 110.448 34.4419 110.47 34.4419 110.47C34.4419 110.47 34.4466 110.52 34.4466 110.523C34.4466 110.544 34.4449 110.567 34.4433 110.586C34.4352 110.661 34.4095 110.733 34.3711 110.802C34.302 110.921 34.1961 111.03 34.0371 111.141C33.6277 110.554 33.2165 109.966 32.8071 109.378C32.8214 109.365 32.8391 109.352 32.8552 109.341C32.8585 109.339 32.8632 109.336 32.8679 109.333C32.8806 109.325 32.8952 109.318 32.9066 109.312C32.9353 109.3 32.9627 109.289 32.9918 109.28C33.0045 109.278 33.0175 109.273 33.0495 109.267L33.0479 109.259C33.0672 109.265 33.0846 109.263 33.112 109.26L33.105 109.159Z" fill="#8F7ECE"/>
</g>
<g opacity="0.58">
<path opacity="0.58" d="M18.4203 108.708C17.3539 106.499 16.1593 103.834 14.7686 100.564C15.3627 100.278 16.0003 99.9748 16.6442 99.6682C17.5339 99.246 18.4364 98.8172 19.2637 98.4157C19.3889 98.3563 19.5352 98.3015 19.6908 98.2441C20.1243 98.0851 20.5725 97.9211 20.6013 97.5761C20.6029 97.5584 20.5979 97.539 20.5902 97.523C20.5275 97.4058 20.4216 97.3463 20.293 97.356C20.1758 97.364 20.0619 97.4268 19.959 97.4812C19.9156 97.5036 19.8772 97.5263 19.8418 97.539C18.8525 97.8954 18.0914 98.2264 17.5807 98.5203C17.1569 98.7661 16.6572 98.9955 16.1756 99.2173C15.4098 99.5673 14.6196 99.9304 14.0959 100.372C14.0622 100.399 14.0508 100.443 14.0639 100.481C14.6099 101.971 15.347 103.547 16.0584 105.071C16.5257 106.073 17.0059 107.101 17.4331 108.105C17.2901 107.942 17.1442 107.779 16.9996 107.618C16.8132 107.412 16.6268 107.204 16.4472 106.995C16.3653 106.9 16.2835 106.799 16.2014 106.695C15.827 106.227 15.4015 105.697 14.7575 105.712C14.7111 105.713 14.6644 105.745 14.6547 105.792C14.5455 106.261 14.4362 106.932 14.7525 107.374C14.7799 107.414 14.8313 107.427 14.8808 107.412C15.2725 107.277 15.2291 106.967 15.1971 106.743C15.1857 106.657 15.173 106.576 15.181 106.505C15.6884 107.03 16.1927 107.643 16.6826 108.238C17.0039 108.631 17.3379 109.037 17.6605 109.402C17.6976 109.444 17.736 109.487 17.7744 109.533C18.0105 109.816 18.3091 110.168 18.7346 110.148H18.738C18.7831 110.145 18.8231 110.116 18.8358 110.073C18.9611 109.675 18.7493 109.302 18.563 108.973C18.5119 108.884 18.4634 108.795 18.4203 108.708Z" fill="#8F7ECE"/>
<path opacity="0.58" d="M18.0862 100.771C18.0719 100.727 18.0285 100.698 17.9804 100.698L17.937 100.701C17.5145 100.731 17.4727 101.072 17.444 101.322C17.4296 101.448 17.4149 101.567 17.3652 101.653C17.3348 101.631 17.3024 101.607 17.272 101.582C17.0953 101.451 16.8963 101.301 16.6264 101.322C16.5332 101.328 16.437 101.354 16.3375 101.402C16.2861 101.426 16.262 101.486 16.2877 101.534C16.437 101.857 16.6845 101.955 16.9029 102.041C17.0345 102.096 17.1614 102.146 17.2643 102.242C17.258 102.371 17.2242 102.512 17.1872 102.66C17.1053 102.994 17.0152 103.371 17.2546 103.681C17.2773 103.711 17.3141 103.726 17.3511 103.723C17.3655 103.721 17.3815 103.718 17.3962 103.71C17.7656 103.512 17.7753 103.188 17.7816 102.902C17.7867 102.749 17.7913 102.605 17.8461 102.486C17.9005 102.517 17.9553 102.552 18.0114 102.589C18.1784 102.697 18.3665 102.82 18.6153 102.803C18.7131 102.795 18.8113 102.766 18.9122 102.717C18.9556 102.697 18.978 102.653 18.97 102.608C18.9088 102.274 18.6036 102.171 18.3324 102.082C18.1831 102.032 18.0418 101.984 17.9373 101.905C17.9567 101.813 17.987 101.727 18.0174 101.637C18.1026 101.378 18.1908 101.11 18.0862 100.771Z" fill="#8F7ECE"/>
<path opacity="0.58" d="M24.4945 103.179C24.2663 103.111 24.1538 103.196 24.0576 103.283C24.0222 103.318 23.9855 103.352 23.9324 103.386C23.6642 103.204 23.2661 102.665 23.1358 102.214C23.089 102.056 23.0797 101.923 23.1068 101.82C23.1869 101.85 23.2945 101.88 23.4037 101.872C23.5369 101.862 23.6415 101.794 23.6976 101.685C23.7153 101.651 23.7119 101.613 23.6909 101.582C23.4548 101.258 23.2059 101.202 23.0406 101.215C22.88 101.226 22.729 101.306 22.6101 101.436C22.4592 101.603 22.382 101.835 22.4014 102.058C22.4785 102.892 23.3616 103.852 23.8773 104.012C23.8916 104.017 23.9063 104.019 23.9207 104.017C23.932 104.015 23.9447 104.014 23.9544 104.009C24.2146 103.906 24.5085 103.788 24.5937 103.571C24.6354 103.466 24.624 103.35 24.5582 103.229C24.5459 103.204 24.5235 103.185 24.4945 103.179Z" fill="#8F7ECE"/>
<path opacity="0.58" d="M20.4692 103.394C20.4852 103.436 20.5317 103.463 20.5801 103.46C20.5834 103.458 20.5864 103.458 20.5864 103.458C21.0697 103.381 21.7393 102.983 21.9434 102.652C21.9658 102.615 21.9628 102.568 21.9354 102.536C21.8776 102.47 21.7651 102.398 21.558 102.412C21.2143 102.438 20.7534 102.705 20.551 102.996C20.4532 103.137 20.4258 103.275 20.4692 103.394Z" fill="#8F7ECE"/>
<path opacity="0.58" d="M17.4962 105.165C17.7644 105.146 18.0904 104.984 18.4053 104.828C18.5306 104.765 18.6542 104.704 18.7714 104.653C18.887 104.603 19.0122 104.557 19.1391 104.508C19.6481 104.315 20.1735 104.118 20.1444 103.715C20.1411 103.672 20.1073 103.633 20.0609 103.623C19.6979 103.546 19.1825 103.789 18.6492 104.054C18.4695 104.145 18.2861 104.235 18.1064 104.314C18.0293 104.348 17.9378 104.382 17.8463 104.414C17.4912 104.539 17.0881 104.682 17.1188 105.019C17.1222 105.05 17.1382 105.077 17.1669 105.095C17.2554 105.15 17.3647 105.174 17.4962 105.165Z" fill="#8F7ECE"/>
<path opacity="0.58" d="M22.0736 103.063C21.7139 103.089 21.1004 103.439 20.9672 103.762C20.9174 103.879 20.9351 103.988 21.0169 104.068C21.041 104.093 21.0714 104.102 21.1038 104.101C21.1101 104.101 21.1181 104.099 21.1231 104.097C21.4925 104.004 22.3258 103.659 22.3949 103.23C22.4013 103.196 22.3886 103.162 22.3629 103.138C22.2934 103.081 22.1972 103.054 22.0736 103.063Z" fill="#8F7ECE"/>
<path opacity="0.58" d="M20.4184 106.582C20.2881 106.503 20.1662 106.431 20.0587 106.323C20.041 106.184 20.049 106.033 20.0604 105.874C20.0781 105.557 20.0974 105.228 19.8967 104.968C19.868 104.931 19.8179 104.91 19.7731 104.933C19.3573 105.072 19.3974 105.395 19.4261 105.63C19.4392 105.724 19.4502 105.816 19.4392 105.893C19.3587 105.848 19.2802 105.776 19.2 105.7C19.0441 105.554 18.869 105.387 18.6075 105.407C18.5561 105.41 18.5013 105.421 18.4469 105.44C18.3971 105.456 18.3681 105.503 18.3764 105.553C18.4392 105.964 18.7732 106.173 19.0684 106.357C19.2177 106.452 19.3607 106.542 19.4682 106.653C19.4889 106.767 19.4859 106.894 19.4826 107.029C19.4779 107.31 19.4712 107.628 19.7043 107.854C19.7267 107.876 19.7574 107.888 19.7895 107.884C19.7959 107.884 19.8022 107.883 19.8089 107.883C20.2234 107.78 20.1703 107.481 20.1365 107.285C20.1222 107.208 20.1125 107.147 20.1141 107.097C20.2845 107.26 20.4915 107.451 20.7243 107.433C20.8335 107.425 20.9301 107.375 21.0166 107.282C21.0456 107.252 21.052 107.207 21.0343 107.17C20.8696 106.852 20.6418 106.713 20.4184 106.582Z" fill="#8F7ECE"/>
</g>
</g>
<path fill-rule="evenodd" clip-rule="evenodd" d="M34.6577 133.9C33.8338 134.338 34.2997 135.167 34.4507 135.663C34.6561 136.342 35.0047 137.073 35.2101 137.64C35.6677 138.896 35.835 140.219 35.8511 141.489C35.8814 143.877 35.461 146.437 34.5822 148.889C32.893 153.613 28.8701 158.381 30.1436 163.415C30.8934 166.38 33.2239 168.708 35.7355 169.933C38.0433 171.059 40.4393 171.43 43.0795 171.244C45.6475 171.062 48.3374 170.568 50.8713 169.18C53.7025 167.632 56.0601 165.141 57.536 162.763C60.2773 158.343 60.8618 153.113 59.9193 147.995C59.4263 145.33 58.6345 142.684 56.9739 140.098C53.4874 134.673 48.0418 130.196 43.6239 127.355C38.912 124.325 34.3177 122.411 29.4309 120.073C26.2577 118.553 22.32 116.366 20.8745 112.165C20.5582 111.241 20.2319 109.955 20.4681 109.285C20.7877 108.383 21.9646 107.251 23.19 106.427C24.9775 105.222 27.0442 104.893 28.9409 104.818C34.4654 104.601 40.0218 105.895 45.3937 105.959C52.3282 106.04 59.3362 105.526 66.9066 99.5486C67.2823 99.253 67.9426 98.9704 67.8959 98.3232C67.4557 97.8977 66.8648 98.2524 66.4891 98.4564C65.9671 98.7423 65.426 99.1454 64.9795 99.4731C58.034 104.529 51.6068 104.848 45.0964 104.681C39.7423 104.545 34.2499 103.32 28.6888 103.597C26.0566 103.727 23.1546 104.672 20.8645 107.196C21.8023 103.483 26.6217 101.441 29.6747 100.684C33.1241 99.8264 36.5785 99.5135 39.76 99.3866C43.2191 99.247 46.3058 99.3672 49.7294 99.0686C51.2888 98.9337 53.0616 98.6849 54.8124 98.0777C56.8293 97.379 59.7537 95.9756 60.963 93.9343C61.1477 93.621 61.4753 93.1538 61.1991 92.77C58.3035 96.0912 54.8701 97.0771 51.7337 97.6666C48.5652 98.2591 45.392 97.9605 42.4065 98.0086C39.4003 98.055 36.2124 98.1048 33.0439 98.6461C29.8176 99.1952 26.4147 99.7526 23.2174 101.961C20.8391 103.603 19.6137 105.727 19.1608 107.742C18.6953 109.799 19.0243 111.996 20.102 114.109C22.633 119.083 27.3592 120.833 31.1669 122.613C38.7631 126.157 47.3338 130.027 54.2472 138.784C57.0577 142.345 58.1946 145.845 58.6682 149.337C59.1388 152.811 58.7888 156.191 57.6566 159.201C56.4312 162.462 53.8361 165.855 50.1279 167.901C46.7957 169.737 43.1246 170.241 39.9173 169.827C37.0587 169.462 32.6201 167.426 31.56 163.183C30.7007 159.74 32.6198 156.588 34.1407 153.504C36.32 149.082 38.0687 143.808 36.9575 138.837C36.678 137.583 36.3153 136.3 35.5782 134.951C35.3741 134.583 35.2182 133.963 34.6577 133.9Z" fill="#4D3D87"/>
<path fill-rule="evenodd" clip-rule="evenodd" d="M33.0765 135.101C33.494 135.89 34.4689 136.192 35.2591 135.776C36.0459 135.36 36.3479 134.383 35.9321 133.595L34.9989 131.827C34.5831 131.04 33.6065 130.738 32.818 131.154C32.0278 131.57 31.7292 132.546 32.1433 133.335L33.0765 135.101Z" fill="#4D3D87"/>
<path fill-rule="evenodd" clip-rule="evenodd" d="M65.1361 91.0296C63.7341 92.2339 62.3353 93.4399 60.8949 94.6349C60.4981 94.2719 60.0983 93.9299 59.7129 93.5251C61.2432 91.9611 64.025 88.7475 66.9413 87.503C68.1199 86.9987 69.8977 86.9059 70.3042 88.5968C70.6753 90.1515 68.4332 92.459 66.5993 91.9854C66.0162 91.8358 65.6595 91.4377 65.1361 91.0296Z" fill="#4D3D87"/>
<path fill-rule="evenodd" clip-rule="evenodd" d="M66.0621 90.3006C66.184 89.8831 67.4047 88.7235 67.8095 89.2261C68.0793 89.5601 67.5189 89.9826 67.212 90.2461C66.9775 90.4468 66.544 91.0186 66.1666 90.7665C65.9609 90.6315 66.027 90.4161 66.0621 90.3006Z" fill="white"/>
<path fill-rule="evenodd" clip-rule="evenodd" d="M69.5968 89.4428C69.6626 89.9037 69.0073 90.2731 68.7201 89.9792C68.365 89.6148 69.4762 88.6416 69.5968 89.4428Z" fill="white"/>
<path fill-rule="evenodd" clip-rule="evenodd" d="M70.1109 95.7284C68.5725 96.7497 67.0322 97.7711 65.4922 98.8328C65.7363 99.3147 65.9564 99.7917 66.2406 100.272C68.1614 99.2229 72.0092 97.4164 73.9958 94.9462C74.7987 93.9456 75.3704 92.261 73.8528 91.4133C72.4588 90.6345 69.6292 92.1648 69.5892 94.0598C69.5745 94.6623 69.859 95.1135 70.1109 95.7284Z" fill="#4D3D87"/>
<path fill-rule="evenodd" clip-rule="evenodd" d="M71.0619 95.0363C71.4987 95.0316 72.9456 94.1689 72.5732 93.6439C72.3243 93.2939 71.7652 93.7194 71.4283 93.9428C71.1714 94.1145 70.5031 94.3763 70.6444 94.8085C70.7182 95.0426 70.9446 95.0363 71.0619 95.0363Z" fill="white"/>
<path fill-rule="evenodd" clip-rule="evenodd" d="M72.8449 91.8648C72.4211 91.6768 71.8877 92.2085 72.0918 92.5635C72.3456 93.0047 73.5867 92.1971 72.8449 91.8648Z" fill="white"/>
</g>
<defs>
<clipPath id="clip0_13_686">
<rect width="171" height="171" fill="white" transform="translate(0 9)"/>
</clipPath>
</defs>
</svg>
