<svg width="161" height="169" viewBox="0 0 161 169" fill="none" xmlns="http://www.w3.org/2000/svg">
<rect width="153" height="153" rx="76.5" fill="#EFF2FD"/>
<g clip-path="url(#clip0_13_690)">
<path fill-rule="evenodd" clip-rule="evenodd" d="M132.365 114.734C132.082 117.083 132.902 120.335 131.815 121.796C130.907 123.017 128.094 122.878 125.302 122.991C120.293 123.19 115.52 123.652 110.533 123.631C103.124 123.602 95.5476 123.082 88.0583 123.082C83.114 123.082 78.1904 123.357 73.015 123.357C62.9326 123.355 52.8311 123.357 42.4682 123.357C37.7452 123.357 32.3782 123.164 27.241 123.357C25.0833 123.438 22.2381 123.328 19.7193 123.173C17.17 123.016 14.8861 122.482 14.0313 121.247C13.0935 119.894 13.3407 116.662 13.5718 114.734C23.1682 114.957 32.821 114.55 42.7429 114.55C45.9242 114.55 49.1931 114.515 52.376 114.367C58.334 114.089 66.1605 114.276 72.7391 114.275C79.4776 114.275 86.2157 114.424 92.7366 114.459C106.182 114.532 119.387 115.275 132.365 114.734Z" fill="#8F7ECE"/>
<path fill-rule="evenodd" clip-rule="evenodd" d="M48.8878 79.1423C54.2367 78.8874 60.6403 79.2145 66.2249 79.3256C71.8543 79.4367 77.6389 79.2654 83.4707 79.2336C91.9453 79.1885 100.612 78.9278 109.156 79.4169C110.391 79.4876 111.866 79.5582 113.376 79.6018C115.083 79.648 116.672 79.5218 117.595 79.8764C120.229 80.887 121.392 84.6041 122.64 87.3061C125.948 94.471 129.061 101.487 131.63 109.507C132.136 111.08 132.747 113.454 132.181 114.917C130.962 118.059 124.194 117.578 119.247 117.578C108.753 117.578 98.585 117.355 88.4252 117.762C83.201 117.97 78.2119 117.419 73.2892 117.302C70.7674 117.243 68.2826 117.535 65.8595 117.67C63.3087 117.811 60.7548 117.801 58.153 117.762C53.3038 117.689 48.1247 117.487 42.8344 117.486C37.9701 117.486 32.6944 117.578 27.3319 117.578C22.8363 117.578 14.7854 118.162 13.6643 114.917C13.1486 113.426 13.8337 111.086 14.3053 109.596C16.679 102.096 19.9642 94.4124 23.2955 87.3061C24.4015 84.9478 25.9991 80.4581 28.7076 79.6931C29.9497 79.3401 31.9405 79.5913 33.6609 79.5083C38.6922 79.2716 43.834 79.3827 48.8878 79.1423Z" fill="#4D3D87"/>
<path fill-rule="evenodd" clip-rule="evenodd" d="M63.474 83.729C63.1932 85.3133 62.8399 86.8245 62.5569 88.407C60.9698 88.5934 59.0599 88.4563 57.3284 88.4989C57.6567 86.8396 58.1671 85.3608 58.613 83.82C60.2875 83.8447 61.753 83.6583 63.474 83.729Z" fill="#8F7ECE"/>
<path fill-rule="evenodd" clip-rule="evenodd" d="M68.9778 83.9123C68.6356 85.4037 68.2727 86.8754 67.97 88.407C66.5943 88.407 65.2176 88.407 63.8419 88.407C64.1042 86.7733 64.5356 85.3087 64.8504 83.729C66.1088 83.908 67.7419 83.7123 68.9778 83.9123Z" fill="#8F7ECE"/>
<path fill-rule="evenodd" clip-rule="evenodd" d="M57.2365 83.8203C56.768 85.3408 56.4233 86.9834 55.9518 88.4992C54.1083 88.493 51.8046 88.5069 50.2638 88.4992C50.8822 87.0664 51.4115 85.5475 51.9157 84.0036C53.6969 83.9496 55.4673 83.8851 57.2365 83.8203Z" fill="#8F7ECE"/>
<path fill-rule="evenodd" clip-rule="evenodd" d="M74.6661 84.0036C74.7285 85.47 74.8837 86.8442 74.9399 88.3143C72.955 88.2557 71.1698 88.3973 69.254 88.4072C69.549 86.8368 69.9592 85.3827 70.3539 83.9125C71.8391 83.8956 73.129 84.0727 74.6661 84.0036Z" fill="#8F7ECE"/>
<path fill-rule="evenodd" clip-rule="evenodd" d="M50.3583 84.0037C50.6861 84.1518 50.2997 84.7286 50.1744 85.1035C49.801 86.2215 49.3711 87.5676 48.8897 88.5906C46.8712 88.5906 44.8536 88.5906 42.8361 88.5906C43.3397 87.0155 44.0103 85.6077 44.5793 84.095C46.4864 84.0456 48.5984 84.2015 50.3583 84.0037Z" fill="#8F7ECE"/>
<path fill-rule="evenodd" clip-rule="evenodd" d="M80.0777 84.095C80.2419 85.3995 80.2419 86.8665 80.3514 88.2231C78.685 88.1601 77.7475 88.3373 76.224 88.3144C76.0126 87.0297 76.0546 85.4889 75.9493 84.095C77.0013 84.0592 78.7316 84.1225 80.0777 84.095Z" fill="#8F7ECE"/>
<path fill-rule="evenodd" clip-rule="evenodd" d="M43.1108 84.0949C42.618 85.6511 42.0156 87.099 41.4589 88.5905C40.0199 88.5318 38.3446 88.7105 37.0571 88.4991C36.7751 88.3988 37.2435 87.9119 37.4237 87.5804C37.9409 86.6312 38.5714 85.3543 38.8908 84.1868C40.31 84.1686 41.6172 84.0378 43.1108 84.0949Z" fill="#8F7ECE"/>
<path fill-rule="evenodd" clip-rule="evenodd" d="M81.3615 84.187C82.6461 84.187 83.9305 84.187 85.2142 84.187C85.5117 85.5103 85.7429 86.8999 86.04 88.2231C84.5427 88.2231 83.0436 88.2231 81.5444 88.2231C81.4772 86.8847 81.5077 85.4489 81.3615 84.187Z" fill="#8F7ECE"/>
<path fill-rule="evenodd" clip-rule="evenodd" d="M37.33 84.2798C37.3917 84.2798 37.4531 84.2798 37.5133 84.2798C36.9504 85.7956 36.215 87.1395 35.4948 88.4992C34.119 88.4992 32.743 88.4992 31.3673 88.4992C31.5667 87.8314 31.8685 87.1901 32.1925 86.5726C32.4807 86.0227 32.7912 85.2682 33.2939 84.9217C34.2838 84.2378 35.7922 84.6356 37.33 84.2798Z" fill="#8F7ECE"/>
<path fill-rule="evenodd" clip-rule="evenodd" d="M86.5919 84.2798C88.0352 84.3338 89.7025 84.1656 90.9937 84.3696C91.1437 85.8116 91.581 86.9636 91.8204 88.3143C90.4142 88.1912 88.8542 88.223 87.3248 88.223C87.019 86.9698 86.803 85.6274 86.5919 84.2798Z" fill="#8F7ECE"/>
<path fill-rule="evenodd" clip-rule="evenodd" d="M92.2775 84.3696C94.0281 84.3026 95.4967 84.5156 97.2316 84.4631C97.5183 85.8882 98.0241 87.0945 98.2401 88.5906C96.6255 88.4011 94.8193 88.4042 93.1042 88.3144C92.8005 87.0269 92.5305 85.7064 92.2775 84.3696Z" fill="#8F7ECE"/>
<path fill-rule="evenodd" clip-rule="evenodd" d="M103.744 84.4631C104.318 85.845 104.761 87.3599 105.213 88.8668C103.301 88.7899 101.333 88.7693 99.5248 88.5906C99.2983 87.1667 98.8805 85.9317 98.6077 84.5545C100.355 84.5603 102.116 84.577 103.744 84.4631Z" fill="#8F7ECE"/>
<path fill-rule="evenodd" clip-rule="evenodd" d="M105.213 84.4631C107.847 84.6516 110.374 84.0486 111.909 85.1034C113.079 85.911 113.383 87.7379 114.018 89.2324C111.639 89.0438 109.129 88.9852 106.589 88.9562C106.084 87.5058 105.656 85.9749 105.213 84.4631Z" fill="#8F7ECE"/>
<path fill-rule="evenodd" clip-rule="evenodd" d="M80.078 89.6005C80.2141 91.1139 80.4316 92.5467 80.7198 93.9113C78.9174 93.9699 77.3917 93.7523 75.5824 93.8193C75.4454 92.3658 75.2151 91.0062 74.9396 89.6903C76.4724 89.4802 78.3943 89.6588 80.078 89.6005Z" fill="#8F7ECE"/>
<path fill-rule="evenodd" clip-rule="evenodd" d="M81.2697 89.6006C82.6142 89.6006 83.9597 89.6006 85.3058 89.6006C85.756 91.0152 86.1038 92.531 86.4982 94.0024C84.9398 94.0008 83.3443 94.0373 81.9115 93.911C81.8322 92.34 81.4375 91.0828 81.2697 89.6006Z" fill="#8F7ECE"/>
<path fill-rule="evenodd" clip-rule="evenodd" d="M86.5919 89.6903C88.2734 89.4773 90.3518 89.6606 92.1864 89.6005C92.7447 91.0598 93.1378 92.6852 93.7454 94.0936C91.8899 94.3599 89.9016 93.9634 87.8757 94.0936C87.4665 92.6071 87.0869 91.0919 86.5919 89.6903Z" fill="#8F7ECE"/>
<path fill-rule="evenodd" clip-rule="evenodd" d="M34.8531 89.783C34.4673 91.2615 33.8384 92.499 33.294 93.8191C31.9479 93.8191 30.6025 93.8191 29.2579 93.8191C29.7622 92.4274 30.3386 91.1078 30.817 89.6901C32.2248 89.6605 33.4064 89.8537 34.8531 89.783Z" fill="#8F7ECE"/>
<path fill-rule="evenodd" clip-rule="evenodd" d="M73.748 89.6902C73.9282 91.0394 74.1322 92.3641 74.297 93.7278C72.4633 93.7278 70.6281 93.7278 68.7938 93.7278C68.7818 92.2768 68.9216 90.9807 69.07 89.6902C70.6281 89.6902 72.1874 89.6902 73.748 89.6902Z" fill="#8F7ECE"/>
<path fill-rule="evenodd" clip-rule="evenodd" d="M93.5626 89.6902C95.5972 89.7068 97.4839 89.8673 99.4333 89.9664C99.8431 91.4837 100.34 92.9134 100.718 94.462C98.8152 94.4376 97.0195 94.3077 95.1229 94.2771C94.6365 92.715 94.0166 91.285 93.5626 89.6902Z" fill="#8F7ECE"/>
<path fill-rule="evenodd" clip-rule="evenodd" d="M55.5853 89.7831C55.231 91.2325 54.7752 92.5802 54.3009 93.9111C52.4284 93.8732 50.6657 93.9438 48.8888 94.0025C49.1962 92.5049 49.726 91.231 50.1735 89.875C52.0784 89.9457 53.7007 89.7322 55.5853 89.7831Z" fill="#8F7ECE"/>
<path fill-rule="evenodd" clip-rule="evenodd" d="M62.4655 89.783C62.3865 91.171 62.1569 92.4106 62.006 93.7277C59.828 93.6586 57.8937 93.8342 55.7697 93.8191C56.0403 92.502 56.5316 91.4021 56.7772 90.0582C56.8281 89.9258 56.921 89.8345 57.0519 89.783C58.8577 89.783 60.6609 89.783 62.4655 89.783Z" fill="#8F7ECE"/>
<path fill-rule="evenodd" clip-rule="evenodd" d="M67.7867 89.783C67.7731 91.1769 67.4596 92.269 67.5105 93.7277C66.1043 93.7277 64.6974 93.7277 63.2911 93.7277C63.4926 92.46 63.5451 91.047 63.7506 89.783C65.0952 89.783 66.4406 89.783 67.7867 89.783Z" fill="#8F7ECE"/>
<path fill-rule="evenodd" clip-rule="evenodd" d="M41.3661 89.875C40.9174 91.2615 40.2878 92.4663 39.8984 93.9111C38.2169 93.8509 36.5406 93.7818 34.7618 93.8191C35.1862 92.4706 35.7771 91.2881 36.1376 89.875C37.8805 89.875 39.6228 89.875 41.3661 89.875Z" fill="#8F7ECE"/>
<path fill-rule="evenodd" clip-rule="evenodd" d="M48.7972 89.875C48.4229 91.3343 47.8785 92.6264 47.4205 94.0025C45.3777 93.9667 43.1761 94.0886 41.2755 93.9111C41.6785 92.511 42.2473 91.2745 42.6512 89.875C45.1012 89.9907 45.6653 89.8843 48.7972 89.875Z" fill="#8F7ECE"/>
<path fill-rule="evenodd" clip-rule="evenodd" d="M100.717 90.1496C102.312 89.9321 104.156 90.2576 105.854 90.2425C106.408 91.6738 106.812 93.2587 107.321 94.7365C105.589 94.6659 103.886 94.5656 102.093 94.5532C101.696 93.0214 101.24 91.5519 100.717 90.1496Z" fill="#8F7ECE"/>
<path fill-rule="evenodd" clip-rule="evenodd" d="M107.322 90.2424C109.671 90.4319 112.285 90.3551 114.57 90.609C115.076 91.9681 115.364 93.5447 115.763 95.0127C113.792 95.0263 111.203 94.8627 109.065 94.7365C108.576 94.2292 108.319 93.4305 108.057 92.718C107.783 91.9789 107.618 91.2077 107.323 90.5171C107.322 90.4254 107.322 90.3335 107.322 90.2424Z" fill="#8F7ECE"/>
<path fill-rule="evenodd" clip-rule="evenodd" d="M85.1238 95.3781C85.3969 95.6373 85.5984 96.214 85.7657 96.6627C86.2341 97.9184 86.6152 99.4743 86.9575 100.975C76.2249 100.84 65.4914 100.945 54.8517 101.341C55.2495 99.2617 55.6648 97.2015 56.1364 95.1951C65.829 94.8664 74.9448 95.0769 85.1238 95.3781Z" fill="#8F7ECE"/>
<path fill-rule="evenodd" clip-rule="evenodd" d="M33.5691 95.1023C32.8307 97.5155 31.9265 99.7584 31.0936 102.075C29.571 101.916 27.9176 101.887 27.3322 100.79C27.3596 98.4015 28.1802 96.8067 28.8912 95.1023C30.4517 95.1023 32.0101 95.1023 33.5691 95.1023Z" fill="#8F7ECE"/>
<path fill-rule="evenodd" clip-rule="evenodd" d="M35.1294 95.1021C36.4199 95.2496 37.9243 95.182 39.3479 95.1949C38.9128 97.6035 38.2292 99.7643 37.6046 101.983C36.0317 102.121 34.2629 102.065 32.5607 102.075C32.8313 100.973 33.3599 99.8692 33.7531 98.6805C34.1703 97.4202 34.3567 96.0161 35.1294 95.1021Z" fill="#8F7ECE"/>
<path fill-rule="evenodd" clip-rule="evenodd" d="M54.8504 95.1948C54.3752 97.2871 53.9308 99.4111 53.3824 101.433C51.1322 101.446 48.9927 101.567 46.8693 101.709C47.3933 99.4173 48.2518 97.4642 48.8878 95.2871C50.9655 95.347 52.8424 95.2056 54.8504 95.1948Z" fill="#8F7ECE"/>
<path fill-rule="evenodd" clip-rule="evenodd" d="M47.5138 95.2871C46.9 97.5466 46.0924 99.6161 45.3129 101.709C43.3576 101.925 41.1413 101.879 39.0743 101.984C39.511 99.7895 40.1877 97.8364 40.5429 95.5618C40.5383 95.4059 40.6105 95.3244 40.7262 95.2871C42.9885 95.2871 45.2512 95.2871 47.5138 95.2871Z" fill="#8F7ECE"/>
<path fill-rule="evenodd" clip-rule="evenodd" d="M86.5919 95.3781C89.2835 95.3469 91.7278 95.5614 94.3888 95.5614C95.0178 97.408 95.5418 99.3617 96.0398 101.341C93.4708 101.281 91.0675 101.054 88.4262 101.066C87.8877 99.0963 87.2983 97.179 86.5919 95.3781Z" fill="#8F7ECE"/>
<path fill-rule="evenodd" clip-rule="evenodd" d="M95.7657 95.6542C97.9821 95.6375 99.958 95.8625 102.186 95.8375C102.72 97.8721 103.322 99.8372 103.93 101.8C101.751 101.685 99.5976 101.546 97.4164 101.433C96.972 99.4005 96.2981 97.5974 95.7657 95.6542Z" fill="#8F7ECE"/>
<path fill-rule="evenodd" clip-rule="evenodd" d="M103.469 96.0208C105.036 95.8301 106.911 96.1258 108.606 96.1122C109.574 97.9261 109.954 100.33 110.716 102.351C109.066 102.471 107.235 101.977 105.396 101.983C104.749 100.001 104.102 98.0171 103.469 96.0208Z" fill="#8F7ECE"/>
<path fill-rule="evenodd" clip-rule="evenodd" d="M110.074 96.1123C111.996 96.3009 114.152 96.253 116.037 96.4795C116.22 97.2948 116.569 98.2425 116.771 99.2319C116.967 100.193 117.24 101.569 116.862 102.258C116.147 103.569 113.594 102.641 112.092 102.625C111.573 100.3 110.722 98.3086 110.074 96.1123Z" fill="#8F7ECE"/>
<path opacity="0.75" fill-rule="evenodd" clip-rule="evenodd" d="M60.0792 104.001C61.7607 103.703 64.6683 103.91 66.9596 103.91C71.5586 103.91 75.7749 104.093 80.2591 104.093C82.0508 104.093 85.233 103.606 86.4976 104.368C87.7388 105.114 88.1828 107.733 88.4238 109.781C88.471 110.178 88.6642 111.442 88.3325 111.89C87.8495 112.539 85.7681 112.215 84.571 112.165C76.3057 111.832 69.1833 111.982 60.2613 111.982C59.2954 111.982 57.1151 112.278 56.6844 111.431C56.231 110.542 57.121 108.925 57.5095 107.671C58.1008 105.762 58.1594 104.342 60.0792 104.001Z" fill="white"/>
<path fill-rule="evenodd" clip-rule="evenodd" d="M33.6193 109.913C33.7288 108.869 33.909 106.686 35.0718 107.144C35.7532 107.411 35.6748 108.966 35.5875 110.005C35.4795 111.298 35.3656 112.477 34.9897 113.52C34.8148 114.001 34.4735 114.417 34.1312 114.399C33.4727 114.362 33.0672 113.437 32.7796 112.945C32.0488 111.705 31.6146 111.008 30.9126 109.629C30.6534 109.119 30.1892 108.202 30.6349 107.67C30.7321 107.554 31.0373 107.44 31.2159 107.454C31.8729 107.5 32.3065 108.133 32.6595 108.561C33.0761 109.069 33.3551 109.46 33.6193 109.913Z" fill="#FF5000"/>
<path fill-rule="evenodd" clip-rule="evenodd" d="M25.0196 107.922C24.0728 107.09 22.7122 105.766 21.5251 105.35C21.2118 105.241 20.6224 105.108 20.2361 105.457C19.9966 105.676 19.9935 106.186 20.0849 106.537C20.3191 107.431 20.9449 108.244 21.5192 108.944C22.0623 109.604 22.6715 110.156 23.2554 110.654C23.726 111.057 24.4462 111.66 25.1322 112.044C25.7056 112.366 26.8647 112.882 27.543 112.426C28.3203 111.904 28.1225 110.392 28.0207 109.358C27.8778 107.907 27.5263 105.75 26.4419 104.214C26.1567 103.811 25.7139 103.404 25.2973 103.556C24.6014 103.808 24.7064 105.028 24.711 105.56C24.7159 106.385 24.7641 107.081 25.0196 107.922Z" fill="#FF5000"/>
<path fill-rule="evenodd" clip-rule="evenodd" d="M16.1325 116.274C17.1389 115.983 18.8438 116.455 20.4896 117.016C21.1947 117.255 22.33 117.664 22.1847 118.318C22.0137 119.104 20.6516 118.847 20.1656 118.751C18.6232 118.453 16.8222 117.781 15.969 117.142C15.852 116.922 15.9492 116.492 16.1325 116.274Z" fill="white"/>
<path fill-rule="evenodd" clip-rule="evenodd" d="M24.0766 115.389C24.1186 113.7 27.7446 114.411 27.3249 115.75C27.1422 116.33 25.2592 116.64 24.4682 116.182C24.1846 116.017 24.0692 115.682 24.0766 115.389Z" fill="white"/>
<path fill-rule="evenodd" clip-rule="evenodd" d="M27.8088 117.86C27.7616 117.262 28.5343 116.864 29.3999 116.776C30.0949 116.705 31.4586 116.889 31.2814 117.673C31.2067 118.022 30.6272 118.422 29.91 118.514C29.0697 118.622 27.8712 118.63 27.8088 117.86Z" fill="white"/>
<path fill-rule="evenodd" clip-rule="evenodd" d="M36.3232 17.9012C43.2959 17.5682 50.5154 18.0366 57.4212 17.9012C64.2432 17.7666 71.2036 17.7126 78.1519 17.9919C84.4194 18.2452 91.5174 18.4505 98.6999 18.4505C103.046 18.4505 109.187 18.0095 114.111 18.0832C116.959 18.1283 118.749 18.3699 119.615 20.1024C120.314 21.4978 120.158 23.9764 120.074 26.9822C120.006 29.3917 120.03 32.2443 119.982 34.5038C119.877 39.4564 119.707 44.1557 119.707 49.4567C119.706 54.4862 119.736 59.361 119.614 64.4087C119.483 69.8875 120.462 77.8582 117.139 79.8193C116.13 80.4133 113.915 80.4611 111.91 80.4611C109.899 80.4611 107.848 80.3334 106.221 80.2778C94.7073 79.881 83.0292 79.9106 71.5467 79.9106C64.1041 79.9122 56.6944 79.5449 48.5222 79.5449C42.9848 79.5449 36.8694 79.7714 31.5517 78.9021C29.7782 78.6133 27.7749 77.9871 27.149 76.8845C26.3238 75.4274 26.0705 72.9876 25.8647 70.5537C24.8386 58.4683 25.4974 46.3196 25.4974 33.3105C25.4974 30.9596 25.6656 28.2196 25.7736 25.9721C25.8955 23.4213 25.8245 20.6773 26.8735 19.5518C27.6798 18.6878 29.4123 18.4628 31.0944 18.2681C32.9395 18.0524 34.7602 17.9749 36.3232 17.9012Z" fill="#8F7ECE"/>
<path fill-rule="evenodd" clip-rule="evenodd" d="M33.7552 20.9272C36.8612 20.5584 40.9087 21.016 44.3045 21.1105C47.7703 21.2064 51.2034 21.3613 54.5779 21.4777C61.4598 21.715 68.4794 21.5888 75.4916 21.2938C82.5214 20.9978 89.0321 20.8358 96.4062 20.8358C99.6961 20.8358 103.208 20.9272 106.955 20.9272C108.678 20.9272 110.534 20.7803 112.093 20.9272C113.715 21.0808 115.178 21.607 115.763 22.5781C116.51 23.8215 116.312 26.875 116.312 28.7232C116.312 31.1796 116.221 33.2499 116.221 35.2373C116.221 39.8597 116.496 44.0223 116.496 48.2636C116.496 52.8999 116.534 56.7246 116.68 61.3813C116.746 63.5032 116.614 65.7408 116.68 67.8016C116.744 69.8278 116.83 72.9422 116.038 74.1324C115.391 75.1014 113.793 75.7257 112.002 75.6908C106.886 75.5921 100.951 76.1099 95.7659 75.8741C88.3819 75.5396 81.0466 75.9655 74.2992 75.967C66.6664 75.967 59.8999 76.138 52.2835 75.8741C47.2457 75.7001 41.2587 76.0408 36.0478 75.6908C34.1767 75.5652 32.2413 75.5578 31.3698 74.8656C30.352 74.0556 30.0715 71.3952 29.9027 69.2696C29.3652 62.5373 29.6503 55.5511 29.9941 48.8145C30.2237 44.3158 30.2237 40.0942 30.4533 35.2376C30.5492 33.2101 30.5446 30.9876 30.5446 28.5411C30.5446 24.9953 30.0897 21.0413 33.5707 20.9275C33.6305 20.9256 33.6953 20.9349 33.7552 20.9272Z" fill="#4D3D87"/>
<path opacity="0.75" fill-rule="evenodd" clip-rule="evenodd" d="M42.7802 48.876C43.0761 50.4183 43.3915 52.3943 43.6174 54.214C43.7886 55.5617 44.2555 56.9087 43.7673 57.8974C42.9542 57.8693 42.4373 57.0753 41.9331 56.6001C40.3694 55.1222 38.6453 53.6681 37.049 52.1196C38.1972 50.4992 40.0179 49.3561 42.7802 48.876Z" fill="white"/>
<path fill-rule="evenodd" clip-rule="evenodd" d="M42.1086 58.1006C39.6279 58.5591 36.766 58.7227 34.3268 58.7949C33.9343 56.6326 34.8561 54.8187 35.9065 53.4445C35.959 53.4352 36.0099 53.4263 36.0624 53.418C37.0449 54.2021 38.0969 54.9869 39.1319 55.7932C40.1481 56.5835 41.3757 57.1661 42.1086 58.1006Z" fill="#8F7ECE"/>
<path fill-rule="evenodd" clip-rule="evenodd" d="M44.9502 49.5567C48.9234 49.5407 52.3207 51.6169 54.0698 54.4242C54.6614 55.3709 55.1172 56.5445 55.2076 58.0764C55.5041 63.0457 50.5731 68.0211 45.282 68.7398C41.1623 69.2981 37.5718 67.279 35.8597 64.3501C35.2666 63.3385 34.6232 62.0662 34.7114 60.6272C35.4635 60.285 36.3861 60.2325 37.2789 60.1443C39.0015 59.9718 40.7676 59.745 42.5136 59.3808C43.2369 59.2302 44.5725 59.1654 44.9299 58.8429C45.2129 58.588 45.1771 57.3879 45.1663 56.7667C45.1305 54.501 44.7311 51.7268 44.7623 49.8002C44.7882 49.6922 44.8515 49.6107 44.9502 49.5567Z" fill="#EFAD1B"/>
<path fill-rule="evenodd" clip-rule="evenodd" d="M56.9843 56.1606C56.7167 55.4524 56.7377 54.3945 56.7578 53.3398C56.7738 52.4257 56.5776 51.1296 57.0741 50.7396C57.7897 50.3044 59.2478 50.5609 60.3443 50.601C63.2861 50.7099 66.1014 50.6451 69.3336 50.588C71.175 50.5547 73.2793 50.6238 75.3311 50.6025C76.2279 50.5942 77.3814 50.5957 78.3328 50.6467C79.2722 50.6976 80.4812 50.7889 80.8281 51.2688C81.3064 51.9335 81.1626 53.3009 81.0814 54.3057C81.0166 55.0608 80.975 56.5788 80.5491 56.9333C80.0782 57.3249 78.3498 57.2111 77.5123 57.1882C72.5596 57.046 67.6323 56.83 62.6149 56.7349C61.6231 56.7173 60.5813 56.7189 59.6123 56.6914C58.6778 56.6661 57.6802 56.7895 56.9843 56.1606Z" fill="#B1BC00"/>
<path fill-rule="evenodd" clip-rule="evenodd" d="M70.8015 58.8488C70.8379 58.8328 70.8509 58.7683 70.9354 58.7575C72.6275 58.5279 73.7455 58.9445 75.7921 58.9963C76.7663 59.0183 79.876 58.867 80.3355 59.6398C80.6503 60.169 80.4154 61.3577 80.3605 62.049C80.292 62.909 80.2167 63.5694 80.1596 64.4159C80.0744 65.6934 80.2013 68.2193 79.2607 68.6991C78.608 69.0337 77.5656 68.7609 76.779 68.7334C75.8847 68.7022 75.1079 68.6945 74.2899 68.6961C72.7521 68.7007 70.4216 68.9257 69.8618 67.8169C69.5903 67.2799 69.7014 66.3119 69.7646 65.4173C69.8171 64.6766 69.8618 63.8644 69.9032 63.1343C69.9495 62.2893 69.9251 61.7419 69.9594 60.7859C69.9884 60.0011 70.1535 59.1189 70.8015 58.8488Z" fill="#8F7ECE"/>
<path opacity="0.75" fill-rule="evenodd" clip-rule="evenodd" d="M68.3509 59.7174C68.2969 60.0855 68.2491 60.4574 68.2861 60.8953C64.4151 60.9181 60.7706 60.6435 56.9215 60.6376C56.8592 60.3167 56.8453 59.5119 57.0212 59.1628C60.7768 59.3745 64.6713 59.4069 68.3509 59.7174Z" fill="white"/>
<path opacity="0.75" fill-rule="evenodd" clip-rule="evenodd" d="M68.0443 62.3898C68.1486 62.6438 68.0625 63.2498 67.9782 63.568C64.1208 63.6593 60.5272 63.4029 56.7072 63.4433C56.784 63.0502 56.6973 62.533 56.8334 62.1846C60.5828 62.237 64.168 62.5024 68.0443 62.3898Z" fill="white"/>
<path opacity="0.75" fill-rule="evenodd" clip-rule="evenodd" d="M67.8752 65.5559C67.8243 65.9698 67.8228 66.4215 67.749 66.8147C64.1487 66.5941 60.4844 66.4604 56.6705 66.5172C56.6347 65.9725 56.6378 65.46 56.6887 64.9795C60.4196 65.169 64.0558 65.4806 67.8752 65.5559Z" fill="white"/>
<path fill-rule="evenodd" clip-rule="evenodd" d="M87.0973 56.5126C86.8304 55.8047 86.8532 54.7468 86.8724 53.6927C86.889 52.7783 86.6928 51.4825 87.1896 51.0924C87.9037 50.6582 89.3624 50.9138 90.4592 50.9539C93.401 51.0619 96.2178 50.9971 99.4494 50.9403C101.291 50.9076 103.396 50.9767 105.445 50.957C106.342 50.9462 107.498 50.9477 108.447 50.9986C109.388 51.0495 110.596 51.1415 110.943 51.6214C111.423 52.2861 111.279 53.6528 111.196 54.6582C111.134 55.4128 111.09 56.9313 110.664 57.2859C110.194 57.6769 108.464 57.5643 107.628 57.5408C102.674 57.3995 97.7469 57.1835 92.7289 57.0875C91.737 57.0693 90.6974 57.0708 89.7269 57.0443C88.7918 57.0187 87.7938 57.1418 87.0973 56.5126Z" fill="#B1BC00"/>
<path fill-rule="evenodd" clip-rule="evenodd" d="M100.914 59.202C100.951 59.1853 100.966 59.122 101.048 59.1106C102.742 58.881 103.86 59.2992 105.905 59.3485C106.878 59.3729 109.989 59.2217 110.448 59.9944C110.763 60.5221 110.527 61.7102 110.474 62.4036C110.405 63.2615 110.33 63.9216 110.273 64.7681C110.187 66.0481 110.314 68.5715 109.374 69.0523C108.721 69.3868 107.68 69.1131 106.893 69.0865C105.998 69.0569 105.22 69.0476 104.403 69.0492C102.865 69.0538 100.535 69.2788 99.9757 68.17C99.7035 67.634 99.8146 66.665 99.8776 65.7704C99.9316 65.0288 99.9772 64.2172 100.016 63.4865C100.062 62.6422 100.038 62.0947 100.075 61.1387C100.101 60.3558 100.266 59.4735 100.914 59.202Z" fill="#8F7ECE"/>
<path opacity="0.75" fill-rule="evenodd" clip-rule="evenodd" d="M98.4633 60.0722C98.4093 60.4378 98.3614 60.8122 98.3988 61.2485C94.5278 61.2704 90.8833 60.9961 87.0348 60.9905C86.9731 60.669 86.958 59.8651 87.1335 59.5151C90.8907 59.7268 94.7845 59.7602 98.4633 60.0722Z" fill="white"/>
<path opacity="0.75" fill-rule="evenodd" clip-rule="evenodd" d="M98.1569 62.7431C98.2619 62.9965 98.1751 63.6025 98.093 63.9219C94.2332 64.0124 90.6414 63.7553 86.8204 63.7963C86.8979 63.4047 86.8112 62.8854 86.9457 62.5376C90.6961 62.5904 94.2798 62.857 98.1569 62.7431Z" fill="white"/>
<path opacity="0.75" fill-rule="evenodd" clip-rule="evenodd" d="M97.9887 65.9083C97.9368 66.3227 97.9369 66.7745 97.8625 67.1676C94.2612 66.9485 90.5972 66.8149 86.7846 66.8702C86.7472 66.3255 86.7519 65.8123 86.8012 65.334C90.5327 65.5219 94.168 65.8354 97.9887 65.9083Z" fill="white"/>
<path fill-rule="evenodd" clip-rule="evenodd" d="M49.9306 29.9231C49.5914 28.9343 49.4538 27.5114 49.8766 26.8124C50.5718 26.3486 52.0898 26.5532 53.1711 26.4823C56.1555 26.2829 59.1412 26.2153 62.1287 26.0694C71.999 25.5833 81.5741 25.6497 91.0821 26.0231C92.6779 26.086 95.7382 25.833 96.4057 26.6489C97.1152 27.5173 96.938 30.0021 96.506 30.3891C95.9965 30.8439 94.677 30.7433 93.5339 30.7375C90.805 30.7208 87.067 30.7375 84.7294 30.7192C80.5989 30.6865 76.9575 30.4341 73.2189 30.3566C67.3581 30.2335 61.5081 30.2067 55.5334 30.3338C54.5638 30.3551 53.5643 30.3773 52.5786 30.3582C51.7056 30.3412 50.678 30.5109 49.9306 29.9231Z" fill="#EFAD1B"/>
<path opacity="0.75" fill-rule="evenodd" clip-rule="evenodd" d="M91.339 33.7354C84.752 33.7079 78.1512 33.7141 71.5698 33.6465C59.3054 33.5163 46.4846 33.5749 33.4064 34.2168L33.6764 36.2032C39.6619 35.9949 45.5505 35.6647 51.3261 35.5323C65.0523 35.2191 78.0679 35.5672 91.1094 35.6804C97.6827 35.736 104.293 35.6644 110.889 35.8471C111.045 35.1636 111.269 34.5124 111.221 33.7304C104.46 34.0844 97.9234 33.7635 91.339 33.7354Z" fill="white"/>
<path opacity="0.75" fill-rule="evenodd" clip-rule="evenodd" d="M34.1456 37.65C47.4944 37.584 98.0797 38.9643 111.274 39.114C111.292 39.7429 111.213 40.3042 111.177 40.8952C104.878 40.4912 60.4001 39.8228 53.8521 39.641C47.3435 39.4608 40.7298 39.5778 34.1292 39.4189C34.1024 38.8051 34.0074 38.1481 34.1456 37.65Z" fill="white"/>
<path opacity="0.75" fill-rule="evenodd" clip-rule="evenodd" d="M111.242 43.4428C111.184 44.202 111.179 44.9972 111.255 45.8492C100.775 45.3471 45.1789 44.2757 34.3938 44.189C34.3596 43.4339 34.3534 42.6997 34.2365 41.8884C45.0829 41.9156 100.644 43.071 111.242 43.4428Z" fill="white"/>
<path fill-rule="evenodd" clip-rule="evenodd" d="M116.133 23.6879C116.969 23.8591 116.723 25.7391 116.527 26.9127C116.382 27.7814 116.055 28.722 115.43 28.4643C115.092 28.3282 114.972 27.7221 114.904 27.2719C114.744 26.223 114.863 24.4032 115.302 23.9931C115.506 23.8021 115.847 23.6317 116.133 23.6879Z" fill="white"/>
<path fill-rule="evenodd" clip-rule="evenodd" d="M115.977 31.1798C116.423 31.8523 116.343 33.5764 115.286 33.2264C114.29 32.8965 115.149 29.9273 115.977 31.1798Z" fill="white"/>
<path fill-rule="evenodd" clip-rule="evenodd" d="M29.7938 61.8813C30.6486 62.6 31.1361 67.1154 29.5907 67.1867C28.3304 67.2407 27.9913 63.2472 28.7745 62.1878C28.9769 61.9147 29.1868 61.8082 29.7938 61.8813Z" fill="white"/>
<path fill-rule="evenodd" clip-rule="evenodd" d="M29.9987 69.122C31.4025 68.8952 31.608 72.3481 30.3045 72.387C29.7537 72.4036 29.5935 72.0379 29.3849 71.367C29.0797 70.3771 29.0158 69.281 29.9987 69.122Z" fill="white"/>
<path fill-rule="evenodd" clip-rule="evenodd" d="M157.739 100.206L156.687 98.0735L99.6283 140.198L63.6812 126.11L61.5167 127.791C61.5167 127.791 61.7068 130.267 61.5167 130.267C61.3241 130.267 90.1021 142.857 90.1021 142.857L98.7988 145.485L102.047 144.768L158.41 104.383C157.181 103.428 156.958 101.511 157.739 100.206Z" fill="#8F7ECE"/>
<path fill-rule="evenodd" clip-rule="evenodd" d="M62.7518 127.221C62.4188 128.051 62.3 129.093 62.0179 129.973C65.264 130.798 68.3515 131.957 71.3748 133.183C78.7116 136.159 85.9367 139.277 93.2985 142.54C95.4865 143.511 97.4815 145.115 100.361 144.284C101.579 143.933 103.006 142.798 104.305 141.899C112.811 136.018 121.722 129.91 129.991 123.919C138.994 117.396 147.775 110.544 157.327 104.473C157.923 104.093 158.636 103.477 159.437 103.647C159.426 104.508 158.66 105.047 158.153 105.573C154.61 109.25 150.07 112.275 145.861 115.388C136.161 122.562 126.626 129.511 116.416 136.579C112.776 139.098 108.914 141.611 104.948 144.101C103.655 144.912 102.18 145.821 100.82 146.21C98.6267 146.837 96.1931 145.853 94.1237 145.2C88.7795 143.517 84.1416 141.547 79.1724 139.331C76.3842 138.086 72.6919 136.394 69.7226 134.927C68.2883 134.217 66.8045 133.429 65.0462 132.634C63.7214 132.034 61.1924 131.125 60.8252 129.972C59.9787 127.321 62.503 126.022 64.2188 124.928C68.0809 122.469 71.9611 119.268 75.5942 116.764C83.6232 111.227 91.2362 106.451 98.9859 101.077C105.307 96.696 111.835 92.4682 117.975 87.5017C118.517 87.0638 119.184 86.5114 119.809 86.034C120.501 85.5048 121.453 84.646 122.194 84.6583C122.577 84.6645 122.978 84.7293 123.391 84.8305C123.66 84.8969 123.439 85.5218 123.715 85.6128C123.968 85.6964 124.718 85.245 124.973 85.3394C125.714 85.615 126.455 85.9168 127.148 86.126C128.419 86.5096 129.67 86.8932 130.906 87.2786C131.203 87.3712 130.885 87.7196 131.181 87.8122C131.328 87.8585 132.089 87.6492 132.236 87.6955C134.061 88.272 135.858 88.854 137.64 89.4489C137.911 89.5394 137.91 89.9091 138.18 90.0001C138.478 90.1004 139.048 89.922 139.345 90.0232C143.244 91.349 147.102 92.7466 151.089 94.2895C152.055 94.6632 153.113 95.0644 154.207 95.4918C154.478 95.598 154.416 95.9192 154.691 96.0288C154.829 96.0837 155.303 95.9254 155.442 95.981C156.285 96.3198 157.136 96.6734 157.97 97.0413C158.743 97.3835 159.685 97.9158 159.712 98.417C159.771 99.4702 156.858 100.848 156.135 101.354C152.413 103.951 148.346 106.814 144.76 109.333C139.37 113.121 134.81 116.64 129.992 120.341C125.09 124.107 120.359 127.746 115.406 131.624C112.388 133.99 108.105 137.301 104.215 139.79C102.829 140.676 101.124 141.99 99.3538 141.899C97.9552 141.828 96.1938 140.633 94.8582 139.972C90.5956 137.865 85.9577 135.904 81.3739 134.194C78.1521 132.992 75.0091 131.895 71.9256 130.8C68.7928 129.687 65.5924 128.799 62.7518 127.221Z" fill="#FF5000"/>
<path d="M72.5961 125.783C73.4105 125.273 74.2091 124.739 74.9516 124.255C75.3271 123.885 75.3867 123.504 75.15 123.203C74.8692 122.85 74.4998 122.819 74.1477 123.034C73.3012 123.549 72.4683 124.09 71.6401 124.635C71.3867 124.8 71.2744 125.067 71.3654 125.367C71.57 126.038 72.3338 125.947 72.5961 125.783Z" fill="white"/>
<path d="M76.6551 119.675C77.0041 119.509 78.5808 118.113 78.8088 117.909C79.6303 117.17 78.7542 116.11 77.916 116.758C77.2057 117.307 76.5305 117.903 75.8398 118.479C75.1631 119.173 75.7531 120.104 76.6551 119.675Z" fill="white"/>
<path d="M86.7528 123.509C87.5073 123.134 88.1362 122.574 88.7226 122.105C89.1203 121.642 89.1546 121.259 88.8784 120.955C88.5939 120.648 88.2075 120.618 87.794 120.951C87.2145 121.419 86.6204 121.863 85.9946 122.267C85.1608 122.804 85.8415 123.963 86.7528 123.509Z" fill="white"/>
<path d="M83.7196 119.068C84.3936 118.628 85.0216 118.118 85.5662 117.714C85.9375 117.309 86.0498 116.967 85.7761 116.608C85.5008 116.244 85.1114 116.242 84.7753 116.471C84.1334 116.912 83.5196 117.388 82.9059 117.864C82.4677 118.205 82.3704 118.544 82.5695 118.897C82.7759 119.263 83.2481 119.375 83.7196 119.068Z" fill="white"/>
<path d="M79.58 125.92C80.2198 125.491 80.8181 125 81.3717 124.582C81.7322 124.19 81.7757 123.817 81.5307 123.524C81.2424 123.182 80.8706 123.149 80.5342 123.386C79.9044 123.83 79.2998 124.314 78.699 124.797C77.9355 125.413 78.6947 126.513 79.58 125.92Z" fill="white"/>
<path d="M91.1517 117.117C90.6839 117.418 90.5503 117.751 90.7388 118.113C91.2347 119.063 92.3809 118.169 93.2165 117.521C93.5301 117.186 93.6365 116.868 93.4113 116.532C92.9345 115.824 92.2818 116.391 91.1517 117.117Z" fill="white"/>
<path d="M84.3536 111.9C85.1689 111.391 85.9666 110.856 86.7097 110.371C87.0847 110.002 87.1448 109.621 86.9075 109.319C86.8816 109.288 86.8551 109.261 86.8285 109.235C85.6216 110.03 84.4107 110.832 83.1954 111.639C83.4636 112.131 84.1132 112.049 84.3536 111.9Z" fill="white"/>
<path d="M98.5063 109.625C99.2608 109.25 99.8897 108.69 100.476 108.221C100.874 107.759 100.908 107.374 100.631 107.073C100.349 106.764 99.9619 106.734 99.5475 107.067C98.9686 107.535 98.3739 107.979 97.7487 108.383C96.9146 108.92 97.5953 110.08 98.5063 109.625Z" fill="white"/>
<path d="M94.3246 105.013C94.5298 105.381 95.0016 105.491 95.4738 105.184C96.1478 104.745 96.7758 104.235 97.321 103.832C97.6914 103.426 97.804 103.085 97.5309 102.725C97.3803 102.527 97.1964 102.438 97.0053 102.435C96.1604 103.012 95.3161 103.585 94.4727 104.152C94.2015 104.435 94.1583 104.72 94.3246 105.013Z" fill="white"/>
<path d="M91.3357 112.037C91.9744 111.608 92.5737 111.117 93.1274 110.7C93.4856 110.307 93.5304 109.933 93.2857 109.642C92.9984 109.298 92.6256 109.265 92.288 109.503C91.6597 109.947 91.0551 110.43 90.4549 110.914C89.6915 111.53 90.4503 112.631 91.3357 112.037Z" fill="white"/>
<path d="M104.972 103.638C105.286 103.303 105.393 102.985 105.168 102.65C104.69 101.941 104.039 102.509 102.907 103.234C102.44 103.535 102.306 103.869 102.495 104.23C102.99 105.18 104.137 104.286 104.972 103.638Z" fill="white"/>
<path d="M93.307 133.217C92.4612 133.732 91.6277 134.272 90.8003 134.818C90.5463 134.984 90.4352 135.251 90.5251 135.549C90.7296 136.222 91.4931 136.131 91.7557 135.967C92.571 135.458 93.3687 134.923 94.1118 134.438C94.4868 134.069 94.5466 133.688 94.3096 133.386C94.0288 133.035 93.6613 133.002 93.307 133.217Z" fill="white"/>
<path d="M96.7704 128.835C97.1194 128.669 98.696 127.273 98.924 127.069C99.7455 126.331 98.8694 125.27 98.0319 125.919C97.3209 126.468 96.6454 127.063 95.9551 127.639C95.2783 128.333 95.8683 129.266 96.7704 128.835Z" fill="white"/>
<path d="M105.911 133.692C106.665 133.317 107.296 132.757 107.88 132.287C108.278 131.826 108.312 131.441 108.037 131.14C107.754 130.831 107.366 130.8 106.952 131.133C106.373 131.602 105.778 132.046 105.153 132.449C104.319 132.987 104.999 134.147 105.911 133.692Z" fill="white"/>
<path d="M102.877 129.252C103.551 128.811 104.179 128.301 104.724 127.899C105.096 127.494 105.207 127.15 104.934 126.792C104.658 126.427 104.269 126.425 103.933 126.657C103.293 127.095 102.677 127.572 102.064 128.049C101.627 128.388 101.528 128.729 101.728 129.081C101.933 129.448 102.406 129.559 102.877 129.252Z" fill="white"/>
<path d="M99.6902 133.569C99.0619 134.014 98.4573 134.496 97.8574 134.981C97.0936 135.596 97.8528 136.697 98.7381 136.103C99.3769 135.676 99.9762 135.183 100.53 134.766C100.89 134.373 100.934 134.001 100.688 133.709C100.401 133.365 100.029 133.331 99.6902 133.569Z" fill="white"/>
<path d="M86.8682 129.144C86.1646 129.682 86.8765 130.791 87.6523 130.329C88.317 129.935 88.9444 129.471 89.4891 129.102C90.2726 128.208 89.378 127.436 88.7034 127.867C88.0745 128.267 87.4591 128.691 86.8682 129.144Z" fill="white"/>
<path d="M110.312 127.301C109.844 127.602 109.71 127.935 109.899 128.297C110.395 129.246 111.542 128.353 112.378 127.704C112.691 127.371 112.799 127.051 112.572 126.715C112.094 126.007 111.444 126.576 110.312 127.301Z" fill="white"/>
<path d="M112.443 132.438C111.974 132.738 111.841 133.071 112.03 133.433C112.164 133.688 112.344 133.808 112.552 133.836C113.348 133.227 114.107 132.639 114.809 132.091C114.791 132.011 114.756 131.932 114.702 131.852C114.226 131.143 113.574 131.712 112.443 132.438Z" fill="white"/>
<path d="M105.581 138.136C105.113 138.436 104.98 138.769 105.169 139.131C105.174 139.14 105.179 139.146 105.185 139.155C106.026 138.598 106.877 138.012 107.725 137.41C107.259 136.934 106.624 137.467 105.581 138.136Z" fill="white"/>
<path d="M133.132 117.345C132.655 116.636 132.004 117.204 130.872 117.93C130.404 118.23 130.271 118.563 130.46 118.925C130.665 119.318 130.983 119.393 131.343 119.301C131.975 118.817 132.604 118.334 133.233 117.854C133.275 117.686 133.249 117.516 133.132 117.345Z" fill="white"/>
<path d="M93.676 123.069C94.4228 122.544 95.5439 121.722 94.9582 121.032C94.6805 120.703 94.2518 120.7 93.7954 121.061C93.431 121.349 93.0647 121.647 92.7496 121.986C92.1139 122.673 92.9746 123.564 93.676 123.069Z" fill="white"/>
<path d="M103.512 122.083C104.326 121.575 105.124 121.041 105.867 120.555C106.242 120.185 106.304 119.804 106.065 119.505C105.785 119.152 105.417 119.119 105.064 119.335C104.217 119.849 103.384 120.39 102.556 120.934C102.302 121.101 102.191 121.368 102.281 121.666C102.485 122.338 103.249 122.247 103.512 122.083Z" fill="white"/>
<path d="M109.788 112.035C109.077 112.584 108.401 113.18 107.71 113.756C107.035 114.449 107.624 115.382 108.526 114.952C108.875 114.785 110.453 113.39 110.681 113.186C111.501 112.447 110.625 111.388 109.788 112.035Z" fill="white"/>
<path d="M117.984 120.976C118.738 120.601 119.366 120.041 119.954 119.57C120.351 119.11 120.386 118.726 120.108 118.422C119.826 118.115 119.439 118.083 119.025 118.418C118.446 118.884 117.852 119.328 117.224 119.734C116.391 120.271 117.073 121.431 117.984 120.976Z" fill="white"/>
<path d="M116.69 112.908C116.414 112.545 116.026 112.543 115.689 112.773C115.048 113.212 114.434 113.69 113.82 114.165C113.383 114.504 113.284 114.845 113.484 115.198C113.689 115.564 114.162 115.676 114.633 115.368C115.307 114.927 115.936 114.418 116.48 114.015C116.852 113.61 116.963 113.268 116.69 112.908Z" fill="white"/>
<path d="M111.448 119.687C110.818 120.131 110.213 120.613 109.613 121.098C108.85 121.715 109.609 122.814 110.494 122.22C111.134 121.792 111.732 121.3 112.286 120.883C112.645 120.49 112.69 120.118 112.444 119.826C112.157 119.482 111.786 119.449 111.448 119.687Z" fill="white"/>
<path d="M98.6239 115.261C97.9203 115.8 98.6331 116.909 99.4074 116.448C100.074 116.052 100.7 115.588 101.245 115.219C102.028 114.324 101.134 113.553 100.459 113.984C99.8302 114.385 99.2148 114.81 98.6239 115.261Z" fill="white"/>
<path d="M100.63 139.871C100.152 139.161 99.5016 139.73 98.37 140.456C97.9022 140.756 97.7692 141.091 97.9577 141.45C97.9836 141.502 98.0133 141.544 98.0413 141.584C98.3151 141.688 98.5835 141.774 98.8431 141.828C99.3519 141.7 99.9472 141.238 100.435 140.86C100.749 140.525 100.855 140.205 100.63 139.871Z" fill="white"/>
<path d="M105.431 109.186C106.178 108.662 107.299 107.839 106.716 107.148C106.436 106.82 106.007 106.818 105.551 107.179C105.186 107.467 104.821 107.764 104.506 108.103C103.869 108.79 104.731 109.681 105.431 109.186Z" fill="white"/>
<path d="M74.8429 129.61C74.5667 129.245 74.1782 129.241 73.8421 129.473C73.2154 129.901 72.6161 130.367 72.0177 130.833C72.5729 131.029 73.1327 131.227 73.694 131.425C74.027 131.175 74.3436 130.93 74.6333 130.715C75.0049 130.31 75.116 129.968 74.8429 129.61Z" fill="white"/>
<path d="M79.8052 131.113C80.3011 132.064 81.4488 131.17 82.2844 130.521C82.5961 130.187 82.7026 129.867 82.4776 129.532C82.0008 128.823 81.3491 129.392 80.2181 130.118C79.7506 130.418 79.6166 130.751 79.8052 131.113Z" fill="white"/>
<path d="M65.974 126.787C66.7193 126.262 67.8404 125.438 67.2568 124.75C66.9785 124.421 66.548 124.418 66.0916 124.778C65.7274 125.068 65.3614 125.364 65.0467 125.703C64.4104 126.389 65.272 127.281 65.974 126.787Z" fill="white"/>
<path d="M84.027 134.033C83.7477 133.704 83.3191 133.701 82.8627 134.062C82.6679 134.215 82.4726 134.375 82.2853 134.54C82.8087 134.738 83.3317 134.94 83.8557 135.144C84.1754 134.778 84.3282 134.388 84.027 134.033Z" fill="white"/>
<path d="M118.451 125.794C117.74 126.343 117.065 126.937 116.375 127.513C115.698 128.206 116.288 129.139 117.19 128.71C117.54 128.542 119.118 127.147 119.344 126.944C120.165 126.205 119.29 125.146 118.451 125.794Z" fill="white"/>
<path d="M123.958 121.069C123.593 121.357 123.227 121.654 122.912 121.993C122.276 122.68 123.137 123.572 123.84 123.076C124.585 122.552 125.706 121.729 125.122 121.039C124.843 120.711 124.414 120.708 123.958 121.069Z" fill="white"/>
<path d="M137.638 90.0497C137.991 90.7273 138.676 90.465 139.344 90.0237C138.777 89.8321 138.207 89.6426 137.638 89.4519C137.53 89.6414 137.529 89.8404 137.638 90.0497Z" fill="white"/>
<path d="M108.4 97.7845C109.154 97.408 109.784 96.8482 110.37 96.3782C110.766 95.9175 110.803 95.5333 110.524 95.2305C110.241 94.921 109.856 94.8914 109.441 95.2244C108.863 95.6919 108.268 96.1363 107.641 96.5399C106.807 97.0787 107.488 98.2387 108.4 97.7845Z" fill="white"/>
<path d="M115.658 91.9567C115.971 91.6234 116.079 91.304 115.853 90.9695C115.376 90.26 114.724 90.8288 113.593 91.5543C113.125 91.8545 112.992 92.1894 113.18 92.5492C113.678 93.4987 114.824 92.6044 115.658 91.9567Z" fill="white"/>
<path d="M114.196 110.404C115.011 109.895 115.809 109.36 116.554 108.875C116.927 108.506 116.989 108.124 116.75 107.823C116.471 107.471 116.102 107.439 115.749 107.654C114.901 108.168 114.07 108.71 113.241 109.253C112.987 109.42 112.876 109.687 112.967 109.987C113.17 110.66 113.934 110.567 114.196 110.404Z" fill="white"/>
<path d="M119.21 103.271C119.559 103.106 121.137 101.709 121.363 101.506C122.185 100.767 121.31 99.7076 120.471 100.356C119.76 100.905 119.085 101.5 118.395 102.075C117.718 102.768 118.308 103.702 119.21 103.271Z" fill="white"/>
<path d="M128.352 108.13C129.106 107.753 129.735 107.195 130.32 106.725C130.718 106.263 130.754 105.879 130.477 105.576C130.193 105.268 129.807 105.237 129.393 105.571C128.814 106.039 128.218 106.482 127.593 106.887C126.758 107.424 127.439 108.584 128.352 108.13Z" fill="white"/>
<path d="M127.375 101.227C127.099 100.865 126.71 100.861 126.374 101.094C125.733 101.531 125.119 102.009 124.505 102.487C124.068 102.825 123.97 103.165 124.169 103.518C124.375 103.883 124.847 103.996 125.318 103.688C125.992 103.249 126.621 102.737 127.166 102.335C127.537 101.93 127.648 101.588 127.375 101.227Z" fill="white"/>
<path d="M121.179 110.541C121.82 110.112 122.417 109.621 122.972 109.202C123.331 108.811 123.376 108.437 123.131 108.145C122.843 107.802 122.471 107.768 122.133 108.007C121.503 108.451 120.899 108.934 120.299 109.417C119.535 110.033 120.294 111.133 121.179 110.541Z" fill="white"/>
<path d="M110.092 104.767C110.759 104.371 111.384 103.909 111.929 103.54C112.714 102.646 111.818 101.873 111.143 102.304C110.514 102.705 109.899 103.129 109.307 103.582C108.604 104.119 109.316 105.229 110.092 104.767Z" fill="white"/>
<path d="M132.751 101.738C132.283 102.039 132.15 102.373 132.339 102.732C132.835 103.684 133.981 102.79 134.817 102.14C135.129 101.807 135.237 101.489 135.011 101.153C134.535 100.443 133.883 101.011 132.751 101.738Z" fill="white"/>
<path d="M116.118 97.5071C116.864 96.9816 117.986 96.1579 117.401 95.4682C117.123 95.1405 116.693 95.138 116.237 95.4978C115.873 95.7861 115.506 96.0836 115.191 96.4233C114.555 97.1106 115.416 98.0005 116.118 97.5071Z" fill="white"/>
<path d="M125.951 96.5212C126.765 96.0108 127.563 95.4763 128.308 94.9918C128.681 94.6231 128.743 94.2404 128.504 93.9402C128.224 93.5881 127.856 93.5563 127.502 93.7707C126.657 94.287 125.825 94.8271 124.995 95.3717C124.741 95.5368 124.63 95.8038 124.721 96.1043C124.926 96.7758 125.69 96.6845 125.951 96.5212Z" fill="white"/>
<path d="M129.754 90.1068C130.104 89.9401 131.681 88.5447 131.908 88.3407C132.135 88.1361 132.229 87.9081 132.234 87.6979C131.793 87.5587 131.35 87.4189 130.904 87.281C130.235 87.8044 129.593 88.3642 128.938 88.9101C128.264 89.6041 128.853 90.5357 129.754 90.1068Z" fill="white"/>
<path d="M139.315 95.029C140.068 94.6525 140.698 94.0943 141.283 93.6249C141.681 93.1626 141.717 92.7784 141.439 92.4772C141.156 92.1677 140.768 92.1365 140.356 92.4711C139.777 92.9389 139.183 93.3829 138.555 93.7854C137.721 94.3239 138.402 95.4839 139.315 95.029Z" fill="white"/>
<path d="M132.933 96.6574C133.575 96.2285 134.171 95.7378 134.726 95.3187C135.085 94.9271 135.13 94.5537 134.884 94.2609C134.597 93.9193 134.225 93.8859 133.888 94.1232C133.257 94.5673 132.653 95.0503 132.053 95.5332C131.289 96.1501 132.048 97.2496 132.933 96.6574Z" fill="white"/>
<path d="M122.549 90.8842C123.216 90.4895 123.841 90.0257 124.386 89.6566C125.171 88.7623 124.276 87.9911 123.6 88.4216C122.971 88.8209 122.355 89.2452 121.765 89.6985C121.061 90.2367 121.773 91.3458 122.549 90.8842Z" fill="white"/>
<path d="M123.07 114.307C122.594 113.598 121.941 114.167 120.81 114.893C120.342 115.194 120.208 115.527 120.398 115.888C120.893 116.838 122.04 115.944 122.875 115.296C123.188 114.963 123.295 114.643 123.07 114.307Z" fill="white"/>
<path d="M123.607 86.6448C124.099 86.2985 124.752 85.8211 124.972 85.3397C124.465 85.1502 123.959 84.9762 123.464 84.8506C123.19 85.0728 122.92 85.3039 122.679 85.5616C122.043 86.2485 122.904 87.1385 123.607 86.6448Z" fill="white"/>
<path d="M152.369 96.9089C151.605 97.5242 152.365 98.6253 153.25 98.0316C153.889 97.6042 154.488 97.1123 155.042 96.6947C155.286 96.4278 155.381 96.1714 155.343 95.9418C154.962 95.7903 154.585 95.6412 154.21 95.4946C154.207 95.4962 154.206 95.4977 154.202 95.4993C153.574 95.943 152.969 96.4247 152.369 96.9089Z" fill="white"/>
<path d="M146.487 97.0594C147.153 96.6631 147.778 96.2009 148.323 95.8318C149.107 94.9375 148.212 94.1648 147.537 94.5953C146.908 94.9961 146.293 95.4204 145.702 95.8738C144.999 96.4129 145.711 97.521 146.487 97.0594Z" fill="white"/>
<path d="M128.706 113.462C127.994 114.013 127.32 114.606 126.629 115.183C125.952 115.876 126.542 116.809 127.443 116.378C127.793 116.212 129.372 114.816 129.599 114.613C130.419 113.875 129.544 112.816 128.706 113.462Z" fill="white"/>
<path d="M134.522 111.579C134.157 111.867 133.792 112.164 133.476 112.503C132.84 113.19 133.7 114.08 134.402 113.587C135.148 113.061 136.27 112.239 135.685 111.549C135.407 111.221 134.978 111.218 134.522 111.579Z" fill="white"/>
<path d="M141.856 103.331C142.677 102.593 141.802 101.534 140.963 102.182C140.253 102.731 140.162 102.995 139.472 103.571C138.796 104.264 139.386 105.197 140.288 104.768C140.636 104.6 141.63 103.536 141.856 103.331Z" fill="white"/>
<path d="M146.455 104.181C147.129 103.741 147.759 103.231 148.302 102.827C148.674 102.422 148.785 102.08 148.512 101.721C148.236 101.357 147.849 101.355 147.511 101.585C146.869 102.023 146.256 102.502 145.642 102.978C145.205 103.318 145.106 103.657 145.306 104.011C145.513 104.377 145.984 104.488 146.455 104.181Z" fill="white"/>
<path d="M142.316 111.033C142.956 110.605 143.554 110.113 144.108 109.696C144.467 109.303 144.512 108.929 144.267 108.636C143.978 108.294 143.608 108.261 143.27 108.499C142.641 108.943 142.035 109.426 141.435 109.909C140.672 110.527 141.431 111.625 142.316 111.033Z" fill="white"/>
<path d="M134.923 108.439C135.589 108.042 136.215 107.58 136.76 107.211C137.545 106.317 136.65 105.544 135.973 105.976C135.345 106.375 134.729 106.801 134.14 107.253C133.436 107.792 134.147 108.901 134.923 108.439Z" fill="white"/>
<path d="M153.89 102.231C153.425 102.529 153.292 102.857 153.472 103.215C154.319 102.621 155.16 102.033 155.983 101.459C155.522 101.065 154.896 101.585 153.89 102.231Z" fill="white"/>
<path d="M140.124 98.2331C139.486 98.9201 140.348 99.8097 141.051 99.3163C141.795 98.7908 142.917 97.9687 142.332 97.279C142.055 96.9503 141.626 96.9472 141.17 97.3086C140.804 97.5965 140.439 97.8924 140.124 98.2331Z" fill="white"/>
<path fill-rule="evenodd" clip-rule="evenodd" d="M119.169 92.2599C120.134 92.0537 121.802 92.5793 122.931 92.9931C128.571 95.0703 132.881 97.0971 138.25 99.5072C139.163 99.918 140.403 100.402 141.278 100.883C142.16 101.367 143.381 102.296 143.387 103.085C143.398 104.374 140.502 105.951 139.626 106.571C135.912 109.195 132.735 111.444 128.71 113.818C127.904 114.292 127.051 114.886 126.233 114.919C125.25 114.957 124.167 114.325 123.114 113.818C120.179 112.404 117.779 111.053 114.767 109.688C112.113 108.488 109.052 107.109 106.327 105.561C105.567 105.13 104.184 104.386 104.126 103.635C104.03 102.401 106.651 100.93 107.428 100.334C109.799 98.5111 112.361 96.4105 114.858 94.7373C116.141 93.8785 117.454 92.8854 118.986 92.3515C119.031 92.3358 119.076 92.2803 119.169 92.2599Z" fill="#4D3D87"/>
<path fill-rule="evenodd" clip-rule="evenodd" d="M148.729 123.737C145.02 124.68 141.451 125.618 138.282 127.062C133.955 129.034 130.232 131.684 126.781 134.306C119.503 139.835 113.164 146.087 105.908 151.425C102.297 154.083 98.5049 156.594 93.8381 157.99C89.2141 159.373 83.8202 160.139 77.5604 159.618C71.4403 159.11 65.8961 157.725 61.4774 155.52C57.1574 153.365 53.5268 150.56 52.4544 145.435C59.5928 145.084 66.5713 143.682 71.2691 140.017C72.9781 138.685 75.4406 135.828 74.4031 133.055C73.2388 129.945 68.3538 129.582 64.7513 130.075C62.0804 130.445 59.8702 131.357 58.0221 132.315C53.8925 134.454 50.667 137.236 49.7573 142.993C40.8241 142.955 32.3076 141.792 25.52 139.433C18.5998 137.028 13.1044 133.336 9.17846 128.463C7.15161 125.953 5.61698 123.09 5.50743 119.247C5.38121 114.802 7.12816 111.6 9.2303 109.189C10.9461 107.22 12.9646 105.699 15.2812 104.529C15.2812 104.529 16.7384 101.323 16.7415 101.3C16.0974 101.397 14.9831 101.782 14.2607 102.158C11.1325 103.779 8.51406 105.87 6.4545 108.549C4.25824 111.409 2.75909 115.42 3.0322 119.659C3.29913 123.778 4.73965 126.849 6.8745 129.598C10.9402 134.834 16.6322 138.837 24.0767 141.509C31.4333 144.147 40.2168 145.554 49.9273 145.528C51.3197 153.25 58.0924 157.622 65.9594 160.01C72.4534 161.981 80.0513 162.623 86.4824 161.982C88.6126 161.77 90.6272 161.251 92.7028 161.039C94.7614 160.826 96.9456 160.57 99.203 160.511C103.849 160.389 108.858 160.876 113.277 160.654C115.503 160.542 117.658 160.249 119.711 159.965C126.675 158.998 133.733 157.141 139.484 154.396C140.481 153.92 141.547 153.459 141.531 152.609C141.493 150.481 137.996 152.493 137.43 152.719C132.817 154.562 128.01 155.964 123.132 156.884C116.255 158.178 108.539 158.481 100.366 158.018C109.33 152.96 116.483 145.968 124.439 139.451C130.191 134.738 136.147 129.962 144.218 127.586C145.423 127.232 146.68 126.86 148.174 126.441C149.147 126.169 151.581 126.03 151.64 124.623C151.715 122.901 149.76 123.473 148.729 123.737ZM58.0924 135.076C60.9392 133.389 64.5834 132.172 68.2492 132.354C69.8798 132.435 71.8616 133.021 72.1066 134.111C72.5037 135.877 70.0584 137.807 69.1222 138.491C64.8411 141.619 58.8306 142.461 52.4421 142.917C52.8469 139.05 55.3021 136.729 58.0924 135.076Z" fill="#8F7ECE"/>
<path opacity="0.75" fill-rule="evenodd" clip-rule="evenodd" d="M148.729 123.737C145.02 124.68 141.451 125.618 138.282 127.062C133.955 129.034 130.232 131.684 126.781 134.306C119.503 139.835 113.164 146.087 105.908 151.425C102.297 154.083 98.5049 156.594 93.8381 157.99C89.2141 159.373 83.8202 160.139 77.5604 159.618C71.4403 159.11 65.8961 157.725 61.4774 155.52C57.1574 153.365 53.5268 150.56 52.4544 145.435C59.5928 145.084 66.5713 143.682 71.2691 140.017C72.9781 138.685 75.4406 135.828 74.4031 133.055C73.2388 129.945 68.3538 129.582 64.7513 130.075C62.0804 130.445 59.8702 131.357 58.0221 132.315C53.8925 134.454 50.667 137.236 49.7573 142.993C40.8241 142.955 32.3076 141.792 25.52 139.433C18.5998 137.028 13.1044 133.336 9.17846 128.463C7.15161 125.953 5.61698 123.09 5.50743 119.247C5.38121 114.802 7.12816 111.6 9.2303 109.189C10.9461 107.22 12.9646 105.699 15.2812 104.529C15.2812 104.529 16.7384 101.323 16.7415 101.3C16.1894 101.362 14.9831 101.782 14.2607 102.158C11.1325 103.779 8.51406 105.87 6.4545 108.549C4.25824 111.409 2.75909 115.42 3.0322 119.659C3.29913 123.778 4.73965 126.849 6.8745 129.598C10.9402 134.834 16.6322 138.837 24.0767 141.509C31.4333 144.147 40.2168 145.554 49.9273 145.528C51.3197 153.25 58.0924 157.622 65.9594 160.01C72.4534 161.981 80.0513 162.623 86.4824 161.982C88.6126 161.77 90.6272 161.251 92.7028 161.039C94.7614 160.826 96.9456 160.57 99.203 160.511C103.849 160.389 108.858 160.876 113.277 160.654C115.503 160.542 117.658 160.249 119.711 159.965C126.675 158.998 133.733 157.141 139.484 154.396C140.481 153.92 141.547 153.459 141.531 152.609C141.493 150.481 137.996 152.493 137.43 152.719C132.817 154.562 128.01 155.964 123.132 156.884C116.255 158.178 108.539 158.481 100.366 158.018C109.33 152.96 116.483 145.968 124.439 139.451C130.191 134.738 136.147 129.962 144.218 127.586C145.423 127.232 146.68 126.86 148.174 126.441C149.147 126.169 151.581 126.03 151.64 124.623C151.715 122.901 149.76 123.473 148.729 123.737ZM58.0924 135.076C60.9392 133.389 64.5834 132.172 68.2492 132.354C69.8798 132.435 71.8616 133.021 72.1066 134.111C72.5037 135.877 70.0584 137.807 69.1222 138.491C64.8411 141.619 58.8306 142.461 52.4421 142.917C52.8469 139.05 55.3021 136.729 58.0924 135.076Z" fill="white"/>
<path fill-rule="evenodd" clip-rule="evenodd" d="M146.27 148.026C143.535 149.419 140.798 150.812 138.055 152.273C138.364 153.111 138.637 153.941 139.017 154.79C142.385 153.423 149.077 151.17 152.828 147.47C154.345 145.975 155.609 143.301 153.263 141.612C151.109 140.062 146.149 142.053 145.722 145.172C145.585 146.164 145.971 146.963 146.27 148.026Z" fill="#8F7ECE"/>
<path fill-rule="evenodd" clip-rule="evenodd" d="M147.97 147.062C148.69 147.136 151.244 145.989 150.726 145.051C150.381 144.428 149.381 145.023 148.781 145.325C148.322 145.559 147.172 145.867 147.322 146.607C147.4 147.009 147.772 147.042 147.97 147.062Z" fill="white"/>
<path fill-rule="evenodd" clip-rule="evenodd" d="M151.516 142.168C150.849 141.775 149.871 142.551 150.139 143.176C150.477 143.953 152.673 142.857 151.516 142.168Z" fill="white"/>
<path fill-rule="evenodd" clip-rule="evenodd" d="M151.417 125.954C148.446 126.723 145.474 127.491 142.454 128.216C142.127 127.383 141.783 126.58 141.504 125.695C144.933 124.486 151.438 121.736 156.699 122.019C158.824 122.137 161.543 123.3 160.906 126.118C160.32 128.706 155.286 130.504 152.9 128.453C152.142 127.8 151.899 126.949 151.417 125.954Z" fill="#8F7ECE"/>
<path fill-rule="evenodd" clip-rule="evenodd" d="M153.329 125.547C153.818 125.013 156.492 124.181 156.727 125.226C156.883 125.921 155.736 126.14 155.087 126.309C154.589 126.435 153.525 126.97 153.145 126.317C152.94 125.964 153.196 125.696 153.329 125.547Z" fill="white"/>
<path fill-rule="evenodd" clip-rule="evenodd" d="M159.229 126.863C158.993 127.596 157.743 127.665 157.533 127.018C157.266 126.215 159.641 125.58 159.229 126.863Z" fill="white"/>
<path fill-rule="evenodd" clip-rule="evenodd" d="M19.2438 125.82C19.0133 126.612 18.8948 127.418 18.548 128.198C17.6027 127.951 16.7729 127.64 15.6672 127.2C15.109 126.978 12.9019 126.291 13.5006 125.577C13.9086 125.085 18.3091 125.536 19.2438 125.82Z" fill="#8F7ECE"/>
<path d="M50.1022 137.377C52.8317 137.951 55.5377 138.56 58.3274 139.048C58.5283 139.082 58.7474 139.123 58.977 139.163C60.1179 137.763 59.8328 136.199 59.435 134.618C56.5981 133.772 53.6671 133.181 50.7922 132.449C48.6398 131.901 46.4753 131.393 44.3185 130.884C44.0661 132.536 43.8096 134.186 43.1915 135.795C45.4909 136.362 47.7961 136.896 50.1022 137.377Z" fill="#B1BC00"/>
<path d="M17.1036 127.765C18.3914 128.654 20.7633 129.405 22.721 130.026C24.5836 130.62 26.4827 131.217 28.1544 131.7C32.5805 132.984 37.0814 134.253 41.6112 135.404C41.5739 135.379 41.5322 135.362 41.4918 135.337C41.9473 133.726 42.2287 132.094 42.5657 130.47C41.643 130.249 40.7206 130.027 39.8035 129.796C34.3155 128.422 28.7447 127.25 23.3206 126.125C21.4968 125.747 19.5841 125.262 17.7282 125.521C17.3965 126.253 17.1789 127.002 17.1036 127.765Z" fill="#B1BC00"/>
<path d="M59.7021 137.12C59.8163 136.533 60.5137 136.165 61.2565 136.301L64.1418 136.826C64.8864 136.961 65.3959 137.549 65.279 138.138C65.1648 138.724 64.4689 139.093 63.7243 138.958L60.8396 138.433C60.0952 138.296 59.5864 137.709 59.7021 137.12Z" fill="#4D3D87"/>
<path fill-rule="evenodd" clip-rule="evenodd" d="M41.5064 128.717C42.2152 128.441 43.0435 128.686 43.7606 128.793C47.3329 129.315 50.928 130.044 54.7296 131.017C55.3974 131.187 56.0294 131.358 56.932 131.651C58.2766 132.087 59.5505 132.647 59.282 133.862C59.2218 134.14 58.9953 134.731 58.4355 134.663C57.7557 134.582 57.8908 133.48 57.5069 133.137C57.186 132.846 56.2605 132.728 55.5409 132.53C53.6076 131.991 51.7063 131.441 49.7381 131.003C46.833 130.352 44.0735 129.945 41.9989 129.2C41.7933 129.128 41.4736 129.121 41.5064 128.717Z" fill="#4D3D87"/>
<path d="M41.6101 135.403C42.1372 135.534 42.6642 135.664 43.1904 135.795C43.8088 134.187 44.0649 132.536 44.3174 130.884C43.7317 130.746 43.15 130.61 42.5643 130.469C42.2273 132.093 41.9458 133.725 41.4904 135.337C41.5311 135.361 41.5731 135.379 41.6101 135.403Z" fill="#4D3D87"/>
<path d="M58.9767 139.163C59.8139 139.311 60.7548 139.442 61.1692 139.19C61.3547 139.077 61.5936 138.593 61.7244 138.309C62.1694 137.355 62.2043 136.252 61.7571 135.382C60.9921 135.1 60.2163 134.851 59.4346 134.618C59.8324 136.198 60.1176 137.763 58.9767 139.163Z" fill="#4D3D87"/>
<path fill-rule="evenodd" clip-rule="evenodd" d="M55.9264 136.087C56.3939 136.944 53.6036 136.608 53.6212 135.928C53.6425 135.134 55.4129 135.639 55.8714 136.005C55.902 136.029 55.9094 136.054 55.9264 136.087Z" fill="white"/>
<path fill-rule="evenodd" clip-rule="evenodd" d="M52.633 135.298C52.8923 136.023 50.534 135.843 50.737 135.109C50.8898 134.552 52.454 134.799 52.633 135.298Z" fill="white"/>
<path fill-rule="evenodd" clip-rule="evenodd" d="M21.2893 126.71C21.9358 126.776 22.9427 126.993 22.9366 127.375C22.9298 127.862 22.2589 127.699 21.738 127.609C21.2177 127.521 20.5737 127.396 20.6153 127.009C20.6595 126.584 21.0359 126.683 21.2893 126.71Z" fill="white"/>
<path fill-rule="evenodd" clip-rule="evenodd" d="M24.2107 128.176C24.6951 128.196 25.1537 128.39 25.096 128.723C24.9963 129.283 23.4015 129.02 23.5354 128.475C23.5861 128.267 23.8082 128.159 24.2107 128.176Z" fill="white"/>
</g>
<defs>
<clipPath id="clip0_13_690">
<rect width="158" height="158" fill="white" transform="translate(3 11)"/>
</clipPath>
</defs>
</svg>
