<svg width="316" height="296" viewBox="0 0 316 296" fill="none" xmlns="http://www.w3.org/2000/svg">
<path d="M263.144 269.683C247.583 279.452 227.463 275.289 209.202 277.415C193.772 279.216 179.395 285.679 164.579 290.481C149.763 295.282 133.623 298.439 118.878 293.559C108.752 290.21 100.204 283.362 90.6748 278.569C79.1728 272.797 66.3908 270.103 54.3803 265.451C42.3697 260.798 30.5258 253.513 24.9589 241.925C18.2523 228.001 22.1009 211.454 19.5761 196.211C16.7093 179.017 5.8385 164.158 1.28853 147.331C-1.92012 135.437 1.41126 121.4 5.29496 109.855C9.39782 97.6639 20.8122 83.9593 31.8057 76.8665C35.4001 74.5489 38.9419 72.2313 42.3259 69.6163C43.8163 68.4619 51.6275 63.4418 51.6275 61.6315C60.3943 53.1919 65.6544 42.4434 73.2815 33.1029C81.1716 23.4039 92.7701 17.1332 104.903 14.046C115.873 11.2257 127.129 9.66174 138.454 9.38453C150.596 9.18338 162.37 10.3116 174.091 6.14861C176.546 5.27404 178.939 4.20706 181.385 3.30625C197.954 -2.74579 220.134 -0.0958357 235.625 8.05518C241.534 11.1599 246.478 15.7951 251.239 20.4654C257.06 26.1763 262.513 32.3246 266.598 39.4086C270.508 46.204 271.744 54.2763 276.733 60.6694C280.081 64.9548 283.378 69.6513 286.692 73.788C291.82 80.1637 299.719 83.2247 304.593 90.1775C309.468 97.1304 311.835 105.71 313.448 113.992C315.517 124.583 316.683 135.454 315.569 146.194C313.816 163.37 304.742 176.148 295.485 190.132C292.408 194.794 289.304 199.613 288.121 205.07C287.644 207.688 287.351 210.335 287.244 212.994C286.674 220.751 284.719 227.861 283.246 235.409C280.66 248.606 274.997 262.241 263.144 269.683Z" fill="#EFF2FD"/>
<path d="M162.352 258.078C242.314 258.078 307.136 255.619 307.136 252.586C307.136 249.552 242.314 247.093 162.352 247.093C82.3902 247.093 17.5684 249.552 17.5684 252.586C17.5684 255.619 82.3902 258.078 162.352 258.078Z" fill="#D2CBEC"/>
<path d="M289.996 128.606V136.04H259.996V129.376L289.996 128.606Z" fill="#FF6551"/>
<g style="mix-blend-mode:multiply" opacity="0.36">
<path d="M289.996 130.093V136.04H259.996V131.475C261.513 132.113 264.379 132.752 269.64 132.822C279.941 132.935 287.55 132.586 289.996 130.093Z" fill="#F46D36"/>
</g>
<path d="M134.228 193.281L130.388 203.094L112.784 248.029H107.051C107.051 248.029 116.449 215.084 120.823 199.709C122.103 195.205 122.963 192.214 123.024 191.987L128.389 192.581L134.228 193.281Z" fill="#FF6551"/>
<g style="mix-blend-mode:multiply" opacity="0.44">
<g style="mix-blend-mode:multiply" opacity="0.44">
<path d="M134.228 193.237L130.388 203.05L112.784 248.029H111.014L128.389 192.581L134.228 193.237Z" fill="#CC9281"/>
</g>
</g>
<g style="mix-blend-mode:multiply" opacity="0.44">
<g style="mix-blend-mode:multiply" opacity="0.44">
<path d="M123.025 191.987L134.229 193.281L130.389 203.094C127.131 202.188 123.936 201.072 120.824 199.753C122.104 195.205 122.963 192.214 123.025 191.987Z" fill="#CC9281"/>
</g>
</g>
<path d="M169.375 248.029H163.817L158.268 206.924L156.111 190.937L156.76 191.024L167.28 192.468C167.28 192.8 167.508 198.764 167.806 206.671C168.429 223.148 169.375 248.029 169.375 248.029Z" fill="#FF6551"/>
<g style="mix-blend-mode:multiply" opacity="0.44">
<g style="mix-blend-mode:multiply" opacity="0.44">
<path d="M165.728 248.029H163.817L158.268 206.942L156.111 190.955L156.76 191.042L161.371 199.036L161.45 199.901L165.728 248.029Z" fill="#CC9281"/>
</g>
</g>
<g style="mix-blend-mode:multiply" opacity="0.44">
<g style="mix-blend-mode:multiply" opacity="0.44">
<path d="M167.28 192.485C167.28 192.817 167.508 198.782 167.806 206.688C164.492 206.907 161.31 206.986 158.268 206.942L156.111 190.955L167.28 192.485Z" fill="#CC9281"/>
</g>
</g>
<path d="M215.322 248.029H209.588L191.888 202.788L188.145 193.281L193.133 192.721L199.357 192.03C199.419 192.258 200.295 195.354 201.61 199.971C206.02 215.399 215.322 248.029 215.322 248.029Z" fill="#FF6551"/>
<g style="mix-blend-mode:multiply" opacity="0.44">
<g style="mix-blend-mode:multiply" opacity="0.44">
<path d="M211.28 248.029H209.588L191.888 202.788L188.145 193.281L193.133 192.721C196.289 202.56 207.484 236.52 211.28 248.029Z" fill="#CC9281"/>
</g>
</g>
<g style="mix-blend-mode:multiply" opacity="0.44">
<g style="mix-blend-mode:multiply" opacity="0.44">
<path d="M201.637 199.928C198.323 201.03 195.079 201.974 191.914 202.788L188.145 193.281L199.357 192.03C199.419 192.214 200.295 195.31 201.637 199.928Z" fill="#CC9281"/>
</g>
</g>
<path d="M216.487 144.077C216.382 144.952 216.259 145.783 216.128 146.631C215.712 149.405 215.126 152.15 214.374 154.852C214.331 155.036 214.278 155.211 214.225 155.386C211.551 165.085 210.079 174.679 199.462 181.028C197.411 182.253 194.763 183.127 192.668 184.273L192.563 184.334C188.392 186.618 183.954 188.38 179.351 189.581C165.605 193.342 150.166 194.986 136.297 190.981C132.239 189.789 128.505 187.696 125.374 184.859C124.12 183.724 122.948 182.503 121.867 181.203C121.622 180.914 121.385 180.626 121.148 180.328C120.912 180.031 120.675 179.734 120.447 179.454C119.57 178.238 118.694 176.97 117.878 175.667C117.379 174.845 116.905 174.014 116.449 173.174C116.265 172.842 116.09 172.501 115.914 172.16L115.651 171.644C115.485 171.312 115.31 170.962 115.152 170.621C115.064 170.446 114.985 170.28 114.906 170.105C114.827 169.93 114.617 169.484 114.477 169.178C114.336 168.872 114.205 168.548 114.065 168.242C113.661 167.297 113.276 166.353 112.907 165.4C112.539 164.446 112.189 163.484 111.855 162.513C111.154 160.502 110.505 158.455 109.9 156.391L109.786 156.015C109.164 153.89 108.568 151.756 107.981 149.614C105.35 139.993 102.72 130.137 103.106 120.149C103.4 112.198 105.816 104.469 110.103 97.7603C114.39 91.0512 120.394 85.6047 127.495 81.9828C133.974 78.7032 141.233 77.0852 148.387 76.1844C156.18 75.2049 164.167 74.5577 172.057 75.2049C177.404 75.6626 182.631 77.0447 187.504 79.2892C194.234 82.389 200.195 86.9343 204.959 92.6001C212.612 101.687 215.707 114.753 216.785 126.341C217.307 132.247 217.207 138.192 216.487 144.077Z" fill="#864FF1"/>
<path d="M216.486 143.325C212.436 120.98 199.172 78.9217 157.012 85.0437C108.418 92.1102 108.707 141.261 109.838 155.674L109.724 155.298C109.102 153.173 108.505 151.039 107.918 148.896C105.288 139.276 102.658 129.42 103.044 119.432C103.339 111.48 105.755 103.751 110.042 97.0403C114.329 90.33 120.332 84.8816 127.433 81.2568C133.912 77.9859 141.17 76.3679 148.324 75.4671C156.118 74.4876 164.104 73.8404 171.995 74.4876C177.337 74.9353 182.561 76.3054 187.433 78.5369C194.163 81.6286 200.124 86.1684 204.888 91.8304C212.541 100.917 215.636 113.983 216.714 125.571C217.26 131.481 217.184 137.431 216.486 143.325Z" fill="#A277F4"/>
<path style="mix-blend-mode:multiply" opacity="0.45" d="M216.486 143.325C216.381 144.2 216.267 145.074 216.136 145.879C215.715 148.652 215.13 151.397 214.382 154.1C214.338 154.284 214.286 154.458 214.242 154.633C211.612 164.254 211.551 172.746 203.722 179.121C201.872 180.626 194.955 182.357 192.693 183.538L192.588 183.599L125.399 184.133C124.145 182.998 122.974 181.777 121.893 180.477C121.647 180.188 121.41 179.9 121.174 179.602C120.937 179.305 120.7 179.008 120.472 178.728C119.596 177.512 118.719 176.244 117.904 174.941C117.404 174.119 116.922 173.288 116.475 172.448C116.291 172.116 116.115 171.775 115.94 171.434L115.677 170.918L115.177 169.895C115.09 169.72 115.011 169.554 114.932 169.379C114.783 169.073 114.642 168.758 114.502 168.452C114.362 168.146 114.23 167.822 114.09 167.516C113.687 166.571 113.301 165.627 112.933 164.673C112.565 163.72 112.214 162.758 111.881 161.787L112.591 156.234C112.591 156.234 122.068 164.411 162.825 161.919C203.582 159.426 215.162 145.179 216.486 143.325Z" fill="url(#paint0_linear_318_34854)"/>
<path d="M206.572 171.696C206.292 172.134 206.011 172.571 205.695 172.991C203.912 175.671 201.801 178.118 199.41 180.276C196.21 182.957 192.621 185.139 188.767 186.748C175.069 192.678 160.054 194.93 145.213 193.281C142.28 193.029 139.379 192.49 136.552 191.672C129.138 189.274 122.864 184.245 118.922 177.538C118.45 176.748 118.02 175.933 117.633 175.098C117.449 174.705 117.273 174.303 117.098 173.891C116.905 173.437 128.118 169.352 161.967 169.519C194.404 169.641 203.249 169.274 206.221 171.434C206.343 171.515 206.46 171.602 206.572 171.696Z" fill="#864FF1"/>
<g style="mix-blend-mode:multiply" opacity="0.56">
<path d="M206.221 171.417C206.042 171.592 205.875 171.779 205.722 171.976C203.881 174.338 196.14 181.527 164.43 183.153C132.721 184.78 120.64 177.906 120.64 177.906L117.633 175.125C117.449 174.731 117.273 174.329 117.098 173.918C116.905 173.463 128.118 169.379 161.967 169.545C194.413 169.615 203.249 169.248 206.221 171.417Z" fill="#FFAE43"/>
</g>
<path d="M102.668 178.571C102.668 178.571 86.1252 145.888 97.0398 139.346C107.832 132.935 111.751 149.552 114.845 160.24C117.94 170.927 133.255 193.054 161.397 191.672C196.184 189.966 207.361 175.483 212.499 158.587C217.636 141.69 218.732 138.716 225.044 138.716C231.356 138.716 236.327 158.648 216.68 181.64C197.034 204.633 155.313 204.213 142.575 201.896C129.836 199.578 113.267 195.581 102.668 178.571Z" fill="#864FF1"/>
<path d="M151.236 224.993C151.209 225.054 151.17 225.109 151.12 225.152C151.07 225.196 151.01 225.228 150.946 225.247C149.918 225.644 148.863 225.971 147.79 226.226L143.67 227.302C139.418 228.421 135.148 229.541 130.826 230.372C129.982 230.585 129.108 230.656 128.24 230.581C127.836 230.55 127.455 230.38 127.162 230.1C126.978 229.873 126.849 229.607 126.785 229.322C126.443 228.113 126.383 226.841 126.61 225.605C126.993 223.368 128.212 221.359 130.02 219.982C131.457 218.965 133.146 218.361 134.903 218.234C136.661 218.108 138.419 218.464 139.988 219.265C140.354 219.492 140.753 219.66 141.171 219.763C141.38 219.812 141.599 219.799 141.8 219.724C142.002 219.649 142.176 219.517 142.302 219.343C142.407 219.134 142.461 218.903 142.46 218.67C142.529 217.081 142.191 215.501 141.478 214.078L146.414 213.667C147.659 216.139 148.804 218.664 149.85 221.241C150.324 222.395 150.727 223.559 151.2 224.739C151.24 224.818 151.253 224.907 151.236 224.993Z" fill="#495059"/>
<path d="M203.39 229.322C203.326 229.607 203.197 229.873 203.013 230.1C202.72 230.38 202.339 230.55 201.935 230.581C201.067 230.656 200.193 230.585 199.348 230.372C195.026 229.497 190.766 228.421 186.505 227.302L182.385 226.226C181.312 225.97 180.258 225.643 179.229 225.247C179.164 225.228 179.105 225.196 179.055 225.152C179.005 225.109 178.966 225.054 178.939 224.993C178.913 224.907 178.913 224.816 178.939 224.731C179.36 223.576 179.816 222.43 180.272 221.294C181.324 218.705 182.475 216.163 183.726 213.667L188.67 214.078C187.957 215.491 187.621 217.064 187.697 218.644C187.693 218.877 187.744 219.107 187.846 219.317C187.972 219.491 188.147 219.623 188.348 219.698C188.549 219.772 188.768 219.786 188.977 219.737C189.397 219.637 189.797 219.468 190.161 219.238C191.729 218.438 193.488 218.082 195.245 218.208C197.002 218.335 198.691 218.939 200.129 219.955C201.147 220.737 201.987 221.726 202.592 222.857C203.197 223.989 203.552 225.235 203.635 226.515C203.719 227.458 203.636 228.408 203.39 229.322Z" fill="#495059"/>
<path d="M176.686 153.051C173.626 152.727 154.445 154.8 146.633 154.581C145.704 150.383 144.354 145.319 143.214 140.667C142.375 136.797 141.789 132.876 141.461 128.93C141.242 126.691 144.091 125.029 148.027 124.461C155.532 123.385 165.692 122.493 171.584 123.499C172.732 123.691 178.08 125.248 178.466 126.324C180.07 130.775 177.089 149.334 176.686 153.051Z" fill="white"/>
<path d="M202.512 179.725C202.493 178.792 202.339 177.868 202.056 176.979C201.684 175.968 201.151 175.023 200.478 174.18C197.918 170.883 194.175 168.723 190.379 166.965C188.143 165.896 185.82 165.019 183.436 164.341C182.354 164.05 181.257 163.826 180.148 163.668C175.922 163.09 171.644 163.668 167.375 163.773V163.676C166.595 163.746 165.814 163.781 165.043 163.799C164.271 163.816 163.482 163.746 162.711 163.676C162.706 163.708 162.706 163.741 162.711 163.773C158.45 163.65 154.163 163.09 149.938 163.668C148.285 163.906 146.657 164.29 145.072 164.813C143.243 165.418 141.451 166.13 139.707 166.947C135.92 168.697 132.167 170.865 129.616 174.163C128.941 175.005 128.405 175.95 128.029 176.961C127.667 178.132 127.512 179.358 127.574 180.582C127.587 181.46 127.651 182.336 127.766 183.206C128.425 187.057 129.5 190.825 130.975 194.444C131.115 194.829 131.273 195.231 131.44 195.642C134.675 203.688 142.17 216.369 142.17 216.369C143.047 216.684 145.028 216.072 146.299 215.609C146.983 215.364 147.465 215.154 147.465 215.154C147.465 215.154 147.08 212.005 146.948 210.589C146.641 207.414 146.194 204.248 145.607 201.117C144.909 198.171 144.521 195.161 144.45 192.135C144.411 190.789 144.751 189.459 145.432 188.296C146.589 186.547 148.763 185.864 150.788 185.366C152.813 184.867 155.066 184.413 157.205 183.94C162.352 182.795 167.689 182.795 172.837 183.94C174.976 184.413 177.132 184.815 179.254 185.366C181.375 185.917 183.453 186.564 184.61 188.296C185.293 189.458 185.637 190.788 185.601 192.135C185.68 195.152 184.987 198.143 184.435 201.117C183.848 204.248 183.401 207.414 183.094 210.589C182.962 212.005 182.585 215.154 182.585 215.154C182.585 215.154 183.383 215.504 184.391 215.836C185.619 216.238 187.135 216.632 187.898 216.369C187.898 216.369 196.183 202.376 199.093 194.444C199.514 193.298 199.97 192.144 200.329 190.989C201.593 187.66 202.33 184.155 202.512 180.599C202.512 180.311 202.512 180.013 202.512 179.725Z" fill="#49B3F7"/>
<g style="mix-blend-mode:multiply" opacity="0.4">
<g style="mix-blend-mode:multiply" opacity="0.4">
<path d="M183.445 164.359C183.445 164.359 179.386 169.904 165.727 170.831C154.172 171.618 147.045 166.458 145.125 164.831C146.713 164.306 148.344 163.923 149.999 163.685C154.216 163.108 158.503 163.685 162.764 163.79C162.764 163.79 162.764 163.729 162.764 163.694C163.535 163.764 164.316 163.799 165.096 163.816C165.876 163.834 166.647 163.764 167.428 163.694V163.79C171.697 163.668 175.975 163.108 180.201 163.685C181.295 163.845 182.378 164.07 183.445 164.359Z" fill="#3DA6C0"/>
</g>
</g>
<path d="M178.605 134.851C178.947 138.2 179.578 162.898 178.86 163.545C175.099 166.939 170.268 167.236 165.902 167.376C159.765 167.56 153.339 167.376 148.167 164.157C147.404 163.676 147.045 160.659 146.861 159.732C145.107 151.135 141.855 137.798 141.25 134.851H178.605Z" fill="white"/>
<path d="M168.629 146.789C163.843 147.27 158.434 147.724 155.006 151.511L163.063 151.669C165.529 151.822 168.006 151.649 170.427 151.153C170.383 150.777 169.813 146.675 169.497 146.71L168.629 146.789Z" fill="#FFBF94"/>
<path d="M177.546 125.668C177.546 125.668 197.709 141.218 198.928 144.034C200.146 146.85 198.419 149.832 194.369 149.369C190.319 148.905 176.441 137.194 176.441 137.194C176.441 137.194 171.067 133.18 171.593 130.347C172.119 127.513 174.17 124.365 177.546 125.668Z" fill="white"/>
<path d="M196.841 142.092C189.126 137.544 174.047 143.439 166.867 146.701C169.497 148.879 168.621 151.074 168.84 151.459C168.84 151.459 186.785 151.153 193.141 150.969C199.497 150.785 201.321 144.742 196.841 142.092Z" fill="white"/>
<path d="M167.708 146.421C170.128 145.94 172.486 144.725 174.8 143.885C177.09 143.038 179.433 142.343 181.814 141.803C184.019 141.324 186.264 141.049 188.52 140.981C190.869 140.816 193.229 140.975 195.534 141.454C195.534 141.454 195.534 141.454 195.534 141.41C193.473 140.603 191.286 140.168 189.073 140.124C186.729 140.128 184.392 140.383 182.103 140.885C179.617 141.458 177.183 142.236 174.827 143.212C172.359 144.044 169.973 145.101 167.699 146.369V146.421H167.708Z" fill="#D6D6D6"/>
<g style="mix-blend-mode:multiply" opacity="0.4">
<g style="mix-blend-mode:multiply" opacity="0.4">
<path d="M151.236 224.993C151.209 225.054 151.17 225.108 151.12 225.152C151.07 225.196 151.01 225.228 150.946 225.246C149.918 225.644 148.863 225.971 147.79 226.226L143.67 227.302C139.418 228.421 135.148 229.541 130.826 230.372C129.982 230.585 129.108 230.656 128.24 230.581C127.836 230.55 127.455 230.38 127.162 230.1C126.978 229.873 126.849 229.607 126.785 229.322C126.443 228.113 126.383 226.841 126.61 225.605C128.363 226.48 133.983 228.631 143.118 225.273C145.634 224.445 147.934 223.067 149.85 221.241C150.324 222.395 150.727 223.559 151.2 224.739C151.24 224.818 151.253 224.907 151.236 224.993Z" fill="#495059"/>
</g>
</g>
<g style="mix-blend-mode:multiply" opacity="0.4">
<g style="mix-blend-mode:multiply" opacity="0.4">
<path d="M203.39 229.322C203.326 229.607 203.197 229.873 203.013 230.1C202.72 230.38 202.339 230.55 201.935 230.581C201.067 230.656 200.193 230.585 199.348 230.372C195.026 229.497 190.766 228.421 186.505 227.302L182.385 226.226C181.312 225.97 180.258 225.643 179.229 225.247C179.164 225.228 179.105 225.196 179.055 225.152C179.005 225.108 178.966 225.054 178.939 224.993C178.913 224.907 178.913 224.816 178.939 224.731C179.36 223.576 179.816 222.43 180.272 221.293C183.867 224.251 188.195 226.188 192.8 226.899C196.41 227.443 200.09 227.312 203.653 226.515C203.731 227.459 203.642 228.409 203.39 229.322Z" fill="#495059"/>
</g>
</g>
<g style="mix-blend-mode:multiply" opacity="0.4">
<g style="mix-blend-mode:multiply" opacity="0.4">
<path d="M184.445 215.889C183.437 215.556 182.64 215.206 182.64 215.206C182.64 215.206 183.016 212.058 183.148 210.641C183.455 207.466 183.902 204.301 184.489 201.17C185.042 198.196 185.734 195.205 185.655 192.188C185.691 190.841 185.348 189.511 184.665 188.348C183.507 186.599 181.333 185.917 179.308 185.419C177.283 184.92 175.03 184.465 172.891 183.993C167.744 182.847 162.407 182.847 157.26 183.993C155.121 184.465 152.964 184.868 150.842 185.419C148.721 185.969 146.643 186.617 145.486 188.348C144.805 189.511 144.465 190.842 144.504 192.188C144.577 195.208 144.964 198.212 145.661 201.152C146.249 204.283 146.696 207.449 147.002 210.624C147.134 212.04 147.52 215.189 147.52 215.189C147.52 215.189 147.038 215.399 146.354 215.644C146.354 215.644 136.211 190.972 141.33 185.637C146.45 180.302 159.031 177.827 166.009 177.897C172.987 177.967 184.27 180.101 188.145 184.299C192.02 188.497 183.718 211.376 184.445 215.889Z" fill="#3DA6C0"/>
</g>
</g>
<g style="mix-blend-mode:multiply" opacity="0.4">
<g style="mix-blend-mode:multiply" opacity="0.4">
<path d="M202.511 180.599C202.337 184.172 201.603 187.695 200.337 191.042C200.109 190.893 199.89 190.727 199.67 190.552C198.338 189.515 197.37 188.081 196.909 186.459C196.838 186.172 196.838 185.872 196.909 185.584C197.076 185.016 197.672 184.71 198.189 184.421C200.093 183.354 201.623 181.73 202.572 179.769C202.511 180.013 202.511 180.311 202.511 180.599Z" fill="#3DA6C0"/>
</g>
</g>
<g style="mix-blend-mode:multiply" opacity="0.4">
<g style="mix-blend-mode:multiply" opacity="0.4">
<path d="M134.764 190.867C134.597 192.223 133.492 193.237 132.598 194.269C132.198 194.719 131.829 195.195 131.494 195.695C131.327 195.284 131.169 194.881 131.029 194.497C129.554 190.878 128.478 187.109 127.82 183.258C128.418 184.072 129.077 184.838 129.793 185.55C131.152 186.905 132.66 188.103 134.132 189.354C134.311 189.493 134.468 189.658 134.597 189.844C134.766 190.157 134.825 190.517 134.764 190.867Z" fill="#3DA6C0"/>
</g>
</g>
<path d="M171.591 123.534C171.416 123.945 169.014 129.542 162.825 129.787C157.258 130.006 153.313 124.854 152.559 123.779C158.95 122.93 165.463 122.484 171.591 123.534Z" fill="#D6D6D6"/>
<path d="M170.26 116.546L169.497 119.895L168.822 122.895L168.769 123.149C168.769 123.149 167.463 127.137 162.238 127.233C157.013 127.329 155.54 123.42 155.54 123.42V122.615L155.426 119.589L155.295 115.907C155.295 101.914 166.902 116.948 166.902 116.948L168.024 116.686L168.094 117.403L170.26 116.546Z" fill="#EA9573"/>
<g style="mix-blend-mode:multiply" opacity="0.09">
<path d="M169.497 119.895L168.822 122.895C167.031 124.091 164.943 124.766 162.79 124.845C160.239 124.696 157.763 123.93 155.575 122.615L155.461 119.589L166.937 116.966L168.129 117.42L169.497 119.895Z" fill="#DD664A"/>
</g>
<path d="M195.088 103.384L194.93 103.777C194.073 105.913 192.867 107.893 191.362 109.637C189.284 111.911 186.505 113.397 183.788 114.884C179.089 117.536 174.195 119.825 169.147 121.732C166.464 122.668 163.589 123.394 160.801 122.869C158.552 122.32 156.435 121.327 154.577 119.948C148.776 116.079 143.491 111.492 138.849 106.296C137.25 104.675 135.987 102.755 135.132 100.646C134.488 98.3731 134.294 95.9966 134.562 93.6496C134.562 93.0461 134.632 92.4514 134.676 91.9005C135.449 80.3114 137.426 68.8338 140.576 57.6522L140.918 56.7252C140.979 51.4777 146.099 47.7346 151 45.793C156.614 43.5998 162.607 42.5372 168.635 42.6663C174.663 42.7953 180.605 44.1137 186.12 46.5451C190.915 48.6966 195.439 51.7926 198.393 56.1654C201.689 61.0281 202.777 67.1151 202.514 72.9835C202.251 78.8518 200.76 84.589 199.261 90.265C198.181 94.7304 196.787 99.1141 195.088 103.384Z" fill="#FFBF94"/>
<g style="mix-blend-mode:multiply" opacity="0.09">
<path d="M194.93 103.777C194.073 105.913 192.867 107.893 191.362 109.637C189.284 111.911 186.505 113.397 183.788 114.884C179.089 117.536 174.195 119.825 169.147 121.732C166.464 122.668 163.589 123.394 160.801 122.869C158.552 122.32 156.435 121.326 154.577 119.948C148.776 116.079 143.491 111.492 138.849 106.296C137.25 104.675 135.987 102.755 135.132 100.646C134.488 98.373 134.294 95.9965 134.562 93.6495C134.562 93.0461 134.632 92.4514 134.676 91.9004C134.939 92.1453 136.14 91.9004 136.429 92.635C139.436 101.031 151.333 113.922 162.519 116.651C173.706 119.379 193.536 103.174 193.536 103.174L194.93 103.777Z" fill="#DD664A"/>
</g>
<g style="mix-blend-mode:multiply" opacity="0.09">
<path d="M139.182 75.2137L138.787 78.0648C138.787 78.0648 147.282 69.424 148.027 61.2205C148.027 61.2205 152.77 68.2171 163.755 71.5405C174.74 74.8639 181.411 71.8816 181.411 71.8816C181.411 71.8816 178.448 69.0042 177.738 66.503C177.738 66.503 186.987 71.1819 193.15 68.1647C193.15 68.1647 190.862 73.9106 194.719 81.4144C198.577 88.9182 198.673 91.5332 198.673 91.5332L202.513 71.9778L196.28 55.0373L177.817 51.9938L151.841 52.4748L145.757 51.4341C145.757 51.4341 142.32 57.0663 141.996 58.3082C141.671 59.5501 139.182 75.2137 139.182 75.2137Z" fill="#DD664A"/>
</g>
<path d="M135.736 81.9565C135.254 79.5864 134.816 77.1989 134.413 74.8113L134.281 74.0329C133.211 67.4211 132.528 60.5208 134.79 54.2238C135.822 51.3188 137.542 48.7056 139.804 46.6063C140.505 45.9619 141.259 45.3768 142.057 44.8572C144.48 43.2174 147.387 42.4409 150.307 42.6532V42.9331C147.607 46.825 146.642 51.4252 145.923 56.1654C145.49 59.9426 144.841 63.692 143.977 67.3949C142.49 72.8583 139.657 77.864 135.736 81.9565Z" fill="#672410"/>
<path d="M201.067 104.949C198.411 105.19 195.751 104.548 193.501 103.121C192.941 102.778 192.405 102.398 191.896 101.984L196.376 93.5795C198.384 90.9558 202.162 89.5477 205.143 90.9558C206.622 91.6639 207.767 92.9186 208.334 94.4541C208.946 95.9995 209.002 97.7087 208.492 99.2905C207.897 100.824 206.888 102.165 205.578 103.163C204.268 104.162 202.707 104.78 201.067 104.949Z" fill="#FFBF94"/>
<path d="M204.642 85.1662C202.973 87.9736 200.926 90.5396 198.558 92.7924C199.154 88.6382 197.418 84.554 196.437 80.4697C196.147 79.2463 195.921 78.0085 195.762 76.7615C195.224 72.4731 195.492 68.1224 196.551 63.9316L205.729 58.5967L206.501 58.1506L206.948 58.4392C209.184 60.0747 209.797 63.2756 209.832 66.1092C209.892 72.8169 208.097 79.4111 204.642 85.1662Z" fill="#672410"/>
<g style="mix-blend-mode:multiply" opacity="0.32">
<path d="M204.642 85.1661C206.685 78.9304 209.254 68.8204 204.257 69.4238C199.26 70.0273 196.84 74.1903 195.762 76.744C195.224 72.4556 195.492 68.1048 196.551 63.914L205.729 58.5966L206.948 58.4392C209.184 60.0747 209.797 63.2756 209.832 66.1092C209.892 72.8168 208.097 79.411 204.642 85.1661Z" fill="#672410"/>
</g>
<path d="M154.024 72.756C153.987 72.5698 153.899 72.3974 153.77 72.2575C153.603 72.1145 153.405 72.0126 153.192 71.9601C151.868 71.6103 150.299 72.1962 149.036 72.5898C147.456 73.0084 146.004 73.8106 144.811 74.9249C144.109 75.6333 143.127 76.9889 144.249 77.8023C145.503 78.6768 147.414 77.8023 148.633 77.2863C150.386 76.5429 154.042 75.4671 154.068 73.132C154.071 73.0053 154.056 72.8787 154.024 72.756Z" fill="#672410"/>
<path d="M191.424 83.0849C191.082 81.4581 189.083 80.1288 187.715 79.4291C185.668 78.2594 183.252 77.9092 180.956 78.4496C180.644 78.5135 180.359 78.6724 180.141 78.9044C180.022 79.0899 179.959 79.3053 179.959 79.5253C179.959 79.7454 180.022 79.9608 180.141 80.1463C180.363 80.5191 180.662 80.8409 181.017 81.0908C182.19 81.9535 183.424 82.7309 184.708 83.4172C185.881 84.1408 187.154 84.6888 188.487 85.0439C189.793 85.3412 191.792 84.834 191.424 83.0849Z" fill="#672410"/>
<path d="M170.234 110.809C169.423 111.685 168.424 112.367 167.31 112.802C166.197 113.236 164.999 113.413 163.808 113.319C162.552 113.266 161.323 112.936 160.21 112.352C159.097 111.768 158.128 110.945 157.373 109.943C156.242 108.425 155.426 106.697 154.971 104.861C154.817 104.287 154.703 103.702 154.629 103.112C154.892 103.112 165.544 107.345 173.469 104.057C173.314 104.916 173.079 105.76 172.767 106.576C172.21 108.139 171.349 109.578 170.234 110.809Z" fill="#AA3333"/>
<path d="M172.775 106.549C170.077 107.852 167.069 108.382 164.087 108.08C160.848 107.702 157.734 106.602 154.979 104.861C154.825 104.287 154.711 103.702 154.637 103.112C154.9 103.112 165.551 107.345 173.477 104.057C173.32 104.908 173.086 105.742 172.775 106.549Z" fill="white"/>
<path d="M170.234 110.809C169.423 111.685 168.424 112.367 167.311 112.802C166.197 113.236 165 113.413 163.808 113.319C162.552 113.266 161.323 112.936 160.21 112.352C159.097 111.768 158.128 110.945 157.373 109.943C158.39 109.633 159.46 109.536 160.516 109.657C161.572 109.779 162.591 110.118 163.51 110.651C163.51 110.651 164.877 108.981 170.234 110.809Z" fill="#FF6551"/>
<g style="mix-blend-mode:multiply" opacity="0.25">
<path d="M200.234 97.6726C202.426 96.9117 204.618 95.1276 204.811 92.7313C204.814 92.7004 204.807 92.6691 204.791 92.6426C204.775 92.616 204.75 92.5956 204.721 92.5845C204.692 92.5735 204.66 92.5725 204.63 92.5816C204.6 92.5908 204.574 92.6096 204.556 92.6351C203.224 94.6291 201.847 96.3608 199.366 96.9117C199.283 96.9264 199.204 96.9622 199.138 97.0157C199.072 97.0693 199.02 97.1387 198.989 97.2176C198.957 97.2964 198.946 97.382 198.957 97.4663C198.968 97.5505 199 97.6305 199.051 97.6988C199.592 98.4124 199.95 99.247 200.094 100.13C200.092 100.832 200.217 101.528 200.462 102.185C200.477 102.218 200.499 102.246 200.527 102.268C200.554 102.291 200.586 102.307 200.621 102.315C200.655 102.324 200.691 102.324 200.726 102.317C200.761 102.31 200.794 102.295 200.822 102.273C201.988 101.127 201.102 98.9932 200.234 97.6726Z" fill="#DD664A"/>
</g>
<path d="M159.239 114.7C159.722 115.427 160.371 116.028 161.134 116.454C161.896 116.88 162.749 117.118 163.622 117.149C164.56 117.149 166.884 116.695 166.892 115.461C166.892 115.391 166.892 115.313 166.778 115.313C166.287 115.313 166.112 115.575 165.665 115.811C165.015 116.134 164.296 116.293 163.57 116.275C162.043 116.141 160.62 115.449 159.572 114.333C159.344 114.115 159.037 114.473 159.204 114.7H159.239Z" fill="#DD664A"/>
<path d="M207.397 60.1273C205.231 62.6898 202.137 64.1941 198.954 65.5846C194.611 67.5204 190.074 68.9893 185.418 69.9663C176.415 71.8378 166.438 71.6017 158.557 66.363C157.452 65.6284 148.624 59.7163 144.828 56.0431L143.776 52.4048L141.777 45.5569C141.977 44.3209 142.27 43.1018 142.654 41.91C145.652 32.5433 153.788 29.3948 162.52 27.2609C172.935 24.7159 185.585 27.6632 194.887 32.5083C195.676 32.9194 196.447 33.3829 197.219 33.8027C201.357 36.234 205.223 39.33 207.739 43.423C210.255 47.516 211.114 52.7547 209.273 57.18C208.801 58.2517 208.168 59.2455 207.397 60.1273Z" fill="#672410"/>
<path d="M135.736 81.9565C135.254 79.5864 134.816 77.1989 134.413 74.8113L134.281 74.0329C144.179 68.7855 139.804 46.6063 139.804 46.6063C140.505 45.9619 141.259 45.3768 142.057 44.8572C143.982 48.3801 145.293 52.204 145.932 56.1654C145.499 59.9426 144.85 63.692 143.986 67.3949C142.496 72.8591 139.661 77.8649 135.736 81.9565Z" fill="#56170D"/>
<path d="M138.235 91.3494C137.648 91.7517 137.034 92.1628 136.403 92.5301C134.597 93.5883 132.651 94.3754 130.652 93.9556C127.864 93.3784 124.857 90.8422 124.094 88.0785C123.729 86.5779 123.839 85.0011 124.41 83.5657C124.666 82.8816 124.986 82.2228 125.365 81.5979C125.874 80.6827 126.538 79.8628 127.329 79.1754C130.748 76.2718 134.676 78.0559 138.086 79.945L138.235 91.3494Z" fill="#FFBF94"/>
<g style="mix-blend-mode:multiply" opacity="0.25">
<path d="M133.105 86.4519C131.308 84.9913 130.8 82.7612 130.852 80.5485C130.858 80.4982 130.846 80.4475 130.817 80.4057C130.788 80.3639 130.745 80.3338 130.696 80.321C130.647 80.3082 130.595 80.3136 130.55 80.3361C130.504 80.3586 130.468 80.3968 130.449 80.4436C129.485 82.665 130.405 85.1225 132.009 86.7842C131.341 87.2368 130.711 87.7428 130.125 88.2972C129.419 88.8425 128.874 89.5677 128.547 90.3962C128.503 90.5192 128.5 90.6528 128.538 90.7776C128.576 90.9023 128.653 91.0117 128.758 91.0898C128.863 91.1679 128.99 91.2106 129.12 91.2117C129.251 91.2127 129.379 91.1722 129.485 91.0959C130.08 90.5295 130.607 89.8955 131.054 89.2068C131.659 88.4733 132.351 87.8155 133.114 87.2477C133.175 87.2006 133.225 87.1399 133.258 87.0705C133.292 87.0011 133.309 86.9248 133.308 86.8476C133.308 86.7705 133.289 86.6946 133.253 86.6259C133.218 86.5572 133.168 86.4977 133.105 86.4519Z" fill="#DD664A"/>
</g>
<path d="M182.349 51.0754C182.574 51.0228 182.808 51.0228 183.033 51.0754C184.283 51.3865 185.469 51.9102 186.54 52.6234C189.86 54.491 193.52 55.6802 197.306 56.1217C195.901 54.2051 195.229 51.8508 195.412 49.4837C195.414 49.1339 195.521 48.7927 195.719 48.5041C195.905 48.3199 196.144 48.197 196.402 48.1516C196.661 48.1063 196.927 48.1408 197.165 48.2505C197.636 48.4677 198.066 48.7634 198.436 49.1251C199.484 50.0955 200.764 50.782 202.154 51.1191C207.291 52.1336 205.704 47.2622 206.256 44.1663C206.204 44.4899 206.958 45.5743 207.089 45.9154C207.375 46.655 207.592 47.4191 207.738 48.198C208.037 49.7597 208.052 51.3625 207.782 52.9295C207.358 55.7258 205.842 58.2411 203.565 59.9261C200.058 62.4273 195.333 62.3923 191.362 61.2379C189.652 60.7456 188.062 59.9093 186.689 58.7804C187.485 61.9809 189.05 64.9403 191.248 67.4036C185.172 66.3891 180.315 63.4681 175.275 60.0572C177.194 63.2844 179.211 66.6078 182.288 68.803C180.005 68.529 177.808 67.7716 175.842 66.5815C173.876 65.3915 172.189 63.7962 170.891 61.9026C171.561 65.3827 173.446 68.5128 176.213 70.7358C174.459 70.7882 172.644 71.0156 170.909 70.9019C168.999 70.7283 167.118 70.323 165.307 69.695C161.66 68.4881 152.288 63.4069 145.879 56.3491C145.879 56.2878 145.879 56.2179 145.879 56.1566C145.572 54.2664 145.115 52.4035 144.512 50.5856C144.643 50.9967 151.525 59.7949 166.376 65.1035C165.736 64.8761 165.351 61.6052 165.254 60.9843C164.966 59.4247 164.981 57.8244 165.298 56.2703C165.418 55.8475 165.673 55.4757 166.026 55.2121C167.06 54.5125 167.691 55.7019 168.27 56.384C169.458 57.9407 170.923 59.2658 172.592 60.2934C172.145 58.037 171.715 55.6319 172.697 53.4367C173.179 52.3523 176.528 55.5969 176.817 55.8243C177.916 56.7705 179.089 57.6274 180.324 58.3868C181.381 58.8085 182.382 59.3577 183.305 60.0223C181.819 57.6097 181.259 54.7425 181.727 51.95C181.742 51.6584 181.867 51.3834 182.078 51.1803C182.16 51.1272 182.253 51.0915 182.349 51.0754Z" fill="#56170D"/>
<g style="mix-blend-mode:screen" opacity="0.28">
<g style="mix-blend-mode:screen" opacity="0.28">
<path d="M206.221 36.7323C206.116 36.9072 206.002 37.0734 205.888 37.2308C204.357 39.3761 202.304 41.0978 199.922 42.2345C197.541 43.3711 194.909 43.8854 192.273 43.7289C188.162 43.4315 184.313 41.49 180.201 41.1052C179.209 40.9389 178.189 41.0824 177.282 41.5162C175.949 42.2771 175.371 44 174.003 44.7084C172.636 45.4168 171.128 44.9358 169.9 44.1662C168.673 43.3966 167.656 42.3296 166.394 41.6037C165.131 40.8778 163.501 40.5367 162.291 41.3238C160.345 42.5832 160.8 45.6005 159.494 47.5071C158.372 49.1425 156.145 49.641 154.146 49.5273C149.342 49.2562 145.117 46.1077 142.592 41.9535C146.975 28.3364 162.343 26.2112 172.136 28.1178C190.125 31.6161 194.693 37.3795 200.795 37.3095C202.617 37.2759 204.433 37.0827 206.221 36.7323Z" fill="#672410"/>
</g>
</g>
<g style="mix-blend-mode:multiply" opacity="0.09">
<g style="mix-blend-mode:multiply" opacity="0.09">
<path d="M169.489 95.5212C169.303 95.0116 169.013 94.5463 168.637 94.1547C168.261 93.7632 167.808 93.4542 167.306 93.2473C166.298 92.8376 165.207 92.6756 164.123 92.775C162.642 92.8712 161.116 93.291 160.354 94.6903C160.18 94.9704 160.101 95.298 160.126 95.6261C160.152 95.8564 160.264 96.0686 160.439 96.2207C160.614 96.3729 160.84 96.4541 161.072 96.4482C161.307 96.3974 161.531 96.3024 161.73 96.1683C162.873 95.7079 164.146 95.683 165.307 96.0984C166.453 96.5173 167.663 96.7391 168.884 96.7543C168.998 96.7529 169.111 96.7292 169.217 96.6843C169.611 96.5007 169.629 95.941 169.489 95.5212Z" fill="#DD664A"/>
</g>
</g>
<path d="M168.577 98.3722C168.322 97.0254 165.675 96.8505 164.561 96.8067C163.08 96.7455 161.379 96.9029 160.301 98.0224C160.301 98.0224 160.301 98.1448 160.353 98.1536C161.782 98.2323 163.176 97.8562 164.614 98.0136C165.413 98.0949 166.196 98.2923 166.937 98.5996C167.489 98.8182 167.814 99.0631 168.349 98.792C168.427 98.7555 168.491 98.695 168.532 98.6195C168.573 98.5439 168.588 98.4573 168.577 98.3722Z" fill="#DD664A"/>
<g style="mix-blend-mode:multiply" opacity="0.09">
<path d="M136.403 92.5301C134.597 93.5883 132.651 94.3754 130.652 93.9556C127.864 93.3784 124.857 90.8421 124.094 88.0785C123.729 86.5779 123.839 85.0011 124.41 83.5657C124.666 82.8815 124.986 82.2227 125.365 81.5979C125.287 83.3208 125.813 90.2387 136.403 92.5301Z" fill="#DD664A"/>
</g>
<g style="mix-blend-mode:multiply" opacity="0.09">
<path d="M201.066 104.949C198.411 105.191 195.75 104.548 193.5 103.121C204.8 104.564 208.351 94.3755 208.351 94.3755C208.963 95.9208 209.019 97.6301 208.509 99.2119C207.924 100.763 206.918 102.121 205.604 103.134C204.289 104.148 202.718 104.776 201.066 104.949Z" fill="#DD664A"/>
</g>
<path d="M150.605 95.6786C154.168 95.6786 157.057 92.7968 157.057 89.2418C157.057 85.6868 154.168 82.8049 150.605 82.8049C147.041 82.8049 144.152 85.6868 144.152 89.2418C144.152 92.7968 147.041 95.6786 150.605 95.6786Z" fill="white"/>
<path d="M154.226 91.599C154.837 89.0182 153.234 86.4322 150.647 85.8231C148.06 85.2139 145.468 86.8123 144.858 89.3931C144.247 91.974 145.849 94.56 148.436 95.1691C151.023 95.7782 153.615 94.1798 154.226 91.599Z" fill="#191919"/>
<path d="M148.622 92.5564C148.622 92.8106 148.547 93.0592 148.405 93.2706C148.264 93.482 148.062 93.6468 147.827 93.7441C147.591 93.8414 147.332 93.8669 147.082 93.8173C146.832 93.7677 146.603 93.6452 146.422 93.4654C146.242 93.2856 146.119 93.0566 146.07 92.8072C146.02 92.5578 146.045 92.2993 146.143 92.0644C146.241 91.8295 146.406 91.6287 146.618 91.4874C146.83 91.3462 147.079 91.2708 147.334 91.2708C147.675 91.2708 148.003 91.4062 148.245 91.6473C148.487 91.8884 148.622 92.2154 148.622 92.5564Z" fill="white"/>
<path d="M181.201 99.0107C184.764 99.0107 187.653 96.1288 187.653 92.5738C187.653 89.0188 184.764 86.137 181.201 86.137C177.637 86.137 174.748 89.0188 174.748 92.5738C174.748 96.1288 177.637 99.0107 181.201 99.0107Z" fill="white"/>
<path d="M183.542 97.2425C185.421 95.3675 185.421 92.3274 183.542 90.4523C181.662 88.5773 178.615 88.5773 176.735 90.4523C174.856 92.3274 174.856 95.3675 176.735 97.2425C178.615 99.1176 181.662 99.1176 183.542 97.2425Z" fill="#191919"/>
<path d="M179.228 95.8972C179.228 96.1532 179.152 96.4034 179.009 96.6163C178.867 96.8292 178.664 96.9951 178.427 97.093C178.19 97.191 177.929 97.2166 177.677 97.1667C177.425 97.1167 177.194 96.9935 177.013 96.8124C176.831 96.6314 176.708 96.4008 176.658 96.1497C176.608 95.8986 176.633 95.6384 176.732 95.4018C176.83 95.1653 176.996 94.9632 177.209 94.821C177.423 94.6787 177.674 94.6028 177.93 94.6028C178.101 94.6017 178.27 94.6343 178.428 94.699C178.586 94.7636 178.73 94.8589 178.85 94.9793C178.971 95.0998 179.067 95.2429 179.131 95.4005C179.196 95.558 179.229 95.7269 179.228 95.8972Z" fill="white"/>
<path d="M151.936 157.039C151.909 157.038 151.883 157.03 151.861 157.014C151.839 156.999 151.822 156.977 151.813 156.951L151.147 154.791C151.142 154.774 151.14 154.757 151.141 154.739C151.143 154.722 151.148 154.705 151.156 154.689C151.164 154.674 151.175 154.66 151.189 154.649C151.202 154.638 151.218 154.63 151.235 154.625C151.251 154.619 151.269 154.617 151.286 154.619C151.304 154.62 151.321 154.625 151.336 154.634C151.352 154.642 151.366 154.653 151.377 154.666C151.388 154.68 151.396 154.695 151.401 154.712L152.068 156.872C152.076 156.906 152.072 156.942 152.056 156.972C152.04 157.003 152.013 157.027 151.98 157.039H151.936Z" fill="#2A2B2A"/>
<path d="M147.281 134.098C145.528 136.425 142.977 138.41 140.873 140.439C139.786 141.48 138.515 142.477 137.533 143.596C135.947 145.593 134.206 147.462 132.325 149.185C131.615 149.83 130.853 150.415 130.046 150.934C127.004 152.744 120.928 153.015 121.761 148.03C122.296 144.786 134.035 132.787 140.706 128.011C142.188 126.953 143.792 125.886 145.607 125.825C146.691 125.804 147.742 126.199 148.544 126.927C149.105 127.414 149.451 128.102 149.508 128.842C149.631 130.583 148.325 132.752 147.281 134.098Z" fill="white"/>
<path d="M147.545 148.302C147.545 148.302 150.894 156.715 151.832 156.505C152.77 156.295 150.017 146.99 150.017 146.99L147.545 148.302Z" fill="#2435A1"/>
<path d="M145.721 144.506C145.467 143.894 145.274 143.317 144.994 142.617C143.889 139.775 142.837 136.574 143.354 135.717C144.161 134.361 147.273 140.089 148.614 144.742L145.721 144.506Z" fill="#2435A1"/>
<path d="M155.34 149.552C155.445 150.523 155.182 151.223 154.086 151.03C153.584 150.872 153.141 150.568 152.815 150.156C152.762 150.479 152.911 150.838 152.815 151.144C152.715 151.316 152.555 151.444 152.365 151.504C152.175 151.564 151.97 151.551 151.789 151.468C151.432 151.292 151.129 151.023 150.913 150.689C150.947 150.98 150.947 151.273 150.913 151.564C150.905 151.638 150.875 151.709 150.825 151.765C150.768 151.811 150.696 151.833 150.623 151.826C150.048 151.866 149.471 151.767 148.942 151.535C148.414 151.303 147.95 150.947 147.59 150.497C147.327 153.374 143.759 150.917 142.488 150.497C141.681 150.226 140.471 149.928 140.147 149.027C138.972 145.722 143.654 144.217 145.977 143.902C147.497 143.598 149.052 143.507 150.597 143.631C151.859 143.815 153.28 144.191 153.911 145.381C154.597 146.691 155.079 148.097 155.34 149.552Z" fill="#FFBF94"/>
<path d="M124.016 152.019C123.607 151.909 123.224 151.718 122.89 151.459C122.555 151.2 122.276 150.877 122.068 150.509C121.86 150.141 121.727 149.736 121.678 149.316C121.629 148.897 121.663 148.472 121.78 148.066C122.007 147.02 122.548 146.069 123.331 145.339C124.115 144.609 125.103 144.135 126.164 143.981C130.082 143.556 134.027 143.436 137.964 143.623C140.138 143.728 142.347 143.483 144.53 143.763C142.61 145.897 142.602 149.762 143.207 152.281C143.215 152.281 127.821 152.928 124.016 152.019Z" fill="white"/>
<path d="M142.609 138.069L136.472 143.317C135.053 143.568 133.662 143.955 132.316 144.471C136.182 144.314 140.054 144.357 143.915 144.602L144.529 143.728L137.857 143.29L142.24 139.32L142.609 138.069Z" fill="#D6D6D6"/>
<path d="M193.597 150.969H132.326V152.281H193.597V150.969Z" fill="#2435A1"/>
<path d="M105.588 164.91L104.711 166.939L102.256 172.344L64.8748 254.772H57.8613C57.8613 254.772 79.7783 195.983 88.4399 172.379C90.5089 166.738 91.8151 163.099 91.8765 162.758L105.588 164.91Z" fill="#FF6551"/>
<g style="mix-blend-mode:multiply" opacity="0.44">
<g style="mix-blend-mode:multiply" opacity="0.44">
<path d="M91.7881 162.767L105.587 164.91L102.221 172.344H88.3516C90.4205 166.738 91.7268 163.099 91.7881 162.767Z" fill="#CC9281"/>
</g>
</g>
<path d="M266.431 254.772H259.374L222.019 172.414L218.617 164.91L220.826 164.569L232.416 162.767C232.477 163.099 233.793 166.755 235.87 172.387C244.523 196.062 266.431 254.772 266.431 254.772Z" fill="#FF6551"/>
<g style="mix-blend-mode:multiply" opacity="0.44">
<g style="mix-blend-mode:multiply" opacity="0.44">
<path d="M235.87 172.431H222.019L218.617 164.927L232.416 162.784C232.477 163.099 233.793 166.755 235.87 172.431Z" fill="#CC9281"/>
</g>
</g>
<g style="mix-blend-mode:multiply" opacity="0.44">
<g style="mix-blend-mode:multiply" opacity="0.44">
<path d="M261.68 254.772H259.374L222.019 172.414L218.617 164.91L220.826 164.569L225.973 166.939L261.68 254.772Z" fill="#CC9281"/>
</g>
</g>
<path d="M115.344 161.341H83.9414V166.939H115.344V161.341Z" fill="#CC9281"/>
<path d="M240.262 161.341H208.859V166.939H240.262V161.341Z" fill="#CC9281"/>
<path d="M115.344 161.341H83.9414V166.939H115.344V161.341Z" fill="#FF6551"/>
<g style="mix-blend-mode:multiply">
<g style="mix-blend-mode:multiply">
<path d="M115.344 161.341H83.9414V166.939H115.344V161.341Z" fill="#CC9281"/>
</g>
</g>
<path d="M240.262 161.341H208.859V166.939H240.262V161.341Z" fill="#FF6551"/>
<g style="mix-blend-mode:multiply">
<g style="mix-blend-mode:multiply">
<path d="M240.262 161.341H208.859V166.939H240.262V161.341Z" fill="#CC9281"/>
</g>
</g>
<g style="mix-blend-mode:multiply" opacity="0.44">
<g style="mix-blend-mode:multiply" opacity="0.44">
<path d="M104.667 166.939L102.221 172.344L64.8304 254.772H61.4902L96.9695 166.939H104.667Z" fill="#CC9281"/>
</g>
</g>
<path d="M288.935 152.281H34.8555V162.776H288.935V152.281Z" fill="#FF8777"/>
<path d="M288.935 156.698H34.8555V162.767H288.935V156.698Z" fill="#FF6551"/>
<path d="M289.998 134.973V143.623H255.334V136.206L289.998 134.973Z" fill="#FFC652"/>
<g style="mix-blend-mode:multiply">
<g style="mix-blend-mode:multiply">
<path d="M289.998 138.69V143.623H255.334V139.057C256.062 139.932 257.64 140.868 261.05 140.868C266.284 140.868 282.66 141.427 289.998 138.69Z" fill="#FFDF7B"/>
</g>
</g>
<path d="M291.399 142.092V152.281H260.776L260.417 148.267L259.996 143.623L291.399 142.092Z" fill="#67D449"/>
<g style="mix-blend-mode:multiply" opacity="0.36">
<path d="M291.4 147.182V152.281H260.777L260.418 148.267C260.418 148.319 261.523 149.963 266.204 150.226C270.886 150.488 290.418 151.004 291.4 147.182Z" fill="#2D7F75"/>
</g>
<path d="M241.087 140.063C240.972 140.105 240.85 140.125 240.728 140.124C240.508 140.126 240.292 140.06 240.112 139.935C239.931 139.809 239.794 139.631 239.719 139.425L237.431 133.189L236.248 129.953L232.049 118.514C231.959 118.25 231.977 117.962 232.097 117.711C232.218 117.46 232.432 117.266 232.693 117.17C232.955 117.074 233.244 117.084 233.499 117.198C233.753 117.312 233.953 117.52 234.056 117.779L238.527 129.953L239.404 132.376L239.746 133.25L240.342 134.894L241.727 138.655C241.781 138.789 241.808 138.933 241.805 139.077C241.802 139.222 241.77 139.364 241.71 139.496C241.65 139.628 241.564 139.746 241.457 139.843C241.35 139.941 241.224 140.016 241.087 140.063Z" fill="#F7A845"/>
<path d="M240.71 133.915L240.789 134.982H240.675C240.556 134.984 240.438 134.966 240.325 134.929C239.746 134.737 239.641 134.055 239.571 133.548V133.285L239.43 132.411L239.071 129.988L237.826 121.767C237.784 121.486 237.856 121.201 238.025 120.973C238.195 120.745 238.448 120.593 238.729 120.551C239.01 120.51 239.297 120.581 239.525 120.75C239.754 120.919 239.906 121.172 239.948 121.452C240.29 123.787 240.824 127.303 241.228 129.988C241.456 131.466 241.64 132.699 241.736 133.32C241.78 133.583 241.797 133.74 241.806 133.775L240.754 133.941L240.71 133.915Z" fill="#FFC652"/>
<path d="M250.975 114.141L248.345 129.953L247.793 133.285L247.697 133.871C247.651 134.117 247.521 134.339 247.329 134.498C247.137 134.658 246.895 134.746 246.645 134.746H246.46C246.322 134.723 246.189 134.674 246.07 134.6C245.951 134.527 245.847 134.43 245.766 134.316C245.684 134.202 245.626 134.073 245.595 133.937C245.564 133.8 245.56 133.659 245.584 133.521L245.628 133.285L246.18 129.953L248.88 113.791C248.893 113.645 248.937 113.503 249.007 113.374C249.078 113.245 249.175 113.132 249.291 113.042C249.408 112.953 249.542 112.888 249.684 112.852C249.827 112.816 249.976 112.81 250.121 112.834C250.266 112.858 250.405 112.912 250.528 112.992C250.652 113.072 250.757 113.177 250.838 113.3C250.919 113.422 250.974 113.56 250.999 113.705C251.024 113.85 251.019 113.998 250.984 114.141H250.975Z" fill="#2435A1"/>
<g style="mix-blend-mode:multiply" opacity="0.26">
<path d="M241.692 133.285H237.773L237.414 133.189L236.23 129.953H238.51L239.386 132.376L239.027 129.953H241.184C241.412 131.431 241.596 132.664 241.692 133.285Z" fill="#FC9630"/>
</g>
<g style="mix-blend-mode:multiply" opacity="0.36">
<path d="M248.337 129.953L247.776 133.285H245.619L246.172 129.953H248.337Z" fill="#2D7F75"/>
</g>
<path d="M251.186 131.492H236.562V152.281H251.186V131.492Z" fill="#49B3F7"/>
<g style="mix-blend-mode:multiply" opacity="0.42">
<g style="mix-blend-mode:multiply" opacity="0.42">
<path d="M251.186 144.48V152.281H236.562V145.083C238.647 146.73 241.215 147.652 243.874 147.707C245.252 147.712 246.615 147.427 247.875 146.871C249.134 146.315 250.263 145.5 251.186 144.48Z" fill="#F2704F"/>
</g>
</g>
<g style="mix-blend-mode:screen" opacity="0.24">
<g style="mix-blend-mode:screen" opacity="0.24">
<path d="M251.186 131.492V134.684C249.012 136.091 246.464 136.814 243.874 136.757C241.316 136.777 238.797 136.135 236.562 134.894V131.457L251.186 131.492Z" fill="white"/>
</g>
</g>
<path d="M85.6959 147.305L39.074 148.634L35.8917 147.305L21.3125 113.502V113.494H73.2821L83.5392 141.436L85.6959 147.305Z" fill="#545454"/>
<path d="M101.668 147.305H35.8906V152.272H101.668V147.305Z" fill="#686868"/>
<g style="mix-blend-mode:multiply" opacity="0.35">
<path d="M101.695 147.305V152.272H35.9443V147.305L21.3125 113.502C21.5667 113.94 38.1535 143.011 83.0834 141.445H83.5392L85.6959 147.313L101.695 147.305Z" fill="#545454"/>
</g>
<defs>
<linearGradient id="paint0_linear_318_34854" x1="111.793" y1="163.72" x2="216.486" y2="163.72" gradientUnits="userSpaceOnUse">
<stop stop-color="#FFD247"/>
<stop offset="1" stop-color="#FFDF7B"/>
</linearGradient>
</defs>
</svg>
