<svg width="321" height="295" viewBox="0 0 321 295" fill="none" xmlns="http://www.w3.org/2000/svg">
<path d="M264.526 268.646C248.953 278.427 228.827 274.25 210.553 276.387C195.112 278.19 180.671 284.652 165.896 289.468C151.122 294.284 134.918 297.436 120.161 292.55C110.019 289.197 101.474 282.332 91.9375 277.542C80.427 271.755 67.6267 269.066 55.6161 264.408C43.6054 259.75 31.7439 252.447 26.1641 240.854C19.4613 226.906 23.3128 210.348 20.7773 195.086C17.9172 177.863 7.02077 162.995 2.48497 146.139C-3.45455 124.17 0.546072 94.1632 22.2161 82.141C31.2263 77.1413 42.0438 75.609 50.2907 69.4797C60.7134 61.7743 65.0298 48.465 72.5573 37.9577C81.5181 25.5306 94.9198 17.0139 109.993 14.1674C118.477 12.6088 127.189 12.9153 135.76 11.9784C159.238 9.41281 181.82 -2.45171 205.227 0.455313C217.641 1.99639 229.161 7.62657 239.978 13.8959C249.164 19.2634 258.578 25.6466 262.92 35.3747C269.167 49.3844 267.202 61.6868 281.862 70.6618C287.407 74.0591 293.487 76.6422 298.575 80.6963C306.585 87.0795 311.498 96.6061 314.621 106.36C318.736 119.223 323.254 134.091 319.736 147.558C315.736 162.872 305.48 176.024 296.926 188.992C293.846 193.65 290.741 198.483 289.556 203.938C289.079 206.562 288.786 209.216 288.679 211.88C288.109 219.647 286.143 226.766 284.669 234.322C282.064 247.535 276.361 261.195 264.526 268.646Z" fill="#EFF2FD"/>
<path d="M156.754 258.524C236.775 258.524 301.645 256.062 301.645 253.025C301.645 249.988 236.775 247.526 156.754 247.526C76.7332 247.526 11.8633 249.988 11.8633 253.025C11.8633 256.062 76.7332 258.524 156.754 258.524Z" fill="#D2CBEC"/>
<path d="M214.148 111.737C214.202 111.822 214.26 111.904 214.324 111.982L214.587 112.341L214.78 112.577L215.052 112.893L215.263 113.12L215.552 113.418L215.78 113.628L215.859 113.698L214.982 114.057C213.714 114.666 212.733 115.743 212.245 117.06C211.723 118.378 211.67 119.833 212.095 121.185C212.592 122.513 213.451 123.675 214.575 124.542C215.699 125.408 217.043 125.944 218.456 126.088C220.258 126.29 222.081 125.986 223.72 125.212C224.577 127.187 225.737 129.015 227.159 130.632C223.001 130.632 218.605 131.307 218.026 133.373C217.679 133.577 217.394 133.871 217.203 134.225C217.011 134.578 216.919 134.977 216.938 135.378C217.002 136.518 217.154 137.651 217.394 138.767C217.237 138.828 217.105 138.889 216.982 138.951C214.298 140.29 209.086 145.15 206.638 147.768C205.889 148.572 205.227 149.452 204.664 150.395C204.364 150.775 204.127 151.201 203.963 151.656C202.805 153.995 202.103 156.533 201.892 159.134C201.677 160.093 201.539 161.068 201.48 162.049C201.418 162.846 201.55 165.202 201.638 166.62H201.401C200.62 166.685 199.892 167.04 199.36 167.613C198.828 168.187 198.529 168.938 198.523 169.72C198.497 169.988 198.497 170.257 198.523 170.525V170.753V170.832V171.059V171.199V171.357C198.576 171.777 198.637 172.294 198.707 172.889C199.295 177.915 200.541 188.239 200.541 188.239C200.771 189.888 201.457 191.441 202.524 192.722L202.62 192.827C202.761 192.993 202.901 193.16 203.059 193.326L203.269 193.528C203.422 193.682 203.583 193.828 203.752 193.965L204.006 194.184C204.182 194.324 204.375 194.464 204.577 194.605L204.84 194.788C205.147 194.994 205.466 195.182 205.796 195.349C206.979 197.531 208.905 199.217 211.227 200.103C211.227 200.103 213.692 200.839 217.07 201.706C219 202.196 221.228 202.739 223.466 203.203L224.299 203.378L225.273 203.562L226.791 203.842L228.396 204.096C229.44 204.245 230.432 204.359 231.335 204.42C231.59 204.42 231.809 204.42 232.055 204.42H232.765C232.765 204.42 233.037 204.42 233.529 204.49C233.634 210.357 233.932 215.234 234.643 222.072C234.853 224.078 235.827 232.667 235.59 230.688C235.503 229.935 235.924 245.031 235.924 245.04C235.345 246.266 234.292 248.096 234.634 249.243C235.055 250.644 237.327 250.574 238.459 250.442C239.51 250.25 240.575 250.145 241.644 250.127C242.281 250.179 242.913 250.269 243.539 250.398C245.077 250.663 246.64 250.748 248.198 250.652L249.198 250.574C249.824 250.536 250.438 250.378 251.005 250.109C251.285 249.971 251.526 249.766 251.708 249.512C251.89 249.259 252.007 248.965 252.049 248.656C252.051 248.383 251.998 248.112 251.894 247.86C251.791 247.607 251.637 247.378 251.444 247.185C249.847 245.477 246.259 245.635 244.136 245.031C243.633 244.898 243.146 244.716 242.679 244.488C244.981 231.594 246.626 218.592 247.61 205.532C247.654 204.849 247.697 204.166 247.733 203.483L248.513 203.273C249.697 202.911 250.843 202.436 251.935 201.855C251.935 202.73 252.005 203.606 252.058 204.481C253.207 225.768 256.243 244.558 256.243 244.558H256.295C255.822 245.731 254.391 247.938 254.778 249.251C255.164 250.565 257.48 250.582 258.603 250.451C259.654 250.259 260.719 250.154 261.787 250.136C262.424 250.187 263.057 250.278 263.682 250.407C265.22 250.671 266.784 250.757 268.341 250.661C268.674 250.661 269.017 250.617 269.35 250.582C269.974 250.545 270.585 250.388 271.148 250.118C271.43 249.981 271.672 249.777 271.855 249.523C272.037 249.269 272.153 248.974 272.193 248.665C272.196 248.391 272.145 248.12 272.041 247.867C271.937 247.615 271.782 247.385 271.587 247.194C269.999 245.486 266.402 245.644 264.279 245.04C263.332 244.881 262.474 244.391 261.858 243.656C262.735 236.958 263.551 229.646 264.165 222.23C264.218 221.617 264.27 221.004 264.314 220.383C264.318 220.368 264.318 220.353 264.314 220.339C264.832 213.745 265.191 207.205 265.191 201.075C265.191 198.448 265.191 195.997 265.191 193.72C265.191 193.405 265.191 193.098 265.191 192.801C265.191 191.391 265.191 190.078 265.191 188.852L265.806 188.598L267.437 192.871C267.788 192.95 268.104 192.993 268.429 193.046C268.456 193.7 268.62 194.342 268.911 194.928C269.673 196.077 270.598 197.11 271.657 197.993C271.812 198.123 271.927 198.293 271.991 198.483C272.016 198.775 271.939 199.066 271.771 199.307C271.233 200.316 270.905 201.424 270.806 202.564C270.762 203.107 270.885 203.825 271.429 203.93C271.593 203.942 271.756 203.916 271.908 203.856C272.06 203.795 272.197 203.701 272.307 203.58C273.148 202.829 273.68 201.793 273.798 200.673C273.798 201.005 273.798 201.347 273.798 201.679C273.78 201.983 273.843 202.285 273.982 202.555C274.053 202.684 274.17 202.783 274.309 202.831C274.448 202.88 274.601 202.875 274.737 202.818C274.905 202.688 275.021 202.501 275.061 202.292C275.546 200.663 275.744 198.963 275.649 197.266L276.334 199.228C276.726 198.406 276.783 197.464 276.491 196.601C276.069 194.72 275.449 192.888 274.64 191.137C274.903 190.667 275.053 190.142 275.079 189.605L271.227 175.595L271.289 175.464L271.175 175.411L269.587 169.606C269.587 169.606 269.166 153.206 266.832 149.668C266.181 147.79 265.253 146.019 264.077 144.415C262.656 142.663 259.752 141.472 256.813 141.534L256.892 140.737C260.296 139.371 268.736 134.24 274.526 122.629C275.404 120.834 275.14 118.68 275.035 116.675V116.185C276.725 115.288 278.013 113.787 278.641 111.982C278.957 110.702 278.868 109.356 278.386 108.129C278.173 107.548 277.912 106.986 277.606 106.448C277.218 105.758 276.73 105.13 276.158 104.583C276.474 103.707 276.746 102.832 276.983 101.904C277.106 101.448 277.22 101.028 277.316 100.538C278.196 96.3642 278.608 92.1058 278.544 87.8413C278.544 86.8957 278.544 85.95 278.544 85.0043C278.544 84.2601 278.465 83.4983 278.369 82.719C278.316 82.3337 278.255 81.9397 278.185 81.5457C277.978 80.3639 277.654 79.2055 277.22 78.087C276.805 76.995 276.244 75.9641 275.553 75.0224C275.108 74.4151 274.589 73.8651 274.009 73.385C273.427 72.9073 272.78 72.5152 272.087 72.2204C270.925 71.7467 269.673 71.5344 268.42 71.5987C269.192 66.7741 264.577 63.3505 261.401 60.5923C258.225 57.8341 252.847 57.3088 249.312 59.8918C248.831 60.3238 248.263 60.6464 247.645 60.8375C247.072 60.9012 246.493 60.8322 245.952 60.6361C240.24 59.1913 234.116 60.2333 228.677 62.5011C227.168 63.0263 225.808 63.9063 224.711 65.0667C224.184 65.6518 223.84 66.3776 223.72 67.1552C223.6 67.9328 223.71 68.7285 224.036 69.4447C220.097 70.9508 216.061 72.7458 213.447 76.0556C210.832 79.3654 210.218 84.5928 213.175 87.5961C211.034 90.1004 208.788 92.7973 207.998 96.0721C207.209 99.3468 207.998 101.623 208.744 104.828C208.944 105.959 209.332 107.048 209.893 108.05C211.078 109.81 212.929 109.907 214.148 111.737Z" fill="#CFD8F9"/>
<path d="M97.0169 111.448C96.8112 110.88 96.5558 110.333 96.2536 109.81C95.8729 109.136 95.3972 108.52 94.8411 107.98C94.1392 107.341 97.0081 101.737 97.4731 100.765C98.7101 98.0858 99.8594 94.3382 99.4734 91.3699C99.219 89.3647 98.1311 87.5697 97.2625 85.731C96.394 83.8922 95.7096 81.817 96.2887 79.8731C96.4607 79.454 96.5673 79.0111 96.6045 78.5597C96.5519 76.7122 94.0954 73.8839 92.7531 72.7807C88.9981 69.681 84.5763 70.7843 80.8038 68.7441C76.6501 66.4221 72.006 65.1112 67.2491 64.9177C64.4592 64.8301 61.4499 65.2417 59.3531 67.1067C58.6654 67.9171 57.8542 68.6145 56.9492 69.1732C56.1805 69.4433 55.3688 69.5709 54.5541 69.5497C50.8781 69.7423 47.0003 71.0995 44.9561 74.1554C44.4551 75.0985 43.8457 75.98 43.14 76.7822C42.5516 77.2362 41.9128 77.6211 41.2362 77.9293C37.6216 80.0307 35.1827 83.7696 33.8316 87.7273C32.4805 91.6851 32.0769 95.8968 31.6997 100.056C31.4189 103.112 32.0243 105.686 32.5156 108.619C33.0069 111.553 33.507 114.617 35.7354 116.911C35.4897 117.034 35.2441 117.122 34.9896 117.235C33.7645 117.836 32.8208 118.887 32.3577 120.169C31.8446 121.454 31.7919 122.877 32.2085 124.197C32.6939 125.478 33.5241 126.6 34.6077 127.441C35.6912 128.281 36.9861 128.807 38.3498 128.96C40.1116 129.144 41.8903 128.841 43.491 128.084C44.3324 129.996 45.4626 131.768 46.8424 133.338C42.7891 133.338 38.4902 134.003 37.9287 135.965C37.59 136.165 37.3122 136.453 37.1252 136.798C36.9382 137.144 36.849 137.534 36.8671 137.926C36.9242 139.04 37.0739 140.147 37.3146 141.236L36.911 141.42C34.279 142.724 29.1993 147.47 26.8129 150.027C26.0788 150.807 25.4316 151.664 24.8828 152.584C24.5942 152.956 24.3635 153.369 24.1985 153.81C23.068 156.097 22.3833 158.578 22.1806 161.121C21.9698 162.055 21.8319 163.003 21.7683 163.958C21.7156 164.737 21.8472 167.04 21.9262 168.424H21.6981C20.9353 168.489 20.2243 168.835 19.7036 169.395C19.1829 169.956 18.89 170.689 18.8819 171.453C18.8649 171.724 18.8649 171.996 18.8819 172.268V172.416V172.478C18.8819 172.53 18.8819 172.592 18.8819 172.653V172.758V172.951V173.091V173.345V173.388C19.3644 177.583 20.812 189.57 20.812 189.57C21.0331 191.18 21.7017 192.697 22.7421 193.948L22.8386 194.053C22.979 194.21 23.1194 194.377 23.2685 194.534L23.4703 194.736C23.6194 194.876 23.7774 195.025 23.9441 195.165L24.1897 195.375C24.3652 195.515 24.5582 195.655 24.7512 195.786L25.0144 195.97C25.3039 196.154 25.611 196.338 25.9444 196.513C26.0146 196.653 26.1023 196.776 26.1813 196.907C27.3427 198.85 29.1259 200.346 31.2434 201.154C31.2434 201.154 33.6473 201.872 36.9461 202.721C38.8324 203.203 41.0081 203.728 43.1927 204.184L44.0086 204.35L44.9561 204.534L46.4388 204.805L48.0004 205.05C49.0269 205.199 49.992 205.304 50.8781 205.366C51.1237 205.366 51.3431 205.366 51.58 205.366H52.273C52.273 205.366 52.545 205.366 53.0188 205.436C53.1241 211.162 53.4048 215.943 54.1067 222.598C54.3084 224.559 55.2647 232.947 54.984 231.012C54.8963 230.277 55.3174 245.022 55.3174 245.022C54.7471 246.222 53.7119 248.008 54.054 249.129C54.4576 250.495 56.686 250.425 57.7827 250.293C58.8087 250.113 59.8469 250.011 60.8884 249.987C61.5101 250.042 62.1282 250.133 62.7396 250.258C64.243 250.513 65.7704 250.598 67.2929 250.512L68.2755 250.425C68.8842 250.392 69.4804 250.241 70.0302 249.978C70.3042 249.841 70.5408 249.639 70.7196 249.391C70.8984 249.142 71.014 248.854 71.0567 248.551C71.0578 248.285 71.0056 248.022 70.9032 247.777C70.8007 247.532 70.65 247.31 70.4601 247.124C68.9072 245.46 65.3979 245.609 63.3274 245.013C62.8351 244.889 62.3583 244.71 61.9061 244.479C64.2224 231.96 65.9061 219.332 66.9508 206.644C67.0034 205.979 67.0385 205.313 67.0824 204.648L67.8369 204.437C68.9918 204.081 70.1109 203.618 71.1795 203.054C71.1795 203.93 71.2497 204.761 71.2936 205.602C72.4165 226.38 75.3819 244.724 75.3819 244.724H75.4346C74.9783 245.863 73.5746 248.017 73.9606 249.304C74.3467 250.591 76.5926 250.6 77.6893 250.468C78.7153 250.288 79.7535 250.186 80.795 250.162C81.4167 250.217 82.0348 250.308 82.6462 250.433C84.1496 250.688 85.677 250.774 87.1995 250.687L88.1822 250.6C88.7908 250.567 89.3871 250.416 89.9368 250.153C90.2108 250.016 90.4474 249.814 90.6262 249.566C90.805 249.317 90.9206 249.029 90.9633 248.726C90.9645 248.46 90.9123 248.197 90.8098 247.952C90.7073 247.707 90.5567 247.485 90.3667 247.299C88.8138 245.635 85.3045 245.784 83.234 245.188C82.3082 245.036 81.4678 244.558 80.8652 243.84C81.7426 237.299 82.5234 230.128 83.12 222.922C83.1726 222.326 83.2165 221.722 83.2691 221.118V221.074C83.7692 214.638 84.1464 208.238 84.1464 202.31C84.1464 199.762 84.1464 197.345 84.1464 195.13V194.184C84.1464 192.818 84.1464 191.557 84.1464 190.331L84.7518 190.095L86.3398 194.263C86.6819 194.333 86.9978 194.377 87.3048 194.429C87.3321 195.069 87.4935 195.695 87.7786 196.268C88.5246 197.39 89.4288 198.398 90.4632 199.263C90.6146 199.39 90.7271 199.556 90.7878 199.744C90.8093 200.027 90.7318 200.309 90.5685 200.541C90.0431 201.526 89.7238 202.607 89.6298 203.719C89.6298 204.254 89.7087 204.954 90.2439 205.059C90.4066 205.073 90.5704 205.05 90.7226 204.991C90.8747 204.932 91.0112 204.838 91.1212 204.718C91.9412 203.984 92.46 202.973 92.5776 201.881C92.5776 202.205 92.5776 202.529 92.5776 202.861C92.5593 203.163 92.6197 203.465 92.7531 203.737C92.8238 203.864 92.9392 203.96 93.077 204.007C93.2147 204.054 93.365 204.048 93.4988 203.991C93.664 203.865 93.774 203.68 93.8058 203.474C94.287 201.884 94.4831 200.221 94.3849 198.562C94.6042 199.21 94.8235 199.849 95.0517 200.488C95.4384 199.69 95.4951 198.772 95.2096 197.932C94.7981 196.093 94.1923 194.302 93.4023 192.59C93.6539 192.129 93.8007 191.618 93.8322 191.093L90.0684 177.372L90.1211 177.25L90.0158 177.197L88.4629 171.532C88.4629 171.532 88.0593 155.517 85.7783 152.067C85.1408 150.238 84.233 148.515 83.0849 146.954C81.6987 145.202 78.8649 144.082 75.996 144.143C75.996 143.88 76.0399 143.618 76.0662 143.364C79.3913 142.024 87.6294 137.015 93.2882 125.685C94.1656 123.934 93.8848 121.824 93.7795 119.871V119.389C95.4301 118.516 96.6851 117.047 97.2888 115.283C97.6071 114.008 97.5119 112.665 97.0169 111.448Z" fill="#CFD8F9"/>
<path d="M182.259 182.6L164.774 186.654C164.599 182.976 160.809 181.304 160.028 186.75C159.589 189.832 141.885 183.913 141.885 183.913L145.692 167.276C145.692 167.276 157.492 165.044 158.08 165.429C158.668 165.814 176.259 166.926 176.259 166.926L182.259 182.6Z" fill="#243976"/>
<path d="M186.294 254.347C184.276 254.464 182.251 254.353 180.258 254.015C179.448 253.845 178.627 253.728 177.802 253.664C176.422 253.685 175.045 253.82 173.687 254.067C172.222 254.242 169.301 254.339 168.73 252.517C168.16 250.696 170.108 247.92 170.704 246.388C171.47 244.437 171.837 242.353 171.783 240.259C173.517 240.265 175.247 240.086 176.942 239.725C176.955 241.036 177.087 242.343 177.337 243.63C177.422 244.192 177.606 244.734 177.881 245.232C178.548 246.274 179.846 246.686 181.039 247.027C183.785 247.815 188.435 247.614 190.497 249.82C190.75 250.068 190.95 250.364 191.086 250.69C191.221 251.017 191.29 251.367 191.286 251.72C191.232 252.121 191.079 252.503 190.842 252.831C190.605 253.159 190.29 253.424 189.927 253.603C189.197 253.959 188.404 254.164 187.593 254.207C187.163 254.286 186.733 254.321 186.294 254.347Z" fill="#353C45"/>
<path d="M160.203 254.347C158.188 254.464 156.166 254.353 154.176 254.015C153.366 253.846 152.545 253.729 151.72 253.664C150.336 253.686 148.957 253.82 147.596 254.067C146.131 254.242 143.21 254.339 142.648 252.517C142.087 250.696 144.017 247.92 144.613 246.388C145.387 244.44 145.755 242.354 145.692 240.259C147.426 240.265 149.156 240.086 150.851 239.725C150.867 241.036 151.002 242.343 151.255 243.63C151.332 244.194 151.517 244.738 151.799 245.232C152.457 246.274 153.755 246.686 154.948 247.027C157.694 247.815 162.344 247.614 164.406 249.82C164.659 250.068 164.859 250.364 164.995 250.69C165.13 251.017 165.199 251.367 165.195 251.72C165.144 252.121 164.993 252.503 164.758 252.832C164.522 253.16 164.208 253.425 163.844 253.603C163.114 253.956 162.321 254.162 161.511 254.207C161.072 254.286 160.642 254.321 160.203 254.347Z" fill="#353C45"/>
<path d="M162.256 162.461V162.548C162.256 164.694 162.405 166.927 162.624 169.151C162.738 170.28 162.87 171.41 163.01 172.539C163.01 172.863 163.089 173.187 163.133 173.511C163.133 173.511 163.133 173.555 163.133 173.572C163.774 178.511 164.572 183.528 164.888 188.335C164.94 189.062 164.976 189.78 165.002 190.498C165.055 191.855 165.116 193.195 165.186 194.535C166.669 222.099 170.608 246.423 170.608 246.423C173.863 247.579 177.793 245.924 177.793 245.924C178.951 237.072 180.048 227.326 180.864 217.546C180.925 216.749 180.987 215.943 181.057 215.146V215.085C181.724 206.557 182.171 198.055 182.215 190.192C182.215 186.812 182.215 183.616 182.215 180.674C182.21 180.664 182.208 180.654 182.208 180.643C182.208 180.632 182.21 180.622 182.215 180.612C182.215 180.21 182.215 179.816 182.215 179.422C182.215 176.094 182.162 173.117 182.127 170.604C182.127 168.503 182.066 166.725 182.031 165.35C182.031 165.219 182.031 165.105 182.031 164.983C182.031 163.52 181.969 162.557 181.961 162.189V161.988L162.308 159.799V160.184C162.308 160.736 162.265 161.296 162.265 161.857C162.256 162.058 162.256 162.26 162.256 162.461Z" fill="#243976"/>
<path d="M141.173 191.295C141.209 199.995 141.703 208.687 142.656 217.335C142.928 219.962 144.191 231.056 143.884 228.491C143.77 227.51 144.323 247.08 144.323 247.08C147.193 247.591 150.137 247.508 152.973 246.835C156.002 229.984 158.16 212.99 159.439 195.918C159.527 194.692 159.606 193.457 159.676 192.232C159.676 191.986 159.676 191.741 159.676 191.505C159.738 190.445 159.799 189.395 159.869 188.37C160.229 183.178 160.676 178.406 160.852 173.572C160.852 173.231 160.852 172.889 160.852 172.548C160.887 171.433 160.904 170.312 160.904 169.186C160.904 167.005 160.817 164.807 160.633 162.496H141.515C141.515 162.496 141.515 162.785 141.515 163.371C141.515 163.958 141.515 164.72 141.445 165.736C141.445 166.039 141.445 166.363 141.445 166.708C141.375 169.474 141.287 173.502 141.244 178.397C141.244 179.019 141.244 179.658 141.244 180.315C141.138 183.607 141.138 187.328 141.173 191.295Z" fill="#243976"/>
<g style="mix-blend-mode:multiply" opacity="0.4">
<path d="M141.164 180.236C148.42 181.339 148.516 177.022 148.516 177.022C151.446 176.541 150.271 174.072 150.271 174.072C150.731 174.126 151.195 173.996 151.56 173.711C151.924 173.425 152.161 173.007 152.218 172.548C154.504 173.19 156.863 173.531 159.237 173.564H159.395C160.465 173.564 161.536 173.564 162.58 173.564H163.115C169.063 173.266 173.274 172.6 173.274 172.6C177.88 171.926 180.609 171.27 182.144 170.604C182.144 168.503 182.083 166.725 182.048 165.35C182.02 165.23 182.005 165.106 182.004 164.983C181.96 163.52 181.934 162.557 181.916 162.189L162.308 160.184L158.412 159.799C158.369 160.473 158.333 161.156 158.325 161.857C158.325 162.058 158.325 162.26 158.325 162.461V162.68H144.928L141.515 163.555C141.515 164.133 141.462 165 141.436 166.103C141.436 166.27 141.436 166.427 141.436 166.603C141.357 169.37 141.269 173.397 141.217 178.292C141.173 178.94 141.173 179.579 141.164 180.236Z" fill="#3C5AAC"/>
</g>
<g style="mix-blend-mode:multiply" opacity="0.4">
<path d="M141.438 165.657C146.976 167.783 152.833 168.967 158.765 169.159C160.098 169.212 161.397 169.159 162.651 169.159C169.31 168.925 175.872 167.496 182.023 164.939C181.97 163.03 181.926 161.971 181.926 161.971L158.414 159.808C158.352 160.683 158.317 161.559 158.317 162.435H141.543C141.543 162.435 141.499 163.608 141.438 165.657Z" fill="#30A2BE"/>
</g>
<path d="M136.945 119.494C136.945 119.494 137.209 127.471 137.928 136.928V137.313C138.875 149.51 138.656 161.988 138.533 174.238C146.763 176.864 155.562 176.926 164.204 176.934C166.66 176.934 169.126 176.934 171.565 176.716C177.542 176.166 183.321 174.29 188.48 171.225C186.426 162.037 185.112 152.7 184.549 143.302C184.132 137.587 183.027 131.943 181.259 126.491C180.163 122.874 178.733 118.741 175.75 116.211C172.767 113.68 167.52 114.398 163.914 114.46C160.233 114.499 156.557 114.751 152.904 115.213C151.939 115.335 151.018 115.467 150.149 115.607C146.978 116.099 143.853 116.852 140.806 117.857C139.473 118.287 138.181 118.835 136.945 119.494Z" fill="#14336C"/>
<g style="mix-blend-mode:multiply" opacity="0.27">
<path d="M150.174 115.581C151.49 117.682 155.727 123.251 163.439 122.866C167.483 122.721 171.314 121.017 174.125 118.111C174.955 117.266 175.677 116.322 176.274 115.3L176.546 114.81C175.537 114.81 174.511 114.81 173.467 114.898C170.305 114.535 167.122 114.38 163.939 114.434C160.258 114.483 156.582 114.734 152.929 115.187C151.964 115.336 151.042 115.467 150.174 115.581Z" fill="#3C5AAC"/>
</g>
<path d="M152.93 115.213C154.097 116.964 157.448 121.115 163.352 120.817C165.383 120.692 167.355 120.094 169.112 119.071C170.869 118.047 172.361 116.627 173.468 114.924C170.306 114.562 167.123 114.407 163.94 114.46C160.259 114.509 156.583 114.76 152.93 115.213Z" fill="#E6A07A"/>
<path d="M154.413 115.808C154.405 115.846 154.405 115.884 154.413 115.922C154.764 116.999 156.281 117.796 157.527 118.356C159.209 119.075 161.023 119.436 162.852 119.416C166.362 119.416 170.933 118.111 171.178 115.257C171.178 114.792 171.257 114.381 171.301 113.882C171.424 112.656 171.547 111.439 171.635 110.213C171.635 109.942 171.635 109.661 171.678 109.337C171.678 108.856 171.678 108.383 171.731 107.91C171.741 107.785 171.741 107.659 171.731 107.534C171.731 107.464 171.784 107.358 171.819 107.218C171.849 107.154 171.865 107.084 171.865 107.013C171.865 106.941 171.849 106.871 171.819 106.807C171.701 106.692 171.551 106.615 171.389 106.588C171.242 106.545 171.092 106.51 170.941 106.483C170.599 106.43 170.252 106.413 169.906 106.43C169.4 106.476 168.896 106.549 168.397 106.649H168.301C167.158 106.799 166.006 106.869 164.853 106.859C162.805 106.928 160.755 106.893 158.711 106.754C157.471 106.601 156.224 106.513 154.974 106.492C154.765 107.53 154.651 108.585 154.632 109.644C154.632 109.889 154.632 110.134 154.588 110.379C154.527 111.465 154.474 112.603 154.448 113.567C154.389 114.312 154.377 115.061 154.413 115.808Z" fill="#E6A07A"/>
<g style="mix-blend-mode:multiply" opacity="0.39">
<path d="M154.412 113.619C157.044 114.679 163.019 115.878 165.703 115.756C167.727 115.694 169.688 115.043 171.345 113.882C171.467 112.656 171.59 111.439 171.678 110.213C171.678 109.942 171.678 109.662 171.722 109.338C171.624 109.259 171.51 109.202 171.388 109.171C171.242 109.125 171.092 109.087 170.941 109.057L169.239 109.408L168.3 109.259C167.159 109.433 166.006 109.515 164.852 109.504C162.805 109.58 160.754 109.539 158.711 109.381C157.472 109.205 156.224 109.103 154.974 109.075C154.825 109.245 154.709 109.441 154.631 109.653C154.631 109.898 154.631 110.143 154.588 110.388C154.474 111.518 154.412 112.656 154.412 113.619Z" fill="#E6A07A"/>
</g>
<g style="mix-blend-mode:multiply" opacity="0.4">
<path d="M165.203 194.534C166.686 222.098 170.704 246.414 170.704 246.414C173.959 247.57 177.81 245.924 177.81 245.924C178.96 237.071 180.065 227.326 180.881 217.545C179.942 224.594 177.731 238.35 174.74 238.192C171.748 238.035 167.195 208.561 165.203 194.534Z" fill="#3C5AAC"/>
</g>
<g style="mix-blend-mode:multiply" opacity="0.4">
<path d="M143.008 220.759C143.815 227.326 144.315 238.805 144.333 247.08C147.202 247.592 150.147 247.508 152.983 246.835C156.012 229.984 158.17 212.99 159.449 195.918C157.001 211.302 152.553 235.399 148.649 235.951C146.886 236.196 144.394 225.286 143.008 220.759Z" fill="#3C5AAC"/>
</g>
<g style="mix-blend-mode:multiply" opacity="0.15">
<path d="M139.812 153.661C140.541 158.862 141.313 163.678 141.883 166.637C141.883 166.637 149.244 170.411 162.009 170.411H163.097C169.588 170.271 176.033 169.282 182.266 167.469C183.524 162.728 184.476 157.911 185.118 153.048C182.135 157.426 175.467 164.168 163.097 163.757C149.849 163.328 142.725 157.067 139.812 153.661Z" fill="#3C5AAC"/>
</g>
<path d="M149.193 120.992L142.113 118.365C139.743 118.261 137.413 119.003 135.541 120.458C129.207 125.493 121.636 138.583 120.758 145.851C120.276 149.791 123.68 155.237 128.839 151.77C131.567 149.94 135.34 142.935 138.138 140.387C144.473 134.398 149.307 128.715 149.193 120.992Z" fill="white"/>
<path d="M120.891 145.474C120.083 146.244 120.32 160.849 137.683 170.814C139.642 169.198 140.986 166.96 141.49 164.474C141.49 164.474 133.428 150.228 130.085 148.643C127.095 147.381 124.024 146.322 120.891 145.474Z" fill="white"/>
<path d="M140.77 165.097C141.023 164.771 141.359 164.52 141.743 164.37C142.007 164.282 143.393 164.098 146.727 165.123C147.315 165.307 149.543 166.498 149.271 167.951C149.078 168.993 145.446 167.951 144.542 167.89C145.305 168.03 148.929 168.52 148.683 170.088C148.438 171.655 144.498 170.508 143.709 170.376C143.709 170.376 147.639 171.375 147.604 172.811C147.569 174.247 143.875 173.502 143.875 173.502C143.875 173.502 146.806 174.255 146.358 175.674C146.139 176.348 144.007 176.164 143.542 176.103C142.803 176.015 142.083 175.808 141.41 175.49C139.95 174.722 138.827 173.439 138.26 171.891C138.128 171.519 137.941 171.168 137.708 170.849C137.313 170.324 138.243 168.932 138.471 168.538C139.045 167.569 139.669 166.631 140.34 165.727C140.454 165.491 140.612 165.28 140.77 165.097Z" fill="#FFBF94"/>
<path d="M184.004 78.2182C184.653 78.6648 185.329 79.0938 186.031 79.5316C188.013 80.7137 190.163 81.5893 192.365 81.134C195.444 80.5036 198.787 77.7279 199.638 74.672C200.045 73.0144 199.931 71.2722 199.313 69.681C199.027 68.9309 198.68 68.2047 198.278 67.5095C197.726 66.4913 197.005 65.5736 196.146 64.7951C192.382 61.5729 188.04 63.5255 184.267 65.5919L184.004 78.2182Z" fill="#FFBF94"/>
<g style="mix-blend-mode:multiply" opacity="0.31">
<path d="M189.69 72.8333C191.682 71.2309 192.252 68.7705 192.208 66.3275C192.207 66.274 192.224 66.2217 192.256 66.179C192.289 66.1364 192.335 66.106 192.387 66.0928C192.438 66.0796 192.493 66.0843 192.542 66.1063C192.591 66.1282 192.631 66.1661 192.656 66.2137C193.708 68.6654 192.656 71.3798 190.901 73.2186C191.65 73.7153 192.357 74.2717 193.015 74.8822C193.801 75.4851 194.408 76.2903 194.77 77.2114C194.818 77.3479 194.821 77.4963 194.778 77.6346C194.735 77.7728 194.648 77.8936 194.531 77.979C194.414 78.0645 194.273 78.11 194.128 78.1089C193.983 78.1079 193.842 78.0603 193.726 77.9731C193.059 77.3483 192.47 76.6457 191.971 75.8804C191.305 75.0699 190.546 74.341 189.708 73.7089C189.639 73.6588 189.584 73.5936 189.545 73.5184C189.505 73.4432 189.484 73.3601 189.483 73.2754C189.481 73.1908 189.499 73.1068 189.535 73.0302C189.571 72.9535 189.624 72.8861 189.69 72.8333Z" fill="#DD664A"/>
</g>
<g style="mix-blend-mode:multiply" opacity="0.25">
<path d="M185.996 79.5317C187.979 80.7137 190.128 81.5893 192.33 81.134C195.41 80.5036 198.752 77.7279 199.603 74.672C200.01 73.0145 199.897 71.2722 199.279 69.681C199.003 68.932 198.669 68.2059 198.279 67.5095C198.34 69.4096 197.735 77.0537 185.996 79.5317Z" fill="#995049"/>
</g>
<path d="M128.154 91.2561L128.33 91.6852C131.322 98.8214 138.033 104.609 144.727 107.945C151.176 111.159 163.02 114.311 170.354 112.323C173.653 111.448 186.085 105.021 194.349 88.4717C195.516 86.1513 195.139 83.3581 195.007 80.7663C195.007 80.1008 194.928 79.4441 194.893 78.7786C194.09 65.9813 191.958 53.3016 188.532 40.9435L188.155 39.9103C188.111 34.105 182.479 29.9633 177.074 27.7918C170.889 25.3443 164.279 24.1445 157.626 24.2617C150.973 24.379 144.409 25.8109 138.314 28.4748C133.006 30.8214 128.005 34.2188 124.733 38.9821C121.074 44.3409 119.846 51.0568 120.101 57.5363C120.355 64.0158 121.987 70.3553 123.61 76.6334C124.778 81.6084 126.296 86.4948 128.154 91.2561Z" fill="#FFBF94"/>
<path d="M121.547 92.9461C124.478 93.2287 127.42 92.5294 129.908 90.9585C130.522 90.5867 131.109 90.1712 131.663 89.7151L126.337 77.7981C124.135 74.8823 120.389 75.898 117.064 77.404C115.433 78.1916 114.174 79.5832 113.555 81.283C112.871 82.9897 112.8 84.8798 113.353 86.633C114.001 88.3382 115.11 89.8309 116.556 90.9453C118.002 92.0598 119.73 92.7523 121.547 92.9461Z" fill="#FFBF94"/>
<g style="mix-blend-mode:multiply" opacity="0.31">
<path d="M122.503 84.9343C120.082 84.0586 117.687 82.106 117.468 79.4617C117.464 79.4278 117.472 79.3937 117.489 79.3646C117.507 79.3354 117.534 79.3127 117.565 79.2999C117.597 79.2871 117.632 79.2849 117.665 79.2935C117.698 79.3021 117.727 79.3212 117.748 79.3479C119.222 81.5632 120.731 83.4807 123.469 84.1024C123.561 84.1192 123.648 84.1595 123.721 84.2195C123.794 84.2794 123.851 84.357 123.885 84.4448C123.919 84.5326 123.93 84.6277 123.917 84.721C123.904 84.8144 123.868 84.9029 123.811 84.978C123.208 85.7624 122.807 86.6825 122.644 87.6574C122.645 88.4321 122.506 89.2005 122.231 89.9252C122.161 90.0478 121.968 90.1529 121.837 90.0216C120.547 88.7344 121.538 86.3878 122.503 84.9343Z" fill="#DD664A"/>
</g>
<g style="mix-blend-mode:multiply" opacity="0.25">
<g style="mix-blend-mode:multiply" opacity="0.25">
<path d="M127.723 79.8383C128.459 77.4373 128.982 74.976 129.284 72.4832C129.398 71.6076 130.539 62.0459 130.109 61.9759C133.311 62.7552 136.671 62.4837 139.944 62.0547C148.188 60.9793 156.28 58.9608 164.062 56.0392C168.922 54.2092 173.809 51.9239 177.274 48.0537C181.943 54.9483 188.173 60.6478 195.461 64.6903C194.707 55.6452 189.39 47.6947 184.196 40.2344C183.152 38.7284 181.924 37.0998 180.117 36.732C179.308 36.6402 178.489 36.6846 177.695 36.8633C168.536 38.3169 159.21 38.527 150.024 39.9017C144.322 40.7773 138.689 42.047 133.057 43.3341C132.121 43.4913 131.213 43.7864 130.363 44.2097C129.417 44.8449 128.594 45.6459 127.933 46.5739C125.986 49.0081 123.985 51.5473 123.222 54.5682C122.722 56.5733 123.02 58.8149 122.915 60.8901C122.583 65.2426 122.929 69.6201 123.941 73.8667C124.755 76.6883 125.778 79.4453 127.003 82.1149C127.258 81.3706 127.503 80.6001 127.723 79.8383Z" fill="#995049"/>
</g>
</g>
<g style="mix-blend-mode:multiply" opacity="0.25">
<path d="M121.547 92.946C124.478 93.2286 127.42 92.5293 129.908 90.9584C117.432 92.5082 113.555 81.3267 113.555 81.3267C112.871 83.0334 112.8 84.9235 113.353 86.6766C114.007 88.3737 115.119 89.8573 116.565 90.9636C118.011 92.0699 119.735 92.756 121.547 92.946Z" fill="#995049"/>
</g>
<path d="M113.96 70.3992C114.284 71.1522 114.618 71.8965 114.969 72.6408C117.504 77.9557 122.259 79.7244 127.409 82.2112C126.935 74.1556 126.833 66.0941 127.102 58.0268C127.102 59.1038 133.2 59.778 134.077 59.8743C136.582 59.9507 139.088 59.7362 141.543 59.2352C148.158 58.0969 154.492 55.7327 160.704 53.2722C168.6 50.1463 176.864 46.425 181.242 39.2099C180.365 40.6109 182.119 45.2079 182.637 46.6351C183.589 49.3139 184.856 51.8709 186.41 54.2529C189.445 59.0075 192.963 63.1754 195.06 68.5079C199.113 59.5942 199.728 49.5246 199.447 39.7353C199.245 32.0912 195.937 22.0042 186.287 22.3895C187.006 17.9238 184.05 13.502 180.146 11.1729C171.565 6.05056 160.695 6.43583 151.194 8.35342C140.977 10.344 131.379 14.7252 123.189 21.1373C108.678 32.9143 106.897 53.9902 113.96 70.3992Z" fill="#3D2023"/>
<path d="M195.007 68.3765L195.06 68.5079C199.113 59.5942 199.727 49.5246 199.446 39.7353C199.244 32.0912 195.937 22.0042 186.286 22.3895C187.006 17.9238 184.049 13.502 180.145 11.1729C171.565 6.05056 160.695 6.43583 151.193 8.35342C140.977 10.344 131.379 14.7252 123.189 21.1373C108.555 32.9143 106.774 53.9903 113.836 70.3992C114.161 71.1522 114.494 71.8965 114.845 72.6408C117.126 77.4304 121.215 79.3392 125.759 81.4844C121.291 75.5081 118.091 68.6853 116.354 61.4329C113.433 48.4476 116.354 33.6498 127.303 25.0601C129.648 23.357 132.176 21.9208 134.84 20.7783C138.025 19.1281 141.382 17.8303 144.85 16.9081C150.026 15.7261 155.589 15.9362 160.844 16.339C166.366 16.7483 171.789 18.031 176.908 20.1391C178.339 20.7069 179.674 21.4926 180.864 22.4683C181.154 22.7222 183.496 26.3998 182.68 26.4873C186.321 26.067 190.524 27.074 192.822 29.9898C195.199 33.1738 196.666 36.9411 197.069 40.8911C197.683 45.8909 197.016 50.9606 196.279 55.9429C195.564 60.0526 195.139 64.2074 195.007 68.3765Z" fill="#543037"/>
<g style="mix-blend-mode:multiply" opacity="0.43">
<g style="mix-blend-mode:multiply" opacity="0.43">
<path d="M175.117 33.2207C175.091 33.4536 175.091 33.6886 175.117 33.9215C175.164 33.6903 175.164 33.4519 175.117 33.2207Z" fill="#3D2023"/>
</g>
</g>
<path d="M177.872 57.6149C177.877 57.4872 177.911 57.3622 177.97 57.2487C178.029 57.1353 178.112 57.0361 178.214 56.9582C178.383 56.8643 178.573 56.8131 178.766 56.8094C180.458 56.657 182.163 56.8672 183.767 57.426C185.371 57.9847 186.837 58.8791 188.066 60.0491C188.838 60.8459 189.909 62.3432 188.671 63.2276C187.277 64.2258 185.162 63.2276 183.837 62.6409C181.837 61.7653 177.696 60.5745 177.854 57.755C177.863 57.7113 177.863 57.6587 177.872 57.6149Z" fill="#3D2023"/>
<path d="M136.576 68.8406C136.953 67.0456 139.208 65.5833 140.682 64.8128C142.583 63.7956 144.733 63.3372 146.885 63.4906C147.184 63.5221 147.479 63.5897 147.762 63.692C148.173 63.7281 148.565 63.8867 148.885 64.1473C150.394 65.5483 147.016 67.4659 146.165 67.9563C144.182 69.1033 142.077 70.5306 139.822 71.0296C138.366 71.3536 136.164 70.802 136.576 68.8406Z" fill="#3D2023"/>
<path d="M160.22 87.5611C160.624 85.4684 164.721 85.2232 166.432 85.1531C168.73 85.0656 171.353 85.3283 173.02 87.062C173.035 87.0794 173.045 87.1006 173.048 87.1232C173.051 87.1458 173.048 87.1689 173.039 87.1898C173.03 87.2107 173.015 87.2287 172.996 87.2417C172.977 87.2547 172.955 87.2622 172.933 87.2634C170.722 87.3772 168.546 86.7905 166.344 87.0182C165.11 87.1429 163.9 87.4376 162.747 87.8938C161.869 88.244 161.457 88.6206 160.571 88.1915C160.455 88.1349 160.359 88.044 160.296 87.9313C160.234 87.8186 160.207 87.6894 160.22 87.5611Z" fill="#DD664A"/>
<path d="M176.241 78.1046C176.745 79.3857 177.619 80.4888 178.751 81.2745C179.884 82.0601 181.224 82.4931 182.603 82.5187C183.982 82.5442 185.338 82.1612 186.498 81.418C187.659 80.6749 188.573 79.6049 189.125 78.3434C189.677 77.0819 189.841 75.6854 189.598 74.3306C189.355 72.9757 188.714 71.7233 187.758 70.7316C186.802 69.7398 185.572 69.0533 184.225 68.7588C182.878 68.4644 181.473 68.5751 180.189 69.0771C179.336 69.4107 178.556 69.9089 177.896 70.5433C177.235 71.1777 176.707 71.9357 176.34 72.7741C175.974 73.6126 175.776 74.5149 175.759 75.4295C175.742 76.3442 175.906 77.2532 176.241 78.1046Z" fill="white"/>
<path d="M177.538 78.1044C177.928 79.1047 178.606 79.9672 179.487 80.5825C180.368 81.1978 181.412 81.5383 182.487 81.5608C183.562 81.5833 184.619 81.2868 185.525 80.7088C186.431 80.1309 187.145 79.2976 187.576 78.3144C188.007 77.3312 188.136 76.2425 187.946 75.1862C187.757 74.1299 187.257 73.1535 186.511 72.3808C185.765 71.6081 184.806 71.0739 183.755 70.8458C182.704 70.6177 181.609 70.706 180.609 71.0995C179.273 71.625 178.201 72.6568 177.625 73.9695C177.05 75.2822 177.019 76.7688 177.538 78.1044Z" fill="black"/>
<path d="M180.575 79.8644C180.69 80.1548 180.889 80.4046 181.146 80.5822C181.404 80.7597 181.708 80.8569 182.021 80.8615C182.334 80.8661 182.641 80.7778 182.903 80.6079C183.166 80.438 183.372 80.1941 183.495 79.9072C183.619 79.6202 183.654 79.3032 183.596 78.9962C183.539 78.6893 183.391 78.4063 183.173 78.1831C182.954 77.96 182.673 77.8067 182.367 77.7428C182.061 77.6789 181.743 77.7073 181.453 77.8242C181.066 77.98 180.757 78.2818 180.593 78.664C180.429 79.0461 180.422 79.4776 180.575 79.8644Z" fill="white"/>
<path d="M152.375 86.7971C154.571 83.6446 153.79 79.3126 150.632 77.1212C147.473 74.9298 143.132 75.709 140.937 78.8615C138.741 82.014 139.522 86.346 142.68 88.5374C145.839 90.7288 150.18 89.9496 152.375 86.7971Z" fill="white"/>
<path d="M152.395 83.3407C152.354 84.4119 151.996 85.4471 151.366 86.3152C150.735 87.1834 149.861 87.8455 148.854 88.2179C147.847 88.5903 146.752 88.6562 145.707 88.4073C144.662 88.1584 143.715 87.6059 142.985 86.8196C142.255 86.0334 141.774 85.0487 141.605 83.99C141.436 82.9314 141.585 81.8465 142.033 80.8724C142.482 79.8983 143.209 79.0788 144.125 78.5175C145.04 77.9563 146.101 77.6785 147.174 77.7193C148.613 77.7762 149.97 78.3999 150.948 79.4536C151.927 80.5072 152.447 81.905 152.395 83.3407Z" fill="black"/>
<path d="M150.236 85.6697C150.229 85.9824 150.129 86.2858 149.948 86.5415C149.768 86.7971 149.515 86.9934 149.222 87.1053C148.93 87.2172 148.61 87.2396 148.305 87.1698C147.999 87.0999 147.721 86.941 147.507 86.7131C147.292 86.4852 147.15 86.1988 147.099 85.8902C147.048 85.5816 147.09 85.2648 147.22 84.9801C147.35 84.6955 147.562 84.4559 147.829 84.2918C148.095 84.1277 148.405 84.0465 148.718 84.0585C149.133 84.0723 149.526 84.2495 149.81 84.5514C150.095 84.8533 150.248 85.2554 150.236 85.6697Z" fill="white"/>
<path d="M159.587 98.4273C159.706 98.5925 159.835 98.7504 159.973 98.9001L160.061 98.9877H160.105L160.35 99.3204L160.526 99.6006C160.53 99.6638 160.549 99.7249 160.583 99.7785C160.617 99.8321 160.664 99.8763 160.719 99.9071L160.965 100.345C161.015 100.422 161.092 100.478 161.181 100.502C161.27 100.526 161.364 100.517 161.447 100.476C161.53 100.435 161.594 100.365 161.63 100.28C161.665 100.195 161.669 100.1 161.64 100.012C161.613 99.8874 161.578 99.7645 161.535 99.6444C162.424 98.7189 163.513 98.009 164.72 97.5692C166.913 96.7987 169.536 96.965 171.835 97.1664C172.08 97.1664 172.423 97.1664 172.466 96.9037C172.51 96.641 172.335 96.571 172.177 96.4747C171.177 95.8705 169.703 95.8968 168.562 95.818C167.255 95.7224 165.942 95.9044 164.711 96.3521C163.334 96.8351 162.098 97.6502 161.114 98.725C161.008 98.5236 160.894 98.3397 160.772 98.1471C160.691 98.0062 160.6 97.8716 160.5 97.7443C160.46 97.6817 160.408 97.6277 160.346 97.5857C160.285 97.5436 160.216 97.5144 160.143 97.4997C160.07 97.485 159.995 97.4851 159.922 97.5C159.849 97.515 159.78 97.5445 159.719 97.5867C159.651 97.6302 159.593 97.6875 159.549 97.7549C159.505 97.8222 159.476 97.8981 159.464 97.9775C159.451 98.0569 159.456 98.1381 159.477 98.2156C159.499 98.2931 159.536 98.3653 159.587 98.4273Z" fill="#DD664A"/>
<path d="M134.287 50.33C132.756 50.331 131.226 50.2374 129.707 50.0498C129.592 50.0366 129.487 49.9785 129.414 49.8883C129.342 49.7981 129.309 49.683 129.321 49.5682C129.327 49.5105 129.345 49.4547 129.374 49.404C129.402 49.3534 129.44 49.3088 129.486 49.273C129.531 49.2371 129.584 49.2107 129.64 49.1952C129.696 49.1798 129.755 49.1756 129.812 49.1829C136.138 49.971 142.095 48.9027 147.622 47.7469C153.426 46.6714 159.051 44.7942 164.335 42.1693C168.581 39.9715 171.924 37.5898 174.424 33.1067L175.916 30.4186C175.975 30.3194 176.069 30.2467 176.181 30.2157C176.292 30.1847 176.411 30.1978 176.512 30.2522C176.563 30.2797 176.608 30.3169 176.644 30.3618C176.681 30.4066 176.708 30.4582 176.724 30.5135C176.74 30.5688 176.746 30.6268 176.739 30.6842C176.733 30.7415 176.716 30.7971 176.688 30.8476L175.188 33.527C172.424 38.4829 168.529 40.9784 164.739 42.9486C159.382 45.6088 153.68 47.5126 147.797 48.605C143.366 49.644 138.838 50.2221 134.287 50.33Z" fill="#543037"/>
<path d="M134.874 41.7492C134.758 41.7492 134.646 41.703 134.564 41.6209C134.482 41.5388 134.436 41.4275 134.436 41.3114C134.436 41.1952 134.482 41.0839 134.564 41.0018C134.646 40.9197 134.758 40.8735 134.874 40.8735L143.718 39.9979C146.492 39.6508 149.23 39.0648 151.903 38.2467L153.728 37.7476C157.12 36.8322 160.351 35.4029 163.308 33.5097C164.256 32.8967 165.221 32.3451 166.16 31.811C169.248 30.0598 172.17 28.3786 174.012 24.9287C174.037 24.8739 174.072 24.8248 174.117 24.7844C174.161 24.7439 174.213 24.7131 174.27 24.6937C174.327 24.6743 174.388 24.6668 174.447 24.6716C174.507 24.6764 174.566 24.6935 174.619 24.7218C174.672 24.7501 174.718 24.7889 174.756 24.836C174.793 24.883 174.82 24.9372 174.836 24.9952C174.851 25.0532 174.855 25.1137 174.846 25.1731C174.837 25.2324 174.816 25.2893 174.784 25.3402C172.828 29.009 169.801 30.7427 166.59 32.5728C165.669 33.0981 164.712 33.6498 163.782 34.2452C160.756 36.2015 157.444 37.6784 153.965 38.6232L152.14 39.1311C149.419 39.9735 146.631 40.5799 143.805 40.9436L134.962 41.8192L134.874 41.7492Z" fill="#543037"/>
<path d="M142.182 34.6742C142.095 34.6738 142.011 34.6478 141.939 34.5995C141.867 34.5512 141.811 34.4827 141.778 34.4028C141.734 34.2958 141.733 34.1756 141.775 34.0678C141.818 33.9599 141.901 33.8728 142.006 33.8249C144.718 32.7567 147.493 31.8561 150.315 31.128C152.069 30.6289 153.929 30.1211 155.702 29.5169C161.176 27.6781 164.984 25.2351 167.353 22.0479C167.422 21.955 167.526 21.8936 167.641 21.8772C167.757 21.8608 167.874 21.8907 167.967 21.9604C168.06 22.03 168.121 22.1337 168.138 22.2487C168.154 22.3636 168.124 22.4804 168.054 22.5733C165.58 25.9006 161.632 28.4486 155.982 30.3487C154.228 30.9529 152.341 31.4695 150.552 31.9686C147.766 32.692 145.026 33.5839 142.349 34.6392C142.295 34.6591 142.239 34.671 142.182 34.6742Z" fill="#543037"/>
<path d="M119.32 57.5275C119.263 57.5287 119.206 57.5184 119.153 57.4974C119.1 57.4764 119.051 57.4449 119.01 57.405C118.97 57.365 118.937 57.3173 118.915 57.2647C118.893 57.2121 118.881 57.1556 118.881 57.0985C118.802 51.1093 118.715 44.3145 121.698 38.5268C123.751 34.5427 127.339 30.9527 132.656 27.5641C140.701 22.4243 149.018 19.9113 156.686 20.2965C156.743 20.2994 156.8 20.3136 156.852 20.3382C156.904 20.3629 156.951 20.3976 156.989 20.4403C157.028 20.4829 157.058 20.5328 157.077 20.587C157.097 20.6413 157.105 20.6987 157.102 20.7562C157.099 20.8137 157.085 20.8701 157.061 20.9221C157.036 20.9741 157.001 21.0208 156.958 21.0594C156.916 21.098 156.866 21.1279 156.811 21.1472C156.757 21.1666 156.699 21.175 156.642 21.1722C147.167 20.6993 138.63 24.7884 133.121 28.2996C127.944 31.6094 124.461 35.0856 122.479 38.9295C119.601 44.5247 119.68 51.1881 119.759 57.081C119.76 57.1392 119.749 57.1971 119.728 57.2512C119.706 57.3053 119.674 57.3546 119.633 57.3962C119.593 57.4378 119.544 57.4708 119.49 57.4934C119.436 57.5159 119.378 57.5275 119.32 57.5275Z" fill="#543037"/>
<path d="M190.936 50.8728H190.857C190.8 50.8634 190.746 50.8426 190.697 50.8118C190.648 50.7809 190.606 50.7406 190.574 50.6932C190.541 50.6458 190.518 50.5923 190.506 50.5359C190.495 50.4796 190.495 50.4214 190.506 50.365C191.13 47.5705 191.372 44.7046 191.225 41.8453C190.927 38.1327 189.023 33.0892 184.637 31.049C184.584 31.0246 184.537 30.99 184.498 30.9472C184.458 30.9043 184.428 30.8542 184.409 30.7996C184.389 30.745 184.38 30.6871 184.383 30.6292C184.386 30.5713 184.401 30.5146 184.426 30.4624C184.45 30.4101 184.484 30.3631 184.526 30.3241C184.568 30.2851 184.617 30.2549 184.671 30.2353C184.725 30.2157 184.783 30.2071 184.84 30.21C184.897 30.2129 184.953 30.2273 185.005 30.2522C189.734 32.45 191.787 37.835 192.103 41.7753C192.259 44.7139 192.011 47.66 191.366 50.5314C191.345 50.6294 191.291 50.7172 191.213 50.7796C191.134 50.842 191.036 50.875 190.936 50.8728Z" fill="#543037"/>
<path d="M187.672 49.1742C187.579 49.1743 187.489 49.1445 187.415 49.0893C187.341 49.0341 187.286 48.9564 187.26 48.8678C186.892 47.4389 186.738 45.9635 186.803 44.4897C186.838 43.3409 186.762 42.1914 186.575 41.0573C186.267 39.5494 185.558 38.1521 184.522 37.012C184.452 36.9249 184.418 36.8145 184.427 36.7032C184.436 36.5919 184.487 36.4882 184.57 36.4133C184.653 36.3384 184.761 36.2979 184.873 36.3001C184.985 36.3024 185.092 36.3472 185.172 36.4253C186.313 37.6813 187.095 39.2207 187.435 40.8822C187.634 42.0709 187.717 43.2762 187.681 44.4809C187.615 45.8713 187.754 47.2638 188.093 48.6138C188.111 48.669 188.117 48.7271 188.112 48.7848C188.107 48.8425 188.091 48.8987 188.064 48.95C188.037 49.0013 188 49.0468 187.955 49.0837C187.911 49.1207 187.859 49.1485 187.804 49.1655L187.672 49.1742Z" fill="#543037"/>
<path d="M174.223 169.527C174.175 167.686 174.349 165.845 174.74 164.046C177.012 160.386 180.881 152.549 180.881 152.549L190.181 156.857C188.121 161.373 185.526 165.627 182.452 169.527C181.151 170.695 179.684 171.665 178.1 172.408" fill="#44A2EB"/>
<path d="M176.793 165.49C174.828 169.396 169.283 175.831 169.283 175.831L169.827 183.011C174.202 178.557 177.718 173.336 180.197 167.609L176.793 165.49Z" fill="#FF6551"/>
<path d="M180.82 116.675C178.574 113.917 173.503 112.227 168.949 113.234C163.571 114.416 154.289 120.852 154.289 120.852L162.65 131.237C162.65 131.237 167.195 121.929 173.301 121.15C179.407 120.37 182.723 123.776 186.364 131.841C185.645 124.845 182.618 118.89 180.82 116.675Z" fill="#4BB2F7"/>
<path d="M184.874 124.88C185.14 126.091 185.339 127.316 185.47 128.548C181.829 120.502 178.408 117.087 172.407 117.848C166.406 118.61 161.756 127.936 161.756 127.936L162.633 131.237C162.633 131.237 167.178 121.929 173.284 121.15C179.39 120.37 182.706 123.776 186.347 131.841C186.104 129.475 185.609 127.142 184.874 124.88Z" fill="#3E8CE1"/>
<path d="M154.939 183.046C154.474 176.173 149.737 144.423 144.595 134.949C138.744 124.153 129.304 118.129 116.907 118.96C108.625 119.512 105.107 122.463 103.686 124.363C104.419 123.147 105.277 122.011 106.247 120.974C109.415 117.586 116.17 111.29 119.635 109.591L120.171 109.346L125.654 107.595C130.672 106.486 135.877 106.531 140.876 107.726L141.314 112.761C141.716 113.041 142.17 113.237 142.65 113.334C143.13 113.432 143.625 113.431 144.104 113.33C145.461 112.984 146.797 112.56 148.105 112.061C148.105 112.061 148.105 111.745 148.026 111.185L149.184 111.097C160.177 118.05 165.95 135.326 165.95 135.326L174.179 183.186C170.882 187.872 166.106 191.319 160.615 192.976C156.684 194.088 152.621 194.677 148.535 194.727C152.658 193.51 155.404 189.92 154.939 183.046Z" fill="#49B3F7"/>
<path d="M165.948 135.334C164.124 130.224 161.681 125.354 158.675 120.834C153.323 124.337 147.656 127.673 142.348 131.272C143.164 132.449 143.914 133.671 144.594 134.932C149.735 144.406 154.472 176.155 154.937 183.029C155.402 189.902 152.656 193.51 148.533 194.762C152.62 194.712 156.682 194.123 160.614 193.011C166.105 191.354 170.88 187.907 174.177 183.221L165.948 135.334Z" fill="#3E8CE1"/>
<path d="M144.596 134.949C149.737 144.423 154.475 176.173 154.94 183.046C155.405 189.92 152.659 193.51 148.535 194.762C145.762 194.853 142.986 194.756 140.227 194.473C147.956 194.158 149.333 188.055 149.123 182.714C148.886 176.97 146.07 157.374 142.446 144.292C138.823 131.21 128.611 123.986 116.241 123.566C105.651 123.198 101.484 129.503 100.098 135.685C100.374 132.317 101.285 129.031 102.782 126C103.063 125.44 103.353 124.906 103.66 124.389C105.081 122.498 108.599 119.538 116.881 118.987C129.304 118.129 138.744 124.153 144.596 134.949Z" fill="#FF6551"/>
<path d="M148.026 111.203C148.079 111.728 148.105 112.078 148.105 112.078C146.797 112.577 145.461 113.001 144.104 113.348C143.625 113.448 143.13 113.45 142.65 113.352C142.17 113.254 141.716 113.059 141.315 112.779L140.876 110.371L140.621 107.446C140.621 107.446 139.595 104.259 141.946 103.471C143.194 102.99 144.558 102.898 145.859 103.208C147.07 104.811 147.798 108.821 148.026 111.203Z" fill="#49B3F7"/>
<path d="M141.631 99.8195C145.912 101.282 145.859 103.164 145.859 103.164C144.559 102.854 143.194 102.946 141.946 103.427C139.595 104.215 140.683 108.19 140.683 108.19C139.16 107.663 137.691 106.992 136.296 106.185C133.129 104.521 127.944 104.74 126.646 105.204C126.251 105.345 125.768 105.528 125.312 105.686C124.145 106.08 122.821 106.352 121.873 105.528C120.54 104.364 121.048 102.324 121.048 102.324C122.242 97.8669 137.358 98.3484 141.631 99.8195Z" fill="#FF6551"/>
<path d="M131.381 148.153C132.209 148.352 132.987 148.718 133.668 149.228C134.348 149.739 134.917 150.383 135.338 151.122C135.338 160.99 125.529 160.569 125.529 160.569C125.529 160.569 108.457 159.554 102.14 158.906C96.1126 158.293 95.7529 150.15 95.7266 149.458C95.7286 149.443 95.7286 149.429 95.7266 149.414C95.7339 148.401 96.1204 147.427 96.8103 146.683C97.5001 145.94 98.4435 145.48 99.4552 145.395H99.7535C102.745 145.623 127.293 147.321 131.381 148.153Z" fill="#FF6551"/>
<path d="M125.653 107.569L120.17 109.321C121.935 108.557 123.772 107.97 125.653 107.569Z" fill="#4BB2F7"/>
<path d="M120.995 102.324C120.995 102.324 120.486 104.364 121.819 105.529C122.767 106.352 124.092 106.08 125.259 105.686L125.653 107.569C123.772 107.97 121.935 108.557 120.17 109.32C119.854 107.879 119.657 106.415 119.582 104.942C119.554 104.418 119.671 103.897 119.92 103.435C120.169 102.973 120.541 102.589 120.995 102.324Z" fill="#44A2EB"/>
<path d="M103.686 124.337C103.361 124.854 103.072 125.388 102.809 125.948C103.013 125.368 103.31 124.824 103.686 124.337Z" fill="#4BB2F7"/>
<path d="M95.727 149.458C95.727 150.185 96.113 158.293 102.14 158.906C108.457 159.554 125.53 160.57 125.53 160.57C125.53 160.57 135.303 160.99 135.338 151.122C136.053 152.275 136.572 153.538 136.874 154.861C136.874 154.861 139.865 171.243 139.576 179.378C139.286 187.512 127.214 187.162 127.214 187.162C121.446 186.55 115.717 185.614 110.054 184.36C108.398 184.026 106.795 183.469 105.29 182.705C103.488 181.841 101.926 180.55 100.741 178.944C99.5555 177.338 98.7828 175.467 98.4906 173.494C98.4906 173.494 96.0867 153.635 95.7533 150.535C95.719 150.177 95.7103 149.817 95.727 149.458Z" fill="#4BB2F7"/>
<path d="M95.7281 149.458C95.7026 149.817 95.7026 150.176 95.7281 150.535C95.7982 151.174 95.9561 152.514 96.1578 154.239H96.6753C96.1158 152.703 95.7963 151.091 95.7281 149.458Z" fill="#44A2EB"/>
<path d="M136.864 154.861C136.562 153.539 136.043 152.275 135.329 151.122C135.329 156.253 132.697 158.6 130.109 159.677C130.876 164.584 131.272 169.542 131.293 174.509C131.004 182.644 118.941 182.276 118.941 182.276C113.169 181.679 107.437 180.752 101.771 179.5L101.043 179.325C102.21 180.735 103.652 181.894 105.28 182.731C106.786 183.496 108.389 184.053 110.044 184.386C115.707 185.641 121.437 186.576 127.205 187.188C127.205 187.188 139.268 187.556 139.558 179.413C139.847 171.27 136.864 154.861 136.864 154.861Z" fill="#3E8CE1"/>
<path d="M142.447 144.283C146.07 157.365 148.886 176.961 149.123 182.705C149.334 188.046 147.956 194.149 140.227 194.464C139.61 194.499 138.992 194.499 138.376 194.464C128.971 193.816 112.301 188.86 112.301 188.86C109.306 187.715 106.818 185.542 105.283 182.731C106.788 183.496 108.391 184.052 110.047 184.386C115.71 185.64 121.439 186.576 127.207 187.188C127.207 187.188 139.271 187.556 139.56 179.412C139.85 171.269 136.858 154.895 136.858 154.895C136.556 153.573 136.037 152.31 135.323 151.157C134.901 150.418 134.333 149.774 133.652 149.263C132.972 148.753 132.194 148.387 131.366 148.188C127.277 147.356 102.73 145.658 99.7819 145.456V145.351C99.6679 143.504 99.5012 140.457 99.5714 139.423C99.6511 138.156 99.8301 136.897 100.107 135.658C101.493 129.476 105.66 123.172 116.249 123.54C128.611 123.978 138.832 131.21 142.447 144.283Z" fill="#49B3F7"/>
<path d="M149.147 182.705C148.911 176.961 146.094 157.365 142.471 144.283C140.278 136.359 135.663 130.589 129.601 127.165C132.395 130.476 134.42 134.363 135.531 138.548C139.155 151.63 141.971 171.226 142.208 176.97C142.418 182.311 141.041 188.405 133.312 188.729C132.695 188.764 132.077 188.764 131.46 188.729C122.687 188.151 107.632 183.8 105.641 183.213C107.189 185.787 109.554 187.771 112.361 188.852C112.361 188.852 129.03 193.808 138.4 194.429C139.017 194.464 139.635 194.464 140.251 194.429C147.954 194.149 149.332 188.046 149.147 182.705Z" fill="#3E8CE1"/>
<path d="M192.216 173.038C194.421 176.487 196.004 180.295 196.892 184.29C197.082 184.84 197.161 185.423 197.125 186.005C197.089 186.586 196.938 187.155 196.682 187.678L195.804 185.13C195.932 187.329 195.677 189.533 195.05 191.645C194.999 191.916 194.849 192.16 194.629 192.328C194.451 192.401 194.253 192.407 194.072 192.344C193.891 192.281 193.739 192.154 193.646 191.986C193.474 191.642 193.396 191.258 193.418 190.874L193.304 187.836C193.495 188.835 193.424 189.867 193.096 190.831C192.769 191.795 192.196 192.658 191.435 193.335C191.293 193.49 191.117 193.612 190.921 193.691C190.725 193.769 190.514 193.803 190.303 193.79C189.601 193.65 189.426 192.722 189.496 192.039C189.619 190.563 190.04 189.127 190.733 187.818C190.954 187.511 191.057 187.135 191.023 186.759C190.944 186.511 190.794 186.292 190.593 186.128C189.382 184.894 187.856 183.712 187.084 182.153C185.838 179.771 186.627 176.645 187.18 174.211C187.54 172.346 191.014 171.155 192.216 173.038Z" fill="#FFBF94"/>
<path d="M170.511 127.471C170.511 127.471 169.274 121.491 173.819 120.046C178.363 118.601 180.837 119.39 184.119 123.102C187.4 126.815 187.952 149.274 187.952 149.274C187.952 149.274 189.856 157.155 182.96 158.328C176.065 159.501 174.038 150.351 174.038 150.351L170.511 127.471Z" fill="#243976"/>
<path d="M185.119 179.5L175.205 153.573C175.205 153.573 173.319 147.444 179.522 145.693C181.124 145.132 182.879 145.193 184.439 145.862C185.999 146.532 187.25 147.762 187.944 149.309L195.059 175.262C195.059 175.262 195.068 181.611 185.119 179.5Z" fill="#243976"/>
</svg>
