<svg width="168" height="253" viewBox="0 0 168 253" fill="none" xmlns="http://www.w3.org/2000/svg">
<g style="mix-blend-mode:multiply" opacity="0.95">
<g style="mix-blend-mode:multiply" opacity="0.95">
<g style="mix-blend-mode:multiply" opacity="0.95">
<path d="M139.407 216.239L58.2366 221.275V240.641L137.847 234.058C137.847 234.058 143.34 228.374 139.407 216.239Z" fill="#F8CC90"/>
</g>
</g>
<path d="M84 253.001C130.392 253.001 168 246.146 168 237.691C168 229.236 130.392 222.382 84 222.382C37.6081 222.382 0 229.236 0 237.691C0 246.146 37.6081 253.001 84 253.001Z" fill="#DEE1F3"/>
</g>
<path d="M140.107 211.966L50.7769 217.511V238.821L138.354 231.572C138.354 231.572 144.373 225.327 140.107 211.966Z" fill="#FF6551"/>
<g style="mix-blend-mode:multiply" opacity="0.95">
<path d="M140.107 211.966L50.7769 217.511V238.821L138.354 231.572C138.354 231.572 144.373 225.327 140.107 211.966Z" fill="#F8CC90"/>
</g>
<path d="M80.1948 221.643C80.1948 221.643 84.002 227.357 80.1948 232.72L128.866 228.71C130.15 225.465 130.15 221.855 128.866 218.61L80.1948 221.643Z" fill="#FF6551"/>
<path d="M15.5439 213.246L84.3635 209.115L140.106 211.966L50.8119 217.511L15.5439 213.246Z" fill="#FF6551"/>
<path d="M17.249 214.66C17.249 214.66 20.2343 224.892 18.1072 232.007L49.9305 237.407C49.9305 237.407 53.9431 236.839 54.6441 230.859C55.3451 224.88 49.9305 217.45 49.9305 217.45L17.249 214.66Z" fill="#FFEBDD"/>
<g style="mix-blend-mode:multiply" opacity="0.41">
<path d="M49.9309 217.452L17.2979 214.709C17.2979 214.709 17.7209 216.244 18.1439 218.66L44.4075 221.583C45.6193 221.707 46.7593 222.217 47.66 223.037C48.5606 223.856 49.1745 224.943 49.4112 226.138C49.4112 226.138 49.4112 226.234 49.4112 226.283C49.5346 227.181 49.4424 228.095 49.1421 228.951C48.8418 229.807 48.3422 230.579 47.6844 231.203C47.0266 231.827 46.2297 232.286 45.3593 232.542C44.489 232.798 43.5703 232.842 42.6791 232.673L18.724 228.409C18.6293 229.636 18.4107 230.85 18.0714 232.033L49.8947 237.433C49.8947 237.433 53.9073 236.865 54.6084 230.885C55.3094 224.905 49.9309 217.452 49.9309 217.452Z" fill="#E79E82"/>
</g>
<g style="mix-blend-mode:multiply" opacity="0.41">
<path d="M18.5698 221.378C18.6544 222.03 18.7269 222.707 18.7753 223.395L43.1292 225.401L18.5698 221.378Z" fill="#E79E82"/>
</g>
<g style="mix-blend-mode:multiply" opacity="0.41">
<path d="M36.7921 228.323L18.856 225.521C18.856 226.004 18.856 226.499 18.856 226.994L36.7921 228.323Z" fill="#E79E82"/>
</g>
<path d="M15.545 215.662L48.3594 219.782C50.6382 221.796 52.0607 224.605 52.3358 227.634C52.3056 229.124 51.979 230.593 51.3752 231.955C50.7714 233.318 49.9023 234.547 48.8187 235.571L16.1131 230.304L16.2581 233.432L49.9307 238.832C49.9307 238.832 56.0705 236.706 55.9738 228.322C55.8771 219.939 50.7767 217.51 50.7767 217.51L15.5088 213.246L15.545 215.662Z" fill="#FF6551"/>
<path d="M134.85 192.309C134.85 192.309 131.296 203.29 134.85 211.819L123.61 215.661C123.61 215.661 114.509 210.116 121.76 196.465L134.85 192.309Z" fill="#FFEBDD"/>
<g style="mix-blend-mode:multiply" opacity="0.41">
<g style="mix-blend-mode:multiply" opacity="0.41">
<path d="M123.609 215.661L134.849 211.819C134.382 210.689 134.026 209.515 133.786 208.316L124.503 211.409C124.503 211.409 123.367 210.841 122.509 206.842C122.316 205.543 122.393 204.218 122.736 202.949C123.079 201.681 123.681 200.498 124.503 199.473L133.931 196.042C134.157 194.794 134.456 193.56 134.825 192.346L121.736 196.501C114.508 210.116 123.609 215.661 123.609 215.661Z" fill="#E79E82"/>
</g>
<g style="mix-blend-mode:multiply" opacity="0.41">
<path d="M133.387 200.199C133.387 199.559 133.508 198.991 133.581 198.363L125.809 202.132L133.387 200.199Z" fill="#E79E82"/>
</g>
<g style="mix-blend-mode:multiply" opacity="0.41">
<path d="M126.921 206.806L133.424 205.73C133.351 204.957 133.303 204.196 133.291 203.447L126.921 206.806Z" fill="#E79E82"/>
</g>
</g>
<path d="M23.0882 192.309C23.0882 192.309 17.323 205.851 25.856 215.262L120.057 218.391C120.057 218.391 115.609 211.142 118.619 195.716L23.0882 192.309Z" fill="#49B3F7"/>
<path d="M30.7505 196.912C30.7505 196.912 27.04 203.242 31.8141 211.988L103.268 214.03C103.268 214.03 99.002 209.814 101.347 199.135L30.7505 196.912Z" fill="#89CEFA"/>
<path d="M137.197 188.842L118.62 195.704C118.62 195.704 114.221 208.292 120.058 218.379L136.339 213.124V209.282L123.612 213.97C123.612 213.97 118.499 210.345 122.331 198.06L137.052 193.517L137.197 188.842Z" fill="#0071BC"/>
<path d="M23.0869 192.31L58.7778 185.436L137.194 188.843L118.617 195.68L23.0869 192.31Z" fill="#0071BC"/>
<path d="M62.4043 226.874C62.4043 226.874 62.4043 230.861 60.3496 232.999C58.2949 235.137 51.8892 238.326 52.3726 242.168C52.8561 246.009 66.0302 243.883 73.4875 238.121C80.9447 232.359 75.5421 228.964 73.4875 226.173L62.4043 226.874Z" fill="#808080"/>
<path d="M53.8716 175.967C53.8716 175.967 44.275 195.03 48.1064 206.772C51.9378 218.514 62.187 229.797 62.187 229.797C62.187 229.797 70.9254 231.501 73.4877 226.173C73.4877 226.173 65.8129 216.158 71.7835 199.959C71.7835 199.959 76.6906 184.544 69.6563 177.755C62.6221 170.966 57.2799 172.439 53.8716 175.967Z" fill="#2435A1"/>
<path d="M98.7608 226.874C98.7608 226.874 98.7608 230.861 100.816 232.999C102.87 235.137 109.216 238.326 108.792 242.168C108.369 246.009 95.1349 243.883 87.6656 238.121C80.1962 232.359 85.623 228.964 87.6656 226.173L98.7608 226.874Z" fill="#808080"/>
<path d="M107.295 175.967C107.295 175.967 116.891 195.03 113.048 206.772C109.204 218.514 98.9791 229.797 98.9791 229.797C98.9791 229.797 90.2286 231.501 87.6663 226.173C87.6663 226.173 95.3532 216.158 89.3826 199.959C89.3826 199.959 84.4755 184.544 91.5097 177.755C98.544 170.966 103.886 172.439 107.295 175.967Z" fill="#2435A1"/>
<path d="M119.671 142.153C119.671 142.261 119.671 142.382 119.671 142.503C119.497 143.313 119.13 144.07 118.602 144.709C118.074 145.348 117.4 145.851 116.637 146.176C115.117 146.822 113.527 147.288 111.899 147.565C109.482 148.12 107.161 148.906 104.768 149.449C101.817 150.051 98.8294 150.455 95.8244 150.657C90.9899 151.092 86.0587 151.515 81.1637 151.515C72.5438 151.314 63.9581 150.36 55.5044 148.664C50.8578 148.029 46.3098 146.811 41.9677 145.04C39.6955 144.001 37.3387 142.358 36.9881 139.882C36.6376 137.405 38.6681 134.663 39.9251 132.633C41.3596 130.375 43.0376 128.281 44.9289 126.388C48.6598 122.459 53.1946 119.381 58.2238 117.364C60.1939 116.591 62.1761 115.83 64.1945 115.213L65.0768 114.948C65.7174 114.766 66.3579 114.609 67.0106 114.464C75.3934 112.736 84.0877 113.304 92.1743 116.107C93.6972 116.603 95.2201 117.17 96.6946 117.787C97.3352 118.052 97.9758 118.33 98.6043 118.62C103.259 120.598 107.527 123.383 111.21 126.847C114.667 130.277 117.303 134.444 118.921 139.036C119.371 140.016 119.626 141.075 119.671 142.153Z" fill="#FF6551"/>
<g style="mix-blend-mode:multiply" opacity="0.95">
<path d="M118.934 138.986C116.843 132.983 113 127.744 107.899 123.946C102.025 129.286 93.6978 131.472 86.6394 132.402C75.7617 134.565 61.0526 128.947 56.4236 118.16C52.1224 120.172 48.2331 122.965 44.9536 126.399C43.0482 128.274 41.3541 130.352 39.9015 132.596C38.6929 134.674 36.6141 137.331 36.9646 139.844C37.3151 142.357 39.6719 143.963 41.9441 145.002C46.2862 146.774 50.8342 147.991 55.4808 148.626C63.9345 150.322 72.5203 151.276 81.1401 151.477C85.9746 151.477 90.918 151.043 95.8008 150.62C98.8058 150.417 101.794 150.014 104.745 149.412C107.162 148.868 109.483 148.083 111.876 147.515C113.511 147.261 115.11 146.811 116.638 146.174C117.395 145.854 118.065 145.359 118.593 144.729C119.121 144.098 119.49 143.352 119.671 142.55C119.671 142.429 119.671 142.308 119.671 142.2C119.643 141.09 119.392 139.997 118.934 138.986Z" fill="#F8CC90"/>
</g>
<g style="mix-blend-mode:multiply">
<g style="mix-blend-mode:multiply">
<path d="M92.2101 116.072C91.8958 116.603 87.1701 120.904 78.6734 120.034C71.0469 119.225 67.8561 116.036 67.0463 114.429C75.4291 112.7 84.1235 113.268 92.2101 116.072Z" fill="#F7A845"/>
</g>
</g>
<path d="M88.3309 115.298C88.3309 115.298 86.1554 118.596 79.0123 117.714C71.8693 116.832 70.2739 114.09 70.2739 114.09V111.408V107.518L87.1948 106.141L88.7902 106.008V106.998L88.5485 112.133L88.3309 115.298Z" fill="#EA9573"/>
<g style="mix-blend-mode:multiply" opacity="0.31">
<path d="M88.4759 112.145C86.2037 113.667 83.303 115.153 80.7286 115.056C75.6161 114.863 70.4069 111.493 70.2739 111.432V107.518L87.1948 106.141L88.7418 106.999L88.4759 112.145Z" fill="#DD7258"/>
</g>
<path d="M122.149 64.0278C122.149 64.0278 128.881 60.8749 132.64 65.6345C136.399 70.3942 130.44 82.4384 125.884 83.6223C121.327 84.8061 119.55 83.6223 119.55 83.6223L122.149 64.0278Z" fill="#FFBF94"/>
<path d="M37.8328 63.86C37.8328 63.86 31.1007 60.6949 27.3297 65.4304C23.5588 70.1659 29.4932 82.2584 34.0376 83.4423C38.5821 84.6262 40.3709 83.4423 40.3709 83.4423L37.8328 63.86Z" fill="#FFBF94"/>
<path d="M125.34 45.9076C125.34 45.9076 124.131 63.6054 122.125 77.8361C121.835 79.9744 121.52 82.028 121.206 83.8763C120.239 89.5904 119.139 93.9393 117.979 95.0266C113.785 99.0614 90.0233 111.818 80.7168 111.202C71.4104 110.586 46.8751 98.7956 42.935 94.5313C41.7263 93.1782 40.3001 88.3823 39.0432 82.4508C36.3479 69.9355 34.0757 52.4673 34.0757 52.4673C35.0668 23.7522 51.1537 14.0516 82.2035 13.0731C113.253 12.0946 125.34 45.9076 125.34 45.9076Z" fill="#FFBF94"/>
<g opacity="0.27">
<path opacity="0.27" d="M102.364 23.0645C102.364 23.0645 98.6538 3.45799 77.7081 3.73584C68.9046 3.90099 60.2475 6.01739 52.3616 9.93232C44.4756 13.8472 37.5575 19.4631 32.1064 26.3745C26.8436 33.1938 24.4744 41.8079 25.5101 50.3577C26.5457 58.9076 30.9031 66.7077 37.6419 72.0747C37.6419 72.0747 42.4765 63.1594 47.2264 56.1769C47.2264 56.1769 73.9976 67.8707 99.1976 45.9931C99.1856 45.9931 106.075 35.2657 102.364 23.0645Z" fill="#DA8966"/>
<path opacity="0.27" d="M97.9157 34.782C97.9157 34.782 97.118 47.2731 105.337 54.7751C113.555 62.277 119.913 63.0743 119.913 63.0743C119.913 63.0743 124.421 71.5306 121.242 80.5667C121.242 80.5667 132.724 69.791 130.911 47.4302C129.098 25.0694 118.221 17.7607 97.8311 18.0265L97.9157 34.782Z" fill="#DA8966"/>
</g>
<path d="M97.0812 56.8416C97.4196 57.3731 98.0239 57.3127 98.6041 57.3732C99.1842 57.4336 99.9336 57.4456 100.61 57.4698C101.92 57.4648 103.219 57.7024 104.442 58.1705C105.558 58.6818 106.612 59.3181 107.584 60.0671C108.051 60.4339 108.54 60.7728 109.047 61.0818C109.331 61.2605 109.636 61.4064 109.953 61.5167C110.267 61.6013 110.57 61.5167 110.86 61.6617C111.15 61.8067 111.44 61.3597 111.307 61.0818C111.174 60.804 111.21 60.4174 111.053 60.1033C110.871 59.7596 110.647 59.4392 110.388 59.149C109.91 58.5988 109.376 58.1007 108.793 57.6631C107.598 56.7424 106.253 56.0353 104.816 55.5732C103.315 55.1355 101.737 55.0202 100.187 55.2349C99.7039 55.2349 96.3923 55.7665 97.0812 56.8416Z" fill="#5F130F"/>
<g style="mix-blend-mode:multiply" opacity="0.44">
<path d="M37.4106 78.8882C34.8529 77.6482 32.8554 75.4921 31.8146 72.848C31.4158 71.64 31.5125 69.8038 33.0233 69.5984C34.3044 69.4293 34.8241 71.0964 35.4405 72.0145C35.7427 72.4615 36.5525 72.1957 36.3591 71.6279C35.8394 70.1058 35.3317 68.185 33.4342 68.0038C32.5199 67.961 31.6258 68.2811 30.9467 68.8943C30.2675 69.5075 29.8583 70.3642 29.8083 71.2776C29.5545 73.4762 30.884 75.5299 32.1289 77.2211C33.3738 78.9124 35.0658 80.2292 37.2897 79.7339C37.3696 79.7011 37.4396 79.6481 37.4927 79.58C37.5458 79.5119 37.5801 79.4311 37.5923 79.3456C37.6045 79.2602 37.5942 79.173 37.5623 79.0928C37.5304 79.0126 37.4781 78.942 37.4106 78.8882Z" fill="#DA8966"/>
</g>
<g style="mix-blend-mode:multiply" opacity="0.44">
<path d="M130.789 71.0718C130.68 69.4168 129.302 67.9309 127.55 68.6557C126.341 69.1269 124.468 71.4101 125.761 72.5939C125.795 72.624 125.834 72.6464 125.877 72.6598C125.92 72.6732 125.966 72.6771 126.011 72.6714C126.055 72.6657 126.098 72.6504 126.137 72.6266C126.175 72.6028 126.208 72.5711 126.232 72.5335C126.885 71.6758 126.958 70.2624 128.215 69.9362C129.931 69.5014 129.423 72.3523 129.182 73.2342C128.989 74.2604 128.577 75.233 127.973 76.0852C127.235 76.8646 126.324 77.4603 125.314 77.8247C125.266 77.8528 125.226 77.8914 125.195 77.9375C125.165 77.9837 125.146 78.0361 125.139 78.0909C125.132 78.1457 125.137 78.2013 125.155 78.2536C125.173 78.3059 125.202 78.3534 125.241 78.3925C126.607 79.8905 128.601 77.8852 129.363 76.6771C130.378 74.989 130.874 73.0396 130.789 71.0718Z" fill="#DA8966"/>
</g>
<path d="M58.7797 57.6862C57.8611 56.7077 56.0361 57.0701 54.8516 57.2392C53.503 57.4526 52.1922 57.8595 50.9598 58.4473C49.7623 58.999 48.6378 59.6969 47.6119 60.5251C46.7296 61.2257 45.1946 62.5183 45.6177 63.7868C45.6709 63.9614 45.7777 64.1149 45.9231 64.2255C46.0684 64.3361 46.2449 64.3981 46.4275 64.4029C47.5031 64.5237 48.5909 63.1949 49.3765 62.615C50.2689 61.9388 51.2386 61.3711 52.2651 60.9237C53.2606 60.5135 54.2925 60.198 55.3472 59.9815C56.447 59.7399 57.9215 59.9815 58.7797 59.1238C58.9628 58.9364 59.0653 58.685 59.0653 58.4231C59.0653 58.1612 58.9628 57.9097 58.7797 57.7224V57.6862Z" fill="#5F130F"/>
<path d="M92.1272 91.8741C91.5056 94.2893 90.3721 96.5428 88.8035 98.4821C87.7071 99.8079 86.3291 100.873 84.7695 101.6C83.2099 102.327 81.5079 102.698 79.787 102.686C77.8615 102.78 75.9442 102.376 74.2207 101.512C72.4973 100.649 71.0258 99.3554 69.9488 97.7573C68.6594 95.8944 67.7139 93.8161 67.1568 91.6204C67.0731 91.3182 67.1032 90.9959 67.2414 90.7144C67.3753 90.4044 67.6222 90.1569 67.932 90.0223C68.2418 89.8877 68.5912 89.876 68.9093 89.9896L69.3445 90.1345C76.1613 92.3331 83.4974 92.3331 90.3142 90.1345C90.4629 90.0879 90.6177 90.0635 90.7735 90.062C91.0782 90.0616 91.3752 90.157 91.6226 90.3349C91.8699 90.5127 92.0549 90.7638 92.1514 91.0526C92.2271 91.3225 92.2187 91.6091 92.1272 91.8741Z" fill="#831532"/>
<path d="M92.1027 91.0174C88.4756 93.6467 84.1332 95.109 79.6538 95.2093C75.1431 95.0404 70.7985 93.4648 67.229 90.7034C67.3652 90.3927 67.615 90.1459 67.9273 90.0133C68.2397 89.8808 68.5909 89.8727 68.909 89.9906L69.3441 90.1356C76.161 92.3341 83.497 92.3341 90.3139 90.1356C90.4626 90.089 90.6173 90.0645 90.7732 90.0631C91.0652 90.0699 91.3483 90.1646 91.5855 90.3349C91.8227 90.5052 92.003 90.7431 92.1027 91.0174Z" fill="white"/>
<path d="M88.8015 98.4819C87.7051 99.8077 86.3271 100.873 84.7675 101.6C83.2079 102.327 81.5059 102.698 79.7851 102.686C77.8595 102.78 75.9422 102.375 74.2188 101.512C72.4953 100.649 71.0238 99.3552 69.9468 97.757C76.1772 96.2457 82.7055 96.4966 88.8015 98.4819Z" fill="#FF6551"/>
<path d="M61.2619 87.7811C61.7468 85.7636 59.083 83.3939 55.3121 82.4884C51.5412 81.5828 48.0911 82.4842 47.6062 84.5017C47.1212 86.5193 49.785 88.8889 53.5559 89.7945C57.3268 90.7 60.7769 89.7986 61.2619 87.7811Z" fill="#F2786B"/>
<path d="M106.416 89.9291C110.257 89.3882 113.135 87.2842 112.845 85.2295C112.556 83.1749 109.208 81.9477 105.368 82.4885C101.527 83.0294 98.6489 85.1334 98.9385 87.188C99.2281 89.2427 102.576 90.4699 106.416 89.9291Z" fill="#F2786B"/>
<g style="mix-blend-mode:multiply" opacity="0.21">
<g style="mix-blend-mode:multiply" opacity="0.21">
<path d="M79.0958 81.3042C77.8285 81.3408 76.5872 81.6717 75.4699 82.2706C75.384 82.313 75.3062 82.3702 75.2403 82.4398C75.0227 82.7297 75.3732 83.1042 75.6996 83.2733C77.8209 84.2025 80.2055 84.3396 82.4196 83.6599C82.9664 83.578 83.4805 83.3482 83.9062 82.9954C84.1479 82.7538 84.2929 82.3189 84.0512 82.0894C83.9339 82.0016 83.797 81.9436 83.6524 81.9203C81.5719 81.4854 79.4238 81.4854 77.3433 81.9203L79.0958 81.3042Z" fill="#DA8966"/>
</g>
</g>
<path d="M75.3386 82.7413C75.9066 82.5359 76.378 82.1494 76.9702 81.9681C77.6628 81.7794 78.3802 81.6979 79.0974 81.7265C79.7761 81.7082 80.4551 81.7445 81.1279 81.8353C81.8104 81.9567 82.4438 82.2711 82.953 82.7413C83.521 83.2245 84.4637 82.6205 84.0407 81.9078C83.1101 80.3373 80.8016 80.3252 79.2062 80.3494C77.8525 80.3494 75.1935 80.5185 74.8188 82.2218C74.8188 82.5118 75.0122 82.8621 75.3386 82.7413Z" fill="#D88261"/>
<path d="M94.3752 77.3178C93.6226 76.5189 93.0583 75.5618 92.7237 74.5167C92.3891 73.4716 92.2927 72.3649 92.4414 71.2776C92.7552 69.0929 93.9031 67.1144 95.6443 65.7569C97.3453 64.3903 99.5163 63.748 101.687 63.969C102.772 64.0977 103.81 64.4826 104.715 65.0918C105.621 65.701 106.369 66.517 106.897 67.4723C107.191 68.0805 107.426 68.7157 107.598 69.3689C107.974 70.5917 108.09 71.8799 107.936 73.1501C107.497 75.1082 106.342 76.8317 104.697 77.9823C103.498 78.9822 102.003 79.5596 100.443 79.6252C98.7894 79.4679 97.202 78.8989 95.8256 77.9702C94.8199 77.5494 94.0148 76.7577 93.5775 75.7595L94.3752 77.3178Z" fill="white"/>
<path d="M66.72 77.1119C67.1883 76.1202 67.4311 75.0373 67.4311 73.9408C67.4311 72.8442 67.1883 71.7613 66.72 70.7697C65.7603 68.7783 64.0733 67.2305 62.0063 66.4449C59.9514 65.6507 57.6654 65.7029 55.6489 66.5898C54.6578 67.0438 53.7883 67.7261 53.1119 68.5807C52.4354 69.4354 51.9711 70.438 51.7571 71.5066C51.6524 72.1777 51.6199 72.8581 51.6604 73.5361C51.6576 74.841 51.938 76.1311 52.4823 77.3172C53.4909 79.0552 55.1179 80.3493 57.0388 80.9414C58.486 81.5314 60.0872 81.629 61.5954 81.2192C63.1233 80.5737 64.4624 79.5512 65.4872 78.2474C66.3246 77.5455 66.8539 76.5439 66.9617 75.4568L66.72 77.1119Z" fill="white"/>
<path d="M107.078 73.8501C106.978 72.581 106.518 71.3667 105.752 70.3501C104.985 69.3335 103.944 68.5569 102.751 68.1119C99.4512 67.0368 95.1847 68.6797 94.1091 71.9173C93.9079 72.259 93.7496 72.6241 93.6377 73.0045C91.9094 78.6702 99.004 81.05 103.307 79.395C104.463 79.0214 105.461 78.2734 106.144 77.2692C106.827 76.265 107.155 75.0619 107.078 73.8501Z" fill="#2D2D2D"/>
<path d="M65.053 71.6514L64.7629 71.2769C63.9414 70.4931 62.9301 69.9361 61.8283 69.6608C60.7265 69.3855 59.5719 69.4012 58.478 69.7065C57.3194 69.9517 56.2525 70.5161 55.3981 71.3359C54.5437 72.1558 53.9359 73.1982 53.6435 74.3454C53.0996 76.7614 53.5589 79.552 55.8795 80.9171C59.7471 83.2124 67.1681 80.7238 67.0714 75.6259C67.0554 74.8544 66.8657 74.0964 66.5162 73.4083C66.1668 72.7202 65.6666 72.1197 65.053 71.6514Z" fill="#2D2D2D"/>
<path d="M96.6224 75.4332C96.5189 75.7077 96.4729 76.0006 96.4875 76.2936C96.5021 76.5867 96.5768 76.8736 96.7071 77.1365C96.7834 77.5768 97.0188 77.9738 97.3685 78.2522C97.7183 78.5305 98.1582 78.6709 98.6046 78.6466C99.1413 78.6229 99.6549 78.4213 100.064 78.0735C100.473 77.7256 100.755 77.2514 100.865 76.7258C101.36 74.2251 97.5652 72.9808 96.6224 75.4332Z" fill="white"/>
<path d="M64.0724 76.0375C64.2576 76.267 64.3922 76.5332 64.4672 76.8184C64.5422 77.1037 64.5559 77.4015 64.5075 77.6925C64.5712 78.1446 64.4641 78.6042 64.2072 78.9817C63.9502 79.3592 63.5617 79.6274 63.1176 79.7341C62.591 79.8707 62.0336 79.8257 61.5358 79.6065C61.0379 79.3873 60.6285 79.0066 60.374 78.526C59.1412 76.3274 62.3803 73.9959 64.0724 76.0375Z" fill="white"/>
<path d="M35.2827 60.9492L29.9889 49.5332C29.9889 49.5332 -0.770815 55.1748 0.0147964 99.0629C2.09611 100.097 4.25383 100.969 6.4689 101.672C6.2495 97.8515 7.024 94.0392 8.71696 90.6066C9.08737 94.7187 9.76611 98.7972 10.7475 102.808C13.369 103.42 16.0455 103.768 18.7365 103.847C18.0639 99.4486 18.1743 94.9663 19.0629 90.6066C20.0449 95.0342 21.3538 99.3829 22.9788 103.617C25.3816 103.361 27.7323 102.746 29.9526 101.793C29.9526 101.793 23.3535 75.7839 35.2827 60.9492Z" fill="#672410"/>
<path d="M129.665 44.2534L125.157 58.9674C128.8 64.6434 130.663 71.2783 130.506 78.0201C130.349 84.762 128.179 91.303 124.275 96.8032C123.788 97.6521 123.348 98.5272 122.958 99.4246C122.728 99.8595 122.498 100.282 122.244 100.717C124.675 102.393 127.327 103.722 130.125 104.668C131.999 101.109 133.327 97.2893 134.065 93.3361C134.065 93.3361 134.911 100.427 133.388 105.622C136.474 106.379 139.662 106.623 142.827 106.347C144.96 102.675 146.26 98.5799 146.635 94.3509C147.109 98.0839 147.25 101.852 147.058 105.61C149.213 105.054 151.295 104.243 153.258 103.194C153.258 103.194 174.469 53.5312 129.665 44.2534Z" fill="#672410"/>
<path d="M7.04922 82.7415H6.98878C6.83837 82.7356 6.69073 82.6992 6.55481 82.6345C6.4189 82.5698 6.29754 82.4782 6.19809 82.3652C6.09864 82.2523 6.02318 82.1203 5.97627 81.9774C5.92936 81.8344 5.91198 81.6834 5.92519 81.5335C6.50533 70.5887 14.5186 60.4049 22.278 55.2465C22.5249 55.0802 22.8277 55.0186 23.1201 55.0752C23.4124 55.1318 23.6703 55.3021 23.8371 55.5485C24.0042 55.7972 24.0661 56.1018 24.0096 56.396C23.953 56.6901 23.7824 56.95 23.535 57.119C16.5128 61.8424 8.70504 71.543 8.17324 81.6785C8.15777 81.9658 8.03254 82.2363 7.8234 82.4341C7.61426 82.6319 7.33715 82.742 7.04922 82.7415Z" fill="#772F1E"/>
<path d="M14.3489 90.2915C14.0528 90.2915 13.7687 90.1748 13.5583 89.9667C13.3478 89.7586 13.228 89.476 13.2248 89.1801C13.0314 76.1091 16.5486 66.5656 24.6102 58.4354C24.8201 58.2224 25.1062 58.1014 25.4053 58.0992C25.7045 58.0969 25.9924 58.2135 26.2055 58.4234C26.4187 58.6332 26.5397 58.9191 26.542 59.2182C26.5443 59.5172 26.4276 59.8049 26.2176 60.018C18.6153 67.689 15.3399 76.6769 15.4729 89.1559C15.4745 89.3035 15.447 89.4499 15.392 89.5868C15.3369 89.7237 15.2555 89.8485 15.1522 89.9539C15.049 90.0593 14.926 90.1434 14.7902 90.2014C14.6544 90.2593 14.5086 90.2899 14.3609 90.2915H14.3489Z" fill="#772F1E"/>
<path d="M23.886 91.8869C23.616 91.8841 23.3558 91.7854 23.1521 91.6083C22.9483 91.4312 22.8143 91.1873 22.7741 90.9204C20.2118 72.9931 27.8866 63.9811 28.213 63.6066C28.3067 63.4858 28.4242 63.3854 28.5582 63.3116C28.6922 63.2377 28.8398 63.192 28.9921 63.1772C29.1444 63.1623 29.2981 63.1788 29.4438 63.2254C29.5895 63.272 29.7241 63.3479 29.8395 63.4484C29.9548 63.5488 30.0484 63.6718 30.1146 63.8097C30.1807 63.9475 30.218 64.0975 30.2241 64.2503C30.2303 64.4031 30.2051 64.5555 30.1503 64.6983C30.0954 64.841 30.012 64.9711 29.905 65.0804C29.8204 65.1892 22.6532 73.7904 25.0101 90.5943C25.0516 90.8904 24.9747 91.1909 24.7959 91.4306C24.6172 91.6704 24.351 91.83 24.0553 91.8748L23.886 91.8869Z" fill="#772F1E"/>
<path d="M137.244 89.1311H137.063C136.916 89.1091 136.775 89.058 136.648 88.9807C136.521 88.9034 136.411 88.8015 136.324 88.6811C136.238 88.5606 136.176 88.4239 136.143 88.2792C136.11 88.1345 136.106 87.9846 136.132 87.8385C136.918 83.0063 138.066 71.0346 131.648 65.1998C131.538 65.1002 131.448 64.9798 131.385 64.8456C131.322 64.7113 131.286 64.5659 131.279 64.4176C131.272 64.2693 131.295 64.1212 131.346 63.9817C131.397 63.8423 131.475 63.7143 131.575 63.6052C131.674 63.4955 131.793 63.4065 131.927 63.3433C132.06 63.2802 132.204 63.2442 132.352 63.2375C132.499 63.2307 132.646 63.2534 132.785 63.3041C132.923 63.3547 133.05 63.4325 133.159 63.5327C140.132 69.8749 139.407 81.7137 138.356 88.2009C138.308 88.4611 138.171 88.6965 137.968 88.8663C137.765 89.0362 137.509 89.1298 137.244 89.1311Z" fill="#772F1E"/>
<path d="M144.494 93.3599H144.3C144.154 93.335 144.014 93.2815 143.889 93.2024C143.763 93.1233 143.655 93.0201 143.569 92.8988C143.484 92.7775 143.423 92.6405 143.391 92.4957C143.359 92.3509 143.356 92.2012 143.382 92.0552C145.968 77.4741 143.285 66.493 134.921 57.5052C134.816 57.4008 134.733 57.2766 134.676 57.1397C134.619 57.0029 134.589 56.8561 134.589 56.7079C134.589 56.5597 134.619 56.4129 134.676 56.2761C134.733 56.1392 134.816 56.015 134.921 55.9106C135.149 55.7251 135.437 55.6289 135.731 55.64C136.024 55.6511 136.304 55.7688 136.517 55.971C145.388 65.5266 148.253 77.1117 145.545 92.4538C145.495 92.6998 145.364 92.9221 145.174 93.086C144.984 93.25 144.745 93.3463 144.494 93.3599Z" fill="#772F1E"/>
<path d="M152.653 88.0338H152.52C152.229 88.0033 151.961 87.8593 151.776 87.6332C151.59 87.4071 151.502 87.117 151.529 86.8258C152.737 75.6152 149.595 56.3711 135.744 52.4691C135.457 52.3874 135.214 52.1951 135.069 51.9346C134.924 51.6741 134.889 51.3666 134.97 51.0798C135.052 50.7931 135.244 50.5505 135.505 50.4056C135.766 50.2606 136.073 50.225 136.36 50.3067C151.541 54.5832 155.094 75.1319 153.765 87.0795C153.726 87.3462 153.593 87.5901 153.388 87.7656C153.184 87.9412 152.922 88.0365 152.653 88.0338Z" fill="#772F1E"/>
<path d="M32.1882 72.073C31.7952 72.0746 31.4073 71.9841 31.0556 71.8087C30.704 71.6333 30.3983 71.378 30.1633 71.0631C29.9282 70.7483 29.7703 70.3828 29.7022 69.9959C29.634 69.609 29.6576 69.2116 29.771 68.8355C29.2399 69.1952 28.5937 69.3438 27.9587 69.2522C27.3238 69.1606 26.746 68.8353 26.3385 68.3402C25.9559 67.828 25.6941 67.2359 25.5727 66.6084C25.4513 65.9808 25.4734 65.3339 25.6374 64.716C25.9889 63.4819 26.5269 62.3086 27.2328 61.2369C25.2386 61.4302 22.8818 61.4785 21.6369 59.908C20.392 58.3376 21.2501 55.5712 22.9785 54.1578C21.7416 53.841 20.6268 53.1641 19.7756 52.2128C18.2648 50.2679 19.558 46.7162 21.5523 45.5928C24.8397 43.7686 29.8435 46.1364 31.7894 48.9753C32.5179 50.1295 33.1062 51.3664 33.5419 52.6598C34.9197 56.2839 37.059 61.0074 36.3822 65.006C35.9713 67.1684 34.9077 71.8918 32.1882 72.073Z" fill="#FF6551"/>
<path d="M140.106 46.5846C140.257 47.1835 140.287 47.8061 140.197 48.4168C140.106 49.0275 139.896 49.6144 139.578 50.144C139.261 50.6735 138.842 51.1353 138.345 51.5029C137.849 51.8705 137.285 52.1368 136.686 52.2865C137.484 53.567 139.103 54.2798 139.635 55.6811C139.85 56.4484 139.812 57.2646 139.527 58.0087C139.242 58.7528 138.725 59.3854 138.052 59.8126C136.692 60.6449 135.165 61.1648 133.58 61.3347C134.154 63.2447 134.403 65.2375 134.317 67.23C134.272 68.2284 134.004 69.2042 133.534 70.0861C133.063 70.9681 132.402 71.7339 131.598 72.3279C130.775 72.895 129.776 73.1505 128.782 73.0487C127.787 72.9468 126.862 72.4943 126.171 71.7722C125.455 70.746 125.037 69.5419 124.962 68.2931C124.321 64.9506 124.154 61.5345 124.467 58.1455C124.719 56.5346 125.086 54.9439 125.567 53.3858C126.558 49.7617 127.899 46.7416 131.295 44.99C134.257 43.492 138.801 42.2839 140.106 46.5846Z" fill="#FF6551"/>
<path d="M102.362 19.3313C102.362 19.3313 98.6513 -0.26309 77.7057 0.00267933C68.8999 0.169046 60.241 2.28844 52.3546 6.20774C44.4683 10.127 37.5515 15.7483 32.1039 22.6655C23.0996 33.9245 21.5042 59.6195 37.9416 73.1375C37.9416 73.1375 41.3862 57.6866 46.1603 50.7041C46.1603 50.7041 73.9589 64.1496 99.1831 42.2479C99.1831 42.2841 106.072 31.5446 102.362 19.3313Z" fill="#672410"/>
<path d="M97.9132 31.0727C97.9132 31.0727 97.1155 43.5518 105.334 51.0537C113.553 58.5556 119.91 59.3529 119.91 59.3529C119.91 59.3529 124.419 71.5662 121.24 80.5661C125.829 76.0666 129.353 70.5986 131.555 64.5622C133.757 58.5258 134.581 52.0737 133.967 45.6779C132.105 23.3171 118.254 14.0514 97.889 14.2689L97.9132 31.0727Z" fill="#672410"/>
<path d="M37.3862 71.9176C37.1472 71.9176 36.9143 71.8415 36.7215 71.7002C29.0104 66.119 27.3667 53.942 29.1554 44.3622C29.2194 44.0748 29.3925 43.8235 29.6383 43.6612C29.8841 43.4989 30.1833 43.4384 30.4729 43.4924C30.6211 43.5116 30.764 43.5602 30.8932 43.6353C31.0224 43.7104 31.1353 43.8105 31.2253 43.9298C31.3154 44.049 31.3807 44.185 31.4175 44.3298C31.4543 44.4745 31.4619 44.6252 31.4398 44.7729C29.8323 53.3742 31.2222 64.8989 38.0993 69.876C38.3425 70.0526 38.5057 70.3183 38.5532 70.6149C38.6008 70.9115 38.5289 71.2149 38.3531 71.4586C38.2429 71.6094 38.0967 71.7304 37.9279 71.8105C37.759 71.8907 37.5729 71.9275 37.3862 71.9176Z" fill="#772F1E"/>
<path d="M36.9258 66.8916C36.6666 66.8887 36.4161 66.7972 36.216 66.6324C36.016 66.4676 35.8783 66.2393 35.8259 65.9856C33.0823 52.8058 33.88 33.3685 45.1687 22.0733C48.1057 19.1257 51.7557 15.4653 56.5177 14.3297C56.6614 14.2956 56.8103 14.2901 56.9561 14.3136C57.1019 14.337 57.2416 14.3889 57.3673 14.4663C57.493 14.5437 57.6022 14.6451 57.6887 14.7647C57.7752 14.8843 57.8373 15.0197 57.8714 15.1633C57.9055 15.3069 57.911 15.4557 57.8876 15.6014C57.8641 15.7471 57.8122 15.8868 57.7348 16.0124C57.6573 16.1381 57.5559 16.2472 57.4363 16.3337C57.3166 16.4201 57.1811 16.4822 57.0375 16.5163C52.9039 17.5069 49.4956 20.9136 46.7641 23.6558C36.1039 34.347 35.4029 52.8904 38.0377 65.5265C38.0988 65.8195 38.0416 66.1248 37.8786 66.3759C37.7157 66.627 37.4601 66.8037 37.1675 66.8674L36.9258 66.8916Z" fill="#772F1E"/>
<path d="M41.6032 58.1576H41.3494C41.0631 58.073 40.8183 57.8855 40.6621 57.6312C40.5059 57.3769 40.4493 57.0738 40.5034 56.7804C42.5822 48.0946 47.586 40.6047 51.6228 37.041C56.8486 32.2782 63.4065 29.2264 70.417 28.2948C70.7077 28.2709 70.9963 28.3609 71.2218 28.5457C71.4473 28.7306 71.5922 28.9958 71.6257 29.2854C71.6527 29.5766 71.5638 29.8667 71.3783 30.0928C71.1928 30.319 70.9256 30.4629 70.6346 30.4934C64.1001 31.3783 57.9886 34.2261 53.1094 38.6598C49.3385 41.994 44.649 49.0368 42.7031 57.2515C42.6507 57.5053 42.513 57.7336 42.313 57.8984C42.1129 58.0632 41.8625 58.1546 41.6032 58.1576Z" fill="#772F1E"/>
<path d="M50.632 50.1004C50.4522 50.1019 50.2747 50.0599 50.1147 49.9778C49.9547 49.8957 49.817 49.7761 49.7135 49.6292C49.6268 49.5095 49.5646 49.3739 49.5304 49.2301C49.4963 49.0863 49.4908 48.9372 49.5144 48.7914C49.538 48.6455 49.5901 48.5057 49.6678 48.38C49.7455 48.2543 49.8473 48.1451 49.9673 48.0588C55.2761 44.2494 61.2537 41.471 67.5891 39.8682C67.7328 39.8318 67.8822 39.8239 68.0289 39.8451C68.1756 39.8664 68.3166 39.9163 68.444 39.992C68.5714 40.0677 68.6826 40.1678 68.7713 40.2864C68.86 40.4051 68.9244 40.5401 68.9609 40.6837C68.9974 40.8272 69.0053 40.9766 68.9841 41.1232C68.9628 41.2698 68.9129 41.4108 68.8371 41.5381C68.7614 41.6654 68.6613 41.7766 68.5425 41.8653C68.4238 41.9539 68.2888 42.0183 68.1451 42.0548C62.0844 43.5805 56.3649 46.232 51.2847 49.8708C51.0979 50.0163 50.8688 50.0969 50.632 50.1004Z" fill="#772F1E"/>
<path d="M61.2915 50.5228C61.0036 50.5232 60.7265 50.4132 60.5173 50.2154C60.3082 50.0176 60.183 49.7471 60.1675 49.4597C60.1577 49.3105 60.1774 49.1609 60.2256 49.0193C60.2738 48.8778 60.3494 48.7471 60.4483 48.6349C60.5471 48.5226 60.6671 48.431 60.8014 48.3653C60.9358 48.2995 61.0818 48.2609 61.2311 48.2517C65.4044 48.1148 69.5578 47.6136 73.6438 46.7537C78.8288 45.5148 83.6662 43.1195 87.7937 39.7471C91.9213 36.3747 95.232 32.1126 97.478 27.2801C97.603 27.0094 97.8305 26.7994 98.1104 26.6963C98.3904 26.5932 98.6998 26.6055 98.9707 26.7304C99.2415 26.8554 99.4516 27.0828 99.5548 27.3626C99.6579 27.6423 99.6456 27.9516 99.5206 28.2224C97.1337 33.3711 93.6094 37.9117 89.2131 41.5024C84.8168 45.093 79.6629 47.6403 74.1393 48.9523C69.9268 49.8458 65.6438 50.3672 61.3399 50.5107L61.2915 50.5228Z" fill="#772F1E"/>
<path d="M122.402 62.1211C122.186 62.1225 121.974 62.0616 121.792 61.946C121.61 61.8303 121.465 61.6646 121.374 61.4688C119.779 57.9896 117.446 56.3709 114.497 54.3655C113.651 53.7856 112.757 53.1575 111.85 52.5172C109.433 50.7535 106.617 47.8542 106.484 44.0609C106.478 43.9094 106.501 43.7582 106.553 43.6158C106.605 43.4734 106.685 43.3426 106.788 43.231C106.891 43.1194 107.014 43.0291 107.152 42.9652C107.289 42.9014 107.438 42.8653 107.59 42.8589C107.741 42.8526 107.893 42.8761 108.035 42.9282C108.178 42.9804 108.308 43.06 108.42 43.1627C108.532 43.2653 108.622 43.3889 108.686 43.5265C108.75 43.664 108.786 43.8128 108.792 43.9643C108.901 46.8877 111.21 49.2555 113.252 50.7172C114.135 51.3696 114.993 51.9253 115.827 52.5172C118.812 54.5346 121.628 56.4433 123.489 60.5386C123.55 60.6734 123.583 60.8188 123.587 60.9665C123.592 61.1142 123.567 61.2613 123.514 61.3993C123.461 61.5373 123.382 61.6636 123.28 61.7709C123.178 61.8782 123.056 61.9643 122.921 62.0245C122.76 62.102 122.58 62.1353 122.402 62.1211Z" fill="#772F1E"/>
<path d="M126.922 72.9198H126.717C126.423 72.8668 126.163 72.6997 125.993 72.455C125.823 72.2103 125.757 71.9082 125.81 71.6151C127.43 62.4581 126.269 50.112 118.184 42.9C117.962 42.6988 117.829 42.4186 117.814 42.12C117.798 41.8215 117.9 41.5287 118.099 41.3053C118.295 41.0851 118.569 40.9503 118.862 40.9299C119.156 40.9096 119.446 41.0054 119.67 41.1966C128.445 49.0126 129.738 62.2286 128.01 71.9896C127.965 72.2468 127.832 72.4804 127.633 72.6501C127.435 72.8199 127.183 72.9152 126.922 72.9198Z" fill="#772F1E"/>
<g style="mix-blend-mode:screen" opacity="0.27">
<path d="M133.906 45.6786C132.142 24.3688 119.487 14.9581 100.645 14.342C98.0219 8.55551 91.7249 -0.154463 77.6806 0.00258263C68.8789 0.172504 60.2247 2.29361 52.3428 6.21277C44.461 10.1319 37.548 15.7514 32.103 22.6654C24.2711 32.4506 22.0472 53.1684 32.4173 67.2904C29.3232 58.5321 28.175 48.602 30.7615 39.8679C34.3874 27.7875 43.863 17.6762 55.1154 12.2763C67.5039 6.33271 82.4668 9.24409 92.9335 17.9661C92.3482 14.9389 91.2224 12.0417 89.6098 9.41322C93.4517 12.7433 96.4853 16.9032 98.4812 21.5782L99.9315 17.5312C100.246 18.7393 100.548 19.8748 100.85 21.0466C105.583 20.1055 110.473 20.3084 115.112 21.6386L106.277 24.562C110.169 23.2815 116.502 25.4198 119.693 27.5097C123.69 30.3355 126.928 34.1031 129.12 38.4787C131.376 42.577 133.029 46.9794 134.027 51.5497C134.105 49.592 134.065 47.6314 133.906 45.6786Z" fill="#772F1E"/>
</g>
<path d="M13.9715 129.986C13.9715 129.986 22.2869 125.794 20.1597 113.593C20.1597 113.593 62.5344 121.856 78.1741 142.49C78.1741 142.49 101.67 125.577 140.697 118.16C140.697 118.16 140.056 128.476 146.462 132.994L83.8547 168.74L13.9715 129.986Z" fill="#FFEBDD"/>
<g style="mix-blend-mode:multiply" opacity="0.41">
<path d="M60.8425 155.973L118.966 148.725L146.426 133.02C144.204 131.349 142.58 129.007 141.797 126.34L91.3605 139.882C91.3605 139.882 85.8491 145.282 79.3587 145.693C77.6151 145.89 75.8522 145.565 74.294 144.758C72.7359 143.951 71.4529 142.7 70.6082 141.163L18.2382 125.784C17.1823 127.514 15.7171 128.958 13.9717 129.988L60.8425 155.973Z" fill="#E79E82"/>
</g>
<g style="mix-blend-mode:multiply" opacity="0.41">
<g style="mix-blend-mode:multiply" opacity="0.41">
<path d="M59.5508 134.759C59.5508 134.759 37.6625 123.886 20.379 119.622C20.2641 120.599 20.0536 121.562 19.7505 122.497C33.2867 125.653 46.5858 129.751 59.5508 134.759Z" fill="#E79E82"/>
</g>
<g style="mix-blend-mode:multiply" opacity="0.41">
<path d="M108.028 132.487C108.028 132.487 128.769 126.447 141.278 124.429C141.036 123.404 140.866 122.362 140.77 121.312C133.277 123.499 117.25 128.367 108.028 132.487Z" fill="#E79E82"/>
</g>
<g style="mix-blend-mode:multiply" opacity="0.41">
<path d="M140.663 118.161C101.636 125.639 78.14 142.551 78.14 142.551C62.5366 121.857 20.1619 113.558 20.1619 113.558C20.3069 114.404 20.3915 115.201 20.452 115.974C29.553 117.545 58.9469 123.947 78.4664 143.687C78.4664 143.687 108.465 124.6 140.675 119.719C140.626 118.777 140.663 118.161 140.663 118.161Z" fill="#E79E82"/>
</g>
</g>
<path d="M8.60645 129.987L11.0237 126.834L69.0743 142.672C69.0743 142.672 71.9872 147.564 79.8312 147.564C85.0041 147.564 91.1077 142.491 91.1077 142.491L148.349 126.786L150.198 129.939L86.0677 161.976L8.60645 129.987Z" fill="#B695F7"/>
<path d="M19.099 187.828L8.62012 129.987L68.2903 146.851L73.1249 204.354L19.099 187.828Z" fill="#864FF1"/>
<path d="M89.8994 146.851L150.198 129.987L141.375 189.531L91.3619 203.037L89.8994 146.851Z" fill="#864FF1"/>
<path d="M68.2866 146.852C71.4408 149.099 75.218 150.307 79.0918 150.307C82.9656 150.307 86.7428 149.099 89.897 146.852L91.3594 203.038C91.3594 203.038 83.8538 213.064 73.1212 204.354L68.2866 146.852Z" fill="#864FF1"/>
<path d="M68.2866 146.852C71.4408 149.099 75.218 150.307 79.0918 150.307C82.9656 150.307 86.7428 149.099 89.897 146.852L91.3594 203.038C91.3594 203.038 90.1508 207.556 82.4639 207.87C79.7928 207.991 76.6383 207.181 73.1212 204.33L68.2866 146.852Z" fill="#864FF1"/>
<g style="mix-blend-mode:multiply" opacity="0.37">
<path d="M68.2866 146.852C71.4408 149.099 75.218 150.307 79.0918 150.307C82.9656 150.307 86.7428 149.099 89.897 146.852L91.3594 203.038C91.3594 203.038 90.1508 207.556 82.4639 207.87C79.7928 207.991 76.6383 207.181 73.1212 204.33L68.2866 146.852Z" fill="#8E487A"/>
</g>
<g style="mix-blend-mode:multiply" opacity="0.13">
<path d="M19.0982 187.829L73.1241 204.355L69.4135 160.153C68.2049 168.307 66.0535 179.481 63.177 183.685C58.4392 190.499 46.1594 196.044 27.7157 182.828C23.2438 179.626 19.2553 174.77 15.7261 169.274L19.0982 187.829Z" fill="#8E487A"/>
</g>
<g style="mix-blend-mode:multiply" opacity="0.13">
<path d="M133.579 179.674C118.592 189.713 101.623 182.32 90.395 165.588L91.3619 203.038L141.424 189.532L145.049 165.081C142.245 170.988 138.547 176.376 133.579 179.674Z" fill="#8E487A"/>
</g>
<g style="mix-blend-mode:multiply" opacity="0.37">
<path d="M69.1118 156.528C69.1118 156.528 79.8445 162.218 90.1541 156.528L90.2992 161.977C90.2992 161.977 82.5639 168.44 69.559 161.977L69.1118 156.528Z" fill="#8E487A"/>
</g>
<g style="mix-blend-mode:multiply" opacity="0.37">
<path d="M72.1445 192.733C75.0863 194.204 78.3307 194.97 81.6202 194.97C84.9098 194.97 88.1541 194.204 91.0959 192.733L91.253 198.773C88.4724 200.532 85.2493 201.466 81.9586 201.466C78.6679 201.466 75.4449 200.532 72.6642 198.773L72.1445 192.733Z" fill="#8E487A"/>
</g>
<path d="M149.451 148.471C149.451 148.471 146.551 145.391 144.544 145.717C142.538 146.043 144.617 149.1 146.49 150.67C146.49 150.67 139.081 148.737 138.779 150.344C138.477 151.951 145.04 154.33 145.04 154.33C145.04 154.33 138.018 153.533 138.525 155.418C139.033 157.302 144.943 158.075 144.943 158.075C144.943 158.075 138.356 157.785 138.392 159.283C138.428 160.781 144.061 162.098 147.239 160.491C148.447 159.868 149.463 158.929 150.178 157.773C150.893 156.618 151.281 155.29 151.3 153.932C151.404 152.942 151.293 151.942 150.974 150.999C150.655 150.057 150.135 149.194 149.451 148.471Z" fill="#FFBF94"/>
<path d="M10.3855 148.471C10.3855 148.471 13.2863 145.391 15.2926 145.717C17.2989 146.043 15.2201 149.1 13.3467 150.67C13.3467 150.67 20.7556 148.737 21.0578 150.344C21.3599 151.951 14.797 154.33 14.797 154.33C14.797 154.33 21.8192 153.533 21.3116 155.418C20.804 157.302 14.8937 158.075 14.8937 158.075C14.8937 158.075 21.4808 157.785 21.4445 159.283C21.4083 160.781 15.776 162.098 12.5973 160.491C11.3896 159.868 10.3739 158.929 9.65868 157.773C8.94344 156.618 8.55552 155.29 8.53632 153.932C8.43229 152.942 8.54369 151.942 8.86288 150.999C9.18208 150.057 9.70151 149.194 10.3855 148.471Z" fill="#FFBF94"/>
</svg>
