<svg width="291" height="561" viewBox="0 0 291 561" fill="none" xmlns="http://www.w3.org/2000/svg">
<path d="M176.797 36.2259L104.479 38.6327C115.601 173.957 220.372 216.46 270.971 224.429L263.227 147.118C263.227 147.118 199.762 135.784 176.797 36.2259Z" fill="white"/>
<path d="M96.6041 271.873L122.721 249.122C77.6927 202.253 25.9564 218.142 4.76593 230.476L31.0066 256.833C31.0066 256.833 57.9899 241.858 96.6041 271.873Z" fill="white"/>
<path d="M185.907 522.268L180.056 556.407C244.575 564.253 274.614 519.234 283.234 496.28L246.24 492.449C246.24 492.449 234.801 521.11 185.907 522.268Z" fill="white"/>
<path d="M124.125 485.23L140.359 454.634C81.5294 427.004 38.9179 460.371 23.552 479.478L57.4926 494.686C57.4926 494.686 77.3214 471.039 124.125 485.23Z" fill="white"/>
<path d="M192.104 438.628L206.593 447.855C222.563 419.854 207.739 397.478 198.896 389.131L190.045 405.314C190.045 405.314 200.957 416.045 192.104 438.628Z" fill="white"/>
</svg>
