<svg width="239" height="528" viewBox="0 0 239 528" fill="none" xmlns="http://www.w3.org/2000/svg">
<path d="M80.7971 304.226L8.47863 306.633C19.6009 441.957 124.372 484.46 174.971 492.429L167.227 415.118C167.227 415.118 103.762 403.784 80.7971 304.226Z" fill="white"/>
<path d="M209.844 275.417L235.961 252.667C190.933 205.797 139.197 221.686 118.006 234.021L144.247 260.377C144.247 260.377 171.23 245.403 209.844 275.417Z" fill="white"/>
<path d="M157.217 50.6386L173.456 45.0377C161.474 15.1134 134.733 12.7937 122.696 14.5224L129.857 31.5212C129.857 31.5212 145.048 29.6564 157.217 50.6386Z" fill="white"/>
<path d="M35.9927 161.475L57.1663 188.886C106.605 146.695 93.7898 94.1132 82.7241 72.2333L54.8682 96.8768C54.8682 96.8768 68.2283 124.695 35.9927 161.475Z" fill="white"/>
</svg>
