<svg width="125" height="271" viewBox="0 0 125 271" fill="none" xmlns="http://www.w3.org/2000/svg">
<path d="M66.4193 135.842C14.3105 135.259 3.06486 110.224 0.397772 93.5206C-0.962474 84.9968 1.38926 78.2765 4.07375 71.3575C6.64967 64.7186 9.53089 57.8996 9.73194 49.1297C9.80257 46.0307 9.91429 42.3558 10.2803 38.4586C12.0207 19.8289 19.5279 -3.89064 55.8777 5.87136C55.8777 5.87136 62.6076 -2.18109 78.6006 0.574488C93.4153 3.12637 106.566 16.9405 109.714 38.0499C109.965 39.7272 110.151 41.4506 110.272 43.2203C111.415 60.1015 116.271 65.8704 120.219 74.4717C122.206 78.7543 123.608 83.2842 124.388 87.9398C127.74 107.12 118.528 136.425 66.4193 135.842Z" fill="#672410"/>
<g style="mix-blend-mode:multiply" opacity="0.28">
<path d="M66.4193 135.842C14.3105 135.259 3.06486 110.224 0.397772 93.5205C-0.962474 84.9967 1.38926 78.2764 4.07375 71.3574C4.05549 76.6537 5.57075 88.1026 18.3961 92.4848C35.3287 98.2703 37.6869 79.4544 62.3354 79.5637C86.9839 79.6713 89.0413 84.2269 104.124 86.5844C113.303 88.0199 117.971 80.5439 120.219 74.4715C122.206 78.7542 123.608 83.2841 124.388 87.9397C127.74 107.12 118.528 136.425 66.4193 135.842Z" fill="#772F1E"/>
</g>
<path d="M24.2759 121.971C23.4182 121.976 22.5609 121.933 21.7082 121.84C20.935 121.72 20.1691 121.557 19.414 121.352C17.8892 120.932 16.4348 120.288 15.0981 119.443C12.9329 118.13 11.1943 116.219 10.0924 113.94C9.1258 111.631 8.83424 109.095 9.2515 106.627C9.69612 104.091 10.3319 101.592 11.1535 99.1522C11.8713 96.7168 12.667 94.1429 12.4843 91.5729C12.484 91.4835 12.516 91.3971 12.5742 91.3293C12.6325 91.2615 12.7132 91.2168 12.8016 91.2035C12.89 91.1902 12.9803 91.2091 13.056 91.2567C13.1317 91.3044 13.1877 91.3776 13.2138 91.463C13.7041 94.0404 13.6522 96.6914 13.0614 99.2476C12.1414 103.597 10.089 108.609 12.244 112.911C13.2943 114.946 14.9308 116.621 16.9424 117.718C18.0928 118.353 19.2976 118.884 20.5425 119.306C21.2361 119.548 21.9374 119.758 22.6419 119.969C23.2583 120.154 23.8141 120.439 24.4384 120.614C25.1591 120.814 25.0547 122.009 24.2759 121.971Z" fill="#772F1E"/>
<path d="M113.09 84.7012C112.611 88.9625 111.187 93.0637 108.924 96.7069C107.109 99.6908 104.963 102.461 102.527 104.965C101.344 106.185 100.089 107.333 98.7702 108.405C98.0482 108.989 97.297 109.536 96.5193 110.043C95.8774 110.537 95.1596 110.924 94.3937 111.188C94.2614 111.22 94.1224 111.208 93.9972 111.155C93.8719 111.102 93.7669 111.01 93.6977 110.893C93.6285 110.776 93.5987 110.64 93.6128 110.505C93.6268 110.37 93.6838 110.243 93.7756 110.142C94.4424 109.425 95.1774 108.775 95.9702 108.2C96.7104 107.548 97.4737 106.92 98.2122 106.265C99.6247 105.013 100.969 103.686 102.24 102.291C106.414 97.7041 110.062 92.0312 111.154 85.7781C111.24 85.2812 111.31 84.7813 111.363 84.2783C111.79 80.8214 111.236 77.3143 109.765 74.1566C108.493 71.5789 106.23 68.7187 107.451 65.6911C107.557 65.431 107.892 65.6318 107.862 65.861C107.578 67.9934 108.739 69.7952 109.809 71.5154C110.871 73.1355 111.717 74.8871 112.325 76.7259C113.101 79.3085 113.361 82.0184 113.09 84.7012V84.7012Z" fill="#772F1E"/>
<path d="M104.122 86.5844C103.859 89.0655 102.831 91.4035 101.179 93.275C99.5708 94.941 97.7923 96.4341 95.8727 97.73C93.986 98.9946 92.3563 100.605 91.0701 102.476C89.6713 104.799 89.0917 107.522 89.424 110.213C89.4735 110.631 88.8892 110.643 88.7594 110.313C88.2176 108.932 87.9792 107.451 88.0604 105.97C88.1416 104.489 88.5405 103.042 89.2299 101.728C91.4362 97.4999 96.1033 95.6299 99.3391 92.4111C101.005 90.7591 102.113 88.6279 102.507 86.3157C102.534 86.1695 102.558 86.0216 102.579 85.8721C102.743 84.5221 102.79 83.1604 102.718 81.8024C102.675 80.4255 102.641 79.0104 102.504 77.6399C102.504 77.5624 102.531 77.4873 102.581 77.4283C102.632 77.3693 102.702 77.3304 102.778 77.3187C102.855 77.3069 102.933 77.3231 102.999 77.3643C103.065 77.4055 103.113 77.4689 103.136 77.543C103.53 79.0324 103.847 80.5411 104.086 82.063C104.283 83.563 104.295 85.0814 104.122 86.5844Z" fill="#772F1E"/>
<path d="M98.2858 83.757C98.1608 84.2907 97.9981 84.8148 97.7989 85.3254C97.0595 87.1458 95.9189 88.7763 94.4619 90.0955C92.3557 92.0815 89.8568 93.5576 87.6944 95.4731C85.8007 97.1544 84.0007 99.2703 83.5832 101.879C83.4296 102.96 83.5239 104.062 83.8589 105.102C84.1938 106.142 84.7607 107.092 85.5169 107.881C85.8241 108.21 85.5388 108.904 85.0527 108.719C82.773 107.851 81.6705 105.412 81.6465 103.025C81.7475 100.344 82.8404 97.7949 84.7137 95.872C86.7443 93.5954 89.3766 91.9946 91.8095 90.2129C93.8443 88.8626 95.6004 87.1342 96.9821 85.1216C97.2769 84.6419 97.5257 84.1355 97.7253 83.6092C97.7465 83.5366 97.7951 83.4752 97.861 83.4379C97.9268 83.4007 98.0046 83.3907 98.0777 83.41C98.1509 83.4293 98.2135 83.4764 98.2524 83.5412C98.2913 83.606 98.3032 83.6835 98.2858 83.757V83.757Z" fill="#772F1E"/>
<path d="M80.4895 95.9787C76.5033 98.4258 76.4191 104.146 78.6291 107.849C78.6771 107.932 78.6939 108.029 78.6765 108.123C78.6592 108.217 78.6088 108.302 78.5344 108.362C78.46 108.422 78.3665 108.454 78.2708 108.451C78.1751 108.449 78.0835 108.412 78.0124 108.348C77.0133 107.358 76.2532 106.154 75.7901 104.826C75.3636 103.506 75.3025 102.096 75.6131 100.744C75.8845 99.5345 76.4412 98.4071 77.2368 97.4558C78.0324 96.5045 79.0439 95.7569 80.187 95.2752C80.5949 95.0987 80.8463 95.7598 80.4895 95.9787Z" fill="#772F1E"/>
<path d="M120.909 99.1931C120.906 104.016 119.265 108.695 116.253 112.464C114.708 114.488 112.972 116.359 111.068 118.051C110.079 118.942 109.063 119.799 108.037 120.642C107.167 121.556 106.037 122.183 104.8 122.437C104.697 122.436 104.596 122.412 104.504 122.367C104.412 122.321 104.332 122.255 104.269 122.174C104.206 122.093 104.163 121.998 104.143 121.898C104.122 121.797 104.125 121.694 104.15 121.594C104.654 120.489 105.47 119.556 106.498 118.909C107.418 118.166 108.327 117.414 109.219 116.635C111.056 115.073 112.77 113.372 114.346 111.548C117.233 108.11 119.647 103.783 120.082 99.2049C120.082 99.0964 120.125 98.9924 120.201 98.9152C120.277 98.8381 120.381 98.794 120.489 98.7924C120.598 98.7909 120.703 98.832 120.781 98.907C120.86 98.9819 120.905 99.0847 120.909 99.1931V99.1931Z" fill="#772F1E"/>
<g style="mix-blend-mode:multiply" opacity="0.28">
<path d="M24.2759 121.971C23.4182 121.976 22.5609 121.933 21.7082 121.84C20.935 121.72 20.1691 121.557 19.414 121.352C17.8892 120.932 16.4348 120.288 15.0981 119.443C12.9329 118.13 11.1943 116.219 10.0924 113.94C9.1258 111.631 8.83424 109.095 9.2515 106.627C9.69612 104.091 10.3319 101.592 11.1535 99.1522C11.8713 96.7168 12.667 94.1429 12.4843 91.5729C12.484 91.4835 12.516 91.3971 12.5742 91.3293C12.6325 91.2615 12.7132 91.2168 12.8016 91.2035C12.89 91.1902 12.9803 91.2091 13.056 91.2567C13.1317 91.3044 13.1877 91.3776 13.2138 91.463C13.7041 94.0404 13.6522 96.6914 13.0614 99.2476C12.1414 103.597 10.089 108.609 12.244 112.911C13.2943 114.946 14.9308 116.621 16.9424 117.718C18.0928 118.353 19.2976 118.884 20.5425 119.306C21.2361 119.548 21.9374 119.758 22.6419 119.969C23.2583 120.154 23.8141 120.439 24.4384 120.614C25.1591 120.814 25.0547 122.009 24.2759 121.971Z" fill="#772F1E"/>
</g>
<g style="mix-blend-mode:multiply" opacity="0.28">
<path d="M80.4895 95.9787C76.5033 98.4258 76.4191 104.146 78.6291 107.849C78.6771 107.932 78.6939 108.029 78.6765 108.123C78.6592 108.217 78.6088 108.302 78.5344 108.362C78.46 108.422 78.3665 108.454 78.2708 108.451C78.1751 108.449 78.0835 108.412 78.0124 108.348C77.0133 107.358 76.2532 106.154 75.7901 104.826C75.3636 103.506 75.3025 102.096 75.6131 100.744C75.8845 99.5345 76.4412 98.4071 77.2368 97.4558C78.0324 96.5045 79.0439 95.7569 80.187 95.2752C80.5949 95.0987 80.8463 95.7598 80.4895 95.9787Z" fill="#772F1E"/>
</g>
<g style="mix-blend-mode:multiply" opacity="0.28">
<path d="M94.4619 90.0955C92.3557 92.0815 89.8568 93.5576 87.6944 95.4731C85.8007 97.1544 84.0007 99.2703 83.5832 101.879C83.4296 102.96 83.5239 104.062 83.8589 105.102C84.1938 106.142 84.7607 107.092 85.5169 107.881C85.8241 108.21 85.5388 108.904 85.0527 108.719C82.773 107.851 81.6705 105.412 81.6465 103.025C81.7475 100.344 82.8404 97.7949 84.7137 95.872C86.7443 93.5954 89.3766 91.9947 91.8095 90.2129C93.8443 88.8626 95.6004 87.1342 96.9821 85.1216C97.25 85.1907 97.5223 85.2586 97.7989 85.3254C97.0595 87.1458 95.9189 88.7763 94.4619 90.0955V90.0955Z" fill="#772F1E"/>
</g>
<g style="mix-blend-mode:multiply" opacity="0.28">
<path d="M95.8727 97.7302C93.986 98.9948 92.3563 100.605 91.0701 102.476C89.6713 104.799 89.0917 107.523 89.424 110.213C89.4735 110.631 88.8892 110.643 88.7594 110.313C88.2176 108.932 87.9792 107.451 88.0604 105.97C88.1416 104.489 88.5405 103.042 89.2299 101.729C91.4362 97.5001 96.1033 95.6301 99.3391 92.4113C101.005 90.7593 102.113 88.6281 102.507 86.3159C103.029 86.4079 103.566 86.498 104.122 86.5846C103.859 89.0657 102.831 91.4037 101.179 93.2752C99.5708 94.9412 97.7923 96.4343 95.8727 97.7302V97.7302Z" fill="#772F1E"/>
</g>
<g style="mix-blend-mode:multiply" opacity="0.28">
<path d="M108.924 96.7069C107.109 99.6907 104.963 102.461 102.527 104.965C101.344 106.185 100.089 107.333 98.7702 108.405C98.0482 108.989 97.297 109.536 96.5193 110.043C95.8774 110.537 95.1596 110.924 94.3937 111.188C94.2614 111.219 94.1224 111.208 93.9972 111.155C93.8719 111.102 93.7669 111.01 93.6977 110.893C93.6285 110.776 93.5987 110.64 93.6128 110.505C93.6268 110.37 93.6838 110.243 93.7756 110.142C94.4424 109.425 95.1774 108.775 95.9702 108.2C96.7104 107.548 97.4737 106.92 98.2122 106.265C99.6247 105.012 100.969 103.686 102.24 102.29C106.414 97.7041 110.062 92.0311 111.154 85.778C111.831 85.4797 112.479 85.1192 113.09 84.7012C112.611 88.9625 111.187 93.0637 108.924 96.7069V96.7069Z" fill="#772F1E"/>
</g>
<g style="mix-blend-mode:multiply" opacity="0.28">
<path d="M120.909 99.1931C120.906 104.016 119.265 108.695 116.253 112.464C114.708 114.488 112.972 116.359 111.068 118.051C110.079 118.942 109.063 119.799 108.037 120.642C107.167 121.556 106.037 122.183 104.8 122.437C104.697 122.436 104.596 122.412 104.504 122.367C104.412 122.321 104.332 122.255 104.269 122.174C104.206 122.093 104.163 121.998 104.143 121.898C104.122 121.797 104.125 121.694 104.15 121.594C104.654 120.489 105.47 119.556 106.498 118.909C107.418 118.166 108.327 117.414 109.219 116.635C111.056 115.073 112.77 113.372 114.346 111.548C117.233 108.11 119.647 103.783 120.082 99.2049C120.082 99.0964 120.125 98.9924 120.201 98.9152C120.277 98.8381 120.381 98.794 120.489 98.7924C120.598 98.7909 120.703 98.832 120.781 98.907C120.86 98.9819 120.905 99.0847 120.909 99.1931V99.1931Z" fill="#772F1E"/>
</g>
<path d="M47.9091 180.741C47.9091 180.741 50.1749 221.889 52.5283 241.875C52.5283 241.875 49.1734 253.397 47.9091 257.864C46.6449 262.332 47.215 264.683 53.6371 264.683C60.0591 264.683 60.4443 255.748 59.8986 247.989C59.8986 247.989 58.6769 235.292 58.7796 229.413C58.8824 223.535 59.6546 193.192 58.7796 183.21L47.9091 180.741Z" fill="#FFBF94"/>
<g style="mix-blend-mode:multiply" opacity="0.21">
<path d="M56.2928 212.366C57.4285 216.434 58.2904 220.574 58.8728 224.757C59.0902 214.151 59.5106 191.56 58.7788 183.21L47.9082 180.741C47.9082 180.741 49.1449 200.381 49.7552 209.902C52.8566 210.424 56.2928 211.663 56.2928 212.366Z" fill="#DA8966"/>
</g>
<path d="M50.4834 248.917C50.4834 248.917 46.2917 258.923 44.5267 263.743C42.7616 268.563 45.9387 270.562 49.9394 270.915C53.9401 271.267 59.0294 270.562 60.0737 268.211C61.1179 265.859 61.5005 255.488 60.0737 248.917C60.0737 248.917 59.9412 258.688 56.4112 259.393C52.8811 260.098 49.4687 260.569 49.3511 258.1C49.2334 255.631 50.4834 248.917 50.4834 248.917Z" fill="#FF6551"/>
<path d="M60.0736 248.917C60.0252 251.477 59.6266 254.018 58.889 256.471C59.1275 259.9 58.9807 263.429 56.47 266.564C55.4698 267.564 52.4692 268.563 49.4687 267.564C48.4161 267.211 47.4496 266.641 46.6323 265.89C45.8149 265.14 45.165 264.225 44.7249 263.207C44.6563 263.391 44.5895 263.571 44.5266 263.743C42.7617 268.563 45.9386 270.562 49.9394 270.914C53.9401 271.267 59.0294 270.562 60.0736 268.21C61.1179 265.859 61.5004 255.487 60.0736 248.917Z" fill="#DF4C4B"/>
<path d="M76.2761 180.741C76.2761 180.741 74.0103 221.889 71.6569 241.875C71.6569 241.875 75.0118 253.397 76.2761 257.864C77.5403 262.332 76.9701 264.683 70.5481 264.683C64.1261 264.683 63.7409 255.748 64.2865 247.989C64.2865 247.989 65.5083 235.292 65.4055 229.413C65.3028 223.535 64.5306 193.192 65.4055 183.21L76.2761 180.741Z" fill="#FFBF94"/>
<g style="mix-blend-mode:multiply" opacity="0.21">
<path d="M68.4922 211.357C66.2765 220.212 65.3129 224.757 65.3129 224.757C65.0955 214.151 64.675 191.56 65.4069 183.21L76.2775 180.741C76.2775 180.741 75.1071 199.44 74.4967 208.961C71.3953 209.483 68.4922 210.654 68.4922 211.357Z" fill="#DA8966"/>
</g>
<path d="M73.7021 248.917C73.7021 248.917 77.8938 258.923 79.6588 263.743C81.4238 268.563 78.2468 270.562 74.2461 270.914C70.2454 271.267 65.1561 270.562 64.1118 268.21C63.0676 265.859 62.685 255.488 64.1118 248.917C64.1118 248.917 64.2443 258.687 67.7743 259.393C71.3044 260.098 74.7168 260.569 74.8344 258.1C74.9521 255.631 73.7021 248.917 73.7021 248.917Z" fill="#FF6551"/>
<path d="M64.1118 248.917C64.1602 251.477 64.5588 254.018 65.2965 256.471C65.0579 259.9 65.2048 263.429 67.7155 266.564C68.7157 267.564 71.7162 268.563 74.7168 267.564C75.7694 267.211 76.7358 266.641 77.5532 265.89C78.3705 265.14 79.0204 264.225 79.4605 263.207C79.5291 263.391 79.5959 263.571 79.6588 263.743C81.4238 268.563 78.2468 270.562 74.2461 270.914C70.2454 271.267 65.1561 270.562 64.1118 268.21C63.0675 265.859 62.685 255.487 64.1118 248.917Z" fill="#DF4C4B"/>
<path d="M31.9635 178.507C31.1399 176.156 28.6688 170.042 29.681 166.868C30.6931 163.694 32.3165 161.93 32.7872 158.991C33.2579 156.052 36.5526 133.089 36.5526 133.089L42.6473 134.292C42.6473 134.292 40.0826 148.88 39.1413 152.76C38.1999 156.64 37.3763 158.168 37.7293 160.754C38.0823 163.341 40.318 170.983 39.1413 171.688C37.9646 172.394 37.3496 170.748 36.7612 170.395C36.1729 170.042 36.0819 172.629 36.6703 175.568C37.2586 178.507 35.9736 179.212 35.2629 178.507C34.5522 177.802 33.5876 173.099 33.5876 173.099C33.5876 173.099 34.9052 178.307 34.1992 178.76C33.4932 179.212 31.9635 178.507 31.9635 178.507Z" fill="#FFBF94"/>
<path d="M49.8805 106.163C49.8805 106.163 44.2324 105.775 41.879 108.635C39.5256 111.494 34.7947 129.17 33.3359 132.03C33.3359 132.03 35.5249 137.241 43.997 135.595C43.997 135.595 48.9717 116.437 49.8805 111.765C50.7893 107.093 49.8805 106.163 49.8805 106.163Z" fill="#FFC652"/>
<path d="M34.7477 128.202C34.3518 129.504 33.8804 130.782 33.3359 132.03C33.3359 132.03 35.5249 137.241 43.997 135.595C43.997 135.595 44.5261 133.558 45.2689 130.656C41.5004 131.189 37.705 130.66 34.7477 128.202Z" fill="#F7A845"/>
<path d="M88.9885 178.507C89.8122 176.156 92.2832 170.042 91.271 166.868C90.2589 163.694 88.6355 161.93 88.1648 158.991C87.6941 156.052 84.3994 133.089 84.3994 133.089L78.3047 134.292C78.3047 134.292 80.8694 148.88 81.8107 152.76C82.7521 156.64 83.5757 158.168 83.2227 160.754C82.8697 163.341 80.634 170.983 81.8107 171.688C82.9874 172.394 83.8111 169.219 84.3994 168.866C84.9878 168.514 84.8701 172.629 84.2817 175.568C83.6934 178.507 84.9784 179.212 85.6891 178.507C86.3998 177.802 87.3644 173.099 87.3644 173.099C87.3644 173.099 86.0468 178.307 86.7528 178.76C87.4588 179.212 88.9885 178.507 88.9885 178.507Z" fill="#FFBF94"/>
<path d="M71.1797 106.163C71.1797 106.163 76.5343 105.658 78.6283 107.539C80.7223 109.42 83.1052 116.615 84.4762 121.941C85.6995 126.692 88.1239 134.054 88.1239 134.054C88.1239 134.054 82.134 136.888 77.304 136.301L72.121 110.36L71.1797 106.163Z" fill="#FFC652"/>
<path d="M76.3848 131.699L77.3041 136.301C82.1341 136.888 88.124 134.054 88.124 134.054C88.124 134.054 87.5599 132.34 86.8403 130.039C83.7582 131.738 80.0109 131.767 76.3848 131.699Z" fill="#F7A845"/>
<path d="M44.8857 156C40.2962 165.01 35.5793 174.075 30.2734 182.689C30.5084 186.506 32.0724 190.121 34.6946 192.908C40.1795 182.401 44.8508 171.49 48.6675 160.27C47.4921 158.774 46.2293 157.348 44.8857 156V156Z" fill="#6640D0"/>
<path d="M33.3164 180.487C33.3164 180.487 40.0397 166.443 43.1655 164.08C46.2913 161.716 45.9104 164.927 45.465 166.55C45.0196 168.172 37.7924 183.722 36.5734 186.885C36.5733 186.885 33.375 185.84 33.3164 180.487Z" fill="#864FF1"/>
<path d="M47.4699 157.974C42.6034 169.103 37.4812 179.609 31.5938 190.233C31.6138 192.151 32.2471 194.013 33.4011 195.547C34.5551 197.081 36.1694 198.206 38.0086 198.759C45.021 187.241 49.3294 174.243 51.8496 161.051C50.1369 159.753 49.2681 159.132 47.4699 157.974Z" fill="#6640D0"/>
<path d="M34.9844 187.688C34.9844 187.688 43.0602 169.236 46.0236 166.173C48.9873 163.109 48.8479 166.499 48.4612 168.125C46.434 176.653 42.4082 185.391 39.1483 193.71C39.1484 193.71 35.2964 193.05 34.9844 187.688Z" fill="#864FF1"/>
<path d="M50.7093 155.846C46.966 170.144 42.0616 184.113 36.0449 197.615C36.0449 197.615 39.363 202.764 47.0473 203.036C50.6327 188.068 53.407 172.917 55.358 157.649C53.5179 156.868 52.5884 156.501 50.7093 155.846Z" fill="#6640D0"/>
<path d="M39.9175 193.56C42.493 184.165 46.0598 175.07 50.558 166.427C52.5107 162.754 53.6688 166.016 53.2052 167.681C50.5073 177.372 47.8681 187.682 46.7399 197.778C46.7399 197.778 39.2979 195.786 39.9175 193.56Z" fill="#864FF1"/>
<path d="M54.6021 158.136C52.4346 173.614 49.7913 188.95 46.8203 204.293C46.8203 204.293 53.7657 208.862 61.1489 205.462C61.1346 189.721 61.1258 173.979 61.1223 158.238C58.5179 158.109 57.2147 158.087 54.6021 158.136Z" fill="#6640D0"/>
<path d="M50.887 199.381C51.1307 188.495 52.8345 177.691 55.9528 167.257C57.3205 162.796 58.6785 165.737 58.7381 167.461C59.1184 178.456 58.817 189.548 59.0823 200.592C59.0824 200.592 50.8319 201.528 50.887 199.381Z" fill="#864FF1"/>
<path d="M77.8042 156C82.3946 165.009 87.1112 174.074 92.4174 182.689C92.1828 186.506 90.6189 190.122 87.9967 192.908C82.5115 182.401 77.8401 171.49 74.0234 160.27C75.1985 158.773 76.4609 157.348 77.8042 156V156Z" fill="#6640D0"/>
<path d="M89.3748 180.487C89.3748 180.487 82.6514 166.443 79.5256 164.079C76.4 161.716 76.7809 164.927 77.2264 166.55C77.6718 168.172 84.8992 183.722 86.1184 186.885C86.1184 186.885 89.3164 185.84 89.3748 180.487Z" fill="#864FF1"/>
<path d="M74.6309 157.974C79.5053 169.093 84.6322 179.609 90.5077 190.233C90.4876 192.151 89.8542 194.014 88.7001 195.547C87.5459 197.081 85.9313 198.206 84.092 198.759C77.0805 187.241 72.7709 174.243 70.252 161.051C71.9644 159.753 72.8332 159.132 74.6309 157.974Z" fill="#6640D0"/>
<path d="M87.1157 187.688C87.1157 187.688 79.0396 169.236 76.0761 166.172C73.1127 163.109 73.2548 166.493 73.6387 168.125C75.6505 176.677 79.6853 185.403 82.9515 193.71C82.9515 193.71 86.8034 193.05 87.1157 187.688Z" fill="#864FF1"/>
<path d="M70.0471 156.694C74.0553 170.947 79.0032 184.919 84.8585 198.519C83.4645 200.268 81.7007 201.688 79.6932 202.677C77.6858 203.666 75.4843 204.199 73.2465 204.238C69.904 189.078 67.3258 173.982 65.4082 158.577C67.2434 157.768 68.1688 157.387 70.0471 156.694Z" fill="#6640D0"/>
<path d="M80.5559 193.718C77.9462 184.295 74.486 175.128 70.2178 166.33C68.3695 162.648 67.044 165.969 67.5689 167.617C70.7213 177.461 72.7646 187.626 73.661 197.924C73.661 197.924 81.2072 195.981 80.5559 193.718Z" fill="#864FF1"/>
<path d="M65.7141 156.331C68.2312 172.254 70.9828 188.129 73.7825 204.004C73.7825 204.004 67.6721 209.169 60.2129 205.85C60.4924 189.463 60.7115 173.076 60.8704 156.689C62.8037 156.494 63.7721 156.422 65.7141 156.331Z" fill="#6640D0"/>
<path d="M71.0074 199.35C70.2637 188.005 68.3209 176.771 65.2114 165.835C63.8801 161.304 62.4414 164.415 62.3814 166.177C61.9902 177.646 62.4354 189.389 62.7628 201.048C62.7627 201.048 71.1673 201.555 71.0074 199.35Z" fill="#864FF1"/>
<path d="M57.1171 103.687C57.1171 103.687 48.5514 105.417 47.7157 106.163C46.88 106.909 42.5978 129.952 42.0913 133.832C41.5849 137.712 40.8789 154.288 40.8789 156.405C40.8789 158.521 45.821 164.046 58.4115 164.399C71.002 164.752 78.0621 160.755 79.3565 160.167C80.6508 159.579 81.6091 158.286 81.6595 153.936C81.7098 149.586 78.4151 124.426 77.1208 119.018C75.8264 113.61 74.6497 106.827 73.0024 106.163C67.8669 104.523 62.5084 103.688 57.1171 103.687V103.687Z" fill="#F7A845"/>
<path d="M55.0107 106.163C55.0107 106.163 50.881 105.297 49.116 107.808C47.351 110.318 45.3518 119.591 45.8807 126.094C46.4096 132.597 50.4103 141.297 50.4103 141.297C49.5867 143.374 46.0929 137.767 45.2693 138.473C44.4456 139.178 43.8221 149.653 45.8807 154.381C47.9393 159.109 54.2562 161.813 62.5116 161.225C70.7669 160.637 73.2781 155.817 75.4349 152.172C77.5918 148.528 78.2261 140.001 77.4098 140.236C76.5936 140.471 77.8422 139.416 72.179 141.65C72.179 141.65 69.4133 142.708 71.649 140.122C73.8847 137.535 75.2384 138.652 76.0621 130.07C76.8858 121.487 73.8264 109.059 72.532 107.808C71.2377 106.556 67.59 106.674 66.4133 107.027C65.2366 107.379 56.0494 106.947 54.0549 105.875" fill="#FFC652"/>
<path d="M57.1167 103.687C57.1167 103.687 55.1278 104.089 52.9746 104.588C53.5455 106.124 54.5618 107.454 55.8935 108.409C57.2252 109.364 58.8118 109.9 60.4503 109.949C62.2219 110.209 64.0295 109.867 65.5829 108.977C67.1364 108.088 68.3458 106.703 69.0168 105.044C65.107 104.186 61.1194 103.731 57.1167 103.687Z" fill="#F7A845"/>
<path d="M66.4542 105.114C66.4542 105.114 64.9795 108.227 60.4361 107.76C55.8914 107.293 54.9414 104.936 54.9414 104.936L55.012 102.469L55.0106 102.468L55.1116 98.933L65.9616 96.8195L66.9806 96.6206L66.925 97.5279L66.6327 102.228L66.4542 105.114Z" fill="#EA9573"/>
<g style="mix-blend-mode:multiply" opacity="0.31">
<path d="M66.6338 102.228C65.1442 103.727 63.2468 105.232 61.6008 105.274C58.3392 105.358 55.0947 102.54 55.0131 102.469L55.0117 102.468L55.1128 98.9328L65.9628 96.8193L66.9262 97.5277L66.6338 102.228Z" fill="#DD7258"/>
</g>
<path d="M94.0733 60.459C94.0733 60.459 99.3586 57.659 102.384 61.6941C105.409 65.7292 100.847 76.1695 97.2609 77.2436C93.6751 78.3178 92.2539 77.319 92.2539 77.319L94.0733 60.459Z" fill="#FFBF94"/>
<path d="M27.4222 61.4626C27.4222 61.4626 22.0675 58.8228 19.1467 62.9474C16.2259 67.072 21.0522 77.371 24.664 78.3367C28.2758 79.3025 29.671 78.2613 29.671 78.2613L27.4222 61.4626Z" fill="#FFBF94"/>
<path d="M96.3795 44.9246C96.3795 44.9246 95.5987 60.1435 94.223 72.4044L94.2214 72.4095L94.2215 72.413L94.2159 72.464C94.0093 74.3034 93.7894 76.0767 93.5568 77.721L93.5525 77.7533C92.8531 82.6708 92.0402 86.4254 91.1304 87.3674C87.8868 90.7232 69.2506 101.991 61.8898 101.58C54.5291 101.169 34.998 91.3581 31.822 87.7504C30.8057 86.5959 29.6719 82.4932 28.5997 77.4477C26.3205 66.7279 24.3203 51.7532 24.3203 51.7532C24.7874 27.0312 37.3549 18.4869 61.9095 17.2465C86.4641 16.0062 96.3795 44.9246 96.3795 44.9246Z" fill="#FFBF94"/>
<g style="mix-blend-mode:multiply" opacity="0.28">
<g style="mix-blend-mode:multiply" opacity="0.28">
<path d="M22.9019 45.8107C22.3586 43.1545 24.233 40.6265 26.1322 38.5886C32.7053 31.5808 40.6434 25.9903 49.4587 22.1608C56.5934 19.0483 64.7275 17.0655 72.3086 18.9913C75.888 20.0546 79.3237 21.5519 82.5386 23.45C84.0731 24.2004 85.5169 25.123 86.8423 26.2C87.9555 27.24 88.9365 28.4129 89.7629 29.6923C93.3529 34.8935 96.2233 40.5554 98.2962 46.5243C98.8413 47.7892 99.0575 49.1712 98.9247 50.5419C98.631 51.7841 98.0109 52.9255 97.1284 53.8484C95.3242 55.9326 93.0823 57.5938 90.5625 58.7139C89.5095 54.8081 88.4566 50.9023 87.4037 46.9965C86.6164 48.1103 85.5738 49.0197 84.363 49.6487C83.1522 50.2778 81.8084 50.6082 80.4437 50.6125C79.5498 47.0241 77.6987 43.7449 75.0875 41.1242C73.2964 44.2767 69.896 46.38 66.333 47.6238C66.0354 43.9217 65.0624 40.3051 63.4621 36.9528L60.3142 46.8281C58.7887 46.6138 57.3326 46.0535 56.0574 45.1901C54.7822 44.3267 53.7216 43.1831 52.957 41.847C51.9268 43.0557 51.1562 44.4631 50.6929 45.9818C50.2296 47.5004 50.0836 49.098 50.2639 50.6754C48.0738 51.0017 45.836 50.6767 43.8295 49.7408C41.823 48.805 40.1366 47.2998 38.9805 45.4129C38.2132 49.0273 37.4458 52.6418 36.6783 56.2562C33.5335 55.7354 30.7146 54.0133 28.8173 51.4538C27.7882 54.197 27.5798 57.18 28.2177 60.0394C28.2177 60.0394 25.9075 59.5093 25.3964 57.8328C24.8854 56.1564 22.9019 45.8107 22.9019 45.8107Z" fill="#DA8966"/>
</g>
</g>
<path d="M69.2975 23.171C69.2975 23.171 57.0048 29.2119 59.003 44.6013C59.003 44.6013 53.1112 42.3391 52.6999 35.9767C52.6999 35.9767 46.4258 41.5966 47.669 49.2878C47.669 49.2878 39.8171 46.5508 40.6584 36.4837C40.6584 36.4837 33.8982 42.2781 36.5046 54.4746C36.5046 54.4746 30.0952 50.0412 29.8534 44.1792C29.8534 44.1792 25.2613 53.7971 27.9742 61.8025C26.1841 61.5563 24.5047 60.794 23.1416 59.609C20.8517 57.5648 19.0042 53.642 18.3183 46.0196C16.9781 31.1236 34.9639 12.6002 58.4206 13.4386C81.8773 14.277 98.8584 29.9554 101.144 42.4917C101.832 46.0918 101.662 49.8031 100.649 53.3257C99.6356 56.8482 97.8072 60.0832 95.3112 62.7691C97.2535 60.2807 94.327 23.0971 69.2975 23.171Z" fill="#672410"/>
<path d="M63.7715 23.9203C63.7715 23.9203 68.7926 34.0714 68.4487 44.8018C68.4487 44.8018 75.2112 39.175 75.8172 35.8146C75.8172 35.8146 82.2379 41.0857 82.8414 49.624C82.8414 49.624 87.6753 45.8682 87.1282 41.5187C87.1282 41.5187 92.8956 46.6316 92.3979 58.0345C92.3979 58.0345 97.1939 55.1075 97.387 49.4955C97.387 49.4955 93.6177 15.618 63.7715 23.9203Z" fill="#672410"/>
<path d="M74.4855 54.1179C74.7743 54.5658 75.2636 54.5099 75.741 54.5535C76.295 54.6041 76.8432 54.5972 77.3985 54.6025C78.4766 54.5859 79.548 54.7727 80.5567 55.1532C81.4709 55.5709 82.3323 56.0954 83.1229 56.7157C83.5112 57.021 83.9172 57.303 84.3388 57.5604C84.578 57.7036 84.8313 57.8217 85.0947 57.913C85.3462 57.9851 85.5957 57.9358 85.842 58.0245C86.1373 58.1309 86.3134 57.7641 86.2031 57.527C86.0818 57.2663 86.1076 56.9639 85.9736 56.7019C85.8178 56.4156 85.6314 56.147 85.4178 55.9007C85.0193 55.4448 84.5739 55.032 84.0889 54.6691C83.1156 53.904 82.0114 53.3216 80.8301 52.9501C79.5917 52.5957 78.2909 52.5151 77.0181 52.7139C76.6197 52.7661 73.9043 53.2166 74.4855 54.1179H74.4855Z" fill="#5F130F"/>
<path d="M43.0026 55.3287C42.234 54.5109 40.7381 54.8408 39.7652 54.9959C38.6573 55.1862 37.5837 55.5391 36.5792 56.0431C35.598 56.5244 34.682 57.1284 33.8533 57.8406C33.1343 58.4502 31.9368 59.5577 32.2534 60.6319C32.2972 60.7776 32.386 60.9056 32.5071 60.9978C32.6282 61.09 32.7753 61.1416 32.9275 61.1452C33.8125 61.2324 34.6849 60.0953 35.3262 59.5873C36.0505 59.0066 36.8414 58.5142 37.6822 58.1204C38.4945 57.7599 39.3399 57.4794 40.2067 57.2829C41.1051 57.0678 42.3229 57.2041 43.0184 56.514C43.1662 56.351 43.2466 56.1381 43.2437 55.9182C43.2407 55.6984 43.1545 55.4877 43.0024 55.3287H43.0026Z" fill="#5F130F"/>
<g style="mix-blend-mode:multiply" opacity="0.44">
<path d="M27.2676 74.3743C25.1769 73.2753 23.5734 71.4344 22.7728 69.2137C22.4445 68.2171 22.5029 66.6048 23.729 66.4103C24.7418 66.2496 25.1756 67.6747 25.6398 68.401C25.6919 68.4852 25.7733 68.5473 25.8683 68.5752C25.9634 68.6032 26.0655 68.5951 26.1549 68.5526C26.2444 68.51 26.315 68.4359 26.3531 68.3445C26.3913 68.2532 26.3944 68.1509 26.3617 68.0574C25.9297 66.7555 25.5111 65.1129 24.0046 64.9389C22.4601 64.7607 21.3191 66.2555 21.1768 67.8011C21.0029 69.6906 22.0777 71.4396 23.0853 72.8723C24.1241 74.3492 25.3908 75.5556 27.1863 75.133C27.2588 75.1034 27.3219 75.0548 27.369 74.9923C27.4161 74.9298 27.4453 74.8557 27.4537 74.7779C27.462 74.7001 27.4491 74.6215 27.4164 74.5504C27.3836 74.4794 27.3322 74.4185 27.2676 74.3743V74.3743Z" fill="#DA8966"/>
</g>
<g style="mix-blend-mode:multiply" opacity="0.44">
<path d="M100.989 66.449C100.88 65.0208 99.775 63.7623 98.4039 64.3816C97.4765 64.8004 96.0014 66.7891 97.0334 67.7831C97.0592 67.8096 97.091 67.8296 97.1261 67.8413C97.1612 67.853 97.1986 67.8561 97.2352 67.8505C97.2718 67.8448 97.3065 67.8304 97.3364 67.8086C97.3663 67.7868 97.3905 67.7581 97.407 67.7251C97.9068 66.9783 97.9559 65.77 98.9423 65.4763C100.294 65.0741 99.8821 67.574 99.7406 68.2904C99.5947 69.1707 99.2682 70.0113 98.7816 70.7595C98.2235 71.4279 97.5126 71.9521 96.7088 72.2878C96.6713 72.3151 96.6399 72.3499 96.6167 72.39C96.5935 72.4301 96.579 72.4747 96.5741 72.5208C96.5692 72.5669 96.5741 72.6135 96.5884 72.6576C96.6027 72.7017 96.6262 72.7423 96.6572 72.7768C97.7528 74.047 99.301 72.2944 99.8912 71.2497C100.688 69.7794 101.068 68.1194 100.989 66.449V66.449Z" fill="#DA8966"/>
</g>
<path d="M69.6341 83.6629C69.2117 85.4676 68.4141 87.1634 67.293 88.6401C66.5231 89.6322 65.5392 90.438 64.4144 90.9975C63.2896 91.5569 62.053 91.8556 60.7967 91.8713C59.3913 91.9544 57.9886 91.6686 56.7281 91.0422C55.4676 90.4158 54.3931 89.4706 53.6115 88.3007C52.6555 86.9164 51.9485 85.3761 51.5225 83.7489C51.4589 83.5263 51.4752 83.2886 51.5686 83.0767C51.6596 82.8545 51.8306 82.6744 52.0477 82.5717C52.2649 82.469 52.5127 82.4511 52.7424 82.5215L53.0671 82.6226C58.0264 84.1809 63.3578 84.0891 68.2603 82.3608C68.3924 82.3132 68.5328 82.2927 68.6731 82.3008C68.8133 82.3088 68.9504 82.3451 69.0762 82.4076C69.202 82.47 69.3139 82.5572 69.405 82.664C69.4962 82.7708 69.5647 82.8949 69.6066 83.0288C69.6788 83.2327 69.6883 83.4535 69.6341 83.6629V83.6629Z" fill="#831532"/>
<path d="M69.6063 83.0288C67.0255 85.0235 63.8865 86.1647 60.6262 86.2936C57.3408 86.2143 54.1668 85.0871 51.5684 83.0767C51.6594 82.8545 51.8303 82.6744 52.0475 82.5717C52.2647 82.469 52.5125 82.4511 52.7422 82.5215L53.0669 82.6226C58.0261 84.1809 63.3576 84.0891 68.2601 82.3608C68.3922 82.3132 68.5326 82.2927 68.6729 82.3008C68.8131 82.3088 68.9502 82.3451 69.076 82.4076C69.2018 82.47 69.3137 82.5572 69.4048 82.664C69.496 82.7708 69.5645 82.8949 69.6064 83.0288L69.6063 83.0288Z" fill="white"/>
<path d="M67.2928 88.6401C66.523 89.6322 65.539 90.438 64.4142 90.9975C63.2895 91.5569 62.0529 91.8556 60.7965 91.8713C59.3911 91.9545 57.9885 91.6686 56.7279 91.0422C55.4674 90.4158 54.3929 89.4707 53.6113 88.3007C58.1106 87.1052 62.8585 87.2229 67.2928 88.6401V88.6401Z" fill="#FF6551"/>
<path d="M45.404 80.8147C45.809 79.1062 43.6156 77.1246 40.5049 76.3886C37.3943 75.6526 34.5444 76.4409 34.1395 78.1494C33.7345 79.8579 35.9279 81.8396 39.0385 82.5756C42.1492 83.3116 44.9991 82.5232 45.404 80.8147Z" fill="#F2786B"/>
<path d="M82.6136 82.017C85.7651 81.4968 88.0876 79.6697 87.8009 77.9362C87.5143 76.2026 84.7271 75.219 81.5755 75.7392C78.424 76.2594 76.1015 78.0865 76.3882 79.82C76.6748 81.5536 79.462 82.5372 82.6136 82.017Z" fill="#F2786B"/>
<g style="mix-blend-mode:multiply" opacity="0.21">
<path d="M94.6182 67.348L94.2171 72.464L93.558 77.7209L93.5537 77.7533C92.8543 82.6708 92.0414 86.4253 91.1317 87.3673C87.888 90.7232 69.2518 101.991 61.891 101.58C54.5303 101.169 34.9992 91.3581 31.8232 87.7503C30.8069 86.5958 29.6731 82.4932 28.6009 77.4477C27.4266 72.2824 26.5352 66.3611 26.5352 66.3611C26.9693 69.6003 29.698 80.3687 32.7102 86.0044C34.7434 89.8085 55.5006 98.4659 62.7263 98.7209C69.952 98.9777 80.546 91.2877 86.2157 87.9582C91.797 84.6811 94.5462 67.7197 94.6182 67.348Z" fill="#DA8966"/>
</g>
<g style="mix-blend-mode:screen" opacity="0.27">
<path d="M109.706 38.475C91.7069 11.767 70.8851 11.5283 61.3091 13.1953C57.3914 13.88 53.4117 14.1447 49.4378 13.9847C24.9708 12.9846 14.6033 27.7092 10.2715 38.8729C12.0091 20.0383 19.5127 -3.94126 55.8639 5.93376C55.8639 5.93376 62.5926 -2.20633 78.586 0.582043C93.4011 3.16432 106.554 17.1326 109.706 38.475Z" fill="#772F1E"/>
</g>
<g style="mix-blend-mode:multiply" opacity="0.21">
<g style="mix-blend-mode:multiply" opacity="0.21">
<path d="M60.0078 75.0712C58.9574 75.114 57.9328 75.4089 57.0206 75.931C56.9506 75.9652 56.889 76.0143 56.8401 76.0749C56.6655 76.324 56.956 76.6398 57.2219 76.7791C58.9732 77.5329 60.9403 77.6196 62.7512 77.0229C63.2033 76.945 63.6244 76.7422 63.9672 76.4376C64.1653 76.2303 64.2826 75.862 64.0739 75.6661C63.9808 75.593 63.8691 75.5473 63.7513 75.5342C62.0335 75.1931 60.2626 75.2215 58.5565 75.6173L60.0078 75.0712Z" fill="#DA8966"/>
</g>
</g>
<path d="M56.9266 76.3345C57.3916 76.1495 57.7729 75.814 58.2618 75.6525C58.8283 75.4871 59.4167 75.4086 60.0068 75.4199C60.564 75.3961 61.1221 75.4211 61.6749 75.4946C62.2415 75.5863 62.7679 75.8448 63.1867 76.237C63.2895 76.3291 63.4218 76.3814 63.5598 76.3845C63.6979 76.3877 63.8325 76.3414 63.9394 76.2541C64.0462 76.1667 64.1183 76.0441 64.1426 75.9083C64.1669 75.7725 64.1419 75.6325 64.0719 75.5136C63.2941 74.1978 61.3891 74.2159 60.0828 74.2574C58.9691 74.2926 56.7842 74.4554 56.4951 75.9026C56.4465 76.146 56.6646 76.4388 56.9265 76.3345H56.9266Z" fill="#D88261"/>
<g style="mix-blend-mode:screen" opacity="0.11">
<g style="mix-blend-mode:screen" opacity="0.11">
<path d="M68.7537 56.5538C68.8946 51.6779 63.207 50.7702 59.6079 51.2861C57.4747 51.5919 54.0278 51.5095 52.226 52.6771C51.3615 53.2606 50.7093 54.1081 50.367 55.0927C50.0247 56.0774 50.0107 57.1463 50.327 58.1396C50.7034 59.064 51.2123 59.9286 51.8379 60.7065C53.5239 63.0689 55.0159 65.5636 56.2996 68.1661C56.8729 69.3282 57.5255 70.625 58.7284 71.032C59.1512 71.1468 59.5931 71.1731 60.0265 71.1095C60.46 71.0458 60.8757 70.8935 61.2475 70.6621C62.7608 69.6883 63.9236 68.2576 64.5669 66.578C65.3048 64.9391 65.8089 63.1907 66.6371 61.598C67.486 59.9654 68.7001 58.405 68.7537 56.5538Z" fill="#F8A37A"/>
</g>
</g>
<g style="mix-blend-mode:screen" opacity="0.27">
<g style="mix-blend-mode:screen" opacity="0.27">
<path d="M56.9713 10.0403C54.3605 10.917 52.1683 13.3044 50.3393 15.3206C48.4089 17.4203 46.6883 19.7035 45.2022 22.1374C42.3594 26.8634 40.6181 32.4219 41.4374 38.013C41.8427 40.7788 42.7607 44.1285 45.2743 45.6252C45.3167 45.6473 45.3646 45.6565 45.4121 45.6516C45.4597 45.6467 45.5048 45.6281 45.5418 45.5979C45.5789 45.5677 45.6063 45.5274 45.6207 45.4818C45.635 45.4363 45.6357 45.3875 45.6227 45.3416C45.0806 42.9739 43.9809 40.7951 43.6542 38.3618C43.3298 35.9376 43.4453 33.4748 43.9953 31.0916C45.186 25.9595 48.0283 21.4845 51.2861 17.4871C52.2285 16.3307 53.2217 15.2242 54.2658 14.1675C55.3288 13.0877 56.5389 12.167 57.556 11.0418C57.942 10.6148 57.5456 9.84742 56.9713 10.0403Z" fill="#772F1E"/>
</g>
<g style="mix-blend-mode:screen" opacity="0.27">
<path d="M57.8988 17.0896C58.3226 16.4814 57.4568 15.6283 56.8782 16.0679C53.3272 18.7656 52.0378 23.7899 52.0832 28.1421C52.125 30.6836 52.5688 33.2024 53.3983 35.6052C54.1536 37.8192 55.0887 40.5996 56.9374 42.1105C57.0215 42.1793 57.1907 42.1424 57.1759 42.0048C56.932 39.7368 55.6694 37.6006 55.0274 35.4322C54.3268 33.1896 53.9507 30.8585 53.9105 28.5095C53.8993 26.4489 54.2445 24.4018 54.9309 22.4586C55.6763 20.5448 56.6744 18.7391 57.8988 17.0896V17.0896Z" fill="#772F1E"/>
</g>
<g style="mix-blend-mode:screen" opacity="0.27">
<path d="M52.4103 9.65625C49.5555 10.2376 46.9381 11.984 44.5907 13.6936C42.1899 15.4379 39.9555 17.4 37.916 19.555C33.696 24.023 29.8934 29.2119 29.3414 35.6071C29.0815 39.0396 29.8718 42.4699 31.6077 45.4432C31.6666 45.5364 31.7573 45.6052 31.863 45.6369C31.9687 45.6686 32.0822 45.6611 32.1828 45.6158C32.2834 45.5704 32.3642 45.4903 32.4103 45.3902C32.4564 45.29 32.4648 45.1766 32.4339 45.0708C31.5175 42.3357 31.1763 39.441 31.4316 36.568C31.6869 33.695 32.5333 30.9057 33.9177 28.3747C36.8462 23.4985 40.6531 19.2062 45.1458 15.715C47.5851 13.7562 50.3522 12.2022 52.6655 10.0935C52.8745 9.90311 52.6377 9.60996 52.4103 9.65625Z" fill="#772F1E"/>
</g>
<g style="mix-blend-mode:screen" opacity="0.27">
<path d="M52.9012 7.28195C49.2313 6.8996 45.3276 8.52786 42.1027 10.1873C38.7702 11.9127 35.7288 14.1489 33.0888 16.8147C26.9969 22.9477 23.7943 31.2163 21.8431 39.6233C21.2085 42.1937 20.8539 44.8251 20.7855 47.4716C20.7522 48.8203 20.8537 50.1691 21.0885 51.4977C21.2108 52.1324 21.3767 52.758 21.5851 53.37C21.8435 53.9753 22.1397 54.5639 22.472 55.1321C22.7425 55.6953 23.456 55.2471 23.3732 54.7258C23.2735 54.0978 23.3313 53.4546 23.2605 52.8127C23.2063 52.3212 23.169 51.8267 23.1324 51.3335C23.0513 50.2381 22.9723 49.1418 22.9788 48.0426C23.0035 45.8085 23.2422 43.5819 23.6917 41.3932C24.58 36.8955 25.9442 32.5048 27.7611 28.2951C29.6244 24.0945 32.3144 20.3114 35.6711 17.171C39.0278 14.0306 42.9826 11.5971 47.3 10.0152C49.1956 9.32672 51.1522 8.85004 53.0151 8.06601C53.1032 8.03477 53.1777 7.97398 53.226 7.894C53.2743 7.81401 53.2934 7.71977 53.28 7.62732C53.2665 7.53487 53.2215 7.44993 53.1524 7.38696C53.0833 7.32399 52.9946 7.28688 52.9012 7.28195V7.28195Z" fill="#772F1E"/>
</g>
<g style="mix-blend-mode:screen" opacity="0.27">
<path d="M47.5119 5.97967C46.6386 5.93248 45.763 5.9494 44.8921 6.0303C44.0123 6.14881 43.1359 6.28525 42.2629 6.44842C40.4805 6.78565 38.7161 7.21223 36.9765 7.72655C33.5675 8.68133 30.3528 10.2273 27.4794 12.2938C22.2372 16.1515 18.7339 21.9549 16.6995 28.1738C15.698 31.2985 15.0452 34.5242 14.7531 37.7921C14.379 41.7029 14.6981 45.6597 14.2356 49.5607C13.7266 53.4156 12.5265 57.1472 10.6929 60.5769C9.05085 63.7802 7.18613 66.982 6.47502 70.5738C5.13662 77.3338 8.41727 85.076 14.8961 87.5467C15.0918 87.6214 15.2693 87.3059 15.1002 87.174C10.6192 83.6792 7.45118 77.7406 8.28161 71.847C8.7647 68.4186 10.4655 65.3535 12.0676 62.3674C13.8638 59.21 15.2253 55.8249 16.1153 52.3036C16.9957 48.4418 16.8961 44.5585 17.0253 40.6255C17.129 37.4669 17.5568 34.3273 18.3019 31.2559C19.6342 25.275 22.618 19.7871 26.9147 15.4153C29.6303 12.8427 32.8282 10.8321 36.3244 9.49888C38.1418 8.78595 40.0096 8.20881 41.9124 7.77223C42.8169 7.55704 43.727 7.36451 44.638 7.18127C45.6396 6.9798 46.5877 6.67385 47.5725 6.39671C47.6195 6.38025 47.6594 6.34796 47.6852 6.30538C47.7111 6.26279 47.7213 6.21255 47.7141 6.16326C47.707 6.11397 47.6829 6.06871 47.646 6.03522C47.6091 6.00172 47.5617 5.98209 47.5119 5.97967V5.97967Z" fill="#772F1E"/>
</g>
<g style="mix-blend-mode:screen" opacity="0.27">
<path d="M20.7516 108.816C20.5703 108.857 20.3805 108.832 20.2153 108.748C20.05 108.663 19.9197 108.523 19.847 108.352C19.7743 108.181 19.7637 107.99 19.8172 107.812C19.8706 107.635 19.9847 107.481 20.1396 107.379C22.348 106.079 24.0389 104.057 24.9258 101.654C25.6946 99.371 25.7144 96.9021 24.9823 94.6066C24.165 92.0479 22.7585 89.7164 20.8756 87.7993C17.2577 84.035 11.3091 81.3044 11.6657 75.1422C11.6654 75.0942 11.6842 75.048 11.7178 75.0136C11.7515 74.9793 11.7974 74.9597 11.8454 74.959C11.8935 74.9583 11.9399 74.9766 11.9746 75.01C12.0092 75.0433 12.0292 75.089 12.0303 75.137C12.4656 78.6853 15.7181 81.1845 18.3263 83.1114C20.7603 84.77 22.9155 86.8039 24.7117 89.1372C25.8534 90.7138 26.7113 92.4771 27.2469 94.3481C27.4831 95.1806 27.6487 96.0315 27.7419 96.8917C28.2641 101.701 25.7573 107.778 20.7516 108.816Z" fill="#772F1E"/>
</g>
<g style="mix-blend-mode:screen" opacity="0.27">
<path d="M35.6723 100.115C35.6655 102.755 34.5776 106 31.5775 106.161C30.6729 106.209 30.6629 104.986 31.3621 104.676C33.8173 103.585 33.8458 100.262 33.525 97.957C33.2856 96.1168 32.6299 94.3553 31.6077 92.806C31.2776 92.3183 30.9047 91.8609 30.4935 91.4393C28.8294 89.7403 26.7233 88.5821 25.011 86.9307C23.3856 85.4768 22.3463 83.4808 22.0878 81.3164C22.0503 80.9516 22.5918 80.8969 22.6873 81.224C23.4248 83.7574 25.6974 85.55 27.7292 86.9874C29.7692 88.4314 31.852 89.7859 33.2966 91.8786C33.4029 92.0329 33.506 92.1924 33.6059 92.3552C34.9885 94.7058 35.7029 97.3887 35.6723 100.115V100.115Z" fill="#772F1E"/>
</g>
<g style="mix-blend-mode:screen" opacity="0.27">
<path d="M42.0571 100.597C41.8739 101.981 40.6639 104.002 39.0541 103.645C38.9685 103.619 38.891 103.571 38.8288 103.507C38.7665 103.442 38.7216 103.363 38.6982 103.277C38.6747 103.191 38.6736 103.1 38.6948 103.013C38.716 102.926 38.7589 102.846 38.8194 102.78C39.2402 102.35 39.7257 102.14 40.0667 101.599C40.362 101.133 40.547 100.605 40.6076 100.056C40.7167 98.634 40.2804 97.2233 39.3873 96.1104C39.1534 95.792 39.6624 95.3859 39.9121 95.6806C41.0683 97.0367 42.3129 98.678 42.0571 100.597Z" fill="#772F1E"/>
</g>
<g style="mix-blend-mode:screen" opacity="0.27">
<path d="M7.04365 104.127C6.55964 103.775 6.12101 103.364 5.7377 102.905C5.36593 102.397 5.0286 101.865 4.72797 101.312C4.14866 100.238 3.65716 99.1184 3.25826 97.9648C1.58758 93.2961 1.08147 88.2908 1.78377 83.3825C1.99486 80.9881 2.72296 78.6678 3.91791 76.5816C3.9727 76.5076 4.05284 76.4565 4.143 76.4379C4.23316 76.4193 4.32702 76.4346 4.40663 76.4807C4.44901 76.5081 4.48242 76.5474 4.50271 76.5936C4.52301 76.6397 4.52931 76.6908 4.52083 76.7406C4.5122 76.8245 4.50197 76.9101 4.4917 76.994C4.23497 79.2098 3.66649 81.3664 3.49952 83.5959C3.32562 85.9022 3.38409 88.2201 3.67406 90.5148C3.96794 92.8007 4.50138 95.0494 5.26562 97.224C5.65331 98.3279 6.10915 99.4107 6.5794 100.48C6.79779 100.98 7.02262 101.474 7.23452 101.977C7.43719 102.541 7.60214 103.117 7.72828 103.703C7.7536 103.79 7.74956 103.884 7.71678 103.969C7.68399 104.054 7.62427 104.126 7.54671 104.174C7.46916 104.222 7.37802 104.243 7.28719 104.235C7.19637 104.226 7.11084 104.188 7.04365 104.127V104.127Z" fill="#772F1E"/>
</g>
<g style="mix-blend-mode:screen" opacity="0.27">
<path d="M73.4564 28.0897C72.3433 25.5914 70.7928 23.3117 68.8777 21.3579C67.9137 20.2969 66.9288 19.2558 65.9586 18.2009C65.4852 17.6862 65.0266 17.161 64.5915 16.6115C64.2407 16.0617 63.8323 15.5508 63.3733 15.0875C63.3575 15.0725 63.3382 15.062 63.3171 15.0568C63.296 15.0516 63.2739 15.0521 63.2531 15.0581C63.2322 15.064 63.2133 15.0754 63.1981 15.0909C63.183 15.1065 63.1722 15.1257 63.1668 15.1467C62.8404 16.2166 63.7784 17.4287 64.3612 18.2153C65.1668 19.3028 66.038 20.3261 66.9197 21.348C68.7636 23.2962 70.3158 25.5006 71.5279 27.8928C72.6572 30.2379 72.8539 32.9237 72.0783 35.4081C71.6832 36.5884 71.159 37.7216 70.5151 38.787C69.8009 39.7324 69.2872 40.8135 69.0054 41.964C68.991 42.1063 69.1762 42.1496 69.2608 42.0687C69.7141 41.5532 70.1241 41.0013 70.4866 40.4185C70.8508 39.9279 71.2313 39.4498 71.6107 38.9718C72.4669 38.0258 73.1905 36.9679 73.7615 35.8272C74.6713 33.3066 74.5619 30.5309 73.4564 28.0897Z" fill="#772F1E"/>
</g>
<g style="mix-blend-mode:screen" opacity="0.27">
<path d="M83.3516 29.2272C80.0228 24.5096 75.0934 21.587 70.6179 18.1902C69.3279 17.2278 68.0901 16.1976 66.9097 15.1037C65.7068 13.9698 64.613 12.7364 63.4517 11.5636C63.4209 11.5352 63.3815 11.5176 63.3396 11.5136C63.2978 11.5096 63.2558 11.5194 63.2201 11.5415C63.1843 11.5636 63.1568 11.5967 63.1417 11.6359C63.1266 11.6751 63.1248 11.7182 63.1365 11.7585C64.207 14.1833 65.858 16.3077 67.944 17.9447C70.0065 19.7566 72.2725 21.3171 74.4626 22.957C78.6868 26.1201 83.164 29.8815 84.4629 35.3536C85.1209 38.591 84.8552 41.948 83.6958 45.0417C83.5641 45.4223 84.0935 45.5721 84.2886 45.289C87.648 40.4102 86.6189 33.8576 83.3516 29.2272Z" fill="#772F1E"/>
</g>
<g style="mix-blend-mode:screen" opacity="0.27">
<path d="M94.9529 40.4855C94.6085 36.4344 93.5208 32.4812 91.744 28.8235C89.935 25.3074 87.2959 22.2845 84.0551 20.0163C80.9867 17.9628 77.6998 16.2557 74.2548 14.9262C72.3915 14.1921 70.5751 13.3446 68.8156 12.3883C67.1412 11.3341 65.5565 10.144 64.0775 8.82999C63.9019 8.68544 63.545 8.82217 63.6527 9.0927C64.9008 12.2301 68.2576 14.1011 71.0655 15.5198C74.3061 17.157 77.7179 18.3637 80.8362 20.2641C84.0864 22.1513 86.8451 24.778 88.8879 27.9309C90.9317 31.3934 92.2177 35.2493 92.6613 39.2446C92.9729 41.7503 93.1458 44.2713 93.1793 46.7961C93.2033 48.1256 93.2253 49.4455 93.3007 50.7734C93.3153 52.0146 93.4628 53.2507 93.7407 54.4606C93.752 54.4987 93.7754 54.532 93.8074 54.5555C93.8394 54.5791 93.8783 54.5915 93.918 54.5909C93.9577 54.5904 93.9962 54.5768 94.0275 54.5524C94.0588 54.528 94.0813 54.494 94.0915 54.4556C94.802 52.2395 95.1525 49.924 95.1295 47.5972C95.2229 45.2253 95.1639 42.8499 94.9529 40.4855V40.4855Z" fill="#772F1E"/>
</g>
<g style="mix-blend-mode:screen" opacity="0.27">
<path d="M101.379 38.4336C101.139 33.5485 99.8016 28.78 97.4666 24.4812C95.1977 20.4633 92.1552 16.934 88.5145 14.0967C84.8738 11.2594 80.7068 9.17036 76.2541 7.95001C73.6811 7.2164 71.0375 6.75768 68.3676 6.58154C65.6557 6.40378 62.8711 6.76496 60.2211 6.02003C60.1781 6.01124 60.1334 6.01646 60.0936 6.03491C60.0538 6.05337 60.0209 6.08409 59.9998 6.12256C59.9788 6.16104 59.9706 6.20526 59.9765 6.24872C59.9824 6.29218 60.0021 6.33261 60.0327 6.36407C61.7209 7.77623 63.9485 7.77804 66.0214 7.87984C68.3726 7.99823 70.7097 8.31406 73.0079 8.82401C77.5973 9.81848 81.9498 11.6937 85.8238 14.3457C89.4967 16.8695 92.5971 20.1372 94.9232 23.9366C97.2493 27.7359 98.7492 31.9819 99.3253 36.3983C99.6503 39.365 99.6737 42.357 99.3953 45.3284C99.1416 48.2684 98.5025 51.2464 98.5834 54.2038C98.5839 54.2601 98.6029 54.3147 98.6374 54.3592C98.672 54.4036 98.7203 54.4355 98.7748 54.4499C98.8293 54.4642 98.887 54.4603 98.9391 54.4386C98.9911 54.417 99.0346 54.3788 99.0628 54.3301C100.13 51.842 100.791 49.199 101.021 46.5018C101.377 43.8281 101.497 41.1283 101.379 38.4336V38.4336Z" fill="#772F1E"/>
</g>
<g style="mix-blend-mode:screen" opacity="0.27">
<path d="M120.065 92.025C119.374 96.442 117.594 100.618 114.885 104.177C112.276 107.74 108.605 110.388 104.398 111.74C104.265 111.771 104.126 111.753 104.005 111.691C103.883 111.629 103.788 111.527 103.735 111.402C103.681 111.276 103.674 111.136 103.713 111.006C103.753 110.876 103.837 110.764 103.951 110.689C104.865 110.21 105.747 109.67 106.591 109.075C113.481 104.2 118.387 96.4078 118.112 87.5951C118.036 85.4958 117.73 83.4113 117.198 81.379C115.531 74.8636 111.94 68.8565 109.114 62.8521C107.103 58.8546 105.634 54.607 104.747 50.2215C103.81 44.862 104.601 39.4344 104.016 34.0515C103.44 28.7389 100.597 24.2898 97.9711 19.8193C95.5215 15.6512 92.8475 11.4979 89.1007 8.43771C81.5937 2.30387 71.56 2.82915 62.6545 4.44264C62.5486 4.46546 62.4379 4.44707 62.345 4.39122C62.2521 4.33537 62.1841 4.24625 62.1547 4.14202C62.1252 4.03779 62.1367 3.92627 62.1867 3.83018C62.2367 3.73408 62.3214 3.66063 62.4237 3.62478C63.5317 3.20639 64.6653 2.85884 65.8174 2.58423C75.205 0.499659 85.4341 1.79157 92.5956 8.8671C96.1367 12.3661 98.7793 16.7275 101.322 21.0116C102.769 23.3316 104.009 25.7753 105.025 28.314C105.967 31.0078 106.469 33.8356 106.512 36.6889C106.618 39.6 106.461 42.5149 106.579 45.4258C106.676 47.9036 107.06 50.3619 107.723 52.7514C109.094 57.1699 110.874 61.451 113.04 65.5395C115.275 69.7901 117.181 74.2058 118.74 78.7477C120.187 83.0152 120.64 87.5561 120.065 92.025Z" fill="#772F1E"/>
</g>
<g style="mix-blend-mode:multiply" opacity="0.28">
<path d="M7.72828 103.703C7.7536 103.79 7.74957 103.884 7.71679 103.969C7.68402 104.054 7.6243 104.126 7.54674 104.174C7.46918 104.222 7.37804 104.243 7.28721 104.235C7.19638 104.226 7.11085 104.188 7.04365 104.127C6.55965 103.775 6.12101 103.364 5.73771 102.905C5.36593 102.397 5.0286 101.865 4.72798 101.312C4.14866 100.238 3.65716 99.1184 3.25826 97.9649C1.58758 93.2961 1.08146 88.2908 1.78377 83.3825C1.99487 80.9881 2.72297 78.6678 3.91791 76.5816C3.9727 76.5076 4.05284 76.4565 4.143 76.4379C4.23316 76.4193 4.32702 76.4346 4.40664 76.4807C4.43332 76.6496 4.46171 76.8218 4.49165 76.994C4.23493 79.2098 3.66644 81.3664 3.49947 83.5959C3.32557 85.9022 3.38404 88.2201 3.67402 90.5148C3.96789 92.8007 4.50134 95.0494 5.26557 97.224C5.65326 98.3279 6.10911 99.4107 6.57935 100.48C6.79774 100.98 7.02257 101.474 7.23447 101.977C7.43715 102.541 7.60212 103.117 7.72828 103.703V103.703Z" fill="#772F1E"/>
</g>
<g style="mix-blend-mode:multiply" opacity="0.28">
<path d="M27.7435 96.8917C28.2657 101.701 25.7589 107.778 20.7532 108.816C20.5719 108.857 20.3821 108.832 20.2169 108.748C20.0516 108.663 19.9213 108.523 19.8486 108.352C19.7759 108.181 19.7653 107.99 19.8188 107.813C19.8722 107.635 19.9863 107.481 20.1412 107.379C22.3496 106.079 24.0405 104.057 24.9274 101.654C25.6962 99.371 25.716 96.9021 24.9839 94.6067C25.7444 94.5804 26.5016 94.4939 27.2485 94.3481C27.4847 95.1806 27.6503 96.0315 27.7435 96.8917V96.8917Z" fill="#772F1E"/>
</g>
<g style="mix-blend-mode:multiply" opacity="0.28">
<path d="M33.6053 92.3552C34.9876 94.7058 35.7019 97.3888 35.6713 100.115C35.6645 102.755 34.5768 106 31.5772 106.161C30.6728 106.209 30.6628 104.986 31.3619 104.676C33.8166 103.585 33.8451 100.262 33.5243 97.957C33.285 96.1169 32.6294 94.3553 31.6074 92.806C32.1749 92.5231 32.7356 92.2117 33.296 91.8787C33.4023 92.033 33.5054 92.1924 33.6053 92.3552Z" fill="#772F1E"/>
</g>
<g style="mix-blend-mode:multiply" opacity="0.28">
<path d="M39.9121 95.6806C41.0683 97.0367 42.3129 98.678 42.0571 100.597C41.8739 101.981 40.6639 104.002 39.0541 103.645C38.9685 103.619 38.891 103.571 38.8288 103.507C38.7665 103.442 38.7216 103.363 38.6982 103.277C38.6747 103.191 38.6736 103.1 38.6948 103.013C38.716 102.926 38.7589 102.846 38.8194 102.78C39.2402 102.35 39.7257 102.14 40.0667 101.599C40.362 101.133 40.547 100.605 40.6076 100.056C40.7167 98.634 40.2804 97.2233 39.3872 96.1104C39.1534 95.792 39.6623 95.3859 39.9121 95.6806Z" fill="#772F1E"/>
</g>
<g style="mix-blend-mode:multiply" opacity="0.28">
<path d="M120.065 92.0249C119.373 96.4419 117.593 100.618 114.885 104.177C112.275 107.74 108.604 110.388 104.397 111.74C104.264 111.77 104.125 111.753 104.004 111.691C103.883 111.629 103.787 111.527 103.734 111.401C103.681 111.276 103.673 111.136 103.712 111.006C103.752 110.876 103.836 110.764 103.95 110.689C104.864 110.21 105.747 109.67 106.59 109.075C113.48 104.2 118.386 96.4077 118.111 87.595C118.036 85.4957 117.729 83.4112 117.197 81.3789C117.766 80.5349 118.281 79.656 118.74 78.7476C120.186 83.0151 120.639 87.556 120.065 92.0249V92.0249Z" fill="#772F1E"/>
</g>
</g>
<path d="M43.8132 74.0106C47.5696 74.0106 50.6147 70.8763 50.6147 67.0098C50.6147 63.1434 47.5696 60.009 43.8132 60.009C40.0568 60.009 37.0117 63.1434 37.0117 67.0098C37.0117 70.8763 40.0568 74.0106 43.8132 74.0106Z" fill="white"/>
<path d="M49.5635 68.2916C49.3858 68.97 49.0743 69.6062 48.6472 70.1627C48.2201 70.7192 47.6861 71.1848 47.0764 71.5323C46.4667 71.8798 45.7937 72.1021 45.0969 72.1861C44.4001 72.2702 43.6935 72.2144 43.0186 72.0219C41.6533 71.5948 40.5095 70.6507 39.8322 69.3916C39.1548 68.1325 38.9977 66.6586 39.3943 65.2852C39.572 64.6067 39.8836 63.9706 40.3106 63.4141C40.7377 62.8576 41.2718 62.3919 41.8814 62.0444C42.4911 61.6969 43.1641 61.4746 43.8609 61.3905C44.5577 61.3064 45.2644 61.3623 45.9393 61.5547C47.3046 61.9819 48.4483 62.926 49.1257 64.1851C49.803 65.4442 49.9602 66.9182 49.5635 68.2916V68.2916Z" fill="black"/>
<path d="M47.2628 69.4035C47.2112 69.6007 47.1207 69.7855 46.9966 69.9472C46.8725 70.1089 46.7173 70.2443 46.5402 70.3452C46.3631 70.4462 46.1676 70.5108 45.9651 70.5352C45.7627 70.5596 45.5574 70.5434 45.3613 70.4875C44.9647 70.3634 44.6324 70.089 44.4357 69.7232C44.2389 69.3573 44.1932 68.9291 44.3084 68.53C44.3601 68.3329 44.4506 68.148 44.5746 67.9863C44.6987 67.8246 44.8539 67.6892 45.031 67.5883C45.2081 67.4873 45.4036 67.4227 45.6061 67.3982C45.8085 67.3738 46.0138 67.39 46.2099 67.446C46.6066 67.5701 46.9388 67.8445 47.1356 68.2103C47.3324 68.5762 47.378 69.0045 47.2628 69.4035Z" fill="white"/>
<path d="M71.7289 67.2819C71.8302 68.18 72.1088 69.0492 72.5484 69.839C72.9881 70.6289 73.5802 71.3238 74.2904 71.8836C75.0006 72.4434 75.8149 72.8569 76.6861 73.1001C77.5573 73.3434 78.4682 73.4117 79.3659 73.301C81.18 73.0235 82.8114 72.0426 83.9062 70.5709C85.0009 69.0993 85.4707 67.2557 85.2136 65.4401C85.1123 64.542 84.8338 63.6729 84.3941 62.883C83.9544 62.0931 83.3624 61.3982 82.6521 60.8385C81.9419 60.2787 81.1276 59.8652 80.2564 59.6219C79.3852 59.3787 78.4744 59.3104 77.5766 59.4211C75.7625 59.6986 74.1312 60.6795 73.0364 62.1511C71.9416 63.6228 71.4718 65.4664 71.7289 67.2819V67.2819Z" fill="white"/>
<path d="M72.776 66.7689C72.8548 67.4675 73.0715 68.1435 73.4135 68.7578C73.7554 69.3722 74.2159 69.9127 74.7684 70.3481C75.3208 70.7834 75.9541 71.105 76.6317 71.2942C77.3094 71.4835 78.0178 71.5366 78.7161 71.4504C80.1271 71.2346 81.396 70.4716 82.2474 69.327C83.0989 68.1824 83.4643 66.7484 83.2644 65.3363C83.1856 64.6378 82.9689 63.9618 82.6269 63.3474C82.285 62.733 81.8244 62.1925 81.272 61.7572C80.7196 61.3218 80.0863 61.0002 79.4086 60.811C78.731 60.6218 78.0226 60.5687 77.3243 60.6548C75.9133 60.8706 74.6444 61.6336 73.7929 62.7782C72.9415 63.9229 72.5761 65.3568 72.776 66.7689V66.7689Z" fill="black"/>
<path d="M74.3222 67.4076C74.3451 67.6106 74.408 67.807 74.5074 67.9855C74.6067 68.164 74.7405 68.3211 74.901 68.4476C75.0615 68.5741 75.2455 68.6676 75.4424 68.7225C75.6392 68.7775 75.8451 68.793 76.0479 68.768C76.4578 68.7052 76.8265 68.4835 77.0738 68.1509C77.3212 67.8183 77.4274 67.4017 77.3693 66.9913C77.3464 66.7883 77.2834 66.5919 77.1841 66.4134C77.0848 66.2349 76.951 66.0778 76.7905 65.9513C76.63 65.8248 76.446 65.7314 76.2491 65.6764C76.0523 65.6214 75.8465 65.606 75.6436 65.631C75.2337 65.6937 74.865 65.9154 74.6176 66.248C74.3703 66.5806 74.2641 66.9973 74.3222 67.4076V67.4076Z" fill="white"/>
</svg>
