<svg width="131" height="199" viewBox="0 0 131 199" fill="none" xmlns="http://www.w3.org/2000/svg">
<path d="M83.9043 165.669C83.6832 166.657 83.4263 167.637 83.1335 168.61C82.1802 171.634 81.023 174.589 79.6698 177.455C78.1099 180.873 73.7649 191.013 72.337 192.127C71.7178 192.649 70.9387 192.942 70.1296 192.959C69.3205 192.975 68.5303 192.713 67.8907 192.216C67.771 184.891 66.6256 175.609 66.687 168.284C66.6932 167.61 66.6164 166.023 66.4936 163.968C66.3953 162.365 66.2725 160.476 66.1404 158.516C66.1283 158.335 66.0474 158.166 65.9144 158.043C65.7813 157.921 65.6064 157.854 65.4255 157.857C65.2447 157.859 65.0718 157.932 64.9426 158.058C64.8134 158.185 64.7376 158.357 64.731 158.538C64.6696 160.276 64.6143 162.026 64.5744 163.666C64.5099 166.297 64.4822 168.638 64.5253 170.176C64.6635 175.151 63.6594 182.239 63.6594 187.22C63.6594 188.241 63.7576 189.198 63.8129 190.21C63.819 190.333 63.859 190.601 63.8866 190.902V190.908C63.9352 191.271 63.9248 191.638 63.8559 191.997C63.8373 192.084 63.7896 192.161 63.7208 192.216C63.0806 192.713 62.2899 192.975 61.4803 192.959C60.6707 192.942 59.8911 192.649 59.2713 192.127C57.8466 191.013 53.5015 180.873 51.9417 177.455C50.6274 174.67 49.497 171.802 48.5578 168.868C48.5301 168.782 48.5025 168.696 48.4779 168.61C46.5507 161.919 46.0588 154.896 47.0347 148.001C47.2528 146.303 47.5424 144.613 47.9037 142.931C47.9805 142.571 48.0603 142.211 48.1463 141.851C48.3275 141.066 48.521 140.285 48.7328 139.507C48.9754 138.608 49.2333 137.713 49.5128 136.824C49.7461 136.073 49.9949 135.326 50.2528 134.581L60.9971 132.969L72.2603 133.218L81.3587 134.581C81.9299 136.227 82.4437 137.894 82.9001 139.58C83.1765 140.617 83.4294 141.66 83.6586 142.709C84.0301 144.417 84.3311 146.14 84.5583 147.865C85.393 153.792 85.1715 159.82 83.9043 165.669V165.669Z" fill="#2435A1"/>
<g style="mix-blend-mode:multiply" opacity="0.4">
<path d="M63.6602 187.219C63.6602 188.241 63.7584 189.198 63.8137 190.21C63.8198 190.333 63.8598 190.6 63.8874 190.902V190.908C63.8751 191.277 63.8628 191.64 63.8567 191.997C63.8381 192.083 63.7904 192.161 63.7216 192.216C63.0814 192.712 62.2907 192.975 61.4811 192.958C60.6716 192.942 59.8919 192.649 59.2721 192.127C57.8474 191.013 53.5024 180.873 51.9425 177.455C50.6282 174.67 49.4978 171.802 48.5586 168.868C49.6181 170.145 50.9522 171.164 52.4608 171.851C53.9694 172.538 55.6135 172.874 57.2701 172.834C61.1944 172.751 63.4422 167.561 64.5752 163.666C64.5107 166.296 64.4831 168.638 64.5261 170.176C64.6643 175.15 63.6602 182.239 63.6602 187.219Z" fill="#30A2BE"/>
</g>
<path d="M63.9276 186.114C63.959 185.776 63.8794 185.181 62.9484 185.846C62.0175 186.512 57.248 187.077 55.6473 185.781C54.6448 184.969 55.8559 187.724 56.9013 189.897L56.9033 189.901L56.9099 189.915C57.0546 190.216 59.0412 194.494 55.3239 195.416C52.012 196.238 60.921 196.608 60.921 196.608L62.8101 196.047L63.5699 193.934L63.1769 192.67C63.2263 192.513 63.2657 192.352 63.2948 192.189C63.6313 190.322 63.896 186.451 63.9276 186.114Z" fill="#FF6551"/>
<path d="M63.2972 196.933C63.1266 197.447 62.8059 197.899 62.3765 198.23C61.9471 198.561 61.4288 198.755 60.8882 198.788C58.2443 198.951 52.6926 199.212 50.7146 198.691C48.0801 197.996 48.4918 193.829 51.7848 192.638C55.0778 191.448 59.9589 193.086 61.2524 194.028C61.3569 194.116 61.4853 194.171 61.6213 194.186C61.7572 194.202 61.8946 194.176 62.0159 194.113C62.2963 193.92 62.5146 193.65 62.6441 193.335C62.854 192.895 63.0192 192.435 63.1372 191.961C63.2851 191.4 63.4048 190.832 63.4958 190.259C63.5917 189.674 63.6665 189.086 63.7203 188.495C63.7681 187.976 63.8019 187.456 63.8111 186.935C63.8149 186.716 63.8127 186.496 63.803 186.277C63.7998 186.202 63.7214 185.715 63.817 185.704C63.8973 185.694 63.9368 185.886 63.9387 185.927C63.9617 186.414 63.9832 186.901 63.9979 187.388C64.0144 187.929 64.0248 188.471 64.0293 189.013C64.0344 189.658 64.0301 190.302 64.0162 190.947C64.0006 191.63 63.9727 192.312 63.926 192.994C63.881 193.651 63.8192 194.308 63.7261 194.96C63.6503 195.531 63.5359 196.096 63.3835 196.651C63.3565 196.746 63.3278 196.839 63.2972 196.933Z" fill="#F37A7C"/>
<g style="mix-blend-mode:multiply" opacity="0.4">
<path d="M83.9048 165.669C83.6837 166.656 83.4268 167.637 83.1341 168.61C82.1808 171.633 81.0235 174.588 79.6704 177.455C78.1105 180.873 73.7655 191.013 72.3376 192.126C71.7184 192.648 70.9392 192.942 70.1301 192.958C69.321 192.974 68.5308 192.712 67.8913 192.215C67.7715 184.89 66.6262 175.609 66.6876 168.284C66.6937 167.61 66.6169 166.022 66.4941 163.967C67.5781 168.062 69.8657 173.692 74.2568 174.113C78.2118 174.495 81.6602 169.797 83.9048 165.669Z" fill="#30A2BE"/>
</g>
<path d="M67.6987 186.114C67.6673 185.776 67.7469 185.181 68.6779 185.846C69.6088 186.512 74.3782 187.077 75.979 185.781C76.9816 184.969 75.7703 187.724 74.725 189.897L74.7229 189.901L74.7163 189.915C74.5716 190.216 72.585 194.494 76.3023 195.416C79.6141 196.238 70.7051 196.608 70.7051 196.608L68.8161 196.047L68.0563 193.934L68.4493 192.67C68.3999 192.513 68.3605 192.352 68.3314 192.189C67.995 190.322 67.7302 186.451 67.6987 186.114Z" fill="#FF6551"/>
<path d="M68.3278 196.933C68.4985 197.447 68.8192 197.899 69.2485 198.23C69.6779 198.561 70.1963 198.755 70.7369 198.788C73.3807 198.951 78.9325 199.212 80.9106 198.691C83.545 197.996 83.1334 193.829 79.8403 192.638C76.5472 191.448 71.6662 193.086 70.3728 194.028C70.2682 194.116 70.1398 194.171 70.0039 194.186C69.8679 194.202 69.7305 194.176 69.6092 194.113C69.3288 193.92 69.1105 193.65 68.9811 193.335C68.7711 192.895 68.6059 192.435 68.4879 191.961C68.34 191.4 68.2203 190.832 68.1294 190.259C68.0334 189.674 67.9586 189.086 67.9049 188.495C67.857 187.976 67.8232 187.456 67.814 186.935C67.8102 186.716 67.8125 186.496 67.8221 186.277C67.8253 186.202 67.9037 185.715 67.8082 185.704C67.7278 185.694 67.6883 185.886 67.6865 185.927C67.6634 186.414 67.6419 186.901 67.6272 187.388C67.6108 187.929 67.6003 188.471 67.5959 189.013C67.5907 189.658 67.595 190.302 67.609 190.947C67.6245 191.63 67.6525 192.312 67.6991 192.994C67.7441 193.651 67.806 194.308 67.8992 194.96C67.9749 195.531 68.0893 196.096 68.2416 196.651C68.2685 196.746 68.2973 196.839 68.3278 196.933Z" fill="#F37A7C"/>
<path d="M87.0307 102.477C87.491 106.029 87.493 109.625 87.0369 113.177L87.0338 113.19C87.0215 113.307 87.0062 113.423 86.9939 113.544C86.1077 120.611 84.7588 127.613 82.956 134.503C82.8055 135.063 82.654 135.601 82.5015 136.116L82.4984 136.128C82.3787 136.54 82.2589 136.937 82.1392 137.315C79.1732 138.112 76.1628 138.733 73.1237 139.174C57.5892 141.407 49.323 137.337 49.323 137.337C48.5216 133.476 46.8757 119.34 46.2124 113.473C46.0312 111.898 45.9238 110.916 45.9207 110.895C45.3065 103.336 47.7181 96.4953 54.0898 95.9663C54.6702 95.9169 74.1836 95.3984 75.947 95.6716C86.766 97.3471 87.0307 102.477 87.0307 102.477Z" fill="#FF6551"/>
<path d="M77.0492 99.1698L76.2969 95.7168C76.2969 95.7168 94.0462 97.2803 101.393 119.056C101.632 119.946 101.589 120.89 101.27 121.755C100.95 122.62 100.37 123.365 99.6105 123.885C98.8505 124.406 97.9478 124.678 97.0272 124.662C96.1066 124.646 95.2136 124.345 94.4715 123.799C92.1367 122.328 88.9074 116.716 86.5135 114.633C81.092 109.916 76.9514 105.325 77.0492 99.1698Z" fill="#FF6551"/>
<path d="M101.275 118.8C101.969 119.417 101.768 131.133 86.9022 139.119C85.2574 137.859 84.1048 136.062 83.6445 134.039C83.6445 134.039 90.5488 122.614 93.4233 121.345C95.984 120.331 98.6064 119.481 101.275 118.8V118.8Z" fill="#FF6551"/>
<path d="M57.1797 95.9024C58.2718 97.3851 59.7138 98.5734 61.3766 99.361C63.0394 100.149 64.8712 100.511 66.708 100.416C68.502 100.357 70.2608 99.9008 71.8582 99.0806C73.4557 98.2604 74.8522 97.0962 75.9476 95.6716C75.3657 95.3578 74.7595 95.0915 74.1348 94.8752C72.0867 94.6998 61.4897 94.4484 59.159 94.6791C58.6278 94.7314 57.3669 95.8746 57.1797 95.9024Z" fill="#DF4C4B"/>
<path d="M87.0312 113.106C87.0219 113.217 87.0097 113.331 86.9944 113.444C86.1102 120.545 84.7613 127.58 82.9564 134.503C82.8029 135.06 82.6514 135.597 82.502 136.115L82.4989 136.127C82.3791 136.536 82.2594 136.927 82.1397 137.305C79.1725 138.1 76.1624 138.723 73.1242 139.173C57.5896 141.406 49.3235 137.336 49.3235 137.336C48.522 133.475 46.8762 119.339 46.2129 113.472C47.5947 117.478 53.1649 130.768 66.467 131.42C81.7835 132.171 86.8101 113.943 87.0312 113.106Z" fill="#DF4C4B"/>
<path d="M84.2576 134.534C84.0367 134.269 83.7496 134.068 83.4258 133.951C83.2032 133.882 82.014 133.737 79.162 134.559C78.6589 134.704 76.7463 135.661 76.9775 136.821C77.1444 137.659 79.3009 137.001 80.0756 136.932C79.4167 137.043 76.0649 137.862 76.2966 139.118C76.5277 140.371 80.245 139.217 80.245 139.217C80.245 139.217 77.2669 140.004 77.2985 141.153C77.33 142.301 81.5977 141.275 81.5977 141.275C81.5977 141.275 79.0942 141.877 79.4771 143.015C79.6584 143.554 81.4883 143.411 81.8846 143.361C82.5136 143.291 83.1282 143.125 83.7072 142.87C84.9358 142.278 85.8992 141.247 86.4086 139.981C86.5224 139.682 86.6798 139.402 86.8757 139.15L86.9008 139.118C87.2417 138.696 86.4436 137.584 86.2464 137.266C85.7537 136.486 85.2206 135.733 84.6494 135.009C84.526 134.85 84.397 134.686 84.2576 134.534Z" fill="#FFBF94"/>
<path d="M32.9026 101.518L33.7396 101.028C34.31 100.439 34.6879 99.6907 34.8228 98.8817C34.9576 98.0726 34.8431 97.2416 34.4944 96.4994C33.2818 93.8432 34.8324 93.1282 35.01 92.2396C35.1875 91.3509 33.8696 90.7446 32.7847 91.8174C32.3376 92.2999 32.068 92.9207 32.0203 93.5773C31.9907 93.8398 31.5265 93.9519 31.3508 93.3449C30.687 91.0509 30.6213 86.7465 29.1353 86.6582C27.6035 86.567 28.4557 88.4636 29.5091 93.3076C29.1654 93.6358 26.4608 85.6155 25.1218 86.3075C23.7342 87.0244 27.8479 94.5726 27.4822 94.5713C27.3637 94.6518 23.7079 88.2042 22.882 88.8544C22.0853 89.4815 23.8813 92.2449 25.7087 96.2421C25.4692 96.347 21.8371 92.5343 21.3727 94.0995C21.1667 94.7941 24.3763 97.0314 25.9682 99.7194C27.4963 102.3 28.8732 103.219 30.0136 102.816C30.9983 102.434 31.9626 102 32.9026 101.518V101.518Z" fill="#FFBF94"/>
<path d="M50.8051 97.5795C51.1036 97.6358 51.3958 97.7213 51.6776 97.8347C52.314 98.0945 52.8836 98.4948 53.344 99.0058C53.8044 99.5168 54.1438 100.125 54.3369 100.786C55.0216 103.198 53.6408 105.664 52.3149 107.791C48.1283 114.507 42.5448 122.208 34.5021 124.673C31.4609 125.607 27.5989 123.118 29.7323 118.346C30.8596 115.824 35.9561 111.837 37.6807 109.171C39.5509 106.227 41.7214 103.485 44.1575 100.989C45.931 99.2056 48.1598 97.0867 50.8051 97.5795Z" fill="#FF6551"/>
<path d="M32.6514 124.66C28.4981 124.752 27.4388 118.8 27.1445 116.67C26.4232 111.447 27.2173 101.343 27.2173 101.343C28.1951 101.778 29.2544 101.998 30.3241 101.989C31.3937 101.979 32.4491 101.741 33.4192 101.29C34.1819 103.928 34.8487 106.603 35.4094 109.292C35.7938 111.135 36.1876 113.058 36.4424 114.906C36.8176 117.974 36.139 121.079 34.5182 123.709C34.329 123.999 34.0717 124.239 33.7689 124.406C33.466 124.574 33.1267 124.665 32.7807 124.671C32.7375 124.669 32.6947 124.659 32.6514 124.66Z" fill="#FF6551"/>
<path d="M74.0991 95.6653C74.0991 95.6653 72.3048 98.3959 66.3942 97.6452C60.4819 96.8941 59.16 94.6787 59.16 94.6787L59.1576 92.4359L59.1558 92.4356L59.1523 89.2216L73.1444 88.0726L74.4585 87.9644L74.421 88.787L74.2207 93.0485L74.0991 95.6653Z" fill="#EA9573"/>
<g style="mix-blend-mode:multiply" opacity="0.31">
<path d="M74.2207 93.0489C72.3457 94.3082 69.942 95.5432 67.8087 95.4639C63.5816 95.3074 59.2662 92.5071 59.1576 92.4363L59.1558 92.436L59.1523 89.222L73.1444 88.073L74.421 88.7874L74.2207 93.0489Z" fill="#DD7258"/>
</g>
<path d="M101.096 53.0792C101.096 53.0792 106.67 50.4599 109.778 54.4037C112.886 58.3474 107.958 68.3546 104.188 69.3346C100.419 70.3147 98.9453 69.3278 98.9453 69.3278L101.096 53.0792Z" fill="#FFBF94"/>
<path d="M31.3015 52.9887C31.3015 52.9887 25.7341 50.355 22.616 54.2908C19.4979 58.2265 24.4003 68.2463 28.1675 69.2361C31.9347 70.2259 33.4106 69.2429 33.4106 69.2429L31.3015 52.9887Z" fill="#FFBF94"/>
<path d="M103.735 38.1179C103.735 38.1179 102.696 52.7986 101.076 64.6142L101.075 64.6191V64.6224L101.068 64.6716C100.825 66.4442 100.569 68.1528 100.301 69.7365L100.296 69.7676C99.4924 74.5041 98.5866 78.116 97.6204 79.0111C94.1755 82.1994 74.5004 92.7817 66.8002 92.2678C59.1001 91.7538 38.7958 81.9717 35.5235 78.4382C34.4763 77.3075 33.3492 73.3285 32.3004 68.4403C30.0707 58.0545 28.1953 43.5653 28.1953 43.5653C29.0453 19.7048 42.3272 11.6553 68.0521 10.8481C93.777 10.0409 103.735 38.1179 103.735 38.1179Z" fill="#FFBF94"/>
<g opacity="0.27">
<path opacity="0.27" d="M84.7166 19.1365C84.7166 19.1365 81.6444 2.86732 64.3088 3.08717C57.021 3.22549 49.8547 4.98351 43.3276 8.23428C36.8004 11.485 31.0752 16.1474 26.5654 21.8848C22.2083 27.5422 20.2464 34.6892 21.103 41.7832C21.9597 48.8772 25.5663 55.3493 31.1443 59.8023C31.1443 59.8023 35.1272 52.4065 39.0771 46.6128C39.0771 46.6128 61.2367 56.3081 82.0833 38.162C82.0833 38.162 87.7887 29.2565 84.7166 19.1365Z" fill="#DA8966"/>
<path opacity="0.27" d="M80.9861 28.8627C80.9861 28.8627 80.3277 39.2218 87.1303 45.4483C93.933 51.6748 99.1995 52.3344 99.1995 52.3344C99.1995 52.3344 102.93 59.3748 100.297 66.844C100.297 66.844 109.798 57.9029 108.262 39.3572C106.725 20.8115 97.8482 14.7395 80.9688 14.9593L80.9861 28.8627Z" fill="#DA8966"/>
</g>
<path d="M80.3457 47.1598C80.6297 47.6029 81.1229 47.5557 81.6026 47.6057C82.1594 47.6638 82.7111 47.6653 83.2699 47.679C84.3536 47.679 85.428 47.8781 86.4399 48.2667C87.3511 48.6882 88.21 49.215 88.9991 49.8364C89.386 50.1418 89.7904 50.4242 90.2102 50.6823C90.4494 50.8265 90.7025 50.9461 90.9656 51.0393C91.2177 51.1137 91.4695 51.0692 91.716 51.1599C92.0116 51.2686 92.1943 50.912 92.0867 50.6781C91.9685 50.4209 91.9989 50.125 91.868 49.8664C91.7149 49.5828 91.5313 49.3168 91.3205 49.0731C90.9249 48.6191 90.4828 48.208 90.0016 47.8465C89.0283 47.0795 87.9265 46.4924 86.7476 46.1129C85.5048 45.7466 84.1987 45.6479 82.9151 45.8232C82.5134 45.8683 79.7742 46.2681 80.3457 47.1597V47.1598Z" fill="#5F130F"/>
<g style="mix-blend-mode:multiply" opacity="0.44">
<path d="M30.9511 65.452C28.8277 64.4114 27.1742 62.6068 26.3207 60.3983C25.9916 59.4309 26.0763 57.8752 27.3627 57.7069C28.4254 57.5678 28.8587 58.9506 29.3341 59.6592C29.5822 60.0288 30.2569 59.8115 30.0949 59.339C29.6616 58.0751 29.2473 56.4826 27.6727 56.2907C26.9159 56.2568 26.1763 56.5232 25.6143 57.0321C25.0522 57.5409 24.7131 58.2513 24.6705 59.0091C24.4608 60.8305 25.5605 62.5363 26.5945 63.9354C27.6604 65.3778 28.9689 66.5627 30.8548 66.1832C30.9294 66.161 30.996 66.1175 31.0465 66.0582C31.097 65.9989 31.1293 65.9262 31.1395 65.8489C31.1497 65.7716 31.1373 65.693 31.1039 65.6225C31.0705 65.5521 31.0174 65.4929 30.9511 65.452V65.452Z" fill="#DA8966"/>
</g>
<g style="mix-blend-mode:multiply" opacity="0.44">
<path d="M108.249 58.9724C108.156 57.5917 107.017 56.3591 105.572 56.9352C104.595 57.3248 103.021 59.2214 104.088 60.1975C104.115 60.2237 104.148 60.2434 104.184 60.2553C104.22 60.2671 104.258 60.2708 104.295 60.266C104.333 60.2612 104.369 60.248 104.401 60.2275C104.433 60.207 104.46 60.1796 104.48 60.1473C105.014 59.4343 105.083 58.2685 106.12 58.0007C107.541 57.6338 107.073 60.0409 106.915 60.7302C106.745 61.5865 106.39 62.395 105.875 63.0987C105.266 63.7446 104.515 64.2387 103.682 64.5414C103.643 64.5649 103.61 64.597 103.585 64.6352C103.56 64.6735 103.544 64.7168 103.538 64.7622C103.532 64.8075 103.536 64.8535 103.551 64.8969C103.565 64.9403 103.589 64.9798 103.621 65.0126C104.749 66.2563 106.396 64.5889 107.029 63.5897C107.88 62.204 108.304 60.5981 108.249 58.9724V58.9724Z" fill="#DA8966"/>
</g>
<path d="M48.644 47.8643C47.8827 47.0515 46.3725 47.3518 45.3912 47.4889C44.276 47.6576 43.1909 47.9867 42.1696 48.466C41.1781 48.9204 40.2475 49.498 39.3999 50.185C38.6673 50.7711 37.4458 51.8376 37.7484 52.8946C37.7926 53.0397 37.8811 53.1672 38.0015 53.2593C38.1218 53.3513 38.2679 53.4032 38.4192 53.4077C39.3085 53.5066 40.2033 52.4062 40.8562 51.9184C41.5962 51.3591 42.3992 50.8889 43.2488 50.5175C44.073 50.1763 44.9279 49.9145 45.8017 49.7357C46.709 49.5387 47.9324 49.6909 48.6425 49.0256C48.7933 48.8701 48.8777 48.662 48.878 48.4452C48.8783 48.2285 48.7944 48.0202 48.644 47.8643V47.8643Z" fill="#5F130F"/>
<path d="M76.2485 76.2231C75.7319 78.2298 74.7919 80.1021 73.4918 81.7139C72.5808 82.8112 71.4381 83.6923 70.1461 84.2938C68.8541 84.8953 67.4451 85.2022 66.0205 85.1923C64.4266 85.2677 62.8402 84.9308 61.4139 84.2141C59.9877 83.4973 58.7696 82.4247 57.8769 81.0996C56.8119 79.552 56.0301 77.8269 55.5683 76.0049C55.4995 75.7565 55.5222 75.4916 55.6323 75.2586C55.7451 75.0107 55.9449 74.813 56.1937 74.703C56.4425 74.593 56.7229 74.5784 56.9818 74.662L57.3508 74.78C62.9937 76.5977 69.0648 76.5881 74.7018 74.7524C74.8253 74.7119 74.9543 74.6908 75.0842 74.6898C75.337 74.6917 75.583 74.7725 75.788 74.921C75.9929 75.0694 76.1466 75.2781 76.2277 75.5181C76.3066 75.7454 76.3139 75.9916 76.2485 76.2231Z" fill="#831532"/>
<path d="M76.2281 75.5181C73.2248 77.6994 69.6289 78.9108 65.9204 78.9907C62.1865 78.8526 58.5893 77.5476 55.6328 75.2586C55.7456 75.0107 55.9454 74.813 56.1942 74.703C56.443 74.593 56.7235 74.5784 56.9823 74.662L57.3514 74.78C62.9942 76.5977 69.0652 76.5881 74.7023 74.7524C74.8258 74.7119 74.9547 74.6908 75.0846 74.6898C75.3375 74.6918 75.5835 74.7726 75.7884 74.921C75.9933 75.0694 76.147 75.2782 76.2281 75.5181V75.5181Z" fill="white"/>
<path d="M73.4918 81.714C72.5808 82.8113 71.4381 83.6925 70.1461 84.294C68.8542 84.8955 67.4451 85.2024 66.0205 85.1924C64.4266 85.2679 62.8402 84.931 61.4139 84.2142C59.9877 83.4974 58.7696 82.4249 57.877 81.0998C63.038 79.8493 68.4445 80.062 73.4918 81.714V81.714Z" fill="#FF6551"/>
<path d="M50.6908 72.8345C51.0923 71.1596 48.8857 69.1925 45.7622 68.4408C42.6387 67.689 39.781 68.4374 39.3794 70.1123C38.9779 71.7872 41.1845 73.7544 44.308 74.5061C47.4315 75.2578 50.2892 74.5094 50.6908 72.8345Z" fill="#F2786B"/>
<path d="M88.07 74.6174C91.2509 74.1683 93.6351 72.4214 93.3951 70.7157C93.1551 69.01 90.382 67.9914 87.201 68.4406C84.0201 68.8898 81.6359 70.6366 81.8759 72.3423C82.1158 74.048 84.889 75.0666 88.07 74.6174Z" fill="#F2786B"/>
<g style="mix-blend-mode:multiply" opacity="0.21">
<g style="mix-blend-mode:multiply" opacity="0.21">
<path d="M65.4654 67.4629C64.4107 67.488 63.3768 67.7609 62.4466 68.2595C62.3761 68.2916 62.3133 68.3388 62.2629 68.3977C62.0834 68.639 62.371 68.9528 62.6366 69.0933C64.3931 69.8587 66.3641 69.9733 68.1972 69.4166C68.6509 69.3482 69.0772 69.1563 69.4295 68.8618C69.6319 68.6619 69.7554 68.3029 69.5484 68.1078C69.455 68.0345 69.3434 67.9881 69.2257 67.9737C67.5012 67.6134 65.721 67.6141 63.9968 67.9758L65.4654 67.4629Z" fill="#DA8966"/>
</g>
</g>
<path d="M62.3458 68.6525C62.8166 68.4784 63.2052 68.1556 63.6996 68.0049C64.273 67.8514 64.8659 67.7836 65.4591 67.8036C66.02 67.7889 66.5812 67.8219 67.1366 67.9023C67.7024 67.9993 68.2274 68.2601 68.6469 68.6526C69.1235 69.0515 69.8982 68.5535 69.5485 67.9575C68.7852 66.6568 66.868 66.6455 65.5527 66.6661C64.4316 66.6836 62.2304 66.8097 61.9181 68.2229C61.8656 68.4605 62.0807 68.7506 62.3459 68.6525H62.3458Z" fill="#D88261"/>
<path d="M53.7599 63.0079C55.4995 59.645 54.1888 55.506 50.8323 53.7631C47.4758 52.0202 43.3446 53.3334 41.605 56.6962C39.8653 60.059 41.1761 64.1981 44.5325 65.941C47.889 67.6839 52.0203 66.3707 53.7599 63.0079Z" fill="white"/>
<path d="M53.4688 61.1076C53.1781 62.1216 52.5938 63.0265 51.7898 63.7078C50.9858 64.3891 49.9982 64.8162 48.9519 64.9352C47.9056 65.0542 46.8476 64.8596 45.9116 64.3761C44.9757 63.8927 44.2039 63.142 43.6938 62.219C43.1837 61.2961 42.9582 60.2423 43.0458 59.191C43.1335 58.1396 43.5303 57.1379 44.1862 56.3126C44.8421 55.4872 45.7275 54.8752 46.7305 54.554C47.7336 54.2328 48.8091 54.2168 49.8212 54.508C50.4933 54.7014 51.1207 55.0255 51.6677 55.4618C52.2147 55.8982 52.6705 56.4381 53.0092 57.051C53.3479 57.6638 53.5629 58.3375 53.6417 59.0335C53.7205 59.7295 53.6618 60.4343 53.4688 61.1076V61.1076Z" fill="black"/>
<path d="M51.1551 62.1976C51.0706 62.4923 50.9008 62.7552 50.6672 62.9532C50.4336 63.1511 50.1466 63.2752 49.8426 63.3098C49.5386 63.3444 49.2311 63.2878 48.9592 63.1473C48.6872 63.0069 48.4629 62.7887 48.3147 62.5205C48.1665 62.2523 48.101 61.9461 48.1265 61.6407C48.1519 61.3352 48.2673 61.0441 48.4578 60.8043C48.6484 60.5644 48.9057 60.3866 49.1972 60.2933C49.4886 60.2 49.8012 60.1953 50.0952 60.28C50.2905 60.3362 50.4728 60.4303 50.6318 60.5571C50.7907 60.6839 50.9232 60.8408 51.0216 61.0189C51.12 61.1969 51.1824 61.3927 51.2053 61.5949C51.2282 61.7972 51.2112 62.002 51.1551 62.1976V62.1976Z" fill="white"/>
<path d="M77.7783 61.121C77.9563 62.4656 78.5284 63.7271 79.4221 64.746C80.3158 65.7649 81.491 66.4953 82.799 66.8451C84.1071 67.1948 85.4893 67.148 86.7709 66.7107C88.0524 66.2734 89.1758 65.4652 89.9989 64.3882C90.8219 63.3113 91.3078 62.014 91.3949 60.6604C91.4821 59.3068 91.1667 57.9577 90.4885 56.7837C89.8104 55.6097 88.8 54.6636 87.5852 54.0649C86.3704 53.4662 85.0056 53.2419 83.6635 53.4203C81.8639 53.6596 80.2327 54.6053 79.129 56.0495C78.0253 57.4936 77.5395 59.3179 77.7783 61.121V61.121Z" fill="white"/>
<path d="M78.8314 60.618C78.9699 61.6639 79.4149 62.6451 80.11 63.4375C80.8051 64.23 81.7192 64.7982 82.7366 65.0702C83.754 65.3422 84.8291 65.3058 85.8259 64.9657C86.8226 64.6255 87.6964 63.9969 88.3365 63.1592C88.9767 62.3216 89.3546 61.3126 89.4224 60.2597C89.4902 59.2069 89.2448 58.1576 88.7174 57.2445C88.1899 56.3314 87.4041 55.5955 86.4592 55.1298C85.5143 54.6642 84.4528 54.4897 83.4089 54.6285C82.7158 54.7207 82.0476 54.9487 81.4425 55.2995C80.8373 55.6504 80.3071 56.1173 79.882 56.6734C79.457 57.2296 79.1454 57.8642 78.9651 58.5411C78.7849 59.2179 78.7394 59.9236 78.8314 60.618V60.618Z" fill="black"/>
<path d="M80.3884 61.2442C80.4287 61.5481 80.5579 61.8332 80.7599 62.0635C80.9619 62.2938 81.2275 62.4589 81.5231 62.5379C81.8188 62.617 82.1312 62.6064 82.4208 62.5076C82.7104 62.4087 82.9643 62.2261 83.1504 61.9827C83.3364 61.7393 83.4462 61.4461 83.4659 61.1402C83.4856 60.8343 83.4143 60.5293 83.2611 60.264C83.1078 59.9987 82.8795 59.7848 82.6049 59.6495C82.3304 59.5142 82.0219 59.4635 81.7186 59.5038C81.3119 59.5579 80.9432 59.7717 80.6938 60.098C80.4443 60.4244 80.3345 60.8367 80.3884 61.2442V61.2442Z" fill="white"/>
<path d="M29.1979 50.568L24.8091 41.1143C24.8091 41.1143 -0.645753 45.7781 0.012552 82.1403C1.73565 82.9973 3.52193 83.7204 5.35561 84.3032C5.17281 81.1462 5.80791 77.9956 7.19923 75.1571C7.50921 78.5697 8.07399 81.9542 8.88883 85.2822C11.0574 85.7885 13.2714 86.0749 15.4973 86.1371C14.9455 82.4997 15.0379 78.7934 15.77 75.1881C16.5927 78.8596 17.6856 82.4649 19.0397 85.9747C21.0266 85.7544 22.9706 85.2429 24.8091 84.4564C24.8091 84.4564 19.3232 62.8797 29.1979 50.568Z" fill="#672410"/>
<path d="M107.318 36.7173L103.588 48.9192C106.602 53.6294 108.144 59.1347 108.014 64.7287C107.884 70.3227 106.089 75.7503 102.859 80.315C102.459 81.0213 102.094 81.7471 101.766 82.49C101.573 82.8481 101.383 83.2063 101.174 83.5641C103.189 84.9533 105.386 86.0576 107.702 86.8459C109.248 83.8917 110.348 80.7234 110.964 77.4451C110.964 77.4451 111.661 83.3257 110.4 87.6375C112.954 88.2609 115.593 88.4619 118.212 88.2325C119.978 85.1884 121.053 81.7924 121.362 78.2853C121.756 81.3808 121.875 84.5053 121.718 87.6219C123.502 87.1609 125.224 86.4888 126.848 85.6196C126.848 85.6196 144.403 44.4121 107.318 36.7173Z" fill="#672410"/>
<path d="M18.9457 46.6115C12.2727 51.1097 6.25515 59.4907 5.82031 67.7184" stroke="#772F1E" stroke-width="1.86439" stroke-linecap="round" stroke-linejoin="round"/>
<path d="M21.0237 49.1389C15.0446 55.1849 11.7052 62.5226 11.8628 73.9823" stroke="#772F1E" stroke-width="1.86439" stroke-linecap="round" stroke-linejoin="round"/>
<path d="M24.0423 53.3843C24.0423 53.3843 17.6785 60.6819 19.7632 75.3021" stroke="#772F1E" stroke-width="1.86439" stroke-linecap="round" stroke-linejoin="round"/>
<path d="M109.584 53.3842C114.66 58.0087 114.587 66.8477 113.588 73.0141" stroke="#772F1E" stroke-width="1.86439" stroke-linecap="round" stroke-linejoin="round"/>
<path d="M112.359 47.0569C120.188 55.5035 121.539 65.5139 119.594 76.5232" stroke="#772F1E" stroke-width="1.86439" stroke-linecap="round" stroke-linejoin="round"/>
<path d="M112.605 42.5923C124.304 45.898 127.498 61.6929 126.344 72.1055" stroke="#772F1E" stroke-width="1.86439" stroke-linecap="round" stroke-linejoin="round"/>
<path d="M26.6285 59.7981C26.3055 59.7959 25.9874 59.7183 25.6996 59.5714C25.4117 59.4245 25.1621 59.2123 24.9705 58.9517C24.7789 58.6911 24.6507 58.3893 24.5959 58.0704C24.5412 57.7514 24.5615 57.424 24.6553 57.1143C24.2147 57.4131 23.6786 57.5364 23.152 57.4601C22.6254 57.3837 22.1462 57.1133 21.8081 56.7017C21.4878 56.2754 21.2692 55.7812 21.1692 55.257C21.0692 54.7329 21.0903 54.1928 21.231 53.6781C21.5207 52.6522 21.9671 51.6774 22.5545 50.7884C20.9025 50.9499 18.9494 50.9911 17.9226 49.6846C16.811 48.2703 17.5741 46.0669 18.9674 44.9303C17.9439 44.6697 17.0205 44.111 16.3137 43.3248C15.0662 41.7098 16.1347 38.7569 17.7901 37.832C20.5065 36.3141 24.6497 38.2776 26.2654 40.6334C26.8678 41.5918 27.3537 42.619 27.7129 43.6929C28.8557 46.7077 30.6218 50.6187 30.0655 53.9309C29.764 55.726 28.8809 59.6474 26.6285 59.7981Z" fill="#FF6551"/>
<path d="M115.961 38.6461C116.087 39.1434 116.113 39.6607 116.039 40.1683C115.965 40.6759 115.791 41.1638 115.528 41.604C115.265 42.0441 114.918 42.4279 114.506 42.7332C114.095 43.0385 113.627 43.2594 113.13 43.3831C113.792 44.4461 115.113 45.0339 115.569 46.2003C115.748 46.8362 115.717 47.5127 115.482 48.13C115.248 48.7472 114.821 49.2726 114.266 49.6285C113.138 50.3149 111.874 50.7443 110.562 50.8863C111.034 52.4735 111.24 54.128 111.172 55.7827C111.132 56.6104 110.909 57.4188 110.519 58.1496C110.13 58.8805 109.583 59.5156 108.918 60.0091C108.236 60.4773 107.411 60.6878 106.588 60.6033C105.765 60.5189 104.999 60.1448 104.426 59.5477C103.851 58.6913 103.519 57.6948 103.464 56.6642C102.937 53.8894 102.799 51.0545 103.054 48.2415C103.268 46.9059 103.572 45.5862 103.962 44.2912C104.789 41.3117 105.901 38.7764 108.713 37.3225C111.121 36.0774 114.886 35.0617 115.961 38.6461Z" fill="#FF6551"/>
<path d="M84.7161 16.0515C84.7161 16.0515 81.644 -0.217645 64.3083 0.00220834C57.0205 0.140539 49.8543 1.89856 43.3271 5.14934C36.7999 8.40011 31.0747 13.0625 26.5649 18.7999C19.104 28.1435 17.7874 49.4692 31.3926 60.6817C31.3926 60.6817 34.2453 47.8654 38.1952 42.0717C38.1952 42.0717 61.2362 53.2232 82.0828 35.0771C82.0829 35.077 87.7883 26.1716 84.7161 16.0515Z" fill="#672410"/>
<path d="M80.9861 25.7773C80.9861 25.7773 80.3278 36.1364 87.1303 42.3629C93.9329 48.5895 99.1995 49.249 99.1995 49.249C99.1995 49.249 102.93 59.3739 100.297 66.8431C104.096 63.1102 107.014 58.5732 108.836 53.5643C110.659 48.5554 111.34 43.2015 110.83 37.8947C109.294 19.349 97.8482 11.6541 80.9688 11.874L80.9861 25.7773Z" fill="#672410"/>
<path d="M30.9288 58.7354C24.6597 54.1808 23.7332 43.9797 25.0403 36.979" stroke="#772F1E" stroke-width="1.86439" stroke-linecap="round" stroke-linejoin="round"/>
<path d="M30.5596 54.5608C28.1638 43.0482 29.3286 27.7231 38.036 18.9711C40.6279 16.3659 43.4127 13.6491 46.984 12.7955" stroke="#772F1E" stroke-width="1.86439" stroke-linecap="round" stroke-linejoin="round"/>
<path d="M34.4277 47.3193C36.0167 40.6331 39.8513 34.5017 43.334 31.4164C47.5258 27.6045 52.7728 25.1559 58.3825 24.3938" stroke="#772F1E" stroke-width="1.86439" stroke-linecap="round" stroke-linejoin="round"/>
<path d="M41.8945 40.6335C46.1888 37.5338 51.0317 35.2795 56.1657 33.9905" stroke="#772F1E" stroke-width="1.86439" stroke-linecap="round" stroke-linejoin="round"/>
<path d="M50.7266 40.9795C54.2356 40.8592 57.7276 40.4338 61.1632 39.7082C65.5975 38.6577 69.735 36.6095 73.2618 33.7188C76.7886 30.8282 79.6122 27.1709 81.5186 23.0244" stroke="#772F1E" stroke-width="1.86439" stroke-linecap="round" stroke-linejoin="round"/>
<path d="M89.0566 36.5061C89.153 39.0989 91.0438 41.2819 93.1242 42.8271C96.5268 45.3543 99.4747 46.5652 101.303 50.6091" stroke="#772F1E" stroke-width="1.86439" stroke-linecap="round" stroke-linejoin="round"/>
<path d="M98.418 34.8755C105.133 40.8775 106.519 51.0593 105.022 59.565" stroke="#772F1E" stroke-width="1.86439" stroke-linecap="round" stroke-linejoin="round"/>
<g style="mix-blend-mode:screen" opacity="0.27">
<path d="M110.828 37.895C109.364 20.2187 98.894 12.4056 83.3008 11.9017C81.1236 7.09756 75.9158 -0.145053 64.3072 0.0022108C57.0194 0.140543 49.8532 1.89856 43.326 5.14933C36.7989 8.40009 31.0737 13.0625 26.5638 18.7998C20.0748 26.9264 18.2392 44.1139 26.8207 55.8313C24.2567 48.5595 23.3054 40.3265 25.4465 33.0956C28.4132 23.076 36.2972 14.6864 45.6106 10.2031C55.8604 5.26895 68.2522 7.69136 76.9106 14.9243C76.4299 12.4118 75.4995 10.0071 74.1642 7.82643C77.3424 10.5915 79.8514 14.0445 81.5013 17.9243C81.9042 16.8027 82.3071 15.6812 82.71 14.5596C82.9629 15.5349 83.2159 16.5103 83.4688 17.4856C87.3843 16.7009 91.4306 16.8687 95.2679 17.975C92.8326 18.7818 90.3972 19.5886 87.9619 20.3953C91.1755 19.3307 96.4193 21.1082 99.0651 22.8422C102.372 25.1886 105.053 28.3143 106.869 31.9436C108.734 35.3436 110.1 38.9951 110.925 42.7856C110.996 41.155 110.964 39.5215 110.828 37.895V37.895Z" fill="#772F1E"/>
</g>
</svg>
