<svg width="125" height="349" viewBox="0 0 125 349" fill="none" xmlns="http://www.w3.org/2000/svg">
<path d="M24.2097 115.343C22.8702 114.456 21.5896 113.483 20.376 112.429C12.7138 105.737 8.55467 95.8475 6.03545 85.9633C2.51027 72.1323 0.676909 55.6927 5.57724 41.9646C7.2582 37.2555 9.52592 32.8018 10.9672 27.9944C12.9272 21.2027 16.2616 14.8912 20.7616 9.45559C24.3686 5.18903 29.1949 1.71558 34.6966 0.84159C40.0559 0.131682 45.4788 1.55927 49.8041 4.81871C53.3651 1.38404 58.4928 -0.0100577 63.4279 5.45876e-05C72.4864 0.0186883 78.8865 2.52144 84.8384 9.24542C88.9801 13.9244 92.9108 18.7814 96.6303 23.8163C102.998 32.4367 109.252 42.7195 109.824 53.7042C110.451 65.7322 107.377 77.6574 103.067 88.7844C100.351 95.7984 97.0791 102.685 92.363 108.531C85.0764 117.574 74.6691 123.526 63.2136 125.201C52.2757 126.697 41.0805 123.965 31.1122 119.198C28.7241 118.078 26.4176 116.789 24.2097 115.343V115.343Z" fill="#662920"/>
<path d="M16.3945 87.6787C16.5138 91.0897 16.9606 94.4811 17.7286 97.8058C19.7144 105.294 25.9259 110.425 31.3167 115.542" stroke="#5B1F17" stroke-width="3" stroke-linecap="round" stroke-linejoin="round"/>
<path d="M28.1737 92.8281C30.5322 102.282 34.0676 112.508 45.2684 113.729" stroke="#5B1F17" stroke-width="3" stroke-linecap="round" stroke-linejoin="round"/>
<path d="M35.5098 95.4656C35.5817 102.099 41.6336 106.805 46.9621 109.513" stroke="#5B1F17" stroke-width="3" stroke-linecap="round" stroke-linejoin="round"/>
<path d="M74.3307 97.1917C74.8964 104.977 70.4525 111.171 65.5957 116.743" stroke="#5B1F17" stroke-width="3" stroke-linecap="round" stroke-linejoin="round"/>
<path d="M72.8434 224.008C72.8434 224.008 68.9913 251.545 68.7773 255.633C68.5633 259.72 70.9174 269.832 70.8104 274.349C70.7034 278.867 66.8513 303.607 66.6373 308.125C66.4233 312.643 65.7812 318.021 66.6373 321.248C67.4933 324.475 70.8027 332.22 71.0741 335.232C71.3454 338.244 61.7151 339.104 60.0031 337.598C58.291 336.093 55.0196 321.41 55.0809 320.691C55.1422 319.972 53.9424 302.384 53.7356 297.006C53.5288 291.627 53.5754 274.884 53.4328 269.023C53.2901 263.163 50.9102 221.788 50.9102 221.788L72.8434 224.008Z" fill="#FFBF94"/>
<g style="mix-blend-mode:multiply" opacity="0.39">
<g style="mix-blend-mode:multiply" opacity="0.39">
<path d="M56.5793 264.024C55.6163 262.41 54.5462 258.215 54.3447 252.407C54.1432 246.598 54.3447 226.805 54.3447 226.805L51.1328 225.675C51.7273 236.108 53.3174 264.267 53.4332 269.024C53.5758 274.885 53.5292 291.628 53.7359 297.007C53.7477 297.312 53.763 297.661 53.7808 298.039L57.5424 300.09C57.5424 300.09 53.8823 281.009 55.0814 275.318C56.2804 269.628 56.7627 267.003 56.7627 267.003C56.7627 267.003 59.5755 267.036 60.8595 267.003C62.1435 266.969 62.7855 265.207 62.7855 265.207C59.7895 266.498 57.5424 265.637 56.5793 264.024Z" fill="#E6A07A"/>
</g>
<g style="mix-blend-mode:multiply" opacity="0.39">
<path d="M68.7783 255.634C68.8028 255.165 68.8771 254.375 68.9862 253.365C69.6581 247.145 71.7148 232.157 72.5177 226.36C70.2509 227.048 61.0709 225.831 57.8104 225.922C53.9582 226.029 56.1766 229.199 56.1766 229.199C56.1766 229.199 60.1109 234.263 68.6713 232.74C68.6713 232.74 69.9553 232.83 69.8482 235.304C69.7412 237.778 68.3502 247.351 68.3502 247.351C67.582 250.286 67.01 253.268 66.6381 256.279C66.4837 259.433 65.7585 262.531 64.4981 265.422C65.485 263.949 66.3582 262.402 67.11 260.794C68.1731 265.589 68.98 270.437 69.5273 275.319C69.7429 277.827 69.8708 280.333 69.9476 282.439C70.431 278.697 70.7801 275.665 70.8113 274.351C70.9182 269.833 68.5642 259.721 68.7783 255.634Z" fill="#E6A07A"/>
</g>
</g>
<path d="M53.7363 297.006C53.7363 297.006 62.2509 298.365 68.136 297.006C68.136 297.006 66.0167 315.117 66.206 316.946C66.545 318.91 67.0092 320.851 67.5957 322.756L71.7741 334.06C71.7741 334.06 63.3208 338.997 59.8967 338.245C56.4726 337.492 55.0816 328.994 55.0816 328.994L54.4324 320.066C54.4324 320.066 54.6392 307.05 54.4324 305.652C54.2256 304.253 53.7363 297.006 53.7363 297.006Z" fill="#FF6551"/>
<path d="M54.4328 320.065C53.8301 322.528 53.4554 325.042 53.3138 327.574C53.156 331.359 54.44 344.259 56.7941 346.415C59.1482 348.57 65.9888 348.355 71.0752 347.172C76.1617 345.989 76.6967 342.908 76.5897 341.92C76.4827 340.933 71.5605 333.081 71.5605 333.081C71.5605 333.081 67.4944 336.418 62.8933 336.201C61.3825 336.19 59.9124 335.709 58.6857 334.822C57.459 333.936 56.5364 332.688 56.0451 331.252C55.6171 329.854 54.4328 320.065 54.4328 320.065Z" fill="#2435A1"/>
<path d="M75.5426 339.736C71.8306 345.182 63.4647 346.288 59.4143 343.031C56.5429 340.722 54.7612 337.318 53.6074 333.513C54.1088 338.644 55.2078 344.964 56.7928 346.415C59.1467 348.571 65.9873 348.356 71.0739 347.172C76.1604 345.989 76.6953 342.908 76.5883 341.921C76.3235 341.155 75.9726 340.422 75.5426 339.736V339.736Z" fill="#243976"/>
<path d="M54.4315 324.368C56.4815 322.257 59.2189 320.959 62.143 320.711C66.7441 320.495 67.4987 320.874 67.4987 320.874L68.2498 324.335C65.9204 323.879 63.5176 323.976 61.2317 324.616C58.9458 325.257 56.8398 326.424 55.0808 328.025L54.4315 324.368Z" fill="#2435A1"/>
<path d="M25.3203 205.379C25.3203 205.379 37.1962 246.684 37.3414 252.706C37.4866 258.728 36.4804 266.07 36.1256 274.901C35.7707 283.733 43.558 320.557 43.558 320.557L53.0332 320.326C53.0332 320.326 52.1195 292.373 52.3951 284.619C52.6707 276.865 54.4419 268.86 54.2008 261.334C53.9597 253.808 52.8482 205.187 52.8482 205.187L25.3203 205.379Z" fill="#FFBF94"/>
<g style="mix-blend-mode:multiply" opacity="0.39">
<path d="M52.3255 258.702C53.0926 256.459 53.437 254.091 53.3411 251.721C52.906 254.01 52.1298 256.22 51.0388 258.277C50.8184 258.617 50.6392 258.982 50.5052 259.364C50.4306 259.66 50.3886 259.963 50.3798 260.268C50.3171 261.231 50.2544 262.194 50.1918 263.158C50.1929 263.816 50.0603 264.468 49.8021 265.073C48.7443 267.161 45.5363 267.857 43.373 268.347C44.8363 268.499 46.3132 268.453 47.7644 268.211C48.6676 268.135 49.5208 267.762 50.1921 267.15C50.6268 266.589 50.8915 265.914 50.9542 265.206C51.3101 263.038 51.4016 260.993 52.2225 258.965C52.2578 258.878 52.2922 258.79 52.3255 258.702Z" fill="#E6A07A"/>
</g>
<g style="mix-blend-mode:multiply" opacity="0.39">
<path d="M52.3949 284.619C52.6707 276.866 54.4418 268.86 54.2006 261.334C54.0461 256.509 53.5337 234.789 53.1858 219.823L30.8281 222.048L31.9137 229.161C31.9909 229.449 32.0678 229.738 32.1446 230.026C35.8127 231.293 39.6878 231.842 43.5612 231.646C49.4307 231.18 50.0716 230.23 51.6043 233.259C53.1369 236.288 53.3888 253.661 53.3888 253.661C53.3888 253.661 51.9894 264.831 51.804 269.355C51.6183 273.878 50.5682 294.886 51.1686 298.26L52.4033 295.234C52.3353 290.786 52.3154 286.859 52.3949 284.619Z" fill="#E6A07A"/>
</g>
<g style="mix-blend-mode:multiply" opacity="0.39">
<path d="M39.1393 252.914C38.8303 256.644 39.6577 260.246 40.2374 263.912C40.2529 264.215 40.369 264.505 40.5672 264.734C40.7582 264.884 40.9813 264.987 41.2188 265.036C41.7185 265.179 42.3433 265.293 42.6978 264.933C42.5957 262.813 40.863 261.071 40.3389 259.007C39.8746 257.179 38.9817 254.816 39.1393 252.914Z" fill="#E6A07A"/>
</g>
<path d="M38.7148 295.511C43.2374 296.592 47.9613 296.477 52.4265 295.177C52.4265 295.177 53.0955 317.097 54.1579 321.16C55.2203 325.223 57.4038 334.208 56.0482 337.899C54.6925 341.591 40.8179 339.346 39.7466 338.296C38.6752 337.246 42.4246 320.585 42.4246 320.585C42.4246 320.585 39.6838 301.283 38.7148 295.511Z" fill="#FF6551"/>
<path d="M39.4568 333.246C42.896 333.803 46.3926 333.907 49.8587 333.557C55.2057 332.943 54.6868 332.647 55.0356 329.477C55.3844 326.306 53.9834 320.303 53.9834 320.303L53.7059 318.236C54.4712 321.284 59.1884 343.594 54.43 347.099C49.6715 350.604 38.7194 348.596 36.5906 346.389C34.4618 344.181 39.4568 333.246 39.4568 333.246Z" fill="#2435A1"/>
<path d="M56.083 331.741C55.9068 335.011 56.2505 338.429 55.6971 339.777C53.7033 344.658 40.8995 345.235 36.4611 341.678C35.975 343.757 35.8414 345.613 36.5898 346.389C38.7186 348.596 49.6708 350.604 54.4292 347.099C58.5622 344.055 57.1303 335.655 56.083 331.741Z" fill="#243976"/>
<path d="M41.082 325.746C45.6879 324.242 50.6062 323.984 55.343 324.996L54.074 320.788C54.074 320.788 46.5446 319.448 41.8892 321.579L41.082 325.746Z" fill="#2435A1"/>
<path d="M35.83 175.537C35.83 175.537 33.1633 176.644 31.2341 182.791C29.3049 188.938 18.7478 231.341 18.7478 231.341C18.7478 231.341 20.8914 238.224 32.2523 235.471L42.327 178.792L35.83 175.537Z" fill="#243976"/>
<path d="M42.6487 175.537L31.3593 238.5C31.3593 238.5 37.6502 243.456 44.5974 242.354C51.5445 241.253 55.4029 235.945 57.5465 236.121L55.6727 177.041L42.6487 175.537Z" fill="#243976"/>
<path d="M54.2928 174.965L56.2159 236.506V239.601C56.2159 239.601 67.7782 244.832 76.9174 237.123L67.1397 173.794L54.2928 174.965Z" fill="#243976"/>
<path d="M75.9676 172.387L91.4771 229.138C91.4771 229.138 83.2351 236.395 79.9869 236.121C76.7387 235.847 70.8709 236.128 70.8709 236.128L64.621 177.649L75.9676 172.387Z" fill="#243976"/>
<path d="M26.6026 228.765C28.6542 227.862 29.7152 225.024 30.5367 222.446C33.9648 211.689 36.9974 200.741 39.6347 189.605L37.7616 200.53C36.6234 207.169 35.4773 213.83 34.9238 220.601C34.4901 225.907 33.507 233.074 38.1657 235.729C41.5652 237.666 45.6337 236.627 48.8415 234.209C50.223 233.231 51.3391 231.921 52.0881 230.399C53.0323 228.355 53.1711 225.882 53.2865 223.511L54.945 189.437C55.0213 201.647 55.1053 213.954 57.0592 225.904C57.617 229.316 58.5348 233.049 60.9072 234.743C62.3384 235.625 64.0307 235.977 65.6924 235.739C68.4049 235.567 71.6947 234.272 72.18 230.84C72.2712 229.897 72.2405 228.946 72.0885 228.011L67.3801 188.512C68.2052 200.17 71.0921 211.403 73.959 222.516C74.3187 224.433 75.0464 226.262 76.1015 227.899C76.5882 228.531 77.2269 229.028 77.9573 229.343C78.6878 229.657 79.486 229.78 80.2767 229.699C81.0674 229.618 81.8246 229.337 82.477 228.88C83.1293 228.424 83.6553 227.808 84.0055 227.091C84.2179 226.735 84.3597 226.342 84.4231 225.932C84.457 225.402 84.3968 224.871 84.2451 224.363C81.5528 213.004 77.9495 201.645 75.2572 190.286C74.1187 185.483 75.9452 180.564 68.7283 182.75C58.8283 185.748 50.0814 187.303 40.4365 183.154C32.9618 179.938 30.5874 191.214 29.0174 197.853C26.7534 207.427 23.8352 217.101 22.0897 226.852C23.041 228.542 25.078 229.436 26.6026 228.765Z" fill="#2435A1"/>
<path d="M69.2128 188.546C70.0684 188.516 79.1202 187.205 79.0941 187.146L77.4448 183.406C77.3604 183.758 76.8618 183.729 76.5205 183.847C76.284 183.953 76.0711 184.106 75.8946 184.297C74.5013 185.564 72.9217 185.706 71.2348 186.211C69.468 186.831 67.6538 187.305 65.8103 187.629C62.7517 188.033 59.7631 188.608 56.6699 188.768C50.446 189.174 44.2039 188.329 38.3088 186.282C37.3757 185.951 36.4217 185.683 35.453 185.48C36.2488 185.733 36.9807 186.156 37.5984 186.72C38.2161 187.285 38.705 187.977 39.0315 188.749C39.358 189.521 39.5145 190.355 39.49 191.194C39.4656 192.032 39.2609 192.856 38.89 193.607C39.8585 191.801 41.0404 189.821 43.0189 189.316C44.1076 189.126 45.2248 189.182 46.2894 189.48L52.2695 190.688C53.1087 190.755 53.8934 191.132 54.4716 191.747C55.4109 193.056 54.2232 195.156 55.2309 196.412C55.7716 194.705 56.1477 192.949 56.3538 191.169C57.7573 190.55 59.2477 190.152 60.7722 189.991C61.5359 189.917 62.3063 190.019 63.0244 190.291C63.7425 190.563 64.389 190.997 64.9143 191.559C65.2287 191.967 65.4999 192.407 65.7236 192.872L68.2646 197.717C67.8273 195.471 67.5356 193.199 67.3915 190.916C67.342 190.132 67.3865 189.192 68.0521 188.78C68.4126 188.603 68.8124 188.522 69.2128 188.546V188.546Z" fill="#243976"/>
<path d="M85.5436 171.216L85.5452 171.217C85.9025 171.656 86.3681 171.993 86.8955 172.194C87.4228 172.394 87.9935 172.452 88.5502 172.362C89.3156 172.068 89.9724 171.544 90.4316 170.862C93.3193 167.249 93.9307 165.832 96.5448 160.544C99.2219 155.128 106.012 139.165 107.689 134.481C108.115 133.293 109.719 133.072 112.385 132.408C115.049 131.743 117.134 125.477 118.692 123.97C120.251 122.463 126.042 118.903 124.836 117.208C123.63 115.514 117.4 121.023 117.052 120.073C116.704 119.123 123.638 109.458 121.92 108.013C120.203 106.567 114.43 116.676 113.857 116.209C113.284 115.742 118.357 105.207 116.481 103.489C114.603 101.771 110.308 114.297 109.657 114.988C109.005 115.679 112.189 102.488 110.623 101.54C109.059 100.591 108.075 105.289 108.075 105.289C107.155 108.35 106.131 114.737 105.211 117.798C105.171 118.041 105.084 118.275 104.954 118.484C104.824 118.694 104.654 118.876 104.454 119.019C103.904 117.896 104.097 116.547 103.987 115.287C103.891 114.16 103.54 113.071 102.961 112.101C102.569 111.397 101.995 110.812 101.3 110.408C100.96 110.216 100.578 110.108 100.187 110.095C99.7964 110.082 99.4082 110.164 99.0556 110.333C98.7843 110.463 98.5692 110.688 98.4504 110.965C98.1922 111.659 98.7886 112.338 99.1932 112.948C99.9643 114.311 100.224 115.907 99.9243 117.446C99.7134 118.989 99.2311 120.48 99.0244 122.024C98.7285 123.564 98.9957 125.159 99.777 126.517C100.412 127.225 101.002 127.972 101.543 128.754C102.001 129.92 102.065 131.205 101.727 132.411C101.66 132.759 101.586 133.105 101.504 133.449C94.9397 146.367 85.9514 156.241 83.4357 163.354C82.4938 166.017 83.6384 169.242 85.5436 171.216Z" fill="#FFBF94"/>
<path d="M76.5353 143.165C76.5916 144.838 76.7502 146.506 77.01 148.159C77.0442 148.372 77.0808 148.583 77.1196 148.791C77.3203 149.88 77.5297 146.417 77.7465 147.535L77.7473 147.539C80.0911 159.625 83.3116 170.098 85.5431 171.216L85.5448 171.217C86.2769 171.58 87.105 169.757 87.9043 167.03C89.7661 160.672 91.4757 152.14 91.4757 152.14C91.4757 152.14 91.2817 150.809 90.9557 148.698C90.4436 145.381 89.6075 144.706 88.6876 139.661C88.2377 137.186 87.765 134.759 87.3042 132.632C87.0453 131.443 86.7887 130.349 86.5404 129.392C84.3689 121.011 81.5805 116.27 79.8299 115.851C79.8299 115.851 76.0497 130.807 76.5353 143.165Z" fill="#FFBF94"/>
<g style="mix-blend-mode:multiply" opacity="0.39">
<path d="M76.5352 143.166C76.592 144.838 76.7506 146.506 77.0101 148.159C81.7658 147.095 86.4157 142.31 88.688 139.662C88.2376 137.186 87.7653 134.759 87.3042 132.632L87.3028 132.632L82.3015 137.01C80.2603 138.946 78.3348 141.001 76.5352 143.166V143.166Z" fill="#E6A07A"/>
</g>
<path d="M1.38879 149.501L3.66563 156.348C7.67826 157.156 12.152 156.516 14.2951 154.837C16.9004 152.796 32.347 138.216 32.347 138.216C31.0065 131.364 29.922 121.259 29.0174 121.593C27.913 122.001 24.0661 125.977 24.0661 125.977L1.38879 149.501Z" fill="#FFBF94"/>
<g style="mix-blend-mode:multiply" opacity="0.39">
<path d="M19.7109 143.103C21.287 144.432 32.9397 148.571 33.1773 148.517C33.5214 147.417 33.81 146.3 34.042 145.17C34.042 145.17 33.8663 144.248 33.5712 142.74C33.1783 142.138 32.7495 141.56 32.2873 141.01L24.5602 136.57L20.8282 138.574C20.4677 140.019 20.0914 141.538 19.7109 143.103Z" fill="#E6A07A"/>
</g>
<path d="M42.3711 108.54C42.3711 108.54 44.095 115.119 44.2644 115.065C44.4338 115.012 70.1602 113.722 70.1602 113.722L68.2149 111.51L67.8316 110.335C67.8316 110.335 62.5428 107.172 64.6084 96.4077C64.8394 95.2215 65.1297 94.0477 65.4785 92.891C65.7607 92.0064 65.9305 91.0895 65.984 90.1622C66.2903 81.2626 47.9825 92.3981 47.8286 92.3926C47.5453 92.8515 47.3226 93.3455 47.166 93.8622C46.8289 94.7368 46.4952 95.6797 46.4952 95.6797C46.8322 96.8263 47.0661 98.001 47.1941 99.1897C47.5701 102.597 47.1872 107.415 42.3711 108.54Z" fill="#E6A07A"/>
<g style="mix-blend-mode:multiply" opacity="0.39">
<path d="M46.4961 95.6801C46.8331 96.8267 47.067 98.0014 47.195 99.1901C49.7274 100.209 54.2179 101.861 56.1024 101.616C57.9569 101.374 62.1629 98.3034 64.6093 96.4082C64.8403 95.2219 65.1307 94.0482 65.4794 92.8914C65.7616 92.0068 65.9315 91.09 65.985 90.1626L57.2185 92.816L47.1669 93.8626C46.8298 94.7372 46.4961 95.6801 46.4961 95.6801Z" fill="#E6A07A"/>
</g>
<path d="M74.9308 130.231C74.9225 130.499 79.2713 136.368 79.0253 141.538C78.7793 146.708 75.227 152.922 74.6149 156.382C74.0028 159.843 78.4674 179.709 78.4674 179.709C78.4674 179.709 60.5284 188.944 31.3973 181.035C31.3973 181.035 35.5957 163.772 33.0784 154.493C32.1154 150.944 28.1946 140.36 34.6369 130.32C41.0792 120.28 71.1133 128.839 71.1133 128.839L74.9308 130.231Z" fill="#864FF1"/>
<path d="M33.3944 149.281C34.234 149.949 35.1222 150.552 36.0515 151.087C37.1037 151.563 38.1955 151.946 39.3142 152.23C41.941 152.954 44.6061 153.606 47.2853 154.068C52.626 155.101 58.085 155.37 63.5005 154.868C64.9607 154.701 66.4081 154.435 67.8326 154.071C69.2172 153.662 70.6469 153.426 72.0891 153.368C72.3038 153.368 72.3638 153.644 72.2386 153.792C70.4147 155.949 67.392 156.752 64.8246 157.402C62.0404 158.079 59.1876 158.429 56.3233 158.446C53.2818 158.435 50.2524 158.06 47.2989 157.33C44.436 156.705 41.6243 155.862 38.8881 154.81C37.5974 154.345 36.3797 153.696 35.2719 152.884C34.1272 152.131 33.269 151.011 32.8363 149.706C32.8176 149.633 32.8207 149.557 32.8452 149.485C32.8698 149.414 32.9147 149.352 32.9744 149.307C33.034 149.261 33.1057 149.234 33.1805 149.23C33.2552 149.225 33.3296 149.243 33.3944 149.281V149.281Z" fill="#6640D0"/>
<path d="M15.2227 131.06C15.2227 131.06 18.8434 143.486 31.1715 146.138C31.4547 146.2 31.7435 146.255 32.0365 146.306C45.0609 148.547 76.7959 145.296 76.7959 145.296C77.3301 145.243 77.8578 145.137 78.3717 144.981C80.0823 144.425 81.6485 143.494 82.957 142.255C84.6627 140.589 86.1956 138.753 87.5318 136.776C88.6109 135.29 89.69 133.805 90.7692 132.318C91.2795 131.617 91.7894 130.915 92.2988 130.214C92.0507 130.556 87.5342 123.773 87.1274 123.042C85.5885 120.267 82.9973 114.772 80.7223 114.156C72.0593 111.81 66.9838 109.281 66.7835 109.406C66.7835 109.406 63.2079 113.207 53.9851 112.879C44.7623 112.552 42.3701 108.54 42.3701 108.54C42.3701 108.54 34.645 111.301 31.3331 112.523C28.0846 113.721 21.367 127.683 15.5609 130.884C15.4485 130.947 15.3349 131.005 15.2227 131.06Z" fill="#864FF1"/>
<g style="mix-blend-mode:screen" opacity="0.14">
<path d="M36.4394 139.349C35.9586 139.83 35.6048 140.425 35.4101 141.079C35.2153 141.733 35.1856 142.425 35.3238 143.094C35.7269 144.593 37.125 145.5 38.4299 146.211C42.8824 148.739 47.7369 150.473 52.7781 151.334C57.818 152.179 62.9921 151.608 67.7292 149.683C69.2862 149.11 70.667 148.137 71.7344 146.861C73.5041 144.516 73.4551 141.144 72.7367 138.236C71.9318 134.977 70.9193 131.564 69.8312 128.406C69.5066 127.555 69.1337 126.723 68.7143 125.916C68.673 125.837 68.6068 125.775 68.5261 125.738C68.4455 125.702 68.3551 125.694 68.2694 125.716C68.1837 125.737 68.1076 125.787 68.0533 125.857C67.9989 125.927 67.9695 126.013 67.9697 126.102C67.9632 128.367 67.8351 130.702 67.6192 132.955C67.5526 134.661 66.9468 136.302 65.8896 137.639C64.7545 138.745 63.2989 139.461 61.7331 139.681C55.1979 141.007 49.3859 138.358 43.038 137.509C40.7392 137.202 38.1881 137.561 36.5226 139.262C36.4946 139.29 36.4668 139.319 36.4394 139.349Z" fill="#FFC652"/>
</g>
<path d="M76.3217 133.199C77.345 136.756 77.9966 140.411 78.2661 144.104C78.2838 144.398 78.3193 144.691 78.3723 144.981C80.0829 144.425 81.6491 143.494 82.9576 142.255C84.6633 140.589 86.1962 138.753 87.5324 136.776C88.6115 135.291 89.6906 133.805 90.7698 132.319C89.295 133.852 87.4466 134.971 85.4084 135.564C84.1851 135.912 82.8964 135.959 81.6514 135.7C80.4064 135.442 79.2416 134.886 78.2556 134.079C77.3525 133.233 76.5846 132.252 75.9788 131.17C75.9715 131.862 76.0877 132.549 76.3217 133.199V133.199Z" fill="#6640D0"/>
<path d="M15.2227 131.059C15.2227 131.059 18.8434 143.486 31.1715 146.138C31.2266 142.9 31.349 140.17 32.346 138.216C33.407 136.133 34.5279 133.62 34.7598 133.095C33.9461 134.941 32.6013 136.501 30.8985 137.573C30.0552 138.095 29.1166 138.443 28.1379 138.596C27.1592 138.748 26.16 138.703 25.1989 138.462C24.267 138.185 23.3792 137.775 22.5623 137.246C19.8986 135.524 17.5335 133.375 15.561 130.884C15.4485 130.947 15.3349 131.005 15.2227 131.059Z" fill="#6640D0"/>
<path d="M32.1112 137.656C32.5816 136.508 33.1017 135.383 33.6276 134.262C34.0174 133.139 34.6429 132.113 35.4616 131.253C35.4792 131.238 35.5009 131.227 35.5242 131.224C35.5474 131.221 35.5712 131.224 35.5923 131.235C35.6135 131.245 35.6312 131.261 35.6432 131.281C35.6551 131.302 35.6609 131.325 35.6596 131.349C35.6037 132.553 35.2663 133.727 34.6747 134.776C34.1789 135.941 33.6876 137.108 33.2574 138.302C32.3226 140.628 31.8519 143.116 31.8721 145.624C32.0883 150.672 36.1164 156.618 33.7687 161.512C33.7687 161.512 33.5673 159.752 33.547 159.495C33.0791 153.586 30.42 150.033 30.4896 144.766C30.5792 142.315 31.1294 139.902 32.1112 137.656Z" fill="#6640D0"/>
<path d="M40.9428 110.288C41.4638 110.485 41.9354 110.794 42.3243 111.194C42.8584 111.622 43.4144 112.022 43.9902 112.391C44.8011 112.919 45.6413 113.4 46.5068 113.831C46.8336 113.42 47.2205 113.062 47.6542 112.768C47.8901 112.63 48.226 112.887 48.1237 113.142C47.9379 113.544 47.6905 113.915 47.3907 114.241C47.9493 114.483 48.5184 114.701 49.0978 114.893C49.444 114.28 49.8993 113.737 50.4412 113.289C50.4776 113.27 50.5182 113.261 50.5592 113.262C50.6002 113.263 50.6402 113.275 50.6754 113.296C50.7106 113.317 50.7398 113.347 50.7603 113.383C50.7808 113.418 50.7919 113.459 50.7925 113.5C50.7447 113.874 50.6216 114.235 50.4307 114.56C50.3227 114.768 50.2216 114.991 50.1081 115.204C51.3199 115.546 52.5572 115.789 53.8079 115.931C53.8501 115.54 53.9581 115.16 54.1272 114.806C54.217 114.337 54.4601 113.911 54.8181 113.597C54.8576 113.577 54.9032 113.573 54.9457 113.585C54.9882 113.597 55.0245 113.626 55.0473 113.664C55.2087 114.135 55.2059 114.648 55.0394 115.118C55.0067 115.425 54.9437 115.729 54.8514 116.025C56.1947 116.113 57.5433 116.066 58.8774 115.885C58.8131 115.557 58.8154 115.218 58.8841 114.89C58.8891 114.522 59.011 114.164 59.2322 113.87C59.2666 113.84 59.307 113.818 59.3507 113.806C59.3943 113.794 59.4402 113.791 59.485 113.798C59.5298 113.805 59.5725 113.822 59.6102 113.848C59.6478 113.873 59.6794 113.907 59.7029 113.946C59.8484 114.251 59.917 114.588 59.9028 114.926C59.9454 115.185 59.9684 115.447 59.9715 115.709C60.7367 115.566 61.4938 115.382 62.2398 115.158C62.4304 115.101 62.6198 115.04 62.8084 114.978C62.7023 114.682 62.6173 114.38 62.554 114.072C62.434 113.714 62.3999 113.333 62.4546 112.96C62.4704 112.917 62.4966 112.879 62.5308 112.849C62.565 112.819 62.6062 112.798 62.6506 112.789C62.6949 112.779 62.7409 112.781 62.7844 112.794C62.8279 112.807 62.8674 112.831 62.8993 112.863C63.118 113.159 63.2838 113.492 63.389 113.845C63.4957 114.11 63.6432 114.372 63.7444 114.642C64.4493 114.371 65.1391 114.066 65.8137 113.729C65.7153 113.503 65.631 113.27 65.5422 113.042C65.4051 112.756 65.3082 112.451 65.2544 112.138C65.2341 111.918 65.582 111.8 65.7198 111.971C65.8881 112.216 66.0266 112.48 66.1322 112.758C66.2304 112.967 66.3375 113.173 66.4346 113.383C67.2503 112.8 68.1294 112.313 69.0551 111.931C69.062 111.929 69.0693 111.929 69.076 111.932C69.0827 111.934 69.0885 111.939 69.0928 111.944C69.0971 111.95 69.0996 111.957 69.1 111.964C69.1004 111.971 69.0987 111.978 69.0952 111.985C68.5325 112.728 67.8107 113.336 66.9832 113.761C66.0819 114.342 65.1349 114.848 64.1515 115.274C61.2395 116.542 58.0866 117.155 54.9142 117.068C51.7417 116.981 48.6265 116.198 45.7874 114.772C44.7303 114.245 43.7242 113.621 42.782 112.908C42.012 112.324 40.8122 111.595 40.5549 110.638C40.5444 110.587 40.5476 110.533 40.5641 110.483C40.5807 110.432 40.61 110.387 40.6492 110.352C40.6884 110.316 40.7361 110.292 40.7876 110.281C40.8391 110.27 40.8926 110.272 40.9428 110.288V110.288Z" fill="#6640D0"/>
<g style="mix-blend-mode:multiply" opacity="0.39">
<path d="M77.748 147.539C80.0919 159.625 83.3124 170.098 85.5439 171.216L85.5456 171.217C85.9028 171.656 86.3684 171.993 86.8958 172.194C87.4232 172.394 87.9938 172.453 88.5506 172.362C89.3314 172.096 89.9963 171.566 90.4319 170.862C97.7222 160.114 103.737 143.963 103.737 143.963C103.572 144.358 91.8949 166.858 87.9051 167.03H87.9043C86.6332 167.084 85.1503 164.88 83.7167 161.84C80.6515 155.343 77.8122 147.773 77.748 147.539Z" fill="#E6A07A"/>
</g>
<path d="M74.0612 157.229C74.0977 156.153 74.2433 155.084 74.4958 154.037C74.7768 153.073 75.1793 152.149 75.6936 151.288C76.1862 150.472 76.6304 149.627 77.0238 148.758C77.4195 147.748 77.5967 146.665 77.5437 145.58C77.4314 143.215 77.1399 140.862 76.6716 138.541C76.2028 135.896 75.6092 133.282 75.2817 130.611C75.2603 130.437 75.4988 130.3 75.5766 130.491C77.3392 134.882 78.4651 139.504 78.9197 144.217C79.0717 145.329 79.0762 146.456 78.9329 147.569C78.7513 148.54 78.4208 149.476 77.9532 150.345C76.9792 152.261 75.8436 153.961 75.412 156.134C74.8675 158.876 74.7457 161.73 74.3315 164.499C74.3311 164.524 74.3257 164.549 74.3158 164.572C74.3058 164.595 74.2914 164.615 74.2734 164.633C74.2553 164.65 74.2341 164.663 74.2108 164.672C74.1876 164.681 74.1628 164.685 74.1379 164.684C74.1131 164.683 74.0886 164.677 74.0661 164.667C74.0435 164.656 74.0232 164.642 74.0064 164.623C73.9897 164.605 73.9767 164.583 73.9684 164.559C73.96 164.536 73.9565 164.511 73.9578 164.486C73.9224 162.067 73.9388 159.645 74.0612 157.229Z" fill="#6640D0"/>
<path d="M33.7363 178.578C33.7363 178.578 55.491 184.588 75.7595 178.131" stroke="#6640D0" stroke-linecap="round" stroke-linejoin="round"/>
<path d="M30.1667 121.739L45.6387 118.996C45.6387 118.996 47.9813 117.544 48.3927 120.368C48.8041 123.191 52.0142 179.502 52.0142 179.502C52.0142 179.502 50.4091 181.438 49.2856 181.438C48.162 181.438 26.8359 180.309 26.8359 180.309L30.1667 121.739Z" fill="#CE4831"/>
<path d="M35.3223 118.364C38.5304 119.925 42.0802 120.642 45.6393 120.448L49.2862 179.341C49.2862 179.341 45.635 178.19 39.6821 180.309L35.3223 118.364Z" fill="#FFEBDD"/>
<g style="mix-blend-mode:multiply" opacity="0.41">
<path d="M43.5586 120.215L45.2594 136.718L44.8428 120.488L43.5586 120.215Z" fill="#E79E82"/>
</g>
<g style="mix-blend-mode:multiply" opacity="0.41">
<path d="M46.6802 178.835L46.1445 159.091L48.4256 179.163L46.6802 178.835Z" fill="#E79E82"/>
</g>
<g style="mix-blend-mode:multiply" opacity="0.41">
<path d="M44.4082 179.164V165.116L45.7143 179.053L44.4082 179.164Z" fill="#E79E82"/>
</g>
<g style="mix-blend-mode:multiply" opacity="0.41">
<path d="M42.3027 120.215L42.8284 131.137L41.0566 120.215H42.3027Z" fill="#E79E82"/>
</g>
<path d="M15.9961 124.232C15.9961 124.232 19.8482 178.446 20.0087 180.059C20.0087 180.059 20.1451 181.673 22.8858 181.995C25.6264 182.318 41.3821 182.641 41.3821 182.641C41.3821 182.641 43.6624 182.802 43.8734 179.575C44.0844 176.348 40.2323 118.437 40.2323 118.437C40.2323 118.437 39.7091 116.175 36.0885 116.981C32.4679 117.788 15.9961 124.232 15.9961 124.232Z" fill="#CE4831"/>
<path d="M14.2949 124.16C14.2949 124.16 18.147 178.373 18.3075 179.987C18.3075 179.987 18.444 181.6 21.1846 181.923C23.9252 182.245 39.6809 182.568 39.6809 182.568C39.6809 182.568 41.9613 182.729 42.1723 179.502C42.3833 176.275 38.5311 118.364 38.5311 118.364C38.5311 118.364 38.6883 116.03 35.8735 116.496C32.2141 117.1 14.2949 124.16 14.2949 124.16Z" fill="#FF6551"/>
<path d="M19.502 131.138V134.89L34.3755 130.601V126.313L19.502 131.138Z" fill="#FF998C"/>
<path d="M2.84252 148.323C2.84252 148.323 8.75793 145.78 12.289 147.555C15.8201 149.33 18.2277 151.717 20.0735 151.814C21.9193 151.911 22.7218 152.073 23.3639 151.105C24.0059 150.137 24.9689 147.313 27.3765 145.457C29.5065 143.933 31.55 142.29 33.4973 140.536C34.84 139.165 35.3215 141.101 34.6795 142.311C33.7697 144.071 32.5913 145.677 31.187 147.071C29.7841 148.281 30.1666 149.168 30.1666 149.168C32.0949 148.657 33.959 147.926 35.7228 146.99C37.8896 145.699 44.2387 142.956 45.6385 143.36C47.0384 143.763 46.3253 144.489 45.6385 144.973C44.9518 145.457 42.2232 146.587 40.3774 147.555C38.5316 148.523 35.0005 151.105 36.2043 150.701C37.4081 150.298 45.9951 146.103 47.5199 146.667C49.0447 147.232 47.0384 148.765 46.0753 149.33C45.1123 149.894 37.4883 153.848 37.4883 153.848C37.4883 153.848 47.3431 148.604 48.0735 149.168C48.804 149.733 48.4027 150.749 46.8779 151.814C45.3531 152.879 38.4513 156.026 37.8896 156.913C37.3278 157.801 46.4766 153.444 47.3594 154.17C48.2421 154.896 42.7047 158.123 40.7787 159.011C38.8526 159.898 35.7228 161.592 33.1547 161.592C30.5866 161.592 22.6416 160.947 22.6416 160.947C22.6416 160.947 11.1888 162.318 6.85516 161.592C2.52152 160.866 0.194207 157.075 0.0337023 155.058C-0.126802 153.041 0.203975 149.64 2.84252 148.323Z" fill="#FFBF94"/>
<g style="mix-blend-mode:multiply" opacity="0.39">
<path d="M34.3748 159.727C30.581 159.212 26.7526 159 22.9255 159.091C19.2874 159.253 12.6532 160.436 6.76804 159.091C5.19633 158.706 3.75337 157.911 2.58442 156.787C1.41546 155.662 0.561754 154.248 0.109233 152.687C-0.00335117 153.472 -0.0290081 154.267 0.0327325 155.057C0.193173 157.074 2.5205 160.866 6.85419 161.592C11.1879 162.318 22.6406 160.947 22.6406 160.947C22.6406 160.947 30.5856 161.592 33.1537 161.592C35.7217 161.592 38.8515 159.898 40.7776 159.011C42.4985 158.218 47.0893 155.562 47.4208 154.486C44.7608 156.051 37.519 160.099 34.3748 159.727Z" fill="#E6A07A"/>
</g>
<g style="mix-blend-mode:multiply" opacity="0.39">
<path d="M17.8014 150.934C15.292 149.765 12.6332 148.951 9.90129 148.517C7.56362 148.177 5.19452 148.112 2.8418 148.322C2.8418 148.322 7.29643 146.445 10.938 147.094C14.5795 147.743 17.8014 150.934 17.8014 150.934Z" fill="#E6A07A"/>
</g>
<path d="M52.6066 13.073C32.3295 14.8135 24.1365 28.258 23.2361 43.4052C22.3357 58.5525 27.5507 81.8599 29.9732 84.7692C32.3957 87.6785 47.7683 98.629 55.2194 98.8672C62.6705 99.1054 80.3558 86.0513 84.215 78.6198C88.0741 71.1883 92.9512 29.4321 79.577 21.196C71.4184 16.2312 62.1369 13.4357 52.6066 13.073V13.073Z" fill="#FFBF94"/>
<g style="mix-blend-mode:multiply" opacity="0.39">
<path d="M78.9845 69.2179C78.9845 69.2179 82.8024 49.7651 73.8755 45.3542C64.9487 40.9433 56.6124 36.4381 53.2554 32.2244C53.2554 32.2244 52.5567 43.0287 39.2428 46.583C25.929 50.1372 28.6176 64.2129 28.913 69.2106C29.2085 74.2084 26.2694 80.3495 24.7453 81.1494C23.2212 81.9493 26.3909 76.2736 26.3386 73.5034C26.2863 70.7332 24.1016 54.6451 24.1016 54.6451L47.5152 23.4082L58.2538 25.3123C58.2538 25.3123 76.7594 35.3101 76.9925 35.5668C77.2256 35.8235 83.5681 46.6289 83.3628 46.9604C83.1575 47.2919 83.9436 60.9501 83.9087 61.2002C83.8739 61.4503 78.95 69.5934 78.95 69.5934L78.9845 69.2179Z" fill="#E6A07A"/>
</g>
<path d="M86.7595 56.39C86.7595 56.39 89.5133 53.3535 92.1458 58.0495C94.7782 62.7456 90.6447 66.2487 89.2425 70.737C87.8402 75.2254 84.7831 74.4345 84.7831 74.4345C84.7831 74.4345 85.1627 62.1745 86.7595 56.39Z" fill="#FFBF94"/>
<g style="mix-blend-mode:multiply" opacity="0.2">
<path d="M85.7607 62.4223C85.8828 61.6114 86.1764 60.8362 86.6218 60.149C86.5404 60.1578 86.4597 60.1721 86.3802 60.1919C86.0624 60.2732 85.9787 59.8368 86.165 59.6625C86.5703 59.3306 87.0882 59.1702 87.609 59.2152C88.1299 59.2602 88.6129 59.507 88.9559 59.9036C89.3631 60.3699 89.6415 60.9355 89.7631 61.5438C89.8847 62.1521 89.8454 62.7819 89.6491 63.3702C89.2836 64.7952 88.398 66.0167 87.8831 67.3859C87.4402 68.9028 86.848 70.3716 86.1153 71.7704C86.0344 71.8691 85.9269 71.9421 85.8056 71.9806C85.6844 72.0192 85.5546 72.0216 85.432 71.9876C85.3094 71.9536 85.1993 71.8847 85.1148 71.7891C85.0304 71.6935 84.9752 71.5754 84.9561 71.449C84.7941 69.4097 84.8536 67.3588 85.1338 65.3324C85.282 64.3502 85.4914 63.3782 85.7607 62.4223V62.4223Z" fill="#E6A07A"/>
</g>
<path d="M23.6486 56.6723C23.6486 56.6723 20.5549 53.5706 17.9813 58.7192C15.4077 63.8678 19.9982 67.3972 21.7222 72.118C23.4463 76.8388 27.1182 75.6868 27.1182 75.6868C27.1182 75.6868 25.6459 62.7671 23.6486 56.6723Z" fill="#FFBF94"/>
<g style="mix-blend-mode:multiply" opacity="0.2">
<path d="M18.9401 61.2586C18.9457 63.4203 20.7233 65.1695 21.9267 66.7874C22.6165 67.654 23.1829 68.6129 23.6099 69.6364C23.8576 70.2898 23.9108 71.4559 24.7838 71.6015C25.6273 71.7421 26.0083 70.7964 26.0636 70.1195C26.1042 69.2931 26.0084 68.4655 25.78 67.6705C25.6983 66.7613 25.5223 65.8632 25.2549 64.9908C24.659 63.1095 23.787 61.3037 23.0691 59.4665C22.9677 59.3172 22.8903 59.1528 22.8398 58.9793C22.5021 58.665 22.0736 58.4672 21.6165 58.4145C21.1593 58.3619 20.6974 58.4571 20.2978 58.6864C19.8644 58.955 19.5101 59.335 19.2714 59.7871C19.0328 60.2393 18.9184 60.7472 18.9401 61.2586V61.2586Z" fill="#E6A07A"/>
</g>
<path d="M78.7368 56.7163C78.9658 57.0008 78.5811 57.3461 78.2386 57.1634C76.7956 56.3937 74.8799 56.4521 71.8829 56.0772C69.1045 55.7296 63.5602 56.6987 63.6716 53.2778C63.7562 50.6783 68.6803 50.3881 73.2518 52.4995C75.3775 53.4639 77.2541 54.9067 78.7368 56.7163V56.7163Z" fill="#662920"/>
<path d="M29.6552 59.6454C29.6308 59.714 29.6306 59.7889 29.6545 59.8577C29.6785 59.9264 29.7252 59.9848 29.7869 60.0231C29.8485 60.0613 29.9213 60.0772 29.9932 60.0679C30.0651 60.0587 30.1316 60.025 30.1817 59.9723C31.1734 58.9259 33.7839 57.9432 36.1596 56.9513C38.362 56.0318 44.6332 56.1422 43.8559 52.808C43.2525 50.2197 36.3174 51.4224 33.0913 54.4216C31.5483 55.8629 30.3702 57.6539 29.6552 59.6454Z" fill="#662920"/>
<g style="mix-blend-mode:multiply" opacity="0.39">
<path d="M51.7425 73.2365C52.5344 72.8027 53.4144 72.5567 54.3154 72.5173C55.2658 72.4957 56.2112 72.6608 57.0987 73.0035C58.0278 73.2529 58.848 73.8061 59.4298 74.5758C59.4733 74.6502 59.4921 74.7366 59.4835 74.8224C59.4748 74.9083 59.4391 74.9891 59.3816 75.0532C58.9582 75.4937 58.4505 75.3804 57.9163 75.1897C57.0124 74.8014 56.0553 74.5525 55.0775 74.4513C54.3333 74.4026 53.5885 74.5364 52.9071 74.8411C52.1973 75.1823 51.8077 75.9184 50.9819 75.9524C50.7793 75.9557 50.5833 75.8803 50.4345 75.7421C50.2858 75.6038 50.1957 75.4133 50.183 75.21C50.0705 74.2812 51.0178 73.6372 51.7425 73.2365Z" fill="#E6A07A"/>
</g>
<path d="M47.2051 80.8087C47.2051 80.8087 47.2719 81.4372 47.4777 82.3813C47.8845 84.4305 48.6949 86.3771 49.8612 88.1068C50.4745 89.0416 51.3236 89.7961 52.3219 90.2931C53.3202 90.79 54.4318 91.0117 55.5432 90.9354C56.7098 90.8438 57.8306 90.4393 58.7887 89.7641C59.7469 89.0889 60.5074 88.1678 60.9909 87.0966C61.9211 85.2025 62.5024 83.1548 62.7067 81.0525C62.8258 80.0038 62.8301 79.3101 62.8301 79.3101C57.9572 81.6341 52.4273 82.1645 47.2051 80.8087V80.8087Z" fill="#9F2236"/>
<path d="M50.0163 19.1686C51.0973 20.9768 51.7554 23.0083 51.9409 25.1096C52.1265 27.211 51.8347 29.3272 51.0875 31.2986C49.5443 35.2451 46.7922 38.5957 43.2294 40.8658C39.3023 43.4865 34.6333 45.0232 31.2069 48.2772C28.1857 51.1752 26.418 55.1504 26.2851 59.3462C26.1878 62.9832 27.3356 66.5435 27.5066 70.1778C27.7525 75.4048 25.982 80.4806 24.7824 85.5726C23.5828 90.6646 23.0063 96.2854 25.4428 100.91C23.8254 98.9815 22.6553 96.7157 22.0173 94.2764C21.3793 91.8372 21.2894 89.2857 21.7543 86.8073C22.3341 84.4772 23.0558 82.1852 23.9153 79.9442C25.9502 73.7046 26.3084 66.5822 23.2204 60.7959C21.8358 58.2013 19.8279 55.9908 18.3739 53.4348C15.6638 48.4378 14.9319 42.596 16.3249 37.0795C17.7457 31.5979 20.6845 26.6339 24.8 22.7645C30.5763 17.1798 38.8279 13.5951 46.6612 15.2972L50.0163 19.1686Z" fill="#662920"/>
<path d="M38.3047 12.1411C39.8106 16.7394 53.695 29.6095 57.6115 32.4264C61.6118 35.2801 65.7658 37.9096 70.0546 40.3027C72.2294 41.3757 74.2414 42.7543 76.03 44.397C79.7305 48.1925 80.4935 54.0005 80.1247 59.3022C79.756 64.6039 78.4612 69.8691 78.846 75.1696C79.2394 80.5898 81.369 85.7357 82.1383 91.1149C83.3016 99.2497 82.5538 101.573 77.737 108.213C83.1459 102.752 85.0559 101.639 86.4789 94.0658C86.9878 91.5214 87.208 88.9272 87.1353 86.333C87.018 83.4022 86.4111 80.5164 86.0391 77.6072C85.379 72.773 85.4977 67.8634 86.3906 63.0671C87.5759 57.0111 90.1915 51.2443 90.7052 45.0939C91.2217 38.9114 89.5763 32.7564 87.5673 26.89C86.5123 23.8092 85.2732 20.6438 82.8774 18.4494C80.8147 16.5602 78.1045 15.5858 75.4716 14.6567C71.3185 13.1913 66.9725 11.7038 62.6101 12.2925L38.3047 12.1411Z" fill="#662920"/>
<path d="M47.2051 80.8087C47.2051 80.8087 47.2719 81.4372 47.4777 82.3813C49.5761 83.7015 51.9837 84.4423 54.4578 84.5288C58.2246 84.6209 61.3729 82.2421 62.7067 81.0525C62.8258 80.0038 62.8301 79.3101 62.8301 79.3101C57.9572 81.6341 52.4273 82.1645 47.2051 80.8087V80.8087Z" fill="white"/>
<path d="M49.8633 88.106C50.4765 89.0409 51.3257 89.7953 52.324 90.2923C53.3222 90.7893 54.4339 91.0109 55.5452 90.9346C56.7118 90.843 57.8326 90.4386 58.7908 89.7634C59.7489 89.0882 60.5094 88.167 60.9929 87.0958C60.0646 86.7689 59.0764 86.6501 58.0975 86.7477C57.1187 86.8454 56.1729 87.1571 55.3266 87.661C55.3266 87.661 53.0461 86.484 49.8633 88.106Z" fill="#FF6551"/>
<path d="M22.6895 46.3735C23.3118 44.479 24.3728 42.7602 25.7852 41.3587C28.6792 38.4011 32.3929 36.524 35.7891 34.239C36.7471 33.5944 37.6692 32.8955 38.5715 32.1748C39.5359 31.4851 40.4035 30.6678 41.1506 29.745C41.2826 29.5612 41.6129 29.749 41.497 29.9529C40.9493 31.0352 40.3011 32.0631 39.5611 33.0229C38.7821 33.9076 37.9156 34.7104 36.975 35.4189C34.9949 36.972 32.8135 38.2245 30.7626 39.6761C28.6652 41.04 26.8645 42.817 25.4692 44.8998C24.1343 46.9355 23.567 49.3838 23.8695 51.8029C23.8819 51.9257 23.8503 52.0488 23.7805 52.1503C23.7107 52.2518 23.6072 52.3249 23.4886 52.3566C23.37 52.3883 23.244 52.3765 23.1333 52.3233C23.0225 52.2701 22.9343 52.1789 22.8844 52.0662C22.5254 51.2036 22.3178 50.285 22.2708 49.3511C22.2543 48.3426 22.3956 47.3378 22.6895 46.3735Z" fill="#7A332D"/>
<path d="M18.6882 51.6793C18.6925 51.6541 18.7056 51.6312 18.7251 51.6148C18.7446 51.5984 18.7693 51.5895 18.7947 51.5896C18.8201 51.5897 18.8447 51.5989 18.864 51.6155C18.8834 51.6321 18.8963 51.655 18.9004 51.6802C19.3627 53.132 20.1229 54.47 21.1318 55.6079C22.1112 56.7885 23.0119 58.0328 23.828 59.3328C25.4301 62.4357 26.2273 65.8948 26.1458 69.3898C26.1774 73.1645 25.4831 76.9098 24.1011 80.4197C22.8426 83.6726 21.591 86.8236 21.7571 90.3802C22.019 93.9846 23.2473 97.4503 25.3117 100.409C25.5831 100.819 25.053 101.44 24.6588 101.051C22.4087 98.7513 20.9254 95.8052 20.4143 92.6206C19.8378 89.2692 20.1424 85.8247 21.298 82.6281C21.9217 80.7707 22.6651 78.9557 23.2115 77.072C23.7285 75.2631 24.051 73.4036 24.1736 71.5256C24.5073 67.8307 23.8884 64.1118 22.3768 60.7272C21.6064 59.1455 20.4769 57.7553 19.5952 56.2352C18.7492 54.879 18.4266 53.2583 18.6882 51.6793V51.6793Z" fill="#7A332D"/>
<path d="M10.4914 44.6361C12.4041 40.1702 15.3528 36.2297 19.0909 33.1441C20.9928 31.5945 23.1242 30.3536 25.4078 29.4666C27.9559 28.4903 30.5966 27.8384 33.007 26.5201C35.3215 25.2269 37.4159 23.5706 39.2111 21.6138C41.0834 19.6121 42.7031 17.386 44.0335 14.9858C44.1757 14.7285 44.6248 14.802 44.5648 15.1358C44.3873 16.3056 44.0793 17.4517 43.6468 18.5523C43.1921 19.6523 42.6412 20.7095 42.0006 21.7116C40.6604 23.7429 38.9972 25.5389 37.0775 27.0278C35.1388 28.5502 32.9708 29.7517 30.6554 30.5872C28.139 31.3694 25.6912 32.3593 23.3369 33.5466C14.7212 38.4241 10.2772 48.2789 9.67424 57.8748C9.26838 64.3343 10.4036 70.833 11.9022 77.0926C12.0454 77.6908 11.09 77.9268 10.8759 77.3668C6.92124 67.0208 5.96676 54.9728 10.4914 44.6361Z" fill="#7A332D"/>
<path d="M20.0845 19.8043C21.0956 17.7841 22.5898 16.0479 24.4331 14.7515C28.0377 12.117 32.2859 11.1527 36.4121 9.6988C38.3017 9.03299 40.7023 8.15191 41.8747 6.4117C42.1838 5.95279 42.9788 6.41821 42.7134 6.91504C42.3278 7.73545 41.8368 8.50145 41.2529 9.19343C40.6352 9.85535 39.9301 10.4289 39.1572 10.898C37.4492 11.8773 35.6429 12.672 33.7684 13.2687C29.8314 14.6791 25.93 16.4656 23.2455 19.8023C22.5039 20.6626 21.9027 21.6356 21.4642 22.6852C21.2367 23.1972 21.0415 23.7232 20.8797 24.2599C20.7957 24.8557 20.6677 25.4444 20.4966 26.0211C20.4403 26.1424 20.3505 26.2449 20.2378 26.3163C20.1252 26.3878 19.9945 26.4251 19.8613 26.4238C19.7281 26.4226 19.5981 26.3829 19.4868 26.3094C19.3755 26.2359 19.2875 26.1317 19.2335 26.0094C18.9134 24.9853 18.8704 23.894 19.1089 22.8477C19.2611 21.7852 19.591 20.7562 20.0845 19.8043V19.8043Z" fill="#7A332D"/>
<path d="M74.0337 42.1258C75.8985 42.9269 77.4952 44.2496 78.6339 45.9365C79.9459 47.6537 80.8886 49.6265 81.4021 51.7294C81.9835 54.0861 82.1547 56.5262 81.9084 58.9417C81.6616 61.5093 80.8601 63.9469 80.4288 66.4786C80.065 69.1639 80.0029 71.8818 80.2438 74.5811C80.3179 77.0845 80.5689 79.5794 80.9949 82.0471C81.485 84.5148 82.5932 86.7681 83.2529 89.1837C83.8313 91.3141 84.0771 93.5219 83.9815 95.7282C83.8878 97.831 83.4782 99.9073 82.7667 101.887C83.4464 100.624 84.0402 99.3171 84.5438 97.9739C85.8917 94.3555 86.603 90.529 86.6461 86.6654C86.6647 85.5367 86.5833 84.4166 86.4979 83.2924C86.3402 82.2685 86.2884 81.231 86.3432 80.1963C86.3451 80.1849 86.3503 80.1742 86.3581 80.1656C86.3659 80.157 86.376 80.1509 86.3872 80.148C86.3984 80.145 86.4102 80.1454 86.4212 80.1491C86.4322 80.1528 86.4419 80.1596 86.4491 80.1688C87.498 81.6399 87.6527 83.9056 87.7953 85.6496C87.9575 87.6794 87.892 89.7211 87.6001 91.7362C87.0415 95.7097 85.6784 99.5258 83.5948 102.949C82.4397 104.842 81.1018 106.882 79.1662 108.038C79.1332 108.055 79.0956 108.062 79.0585 108.057C79.0215 108.053 78.9868 108.037 78.9591 108.012C78.723 108.251 78.4791 108.486 78.2274 108.716C77.9159 109.001 77.5213 108.527 77.7373 108.213C80.1245 104.776 81.6027 100.785 82.0328 96.615C82.2213 94.5147 82.0686 92.3975 81.5809 90.3464C81.0427 88.0789 79.9786 85.9777 79.3865 83.724C78.8246 81.3851 78.4895 78.9969 78.3859 76.593C78.1738 74.0745 78.0977 71.5463 78.1578 69.0195C78.388 66.521 78.821 64.0456 79.4524 61.618C79.9505 59.289 80.1167 56.9007 79.946 54.5247C79.7491 52.1371 79.1172 49.8062 78.0818 47.6483C76.9863 45.6487 75.5711 43.8438 73.8929 42.3058C73.8037 42.2132 73.9352 42.0907 74.0337 42.1258Z" fill="#7A332D"/>
<path d="M53.4653 15.4107C53.8044 16.1661 54.2715 16.8342 54.6468 17.5656C55.0558 18.3625 55.4827 19.1492 55.9618 19.9062C56.8783 21.3484 57.9183 22.7074 59.07 23.9677C61.5096 26.5631 64.3093 28.7907 67.3824 30.5817C70.9311 32.6255 74.5877 34.474 78.336 36.119C81.7106 37.5691 84.9764 39.2624 88.1081 41.1858C91.3131 43.2692 94.1383 45.9624 95.4662 49.633C95.6485 50.1368 94.9416 50.6035 94.6213 50.117C90.6228 44.0464 83.7917 41.0947 77.4426 38.1959C70.3877 34.9749 63.1834 31.5944 57.9586 25.6518C56.6735 24.2087 55.5646 22.6164 54.6555 20.9087C54.2241 20.0945 53.8552 19.2483 53.552 18.3776C53.2811 17.4473 53.1108 16.4903 53.0441 15.5232C53.0389 15.4708 53.0524 15.4182 53.0823 15.3749C53.1121 15.3315 53.1563 15.3003 53.207 15.2867C53.2577 15.2732 53.3115 15.2782 53.3588 15.3009C53.4062 15.3237 53.4439 15.3626 53.4653 15.4107V15.4107Z" fill="#7A332D"/>
<path d="M58.6269 9.57613C59.6212 10.5953 60.4943 11.7246 61.5048 12.7313C62.532 13.7693 63.6629 14.6982 64.8796 15.5031C67.4143 17.0846 70.067 18.4666 72.8138 19.6367C75.923 21.025 79.1062 22.2306 82.1603 23.7429C85.0093 25.1135 87.7027 26.7895 90.1936 28.7418C94.745 32.4612 98.4348 37.1337 101.006 42.4335C103.577 47.7334 104.967 53.5332 105.079 59.4286C105.174 63.1069 104.719 66.7786 103.73 70.3214C102.651 73.8382 101.131 77.203 99.2088 80.3352C99.1267 80.4749 98.9017 80.3903 98.9708 80.2318C99.6634 78.713 100.212 77.1318 100.608 75.5093C100.956 73.9805 101.335 72.4584 101.62 70.9158C102.196 67.8149 102.503 64.6696 102.538 61.5153C102.592 55.5808 101.291 49.7129 98.7359 44.3626C96.4114 39.5028 93.0795 35.1992 88.9639 31.7408C84.1334 27.685 78.2691 25.4315 72.6643 22.7031C69.5665 21.2991 66.6646 19.4938 64.0325 17.3333C61.7287 15.3362 59.0081 13.0071 58.0862 9.98612C57.997 9.69327 58.3542 9.29666 58.6269 9.57613Z" fill="#7A332D"/>
<path d="M60.0964 3.96326C60.7286 4.42546 61.4518 4.61508 62.085 5.07406C62.6945 5.51582 63.3202 5.93429 63.9619 6.32947C65.2003 7.09026 66.4881 7.76652 67.8166 8.35367C70.555 9.50225 73.3906 10.4008 76.2891 11.0386C79.3577 11.7236 82.25 13.0459 84.7804 14.9206C87.046 16.6496 89.1459 18.5877 91.0526 20.7097C92.1318 21.821 93.0663 23.0655 93.8337 24.4134C94.5111 25.7466 95.0079 27.165 95.3109 28.6307C95.3868 28.975 94.8753 29.0785 94.7395 28.7834C94.1414 27.5368 93.4004 26.3648 92.5315 25.2912C91.7144 24.2488 90.9321 23.1914 90.0294 22.2191C88.0963 20.1882 85.9536 18.3701 83.6374 16.7954C81.1343 15.1626 78.3453 14.0229 75.4189 13.437C72.5028 12.844 69.6743 11.8779 67.0025 10.5622C65.5925 9.8165 64.2441 8.95889 62.9699 7.99747C62.3062 7.49216 61.6635 6.96061 61.0418 6.40283C60.5054 5.79965 60.0114 5.15963 59.5634 4.48742C59.2772 4.15081 59.7622 3.71892 60.0964 3.96326Z" fill="#7A332D"/>
<path d="M42.4746 72.5595C45.0705 70.5911 45.5876 66.88 43.6296 64.2704C41.6715 61.6608 37.9798 61.141 35.3839 63.1093C32.788 65.0777 32.2709 68.7888 34.2289 71.3984C36.187 74.008 39.8787 74.5278 42.4746 72.5595Z" fill="white"/>
<path d="M43.5346 69.4435C44.4816 66.9963 43.2758 64.2406 40.8413 63.2886C38.4069 62.3366 35.6656 63.5488 34.7186 65.9961C33.7716 68.4433 34.9774 71.199 37.4119 72.151C39.8464 73.103 42.5876 71.8908 43.5346 69.4435Z" fill="black"/>
<path d="M42.0645 66.8722C42.263 67.1082 42.3874 67.3982 42.422 67.7054C42.4566 68.0125 42.3998 68.3231 42.2587 68.5978C42.1177 68.8725 41.8988 69.099 41.6298 69.2487C41.3607 69.3983 41.0535 69.4644 40.7471 69.4386C40.4407 69.4128 40.1487 69.2962 39.9082 69.1035C39.6677 68.9109 39.4894 68.6509 39.3959 68.3564C39.3024 68.062 39.2978 67.7462 39.3828 67.4491C39.4678 67.152 39.6385 66.887 39.8734 66.6874C40.0293 66.5549 40.2097 66.4546 40.4042 66.3921C40.5987 66.3297 40.8035 66.3064 41.007 66.3236C41.2105 66.3407 41.4086 66.398 41.59 66.4921C41.7715 66.5863 41.9327 66.7154 42.0645 66.8722V66.8722Z" fill="white"/>
<path d="M72.0903 73.3235C75.3079 72.8528 77.5368 69.849 77.0685 66.6144C76.6002 63.3798 73.6121 61.1393 70.3944 61.61C67.1768 62.0808 64.948 65.0846 65.4163 68.3192C65.8846 71.5538 68.8726 73.7943 72.0903 73.3235Z" fill="white"/>
<path d="M73.7483 71.1717C75.922 69.7154 76.5096 66.7634 75.0609 64.5783C73.6122 62.3933 70.6757 61.8025 68.5021 63.2588C66.3285 64.7152 65.7408 67.6671 67.1895 69.8522C68.6382 72.0372 71.5747 72.628 73.7483 71.1717Z" fill="black"/>
<path d="M67.9587 67.8092C68.0355 68.0796 68.1903 68.3211 68.4037 68.5031C68.617 68.6851 68.8793 68.7994 69.1572 68.8316C69.4352 68.8637 69.7164 68.8123 69.9653 68.6838C70.2142 68.5553 70.4196 68.3555 70.5555 68.1096C70.6915 67.8638 70.7518 67.5829 70.729 67.3026C70.7061 67.0222 70.6011 66.755 70.4272 66.5347C70.2532 66.3144 70.0182 66.1508 69.7518 66.0648C69.4854 65.9787 69.1997 65.974 68.9306 66.0512C68.5698 66.1548 68.2647 66.3982 68.0825 66.7278C67.9002 67.0575 67.8557 67.4465 67.9587 67.8092Z" fill="white"/>
</svg>
