<svg width="228" height="207" viewBox="0 0 228 207" fill="none" xmlns="http://www.w3.org/2000/svg">
<path d="M38.1589 205.099C37.8335 204.772 37.5556 204.4 37.3339 203.994C36.8617 203.2 36.6112 202.292 36.6112 201.367V165.224H31.4526C23.246 165.214 15.3781 161.947 9.5746 156.139C3.77255 150.332 0.507012 142.458 0.498535 134.245V30.9794C0.507173 22.7662 3.77248 14.8919 9.5746 9.08515C15.3781 3.27692 23.2464 0.0102036 31.4526 0.000244141H196.543C204.75 0.0103305 212.618 3.27684 218.421 9.08515C224.223 14.8919 227.489 22.7665 227.497 30.9794V134.245C227.489 142.458 224.223 150.332 218.421 156.139C212.618 161.947 204.749 165.214 196.543 165.224H85.3341L45.9301 204.785C44.8302 205.909 43.3285 206.55 41.7564 206.566C40.4045 206.583 39.103 206.055 38.1456 205.099L38.1589 205.099ZM46.9298 160.06V188.805L78.9162 156.689C80.0032 155.57 81.4862 154.926 83.0439 154.896H196.545C202.018 154.896 207.267 152.72 211.137 148.847C215.007 144.974 217.181 139.721 217.181 134.244V30.9786C217.181 25.5016 215.007 20.2482 211.137 16.3751C207.267 12.5019 202.018 10.3263 196.545 10.3263H31.4549C25.9824 10.3263 20.7332 12.5021 16.8632 16.3751C12.9932 20.248 10.8193 25.5016 10.8193 30.9786V134.244C10.8193 139.721 12.9933 144.974 16.8632 148.847C20.733 152.721 25.9824 154.896 31.4549 154.896H41.7735C43.1412 154.896 44.4542 155.441 45.4217 156.409C46.3892 157.377 46.932 158.69 46.932 160.06L46.9298 160.06ZM155.271 82.6121C155.271 79.873 156.358 77.2462 158.293 75.3096C160.228 73.373 162.853 72.2851 165.59 72.2851C168.325 72.2851 170.95 73.373 172.885 75.3096C174.82 77.2462 175.907 79.8729 175.907 82.6121C175.907 85.3513 174.82 87.9781 172.885 89.9146C170.95 91.8512 168.325 92.9391 165.59 92.9391C162.853 92.9391 160.228 91.8512 158.293 89.9146C156.358 87.9781 155.271 85.3513 155.271 82.6121ZM103.679 82.6121C103.679 79.873 104.766 77.2462 106.701 75.3096C108.636 73.373 111.26 72.2851 113.997 72.2851C116.734 72.2851 119.359 73.373 121.294 75.3096C123.229 77.2462 124.316 79.8729 124.316 82.6121C124.316 85.3513 123.229 87.9781 121.294 89.9146C119.359 91.8512 116.734 92.9391 113.997 92.9391C111.26 92.9391 108.636 91.8512 106.701 89.9146C104.766 87.9781 103.679 85.3513 103.679 82.6121ZM52.0861 82.6121H52.0875C52.0875 79.873 53.1745 77.2462 55.1095 75.3096C57.0445 73.373 59.6691 72.2851 62.4046 72.2851C65.1416 72.2851 67.7663 73.373 69.7012 75.3096C71.6363 77.2462 72.7232 79.8729 72.7232 82.6121C72.7232 85.3513 71.6363 87.9781 69.7012 89.9146C67.7663 91.8512 65.1417 92.9391 62.4046 92.9391C59.6691 92.9391 57.0445 91.8512 55.1095 89.9146C53.1745 87.9781 52.0875 85.3513 52.0875 82.6121H52.0861Z" fill="#EDF0F2" fill-opacity="0.8"/>
</svg>
