<svg width="51" height="50" viewBox="0 0 51 50" fill="none" xmlns="http://www.w3.org/2000/svg">
<path d="M5.27189 49.5983C5.58239 49.8184 6.01295 49.7432 6.23375 49.432C6.45317 49.1208 6.37865 48.6903 6.06746 48.4702L3.56552 46.7058C17.5118 46.5623 28.7181 42.4409 36.8829 34.4259C50.5138 21.0427 50.8209 1.2093 50.8223 1.01059C50.825 0.629013 50.5187 0.318512 50.1378 0.315063L50.1323 0.315063C49.7534 0.315063 49.445 0.620731 49.4423 0.999538C49.4409 1.19274 49.1428 20.4548 35.9155 33.4406C28.0522 41.1596 17.231 45.1671 3.74975 45.3272L6.05642 43.765C6.37175 43.5511 6.45455 43.122 6.24134 42.8066C6.10817 42.6093 5.89013 42.5037 5.66933 42.5037C5.53616 42.5037 5.40161 42.5424 5.28293 42.6224L0.231442 46.0434L5.27189 49.5983Z" fill="#BFC8EB"/>
</svg>
